%TF.GenerationSoftware,KiCad,Pcbnew,8.0.4*%
%TF.CreationDate,2024-08-29T20:02:28+09:00*%
%TF.ProjectId,esp_md3_servo3_sensor3,6573705f-6d64-4335-9f73-6572766f335f,rev?*%
%TF.SameCoordinates,Original*%
%TF.FileFunction,Legend,Top*%
%TF.FilePolarity,Positive*%
%FSLAX46Y46*%
G04 Gerber Fmt 4.6, Leading zero omitted, Abs format (unit mm)*
G04 Created by KiCad (PCBNEW 8.0.4) date 2024-08-29 20:02:28*
%MOMM*%
%LPD*%
G01*
G04 APERTURE LIST*
%ADD10C,0.150000*%
%ADD11C,0.120000*%
%ADD12C,0.127000*%
%ADD13C,0.200000*%
G04 APERTURE END LIST*
D10*
X196683333Y-128640819D02*
X196350000Y-128164628D01*
X196111905Y-128640819D02*
X196111905Y-127640819D01*
X196111905Y-127640819D02*
X196492857Y-127640819D01*
X196492857Y-127640819D02*
X196588095Y-127688438D01*
X196588095Y-127688438D02*
X196635714Y-127736057D01*
X196635714Y-127736057D02*
X196683333Y-127831295D01*
X196683333Y-127831295D02*
X196683333Y-127974152D01*
X196683333Y-127974152D02*
X196635714Y-128069390D01*
X196635714Y-128069390D02*
X196588095Y-128117009D01*
X196588095Y-128117009D02*
X196492857Y-128164628D01*
X196492857Y-128164628D02*
X196111905Y-128164628D01*
X197064286Y-127736057D02*
X197111905Y-127688438D01*
X197111905Y-127688438D02*
X197207143Y-127640819D01*
X197207143Y-127640819D02*
X197445238Y-127640819D01*
X197445238Y-127640819D02*
X197540476Y-127688438D01*
X197540476Y-127688438D02*
X197588095Y-127736057D01*
X197588095Y-127736057D02*
X197635714Y-127831295D01*
X197635714Y-127831295D02*
X197635714Y-127926533D01*
X197635714Y-127926533D02*
X197588095Y-128069390D01*
X197588095Y-128069390D02*
X197016667Y-128640819D01*
X197016667Y-128640819D02*
X197635714Y-128640819D01*
X153818819Y-117467523D02*
X152818819Y-117467523D01*
X152818819Y-117467523D02*
X153533104Y-117134190D01*
X153533104Y-117134190D02*
X152818819Y-116800857D01*
X152818819Y-116800857D02*
X153818819Y-116800857D01*
X153818819Y-116324666D02*
X152818819Y-116324666D01*
X152818819Y-116324666D02*
X152818819Y-116086571D01*
X152818819Y-116086571D02*
X152866438Y-115943714D01*
X152866438Y-115943714D02*
X152961676Y-115848476D01*
X152961676Y-115848476D02*
X153056914Y-115800857D01*
X153056914Y-115800857D02*
X153247390Y-115753238D01*
X153247390Y-115753238D02*
X153390247Y-115753238D01*
X153390247Y-115753238D02*
X153580723Y-115800857D01*
X153580723Y-115800857D02*
X153675961Y-115848476D01*
X153675961Y-115848476D02*
X153771200Y-115943714D01*
X153771200Y-115943714D02*
X153818819Y-116086571D01*
X153818819Y-116086571D02*
X153818819Y-116324666D01*
X152914057Y-115372285D02*
X152866438Y-115324666D01*
X152866438Y-115324666D02*
X152818819Y-115229428D01*
X152818819Y-115229428D02*
X152818819Y-114991333D01*
X152818819Y-114991333D02*
X152866438Y-114896095D01*
X152866438Y-114896095D02*
X152914057Y-114848476D01*
X152914057Y-114848476D02*
X153009295Y-114800857D01*
X153009295Y-114800857D02*
X153104533Y-114800857D01*
X153104533Y-114800857D02*
X153247390Y-114848476D01*
X153247390Y-114848476D02*
X153818819Y-115419904D01*
X153818819Y-115419904D02*
X153818819Y-114800857D01*
X156487905Y-74438819D02*
X156487905Y-73438819D01*
X156487905Y-73438819D02*
X156726000Y-73438819D01*
X156726000Y-73438819D02*
X156868857Y-73486438D01*
X156868857Y-73486438D02*
X156964095Y-73581676D01*
X156964095Y-73581676D02*
X157011714Y-73676914D01*
X157011714Y-73676914D02*
X157059333Y-73867390D01*
X157059333Y-73867390D02*
X157059333Y-74010247D01*
X157059333Y-74010247D02*
X157011714Y-74200723D01*
X157011714Y-74200723D02*
X156964095Y-74295961D01*
X156964095Y-74295961D02*
X156868857Y-74391200D01*
X156868857Y-74391200D02*
X156726000Y-74438819D01*
X156726000Y-74438819D02*
X156487905Y-74438819D01*
X158011714Y-74438819D02*
X157440286Y-74438819D01*
X157726000Y-74438819D02*
X157726000Y-73438819D01*
X157726000Y-73438819D02*
X157630762Y-73581676D01*
X157630762Y-73581676D02*
X157535524Y-73676914D01*
X157535524Y-73676914D02*
X157440286Y-73724533D01*
X153154095Y-75008819D02*
X153154095Y-74008819D01*
X153725523Y-75008819D02*
X153296952Y-74437390D01*
X153725523Y-74008819D02*
X153154095Y-74580247D01*
X195921333Y-122519580D02*
X195873714Y-122567200D01*
X195873714Y-122567200D02*
X195730857Y-122614819D01*
X195730857Y-122614819D02*
X195635619Y-122614819D01*
X195635619Y-122614819D02*
X195492762Y-122567200D01*
X195492762Y-122567200D02*
X195397524Y-122471961D01*
X195397524Y-122471961D02*
X195349905Y-122376723D01*
X195349905Y-122376723D02*
X195302286Y-122186247D01*
X195302286Y-122186247D02*
X195302286Y-122043390D01*
X195302286Y-122043390D02*
X195349905Y-121852914D01*
X195349905Y-121852914D02*
X195397524Y-121757676D01*
X195397524Y-121757676D02*
X195492762Y-121662438D01*
X195492762Y-121662438D02*
X195635619Y-121614819D01*
X195635619Y-121614819D02*
X195730857Y-121614819D01*
X195730857Y-121614819D02*
X195873714Y-121662438D01*
X195873714Y-121662438D02*
X195921333Y-121710057D01*
X196302286Y-121710057D02*
X196349905Y-121662438D01*
X196349905Y-121662438D02*
X196445143Y-121614819D01*
X196445143Y-121614819D02*
X196683238Y-121614819D01*
X196683238Y-121614819D02*
X196778476Y-121662438D01*
X196778476Y-121662438D02*
X196826095Y-121710057D01*
X196826095Y-121710057D02*
X196873714Y-121805295D01*
X196873714Y-121805295D02*
X196873714Y-121900533D01*
X196873714Y-121900533D02*
X196826095Y-122043390D01*
X196826095Y-122043390D02*
X196254667Y-122614819D01*
X196254667Y-122614819D02*
X196873714Y-122614819D01*
X127960571Y-74924509D02*
X127627238Y-74924509D01*
X127627238Y-75448319D02*
X127627238Y-74448319D01*
X127627238Y-74448319D02*
X128103428Y-74448319D01*
X128484381Y-75448319D02*
X128484381Y-74448319D01*
X128960571Y-75448319D02*
X128960571Y-74448319D01*
X128960571Y-74448319D02*
X129198666Y-74448319D01*
X129198666Y-74448319D02*
X129341523Y-74495938D01*
X129341523Y-74495938D02*
X129436761Y-74591176D01*
X129436761Y-74591176D02*
X129484380Y-74686414D01*
X129484380Y-74686414D02*
X129531999Y-74876890D01*
X129531999Y-74876890D02*
X129531999Y-75019747D01*
X129531999Y-75019747D02*
X129484380Y-75210223D01*
X129484380Y-75210223D02*
X129436761Y-75305461D01*
X129436761Y-75305461D02*
X129341523Y-75400700D01*
X129341523Y-75400700D02*
X129198666Y-75448319D01*
X129198666Y-75448319D02*
X128960571Y-75448319D01*
X130484380Y-75448319D02*
X129912952Y-75448319D01*
X130198666Y-75448319D02*
X130198666Y-74448319D01*
X130198666Y-74448319D02*
X130103428Y-74591176D01*
X130103428Y-74591176D02*
X130008190Y-74686414D01*
X130008190Y-74686414D02*
X129912952Y-74734033D01*
X212466819Y-141473999D02*
X212466819Y-141950189D01*
X212466819Y-141950189D02*
X211466819Y-141950189D01*
X212466819Y-141140665D02*
X211800152Y-141140665D01*
X211466819Y-141140665D02*
X211514438Y-141188284D01*
X211514438Y-141188284D02*
X211562057Y-141140665D01*
X211562057Y-141140665D02*
X211514438Y-141093046D01*
X211514438Y-141093046D02*
X211466819Y-141140665D01*
X211466819Y-141140665D02*
X211562057Y-141140665D01*
X212466819Y-140664475D02*
X211800152Y-140664475D01*
X211895390Y-140664475D02*
X211847771Y-140616856D01*
X211847771Y-140616856D02*
X211800152Y-140521618D01*
X211800152Y-140521618D02*
X211800152Y-140378761D01*
X211800152Y-140378761D02*
X211847771Y-140283523D01*
X211847771Y-140283523D02*
X211943009Y-140235904D01*
X211943009Y-140235904D02*
X212466819Y-140235904D01*
X211943009Y-140235904D02*
X211847771Y-140188285D01*
X211847771Y-140188285D02*
X211800152Y-140093047D01*
X211800152Y-140093047D02*
X211800152Y-139950190D01*
X211800152Y-139950190D02*
X211847771Y-139854951D01*
X211847771Y-139854951D02*
X211943009Y-139807332D01*
X211943009Y-139807332D02*
X212466819Y-139807332D01*
X212466819Y-139331142D02*
X211800152Y-139331142D01*
X211466819Y-139331142D02*
X211514438Y-139378761D01*
X211514438Y-139378761D02*
X211562057Y-139331142D01*
X211562057Y-139331142D02*
X211514438Y-139283523D01*
X211514438Y-139283523D02*
X211466819Y-139331142D01*
X211466819Y-139331142D02*
X211562057Y-139331142D01*
X211800152Y-138997809D02*
X211800152Y-138616857D01*
X211466819Y-138854952D02*
X212323961Y-138854952D01*
X212323961Y-138854952D02*
X212419200Y-138807333D01*
X212419200Y-138807333D02*
X212466819Y-138712095D01*
X212466819Y-138712095D02*
X212466819Y-138616857D01*
X212419200Y-138331142D02*
X212466819Y-138188285D01*
X212466819Y-138188285D02*
X212466819Y-137950190D01*
X212466819Y-137950190D02*
X212419200Y-137854952D01*
X212419200Y-137854952D02*
X212371580Y-137807333D01*
X212371580Y-137807333D02*
X212276342Y-137759714D01*
X212276342Y-137759714D02*
X212181104Y-137759714D01*
X212181104Y-137759714D02*
X212085866Y-137807333D01*
X212085866Y-137807333D02*
X212038247Y-137854952D01*
X212038247Y-137854952D02*
X211990628Y-137950190D01*
X211990628Y-137950190D02*
X211943009Y-138140666D01*
X211943009Y-138140666D02*
X211895390Y-138235904D01*
X211895390Y-138235904D02*
X211847771Y-138283523D01*
X211847771Y-138283523D02*
X211752533Y-138331142D01*
X211752533Y-138331142D02*
X211657295Y-138331142D01*
X211657295Y-138331142D02*
X211562057Y-138283523D01*
X211562057Y-138283523D02*
X211514438Y-138235904D01*
X211514438Y-138235904D02*
X211466819Y-138140666D01*
X211466819Y-138140666D02*
X211466819Y-137902571D01*
X211466819Y-137902571D02*
X211514438Y-137759714D01*
X211800152Y-137426380D02*
X212466819Y-137235904D01*
X212466819Y-137235904D02*
X211990628Y-137045428D01*
X211990628Y-137045428D02*
X212466819Y-136854952D01*
X212466819Y-136854952D02*
X211800152Y-136664476D01*
X212466819Y-136283523D02*
X211800152Y-136283523D01*
X211466819Y-136283523D02*
X211514438Y-136331142D01*
X211514438Y-136331142D02*
X211562057Y-136283523D01*
X211562057Y-136283523D02*
X211514438Y-136235904D01*
X211514438Y-136235904D02*
X211466819Y-136283523D01*
X211466819Y-136283523D02*
X211562057Y-136283523D01*
X211800152Y-135950190D02*
X211800152Y-135569238D01*
X211466819Y-135807333D02*
X212323961Y-135807333D01*
X212323961Y-135807333D02*
X212419200Y-135759714D01*
X212419200Y-135759714D02*
X212466819Y-135664476D01*
X212466819Y-135664476D02*
X212466819Y-135569238D01*
X212419200Y-134807333D02*
X212466819Y-134902571D01*
X212466819Y-134902571D02*
X212466819Y-135093047D01*
X212466819Y-135093047D02*
X212419200Y-135188285D01*
X212419200Y-135188285D02*
X212371580Y-135235904D01*
X212371580Y-135235904D02*
X212276342Y-135283523D01*
X212276342Y-135283523D02*
X211990628Y-135283523D01*
X211990628Y-135283523D02*
X211895390Y-135235904D01*
X211895390Y-135235904D02*
X211847771Y-135188285D01*
X211847771Y-135188285D02*
X211800152Y-135093047D01*
X211800152Y-135093047D02*
X211800152Y-134902571D01*
X211800152Y-134902571D02*
X211847771Y-134807333D01*
X212466819Y-134378761D02*
X211466819Y-134378761D01*
X212466819Y-133950190D02*
X211943009Y-133950190D01*
X211943009Y-133950190D02*
X211847771Y-133997809D01*
X211847771Y-133997809D02*
X211800152Y-134093047D01*
X211800152Y-134093047D02*
X211800152Y-134235904D01*
X211800152Y-134235904D02*
X211847771Y-134331142D01*
X211847771Y-134331142D02*
X211895390Y-134378761D01*
X212466819Y-132950190D02*
X212466819Y-133521618D01*
X212466819Y-133235904D02*
X211466819Y-133235904D01*
X211466819Y-133235904D02*
X211609676Y-133331142D01*
X211609676Y-133331142D02*
X211704914Y-133426380D01*
X211704914Y-133426380D02*
X211752533Y-133521618D01*
X212466819Y-131567999D02*
X212466819Y-132044189D01*
X212466819Y-132044189D02*
X211466819Y-132044189D01*
X212466819Y-131234665D02*
X211800152Y-131234665D01*
X211466819Y-131234665D02*
X211514438Y-131282284D01*
X211514438Y-131282284D02*
X211562057Y-131234665D01*
X211562057Y-131234665D02*
X211514438Y-131187046D01*
X211514438Y-131187046D02*
X211466819Y-131234665D01*
X211466819Y-131234665D02*
X211562057Y-131234665D01*
X212466819Y-130758475D02*
X211800152Y-130758475D01*
X211895390Y-130758475D02*
X211847771Y-130710856D01*
X211847771Y-130710856D02*
X211800152Y-130615618D01*
X211800152Y-130615618D02*
X211800152Y-130472761D01*
X211800152Y-130472761D02*
X211847771Y-130377523D01*
X211847771Y-130377523D02*
X211943009Y-130329904D01*
X211943009Y-130329904D02*
X212466819Y-130329904D01*
X211943009Y-130329904D02*
X211847771Y-130282285D01*
X211847771Y-130282285D02*
X211800152Y-130187047D01*
X211800152Y-130187047D02*
X211800152Y-130044190D01*
X211800152Y-130044190D02*
X211847771Y-129948951D01*
X211847771Y-129948951D02*
X211943009Y-129901332D01*
X211943009Y-129901332D02*
X212466819Y-129901332D01*
X212466819Y-129425142D02*
X211800152Y-129425142D01*
X211466819Y-129425142D02*
X211514438Y-129472761D01*
X211514438Y-129472761D02*
X211562057Y-129425142D01*
X211562057Y-129425142D02*
X211514438Y-129377523D01*
X211514438Y-129377523D02*
X211466819Y-129425142D01*
X211466819Y-129425142D02*
X211562057Y-129425142D01*
X211800152Y-129091809D02*
X211800152Y-128710857D01*
X211466819Y-128948952D02*
X212323961Y-128948952D01*
X212323961Y-128948952D02*
X212419200Y-128901333D01*
X212419200Y-128901333D02*
X212466819Y-128806095D01*
X212466819Y-128806095D02*
X212466819Y-128710857D01*
X212419200Y-128425142D02*
X212466819Y-128282285D01*
X212466819Y-128282285D02*
X212466819Y-128044190D01*
X212466819Y-128044190D02*
X212419200Y-127948952D01*
X212419200Y-127948952D02*
X212371580Y-127901333D01*
X212371580Y-127901333D02*
X212276342Y-127853714D01*
X212276342Y-127853714D02*
X212181104Y-127853714D01*
X212181104Y-127853714D02*
X212085866Y-127901333D01*
X212085866Y-127901333D02*
X212038247Y-127948952D01*
X212038247Y-127948952D02*
X211990628Y-128044190D01*
X211990628Y-128044190D02*
X211943009Y-128234666D01*
X211943009Y-128234666D02*
X211895390Y-128329904D01*
X211895390Y-128329904D02*
X211847771Y-128377523D01*
X211847771Y-128377523D02*
X211752533Y-128425142D01*
X211752533Y-128425142D02*
X211657295Y-128425142D01*
X211657295Y-128425142D02*
X211562057Y-128377523D01*
X211562057Y-128377523D02*
X211514438Y-128329904D01*
X211514438Y-128329904D02*
X211466819Y-128234666D01*
X211466819Y-128234666D02*
X211466819Y-127996571D01*
X211466819Y-127996571D02*
X211514438Y-127853714D01*
X211800152Y-127520380D02*
X212466819Y-127329904D01*
X212466819Y-127329904D02*
X211990628Y-127139428D01*
X211990628Y-127139428D02*
X212466819Y-126948952D01*
X212466819Y-126948952D02*
X211800152Y-126758476D01*
X212466819Y-126377523D02*
X211800152Y-126377523D01*
X211466819Y-126377523D02*
X211514438Y-126425142D01*
X211514438Y-126425142D02*
X211562057Y-126377523D01*
X211562057Y-126377523D02*
X211514438Y-126329904D01*
X211514438Y-126329904D02*
X211466819Y-126377523D01*
X211466819Y-126377523D02*
X211562057Y-126377523D01*
X211800152Y-126044190D02*
X211800152Y-125663238D01*
X211466819Y-125901333D02*
X212323961Y-125901333D01*
X212323961Y-125901333D02*
X212419200Y-125853714D01*
X212419200Y-125853714D02*
X212466819Y-125758476D01*
X212466819Y-125758476D02*
X212466819Y-125663238D01*
X212419200Y-124901333D02*
X212466819Y-124996571D01*
X212466819Y-124996571D02*
X212466819Y-125187047D01*
X212466819Y-125187047D02*
X212419200Y-125282285D01*
X212419200Y-125282285D02*
X212371580Y-125329904D01*
X212371580Y-125329904D02*
X212276342Y-125377523D01*
X212276342Y-125377523D02*
X211990628Y-125377523D01*
X211990628Y-125377523D02*
X211895390Y-125329904D01*
X211895390Y-125329904D02*
X211847771Y-125282285D01*
X211847771Y-125282285D02*
X211800152Y-125187047D01*
X211800152Y-125187047D02*
X211800152Y-124996571D01*
X211800152Y-124996571D02*
X211847771Y-124901333D01*
X212466819Y-124472761D02*
X211466819Y-124472761D01*
X212466819Y-124044190D02*
X211943009Y-124044190D01*
X211943009Y-124044190D02*
X211847771Y-124091809D01*
X211847771Y-124091809D02*
X211800152Y-124187047D01*
X211800152Y-124187047D02*
X211800152Y-124329904D01*
X211800152Y-124329904D02*
X211847771Y-124425142D01*
X211847771Y-124425142D02*
X211895390Y-124472761D01*
X211562057Y-123615618D02*
X211514438Y-123567999D01*
X211514438Y-123567999D02*
X211466819Y-123472761D01*
X211466819Y-123472761D02*
X211466819Y-123234666D01*
X211466819Y-123234666D02*
X211514438Y-123139428D01*
X211514438Y-123139428D02*
X211562057Y-123091809D01*
X211562057Y-123091809D02*
X211657295Y-123044190D01*
X211657295Y-123044190D02*
X211752533Y-123044190D01*
X211752533Y-123044190D02*
X211895390Y-123091809D01*
X211895390Y-123091809D02*
X212466819Y-123663237D01*
X212466819Y-123663237D02*
X212466819Y-123044190D01*
X174878152Y-82696476D02*
X175544819Y-82696476D01*
X174497200Y-82934571D02*
X175211485Y-83172666D01*
X175211485Y-83172666D02*
X175211485Y-82553619D01*
X174544819Y-82267904D02*
X174544819Y-81601238D01*
X174544819Y-81601238D02*
X175544819Y-82029809D01*
X174544819Y-81029809D02*
X174544819Y-80934571D01*
X174544819Y-80934571D02*
X174592438Y-80839333D01*
X174592438Y-80839333D02*
X174640057Y-80791714D01*
X174640057Y-80791714D02*
X174735295Y-80744095D01*
X174735295Y-80744095D02*
X174925771Y-80696476D01*
X174925771Y-80696476D02*
X175163866Y-80696476D01*
X175163866Y-80696476D02*
X175354342Y-80744095D01*
X175354342Y-80744095D02*
X175449580Y-80791714D01*
X175449580Y-80791714D02*
X175497200Y-80839333D01*
X175497200Y-80839333D02*
X175544819Y-80934571D01*
X175544819Y-80934571D02*
X175544819Y-81029809D01*
X175544819Y-81029809D02*
X175497200Y-81125047D01*
X175497200Y-81125047D02*
X175449580Y-81172666D01*
X175449580Y-81172666D02*
X175354342Y-81220285D01*
X175354342Y-81220285D02*
X175163866Y-81267904D01*
X175163866Y-81267904D02*
X174925771Y-81267904D01*
X174925771Y-81267904D02*
X174735295Y-81220285D01*
X174735295Y-81220285D02*
X174640057Y-81172666D01*
X174640057Y-81172666D02*
X174592438Y-81125047D01*
X174592438Y-81125047D02*
X174544819Y-81029809D01*
X174878152Y-79839333D02*
X175544819Y-79839333D01*
X174878152Y-80267904D02*
X175401961Y-80267904D01*
X175401961Y-80267904D02*
X175497200Y-80220285D01*
X175497200Y-80220285D02*
X175544819Y-80125047D01*
X175544819Y-80125047D02*
X175544819Y-79982190D01*
X175544819Y-79982190D02*
X175497200Y-79886952D01*
X175497200Y-79886952D02*
X175449580Y-79839333D01*
X175544819Y-78839333D02*
X175544819Y-79410761D01*
X175544819Y-79125047D02*
X174544819Y-79125047D01*
X174544819Y-79125047D02*
X174687676Y-79220285D01*
X174687676Y-79220285D02*
X174782914Y-79315523D01*
X174782914Y-79315523D02*
X174830533Y-79410761D01*
X196429333Y-116448819D02*
X196096000Y-115972628D01*
X195857905Y-116448819D02*
X195857905Y-115448819D01*
X195857905Y-115448819D02*
X196238857Y-115448819D01*
X196238857Y-115448819D02*
X196334095Y-115496438D01*
X196334095Y-115496438D02*
X196381714Y-115544057D01*
X196381714Y-115544057D02*
X196429333Y-115639295D01*
X196429333Y-115639295D02*
X196429333Y-115782152D01*
X196429333Y-115782152D02*
X196381714Y-115877390D01*
X196381714Y-115877390D02*
X196334095Y-115925009D01*
X196334095Y-115925009D02*
X196238857Y-115972628D01*
X196238857Y-115972628D02*
X195857905Y-115972628D01*
X197381714Y-116448819D02*
X196810286Y-116448819D01*
X197096000Y-116448819D02*
X197096000Y-115448819D01*
X197096000Y-115448819D02*
X197000762Y-115591676D01*
X197000762Y-115591676D02*
X196905524Y-115686914D01*
X196905524Y-115686914D02*
X196810286Y-115734533D01*
X141732095Y-73962819D02*
X141732095Y-72962819D01*
X141732095Y-73439009D02*
X142303523Y-73439009D01*
X142303523Y-73962819D02*
X142303523Y-72962819D01*
X143303523Y-73962819D02*
X142732095Y-73962819D01*
X143017809Y-73962819D02*
X143017809Y-72962819D01*
X143017809Y-72962819D02*
X142922571Y-73105676D01*
X142922571Y-73105676D02*
X142827333Y-73200914D01*
X142827333Y-73200914D02*
X142732095Y-73248533D01*
X148144819Y-84073904D02*
X148954342Y-84073904D01*
X148954342Y-84073904D02*
X149049580Y-84026285D01*
X149049580Y-84026285D02*
X149097200Y-83978666D01*
X149097200Y-83978666D02*
X149144819Y-83883428D01*
X149144819Y-83883428D02*
X149144819Y-83692952D01*
X149144819Y-83692952D02*
X149097200Y-83597714D01*
X149097200Y-83597714D02*
X149049580Y-83550095D01*
X149049580Y-83550095D02*
X148954342Y-83502476D01*
X148954342Y-83502476D02*
X148144819Y-83502476D01*
X148240057Y-83073904D02*
X148192438Y-83026285D01*
X148192438Y-83026285D02*
X148144819Y-82931047D01*
X148144819Y-82931047D02*
X148144819Y-82692952D01*
X148144819Y-82692952D02*
X148192438Y-82597714D01*
X148192438Y-82597714D02*
X148240057Y-82550095D01*
X148240057Y-82550095D02*
X148335295Y-82502476D01*
X148335295Y-82502476D02*
X148430533Y-82502476D01*
X148430533Y-82502476D02*
X148573390Y-82550095D01*
X148573390Y-82550095D02*
X149144819Y-83121523D01*
X149144819Y-83121523D02*
X149144819Y-82502476D01*
X150487580Y-87542666D02*
X150535200Y-87590285D01*
X150535200Y-87590285D02*
X150582819Y-87733142D01*
X150582819Y-87733142D02*
X150582819Y-87828380D01*
X150582819Y-87828380D02*
X150535200Y-87971237D01*
X150535200Y-87971237D02*
X150439961Y-88066475D01*
X150439961Y-88066475D02*
X150344723Y-88114094D01*
X150344723Y-88114094D02*
X150154247Y-88161713D01*
X150154247Y-88161713D02*
X150011390Y-88161713D01*
X150011390Y-88161713D02*
X149820914Y-88114094D01*
X149820914Y-88114094D02*
X149725676Y-88066475D01*
X149725676Y-88066475D02*
X149630438Y-87971237D01*
X149630438Y-87971237D02*
X149582819Y-87828380D01*
X149582819Y-87828380D02*
X149582819Y-87733142D01*
X149582819Y-87733142D02*
X149630438Y-87590285D01*
X149630438Y-87590285D02*
X149678057Y-87542666D01*
X149916152Y-86685523D02*
X150582819Y-86685523D01*
X149535200Y-86923618D02*
X150249485Y-87161713D01*
X150249485Y-87161713D02*
X150249485Y-86542666D01*
X196429333Y-139054819D02*
X196096000Y-138578628D01*
X195857905Y-139054819D02*
X195857905Y-138054819D01*
X195857905Y-138054819D02*
X196238857Y-138054819D01*
X196238857Y-138054819D02*
X196334095Y-138102438D01*
X196334095Y-138102438D02*
X196381714Y-138150057D01*
X196381714Y-138150057D02*
X196429333Y-138245295D01*
X196429333Y-138245295D02*
X196429333Y-138388152D01*
X196429333Y-138388152D02*
X196381714Y-138483390D01*
X196381714Y-138483390D02*
X196334095Y-138531009D01*
X196334095Y-138531009D02*
X196238857Y-138578628D01*
X196238857Y-138578628D02*
X195857905Y-138578628D01*
X196762667Y-138054819D02*
X197381714Y-138054819D01*
X197381714Y-138054819D02*
X197048381Y-138435771D01*
X197048381Y-138435771D02*
X197191238Y-138435771D01*
X197191238Y-138435771D02*
X197286476Y-138483390D01*
X197286476Y-138483390D02*
X197334095Y-138531009D01*
X197334095Y-138531009D02*
X197381714Y-138626247D01*
X197381714Y-138626247D02*
X197381714Y-138864342D01*
X197381714Y-138864342D02*
X197334095Y-138959580D01*
X197334095Y-138959580D02*
X197286476Y-139007200D01*
X197286476Y-139007200D02*
X197191238Y-139054819D01*
X197191238Y-139054819D02*
X196905524Y-139054819D01*
X196905524Y-139054819D02*
X196810286Y-139007200D01*
X196810286Y-139007200D02*
X196762667Y-138959580D01*
X224480571Y-140964509D02*
X224147238Y-140964509D01*
X224147238Y-141488319D02*
X224147238Y-140488319D01*
X224147238Y-140488319D02*
X224623428Y-140488319D01*
X225004381Y-141488319D02*
X225004381Y-140488319D01*
X225480571Y-141488319D02*
X225480571Y-140488319D01*
X225480571Y-140488319D02*
X225718666Y-140488319D01*
X225718666Y-140488319D02*
X225861523Y-140535938D01*
X225861523Y-140535938D02*
X225956761Y-140631176D01*
X225956761Y-140631176D02*
X226004380Y-140726414D01*
X226004380Y-140726414D02*
X226051999Y-140916890D01*
X226051999Y-140916890D02*
X226051999Y-141059747D01*
X226051999Y-141059747D02*
X226004380Y-141250223D01*
X226004380Y-141250223D02*
X225956761Y-141345461D01*
X225956761Y-141345461D02*
X225861523Y-141440700D01*
X225861523Y-141440700D02*
X225718666Y-141488319D01*
X225718666Y-141488319D02*
X225480571Y-141488319D01*
X226385333Y-140488319D02*
X227004380Y-140488319D01*
X227004380Y-140488319D02*
X226671047Y-140869271D01*
X226671047Y-140869271D02*
X226813904Y-140869271D01*
X226813904Y-140869271D02*
X226909142Y-140916890D01*
X226909142Y-140916890D02*
X226956761Y-140964509D01*
X226956761Y-140964509D02*
X227004380Y-141059747D01*
X227004380Y-141059747D02*
X227004380Y-141297842D01*
X227004380Y-141297842D02*
X226956761Y-141393080D01*
X226956761Y-141393080D02*
X226909142Y-141440700D01*
X226909142Y-141440700D02*
X226813904Y-141488319D01*
X226813904Y-141488319D02*
X226528190Y-141488319D01*
X226528190Y-141488319D02*
X226432952Y-141440700D01*
X226432952Y-141440700D02*
X226385333Y-141393080D01*
X224734571Y-74924509D02*
X224401238Y-74924509D01*
X224401238Y-75448319D02*
X224401238Y-74448319D01*
X224401238Y-74448319D02*
X224877428Y-74448319D01*
X225258381Y-75448319D02*
X225258381Y-74448319D01*
X225734571Y-75448319D02*
X225734571Y-74448319D01*
X225734571Y-74448319D02*
X225972666Y-74448319D01*
X225972666Y-74448319D02*
X226115523Y-74495938D01*
X226115523Y-74495938D02*
X226210761Y-74591176D01*
X226210761Y-74591176D02*
X226258380Y-74686414D01*
X226258380Y-74686414D02*
X226305999Y-74876890D01*
X226305999Y-74876890D02*
X226305999Y-75019747D01*
X226305999Y-75019747D02*
X226258380Y-75210223D01*
X226258380Y-75210223D02*
X226210761Y-75305461D01*
X226210761Y-75305461D02*
X226115523Y-75400700D01*
X226115523Y-75400700D02*
X225972666Y-75448319D01*
X225972666Y-75448319D02*
X225734571Y-75448319D01*
X226686952Y-74543557D02*
X226734571Y-74495938D01*
X226734571Y-74495938D02*
X226829809Y-74448319D01*
X226829809Y-74448319D02*
X227067904Y-74448319D01*
X227067904Y-74448319D02*
X227163142Y-74495938D01*
X227163142Y-74495938D02*
X227210761Y-74543557D01*
X227210761Y-74543557D02*
X227258380Y-74638795D01*
X227258380Y-74638795D02*
X227258380Y-74734033D01*
X227258380Y-74734033D02*
X227210761Y-74876890D01*
X227210761Y-74876890D02*
X226639333Y-75448319D01*
X226639333Y-75448319D02*
X227258380Y-75448319D01*
X128468571Y-141218509D02*
X128135238Y-141218509D01*
X128135238Y-141742319D02*
X128135238Y-140742319D01*
X128135238Y-140742319D02*
X128611428Y-140742319D01*
X128992381Y-141742319D02*
X128992381Y-140742319D01*
X129468571Y-141742319D02*
X129468571Y-140742319D01*
X129468571Y-140742319D02*
X129706666Y-140742319D01*
X129706666Y-140742319D02*
X129849523Y-140789938D01*
X129849523Y-140789938D02*
X129944761Y-140885176D01*
X129944761Y-140885176D02*
X129992380Y-140980414D01*
X129992380Y-140980414D02*
X130039999Y-141170890D01*
X130039999Y-141170890D02*
X130039999Y-141313747D01*
X130039999Y-141313747D02*
X129992380Y-141504223D01*
X129992380Y-141504223D02*
X129944761Y-141599461D01*
X129944761Y-141599461D02*
X129849523Y-141694700D01*
X129849523Y-141694700D02*
X129706666Y-141742319D01*
X129706666Y-141742319D02*
X129468571Y-141742319D01*
X130897142Y-141075652D02*
X130897142Y-141742319D01*
X130659047Y-140694700D02*
X130420952Y-141408985D01*
X130420952Y-141408985D02*
X131039999Y-141408985D01*
X196195333Y-132425580D02*
X196147714Y-132473200D01*
X196147714Y-132473200D02*
X196004857Y-132520819D01*
X196004857Y-132520819D02*
X195909619Y-132520819D01*
X195909619Y-132520819D02*
X195766762Y-132473200D01*
X195766762Y-132473200D02*
X195671524Y-132377961D01*
X195671524Y-132377961D02*
X195623905Y-132282723D01*
X195623905Y-132282723D02*
X195576286Y-132092247D01*
X195576286Y-132092247D02*
X195576286Y-131949390D01*
X195576286Y-131949390D02*
X195623905Y-131758914D01*
X195623905Y-131758914D02*
X195671524Y-131663676D01*
X195671524Y-131663676D02*
X195766762Y-131568438D01*
X195766762Y-131568438D02*
X195909619Y-131520819D01*
X195909619Y-131520819D02*
X196004857Y-131520819D01*
X196004857Y-131520819D02*
X196147714Y-131568438D01*
X196147714Y-131568438D02*
X196195333Y-131616057D01*
X196528667Y-131520819D02*
X197147714Y-131520819D01*
X197147714Y-131520819D02*
X196814381Y-131901771D01*
X196814381Y-131901771D02*
X196957238Y-131901771D01*
X196957238Y-131901771D02*
X197052476Y-131949390D01*
X197052476Y-131949390D02*
X197100095Y-131997009D01*
X197100095Y-131997009D02*
X197147714Y-132092247D01*
X197147714Y-132092247D02*
X197147714Y-132330342D01*
X197147714Y-132330342D02*
X197100095Y-132425580D01*
X197100095Y-132425580D02*
X197052476Y-132473200D01*
X197052476Y-132473200D02*
X196957238Y-132520819D01*
X196957238Y-132520819D02*
X196671524Y-132520819D01*
X196671524Y-132520819D02*
X196576286Y-132473200D01*
X196576286Y-132473200D02*
X196528667Y-132425580D01*
X183738152Y-82653778D02*
X184404819Y-82653778D01*
X183357200Y-82891873D02*
X184071485Y-83129968D01*
X184071485Y-83129968D02*
X184071485Y-82510921D01*
X183404819Y-82225206D02*
X183404819Y-81558540D01*
X183404819Y-81558540D02*
X184404819Y-81987111D01*
X183404819Y-80987111D02*
X183404819Y-80891873D01*
X183404819Y-80891873D02*
X183452438Y-80796635D01*
X183452438Y-80796635D02*
X183500057Y-80749016D01*
X183500057Y-80749016D02*
X183595295Y-80701397D01*
X183595295Y-80701397D02*
X183785771Y-80653778D01*
X183785771Y-80653778D02*
X184023866Y-80653778D01*
X184023866Y-80653778D02*
X184214342Y-80701397D01*
X184214342Y-80701397D02*
X184309580Y-80749016D01*
X184309580Y-80749016D02*
X184357200Y-80796635D01*
X184357200Y-80796635D02*
X184404819Y-80891873D01*
X184404819Y-80891873D02*
X184404819Y-80987111D01*
X184404819Y-80987111D02*
X184357200Y-81082349D01*
X184357200Y-81082349D02*
X184309580Y-81129968D01*
X184309580Y-81129968D02*
X184214342Y-81177587D01*
X184214342Y-81177587D02*
X184023866Y-81225206D01*
X184023866Y-81225206D02*
X183785771Y-81225206D01*
X183785771Y-81225206D02*
X183595295Y-81177587D01*
X183595295Y-81177587D02*
X183500057Y-81129968D01*
X183500057Y-81129968D02*
X183452438Y-81082349D01*
X183452438Y-81082349D02*
X183404819Y-80987111D01*
X183738152Y-79796635D02*
X184404819Y-79796635D01*
X183738152Y-80225206D02*
X184261961Y-80225206D01*
X184261961Y-80225206D02*
X184357200Y-80177587D01*
X184357200Y-80177587D02*
X184404819Y-80082349D01*
X184404819Y-80082349D02*
X184404819Y-79939492D01*
X184404819Y-79939492D02*
X184357200Y-79844254D01*
X184357200Y-79844254D02*
X184309580Y-79796635D01*
X183500057Y-79368063D02*
X183452438Y-79320444D01*
X183452438Y-79320444D02*
X183404819Y-79225206D01*
X183404819Y-79225206D02*
X183404819Y-78987111D01*
X183404819Y-78987111D02*
X183452438Y-78891873D01*
X183452438Y-78891873D02*
X183500057Y-78844254D01*
X183500057Y-78844254D02*
X183595295Y-78796635D01*
X183595295Y-78796635D02*
X183690533Y-78796635D01*
X183690533Y-78796635D02*
X183833390Y-78844254D01*
X183833390Y-78844254D02*
X184404819Y-79415682D01*
X184404819Y-79415682D02*
X184404819Y-78796635D01*
X170525580Y-79688666D02*
X170573200Y-79736285D01*
X170573200Y-79736285D02*
X170620819Y-79879142D01*
X170620819Y-79879142D02*
X170620819Y-79974380D01*
X170620819Y-79974380D02*
X170573200Y-80117237D01*
X170573200Y-80117237D02*
X170477961Y-80212475D01*
X170477961Y-80212475D02*
X170382723Y-80260094D01*
X170382723Y-80260094D02*
X170192247Y-80307713D01*
X170192247Y-80307713D02*
X170049390Y-80307713D01*
X170049390Y-80307713D02*
X169858914Y-80260094D01*
X169858914Y-80260094D02*
X169763676Y-80212475D01*
X169763676Y-80212475D02*
X169668438Y-80117237D01*
X169668438Y-80117237D02*
X169620819Y-79974380D01*
X169620819Y-79974380D02*
X169620819Y-79879142D01*
X169620819Y-79879142D02*
X169668438Y-79736285D01*
X169668438Y-79736285D02*
X169716057Y-79688666D01*
X169620819Y-78783904D02*
X169620819Y-79260094D01*
X169620819Y-79260094D02*
X170097009Y-79307713D01*
X170097009Y-79307713D02*
X170049390Y-79260094D01*
X170049390Y-79260094D02*
X170001771Y-79164856D01*
X170001771Y-79164856D02*
X170001771Y-78926761D01*
X170001771Y-78926761D02*
X170049390Y-78831523D01*
X170049390Y-78831523D02*
X170097009Y-78783904D01*
X170097009Y-78783904D02*
X170192247Y-78736285D01*
X170192247Y-78736285D02*
X170430342Y-78736285D01*
X170430342Y-78736285D02*
X170525580Y-78783904D01*
X170525580Y-78783904D02*
X170573200Y-78831523D01*
X170573200Y-78831523D02*
X170620819Y-78926761D01*
X170620819Y-78926761D02*
X170620819Y-79164856D01*
X170620819Y-79164856D02*
X170573200Y-79260094D01*
X170573200Y-79260094D02*
X170525580Y-79307713D01*
X197866095Y-73962819D02*
X197866095Y-72962819D01*
X197866095Y-73439009D02*
X198437523Y-73439009D01*
X198437523Y-73962819D02*
X198437523Y-72962819D01*
X199342285Y-73296152D02*
X199342285Y-73962819D01*
X199104190Y-72915200D02*
X198866095Y-73629485D01*
X198866095Y-73629485D02*
X199485142Y-73629485D01*
X212466819Y-121621999D02*
X212466819Y-122098189D01*
X212466819Y-122098189D02*
X211466819Y-122098189D01*
X212466819Y-121288665D02*
X211800152Y-121288665D01*
X211466819Y-121288665D02*
X211514438Y-121336284D01*
X211514438Y-121336284D02*
X211562057Y-121288665D01*
X211562057Y-121288665D02*
X211514438Y-121241046D01*
X211514438Y-121241046D02*
X211466819Y-121288665D01*
X211466819Y-121288665D02*
X211562057Y-121288665D01*
X212466819Y-120812475D02*
X211800152Y-120812475D01*
X211895390Y-120812475D02*
X211847771Y-120764856D01*
X211847771Y-120764856D02*
X211800152Y-120669618D01*
X211800152Y-120669618D02*
X211800152Y-120526761D01*
X211800152Y-120526761D02*
X211847771Y-120431523D01*
X211847771Y-120431523D02*
X211943009Y-120383904D01*
X211943009Y-120383904D02*
X212466819Y-120383904D01*
X211943009Y-120383904D02*
X211847771Y-120336285D01*
X211847771Y-120336285D02*
X211800152Y-120241047D01*
X211800152Y-120241047D02*
X211800152Y-120098190D01*
X211800152Y-120098190D02*
X211847771Y-120002951D01*
X211847771Y-120002951D02*
X211943009Y-119955332D01*
X211943009Y-119955332D02*
X212466819Y-119955332D01*
X212466819Y-119479142D02*
X211800152Y-119479142D01*
X211466819Y-119479142D02*
X211514438Y-119526761D01*
X211514438Y-119526761D02*
X211562057Y-119479142D01*
X211562057Y-119479142D02*
X211514438Y-119431523D01*
X211514438Y-119431523D02*
X211466819Y-119479142D01*
X211466819Y-119479142D02*
X211562057Y-119479142D01*
X211800152Y-119145809D02*
X211800152Y-118764857D01*
X211466819Y-119002952D02*
X212323961Y-119002952D01*
X212323961Y-119002952D02*
X212419200Y-118955333D01*
X212419200Y-118955333D02*
X212466819Y-118860095D01*
X212466819Y-118860095D02*
X212466819Y-118764857D01*
X212419200Y-118479142D02*
X212466819Y-118336285D01*
X212466819Y-118336285D02*
X212466819Y-118098190D01*
X212466819Y-118098190D02*
X212419200Y-118002952D01*
X212419200Y-118002952D02*
X212371580Y-117955333D01*
X212371580Y-117955333D02*
X212276342Y-117907714D01*
X212276342Y-117907714D02*
X212181104Y-117907714D01*
X212181104Y-117907714D02*
X212085866Y-117955333D01*
X212085866Y-117955333D02*
X212038247Y-118002952D01*
X212038247Y-118002952D02*
X211990628Y-118098190D01*
X211990628Y-118098190D02*
X211943009Y-118288666D01*
X211943009Y-118288666D02*
X211895390Y-118383904D01*
X211895390Y-118383904D02*
X211847771Y-118431523D01*
X211847771Y-118431523D02*
X211752533Y-118479142D01*
X211752533Y-118479142D02*
X211657295Y-118479142D01*
X211657295Y-118479142D02*
X211562057Y-118431523D01*
X211562057Y-118431523D02*
X211514438Y-118383904D01*
X211514438Y-118383904D02*
X211466819Y-118288666D01*
X211466819Y-118288666D02*
X211466819Y-118050571D01*
X211466819Y-118050571D02*
X211514438Y-117907714D01*
X211800152Y-117574380D02*
X212466819Y-117383904D01*
X212466819Y-117383904D02*
X211990628Y-117193428D01*
X211990628Y-117193428D02*
X212466819Y-117002952D01*
X212466819Y-117002952D02*
X211800152Y-116812476D01*
X212466819Y-116431523D02*
X211800152Y-116431523D01*
X211466819Y-116431523D02*
X211514438Y-116479142D01*
X211514438Y-116479142D02*
X211562057Y-116431523D01*
X211562057Y-116431523D02*
X211514438Y-116383904D01*
X211514438Y-116383904D02*
X211466819Y-116431523D01*
X211466819Y-116431523D02*
X211562057Y-116431523D01*
X211800152Y-116098190D02*
X211800152Y-115717238D01*
X211466819Y-115955333D02*
X212323961Y-115955333D01*
X212323961Y-115955333D02*
X212419200Y-115907714D01*
X212419200Y-115907714D02*
X212466819Y-115812476D01*
X212466819Y-115812476D02*
X212466819Y-115717238D01*
X212419200Y-114955333D02*
X212466819Y-115050571D01*
X212466819Y-115050571D02*
X212466819Y-115241047D01*
X212466819Y-115241047D02*
X212419200Y-115336285D01*
X212419200Y-115336285D02*
X212371580Y-115383904D01*
X212371580Y-115383904D02*
X212276342Y-115431523D01*
X212276342Y-115431523D02*
X211990628Y-115431523D01*
X211990628Y-115431523D02*
X211895390Y-115383904D01*
X211895390Y-115383904D02*
X211847771Y-115336285D01*
X211847771Y-115336285D02*
X211800152Y-115241047D01*
X211800152Y-115241047D02*
X211800152Y-115050571D01*
X211800152Y-115050571D02*
X211847771Y-114955333D01*
X212466819Y-114526761D02*
X211466819Y-114526761D01*
X212466819Y-114098190D02*
X211943009Y-114098190D01*
X211943009Y-114098190D02*
X211847771Y-114145809D01*
X211847771Y-114145809D02*
X211800152Y-114241047D01*
X211800152Y-114241047D02*
X211800152Y-114383904D01*
X211800152Y-114383904D02*
X211847771Y-114479142D01*
X211847771Y-114479142D02*
X211895390Y-114526761D01*
X211466819Y-113717237D02*
X211466819Y-113098190D01*
X211466819Y-113098190D02*
X211847771Y-113431523D01*
X211847771Y-113431523D02*
X211847771Y-113288666D01*
X211847771Y-113288666D02*
X211895390Y-113193428D01*
X211895390Y-113193428D02*
X211943009Y-113145809D01*
X211943009Y-113145809D02*
X212038247Y-113098190D01*
X212038247Y-113098190D02*
X212276342Y-113098190D01*
X212276342Y-113098190D02*
X212371580Y-113145809D01*
X212371580Y-113145809D02*
X212419200Y-113193428D01*
X212419200Y-113193428D02*
X212466819Y-113288666D01*
X212466819Y-113288666D02*
X212466819Y-113574380D01*
X212466819Y-113574380D02*
X212419200Y-113669618D01*
X212419200Y-113669618D02*
X212371580Y-113717237D01*
X146710819Y-85209333D02*
X147425104Y-85209333D01*
X147425104Y-85209333D02*
X147567961Y-85256952D01*
X147567961Y-85256952D02*
X147663200Y-85352190D01*
X147663200Y-85352190D02*
X147710819Y-85495047D01*
X147710819Y-85495047D02*
X147710819Y-85590285D01*
X147710819Y-84209333D02*
X147710819Y-84780761D01*
X147710819Y-84495047D02*
X146710819Y-84495047D01*
X146710819Y-84495047D02*
X146853676Y-84590285D01*
X146853676Y-84590285D02*
X146948914Y-84685523D01*
X146948914Y-84685523D02*
X146996533Y-84780761D01*
X143370700Y-78947428D02*
X143370700Y-77804571D01*
X143370700Y-91947428D02*
X143370700Y-90804571D01*
X143942128Y-91375999D02*
X142799271Y-91375999D01*
X141732095Y-137716819D02*
X141732095Y-136716819D01*
X141732095Y-137193009D02*
X142303523Y-137193009D01*
X142303523Y-137716819D02*
X142303523Y-136716819D01*
X142732095Y-136812057D02*
X142779714Y-136764438D01*
X142779714Y-136764438D02*
X142874952Y-136716819D01*
X142874952Y-136716819D02*
X143113047Y-136716819D01*
X143113047Y-136716819D02*
X143208285Y-136764438D01*
X143208285Y-136764438D02*
X143255904Y-136812057D01*
X143255904Y-136812057D02*
X143303523Y-136907295D01*
X143303523Y-136907295D02*
X143303523Y-137002533D01*
X143303523Y-137002533D02*
X143255904Y-137145390D01*
X143255904Y-137145390D02*
X142684476Y-137716819D01*
X142684476Y-137716819D02*
X143303523Y-137716819D01*
X170650819Y-117347904D02*
X171460342Y-117347904D01*
X171460342Y-117347904D02*
X171555580Y-117300285D01*
X171555580Y-117300285D02*
X171603200Y-117252666D01*
X171603200Y-117252666D02*
X171650819Y-117157428D01*
X171650819Y-117157428D02*
X171650819Y-116966952D01*
X171650819Y-116966952D02*
X171603200Y-116871714D01*
X171603200Y-116871714D02*
X171555580Y-116824095D01*
X171555580Y-116824095D02*
X171460342Y-116776476D01*
X171460342Y-116776476D02*
X170650819Y-116776476D01*
X171650819Y-115776476D02*
X171650819Y-116347904D01*
X171650819Y-116062190D02*
X170650819Y-116062190D01*
X170650819Y-116062190D02*
X170793676Y-116157428D01*
X170793676Y-116157428D02*
X170888914Y-116252666D01*
X170888914Y-116252666D02*
X170936533Y-116347904D01*
X195687333Y-111851580D02*
X195639714Y-111899200D01*
X195639714Y-111899200D02*
X195496857Y-111946819D01*
X195496857Y-111946819D02*
X195401619Y-111946819D01*
X195401619Y-111946819D02*
X195258762Y-111899200D01*
X195258762Y-111899200D02*
X195163524Y-111803961D01*
X195163524Y-111803961D02*
X195115905Y-111708723D01*
X195115905Y-111708723D02*
X195068286Y-111518247D01*
X195068286Y-111518247D02*
X195068286Y-111375390D01*
X195068286Y-111375390D02*
X195115905Y-111184914D01*
X195115905Y-111184914D02*
X195163524Y-111089676D01*
X195163524Y-111089676D02*
X195258762Y-110994438D01*
X195258762Y-110994438D02*
X195401619Y-110946819D01*
X195401619Y-110946819D02*
X195496857Y-110946819D01*
X195496857Y-110946819D02*
X195639714Y-110994438D01*
X195639714Y-110994438D02*
X195687333Y-111042057D01*
X196639714Y-111946819D02*
X196068286Y-111946819D01*
X196354000Y-111946819D02*
X196354000Y-110946819D01*
X196354000Y-110946819D02*
X196258762Y-111089676D01*
X196258762Y-111089676D02*
X196163524Y-111184914D01*
X196163524Y-111184914D02*
X196068286Y-111232533D01*
D11*
%TO.C,R2*%
X192810000Y-130556000D02*
X193580000Y-130556000D01*
X193580000Y-129186000D02*
X193580000Y-131926000D01*
X193580000Y-131926000D02*
X200120000Y-131926000D01*
X200120000Y-129186000D02*
X193580000Y-129186000D01*
X200120000Y-131926000D02*
X200120000Y-129186000D01*
X200890000Y-130556000D02*
X200120000Y-130556000D01*
%TO.C,MD2*%
X140554000Y-111098000D02*
X152274000Y-111098000D01*
X140554000Y-116158000D02*
X140554000Y-111098000D01*
X140554000Y-116158000D02*
X140554000Y-121218000D01*
X140554000Y-121218000D02*
X152274000Y-121218000D01*
X141164000Y-113408000D02*
X141164000Y-113908000D01*
X141164000Y-113908000D02*
X146664000Y-113908000D01*
X141164000Y-115908000D02*
X141164000Y-116408000D01*
X141164000Y-116408000D02*
X146664000Y-116408000D01*
X141164000Y-118408000D02*
X141164000Y-118908000D01*
X141164000Y-118908000D02*
X146664000Y-118908000D01*
X146664000Y-113408000D02*
X141164000Y-113408000D01*
X146664000Y-113908000D02*
X146664000Y-113408000D01*
X146664000Y-115908000D02*
X141164000Y-115908000D01*
X146664000Y-116408000D02*
X146664000Y-115908000D01*
X146664000Y-118408000D02*
X141164000Y-118408000D01*
X146664000Y-118908000D02*
X146664000Y-118408000D01*
X149764000Y-113658000D02*
X150364000Y-113358000D01*
X150364000Y-113358000D02*
X150364000Y-113958000D01*
X150364000Y-113958000D02*
X149764000Y-113658000D01*
X152274000Y-111098000D02*
X152274000Y-112518000D01*
X152274000Y-112518000D02*
X147774000Y-112518000D01*
X152274000Y-119798000D02*
X147774000Y-119798000D01*
X152274000Y-121218000D02*
X152274000Y-119798000D01*
%TO.C,MD3*%
X140626000Y-125710000D02*
X152346000Y-125710000D01*
X140626000Y-130770000D02*
X140626000Y-125710000D01*
X140626000Y-130770000D02*
X140626000Y-135830000D01*
X140626000Y-135830000D02*
X152346000Y-135830000D01*
X141236000Y-128020000D02*
X141236000Y-128520000D01*
X141236000Y-128520000D02*
X146736000Y-128520000D01*
X141236000Y-130520000D02*
X141236000Y-131020000D01*
X141236000Y-131020000D02*
X146736000Y-131020000D01*
X141236000Y-133020000D02*
X141236000Y-133520000D01*
X141236000Y-133520000D02*
X146736000Y-133520000D01*
X146736000Y-128020000D02*
X141236000Y-128020000D01*
X146736000Y-128520000D02*
X146736000Y-128020000D01*
X146736000Y-130520000D02*
X141236000Y-130520000D01*
X146736000Y-131020000D02*
X146736000Y-130520000D01*
X146736000Y-133020000D02*
X141236000Y-133020000D01*
X146736000Y-133520000D02*
X146736000Y-133020000D01*
X149836000Y-128270000D02*
X150436000Y-127970000D01*
X150436000Y-127970000D02*
X150436000Y-128570000D01*
X150436000Y-128570000D02*
X149836000Y-128270000D01*
X152346000Y-125710000D02*
X152346000Y-127130000D01*
X152346000Y-127130000D02*
X147846000Y-127130000D01*
X152346000Y-134410000D02*
X147846000Y-134410000D01*
X152346000Y-135830000D02*
X152346000Y-134410000D01*
%TO.C,D1*%
X154506000Y-74984000D02*
X159946000Y-74984000D01*
X154506000Y-75314000D02*
X154506000Y-74984000D01*
X154506000Y-77594000D02*
X154506000Y-77924000D01*
X154506000Y-77924000D02*
X159946000Y-77924000D01*
X155286000Y-74984000D02*
X155286000Y-77924000D01*
X155406000Y-74984000D02*
X155406000Y-77924000D01*
X155526000Y-74984000D02*
X155526000Y-77924000D01*
X159946000Y-74984000D02*
X159946000Y-75314000D01*
X159946000Y-77924000D02*
X159946000Y-77594000D01*
%TO.C,C2*%
X194268000Y-123290000D02*
X194268000Y-123535000D01*
X194268000Y-123290000D02*
X197908000Y-123290000D01*
X194268000Y-125385000D02*
X194268000Y-125630000D01*
X194268000Y-125630000D02*
X197908000Y-125630000D01*
X197908000Y-123290000D02*
X197908000Y-123535000D01*
X197908000Y-125385000D02*
X197908000Y-125630000D01*
%TO.C,Servo3*%
X201404000Y-77236000D02*
X201404000Y-78656000D01*
X201404000Y-78656000D02*
X205904000Y-78656000D01*
X201404000Y-85936000D02*
X205904000Y-85936000D01*
X201404000Y-87356000D02*
X201404000Y-85936000D01*
X203314000Y-84496000D02*
X203914000Y-84796000D01*
X203314000Y-85096000D02*
X203314000Y-84496000D01*
X203914000Y-84796000D02*
X203314000Y-85096000D01*
X207014000Y-79546000D02*
X207014000Y-80046000D01*
X207014000Y-80046000D02*
X212514000Y-80046000D01*
X207014000Y-82046000D02*
X207014000Y-82546000D01*
X207014000Y-82546000D02*
X212514000Y-82546000D01*
X207014000Y-84546000D02*
X207014000Y-85046000D01*
X207014000Y-85046000D02*
X212514000Y-85046000D01*
X212514000Y-79546000D02*
X207014000Y-79546000D01*
X212514000Y-80046000D02*
X212514000Y-79546000D01*
X212514000Y-82046000D02*
X207014000Y-82046000D01*
X212514000Y-82546000D02*
X212514000Y-82046000D01*
X212514000Y-84546000D02*
X207014000Y-84546000D01*
X212514000Y-85046000D02*
X212514000Y-84546000D01*
X213124000Y-77236000D02*
X201404000Y-77236000D01*
X213124000Y-82296000D02*
X213124000Y-77236000D01*
X213124000Y-82296000D02*
X213124000Y-87356000D01*
X213124000Y-87356000D02*
X201404000Y-87356000D01*
%TO.C,LimitSwitch1*%
X204952000Y-133664000D02*
X204952000Y-141284000D01*
X204952000Y-141284000D02*
X210922000Y-141284000D01*
X205712000Y-134424000D02*
X205712000Y-137474000D01*
X205712000Y-140524000D02*
X205712000Y-137474000D01*
X208662000Y-133674000D02*
X208662000Y-134424000D01*
X208662000Y-134424000D02*
X205712000Y-134424000D01*
X208662000Y-140524000D02*
X205712000Y-140524000D01*
X208662000Y-141274000D02*
X208662000Y-140524000D01*
X210162000Y-133674000D02*
X210162000Y-135474000D01*
X210162000Y-135474000D02*
X210912000Y-135474000D01*
X210162000Y-136974000D02*
X210162000Y-137974000D01*
X210162000Y-137974000D02*
X210912000Y-137974000D01*
X210162000Y-139474000D02*
X210162000Y-141274000D01*
X210162000Y-141274000D02*
X210912000Y-141274000D01*
X210912000Y-133674000D02*
X210162000Y-133674000D01*
X210912000Y-135474000D02*
X210912000Y-133674000D01*
X210912000Y-136974000D02*
X210162000Y-136974000D01*
X210912000Y-137974000D02*
X210912000Y-136974000D01*
X210912000Y-139474000D02*
X210162000Y-139474000D01*
X210912000Y-141274000D02*
X210912000Y-139474000D01*
X210922000Y-133664000D02*
X204952000Y-133664000D01*
X210922000Y-141284000D02*
X210922000Y-133664000D01*
X211212000Y-133374000D02*
X209962000Y-133374000D01*
X211212000Y-134624000D02*
X211212000Y-133374000D01*
%TO.C,LimitSwitch2*%
X204952000Y-123758000D02*
X204952000Y-131378000D01*
X204952000Y-131378000D02*
X210922000Y-131378000D01*
X205712000Y-124518000D02*
X205712000Y-127568000D01*
X205712000Y-130618000D02*
X205712000Y-127568000D01*
X208662000Y-123768000D02*
X208662000Y-124518000D01*
X208662000Y-124518000D02*
X205712000Y-124518000D01*
X208662000Y-130618000D02*
X205712000Y-130618000D01*
X208662000Y-131368000D02*
X208662000Y-130618000D01*
X210162000Y-123768000D02*
X210162000Y-125568000D01*
X210162000Y-125568000D02*
X210912000Y-125568000D01*
X210162000Y-127068000D02*
X210162000Y-128068000D01*
X210162000Y-128068000D02*
X210912000Y-128068000D01*
X210162000Y-129568000D02*
X210162000Y-131368000D01*
X210162000Y-131368000D02*
X210912000Y-131368000D01*
X210912000Y-123768000D02*
X210162000Y-123768000D01*
X210912000Y-125568000D02*
X210912000Y-123768000D01*
X210912000Y-127068000D02*
X210162000Y-127068000D01*
X210912000Y-128068000D02*
X210912000Y-127068000D01*
X210912000Y-129568000D02*
X210162000Y-129568000D01*
X210912000Y-131368000D02*
X210912000Y-129568000D01*
X210922000Y-123758000D02*
X204952000Y-123758000D01*
X210922000Y-131378000D02*
X210922000Y-123758000D01*
X211212000Y-123468000D02*
X209962000Y-123468000D01*
X211212000Y-124718000D02*
X211212000Y-123468000D01*
%TO.C,470u1*%
X177625000Y-85015698D02*
X178425000Y-85015698D01*
X178025000Y-85415698D02*
X178025000Y-84615698D01*
X184460000Y-81006000D02*
G75*
G02*
X176220000Y-81006000I-4120000J0D01*
G01*
X176220000Y-81006000D02*
G75*
G02*
X184460000Y-81006000I4120000J0D01*
G01*
%TO.C,R1*%
X192556000Y-118364000D02*
X193326000Y-118364000D01*
X193326000Y-116994000D02*
X193326000Y-119734000D01*
X193326000Y-119734000D02*
X199866000Y-119734000D01*
X199866000Y-116994000D02*
X193326000Y-116994000D01*
X199866000Y-119734000D02*
X199866000Y-116994000D01*
X200636000Y-118364000D02*
X199866000Y-118364000D01*
%TO.C,U2*%
X149690000Y-78062000D02*
X165800000Y-78062000D01*
X149690000Y-88562000D02*
X149690000Y-78062000D01*
X149690000Y-88562000D02*
X165800000Y-88562000D01*
X165800000Y-80772000D02*
X167760000Y-80772000D01*
X165800000Y-83312000D02*
X167760000Y-83312000D01*
X165800000Y-85852000D02*
X167760000Y-85852000D01*
X165800000Y-88562000D02*
X165800000Y-78062000D01*
%TO.C,C4*%
X146658000Y-85556000D02*
X146658000Y-89196000D01*
X146903000Y-85556000D02*
X146658000Y-85556000D01*
X146903000Y-89196000D02*
X146658000Y-89196000D01*
X148998000Y-85556000D02*
X148753000Y-85556000D01*
X148998000Y-85556000D02*
X148998000Y-89196000D01*
X148998000Y-89196000D02*
X148753000Y-89196000D01*
%TO.C,R3*%
X192556000Y-140970000D02*
X193326000Y-140970000D01*
X193326000Y-139600000D02*
X193326000Y-142340000D01*
X193326000Y-142340000D02*
X199866000Y-142340000D01*
X199866000Y-139600000D02*
X193326000Y-139600000D01*
X199866000Y-142340000D02*
X199866000Y-139600000D01*
X200636000Y-140970000D02*
X199866000Y-140970000D01*
%TO.C,C3*%
X194542000Y-133196000D02*
X194542000Y-133441000D01*
X194542000Y-133196000D02*
X198182000Y-133196000D01*
X194542000Y-135291000D02*
X194542000Y-135536000D01*
X194542000Y-135536000D02*
X198182000Y-135536000D01*
X198182000Y-133196000D02*
X198182000Y-133441000D01*
X198182000Y-135291000D02*
X198182000Y-135536000D01*
%TO.C,MD1*%
X140808000Y-96112000D02*
X152528000Y-96112000D01*
X140808000Y-101172000D02*
X140808000Y-96112000D01*
X140808000Y-101172000D02*
X140808000Y-106232000D01*
X140808000Y-106232000D02*
X152528000Y-106232000D01*
X141418000Y-98422000D02*
X141418000Y-98922000D01*
X141418000Y-98922000D02*
X146918000Y-98922000D01*
X141418000Y-100922000D02*
X141418000Y-101422000D01*
X141418000Y-101422000D02*
X146918000Y-101422000D01*
X141418000Y-103422000D02*
X141418000Y-103922000D01*
X141418000Y-103922000D02*
X146918000Y-103922000D01*
X146918000Y-98422000D02*
X141418000Y-98422000D01*
X146918000Y-98922000D02*
X146918000Y-98422000D01*
X146918000Y-100922000D02*
X141418000Y-100922000D01*
X146918000Y-101422000D02*
X146918000Y-100922000D01*
X146918000Y-103422000D02*
X141418000Y-103422000D01*
X146918000Y-103922000D02*
X146918000Y-103422000D01*
X150018000Y-98672000D02*
X150618000Y-98372000D01*
X150618000Y-98372000D02*
X150618000Y-98972000D01*
X150618000Y-98972000D02*
X150018000Y-98672000D01*
X152528000Y-96112000D02*
X152528000Y-97532000D01*
X152528000Y-97532000D02*
X148028000Y-97532000D01*
X152528000Y-104812000D02*
X148028000Y-104812000D01*
X152528000Y-106232000D02*
X152528000Y-104812000D01*
%TO.C,470u2*%
X186485000Y-84973000D02*
X187285000Y-84973000D01*
X186885000Y-85373000D02*
X186885000Y-84573000D01*
X193320000Y-80963302D02*
G75*
G02*
X185080000Y-80963302I-4120000J0D01*
G01*
X185080000Y-80963302D02*
G75*
G02*
X193320000Y-80963302I4120000J0D01*
G01*
%TO.C,Servo1*%
X201404000Y-101136000D02*
X201404000Y-102556000D01*
X201404000Y-102556000D02*
X205904000Y-102556000D01*
X201404000Y-109836000D02*
X205904000Y-109836000D01*
X201404000Y-111256000D02*
X201404000Y-109836000D01*
X203314000Y-108396000D02*
X203914000Y-108696000D01*
X203314000Y-108996000D02*
X203314000Y-108396000D01*
X203914000Y-108696000D02*
X203314000Y-108996000D01*
X207014000Y-103446000D02*
X207014000Y-103946000D01*
X207014000Y-103946000D02*
X212514000Y-103946000D01*
X207014000Y-105946000D02*
X207014000Y-106446000D01*
X207014000Y-106446000D02*
X212514000Y-106446000D01*
X207014000Y-108446000D02*
X207014000Y-108946000D01*
X207014000Y-108946000D02*
X212514000Y-108946000D01*
X212514000Y-103446000D02*
X207014000Y-103446000D01*
X212514000Y-103946000D02*
X212514000Y-103446000D01*
X212514000Y-105946000D02*
X207014000Y-105946000D01*
X212514000Y-106446000D02*
X212514000Y-105946000D01*
X212514000Y-108446000D02*
X207014000Y-108446000D01*
X212514000Y-108946000D02*
X212514000Y-108446000D01*
X213124000Y-101136000D02*
X201404000Y-101136000D01*
X213124000Y-106196000D02*
X213124000Y-101136000D01*
X213124000Y-106196000D02*
X213124000Y-111256000D01*
X213124000Y-111256000D02*
X201404000Y-111256000D01*
%TO.C,C5*%
X171296000Y-77702000D02*
X171541000Y-77702000D01*
X171296000Y-81342000D02*
X171296000Y-77702000D01*
X171296000Y-81342000D02*
X171541000Y-81342000D01*
X173391000Y-77702000D02*
X173636000Y-77702000D01*
X173391000Y-81342000D02*
X173636000Y-81342000D01*
X173636000Y-81342000D02*
X173636000Y-77702000D01*
%TO.C,LimitSwitch3*%
X204952000Y-113812000D02*
X204952000Y-121432000D01*
X204952000Y-121432000D02*
X210922000Y-121432000D01*
X205712000Y-114572000D02*
X205712000Y-117622000D01*
X205712000Y-120672000D02*
X205712000Y-117622000D01*
X208662000Y-113822000D02*
X208662000Y-114572000D01*
X208662000Y-114572000D02*
X205712000Y-114572000D01*
X208662000Y-120672000D02*
X205712000Y-120672000D01*
X208662000Y-121422000D02*
X208662000Y-120672000D01*
X210162000Y-113822000D02*
X210162000Y-115622000D01*
X210162000Y-115622000D02*
X210912000Y-115622000D01*
X210162000Y-117122000D02*
X210162000Y-118122000D01*
X210162000Y-118122000D02*
X210912000Y-118122000D01*
X210162000Y-119622000D02*
X210162000Y-121422000D01*
X210162000Y-121422000D02*
X210912000Y-121422000D01*
X210912000Y-113822000D02*
X210162000Y-113822000D01*
X210912000Y-115622000D02*
X210912000Y-113822000D01*
X210912000Y-117122000D02*
X210162000Y-117122000D01*
X210912000Y-118122000D02*
X210912000Y-117122000D01*
X210912000Y-119622000D02*
X210162000Y-119622000D01*
X210912000Y-121422000D02*
X210912000Y-119622000D01*
X210922000Y-113812000D02*
X204952000Y-113812000D01*
X210922000Y-121432000D02*
X210922000Y-113812000D01*
X211212000Y-113522000D02*
X209962000Y-113522000D01*
X211212000Y-114772000D02*
X211212000Y-113522000D01*
%TO.C,Servo2*%
X201404000Y-89186000D02*
X201404000Y-90606000D01*
X201404000Y-90606000D02*
X205904000Y-90606000D01*
X201404000Y-97886000D02*
X205904000Y-97886000D01*
X201404000Y-99306000D02*
X201404000Y-97886000D01*
X203314000Y-96446000D02*
X203914000Y-96746000D01*
X203314000Y-97046000D02*
X203314000Y-96446000D01*
X203914000Y-96746000D02*
X203314000Y-97046000D01*
X207014000Y-91496000D02*
X207014000Y-91996000D01*
X207014000Y-91996000D02*
X212514000Y-91996000D01*
X207014000Y-93996000D02*
X207014000Y-94496000D01*
X207014000Y-94496000D02*
X212514000Y-94496000D01*
X207014000Y-96496000D02*
X207014000Y-96996000D01*
X207014000Y-96996000D02*
X212514000Y-96996000D01*
X212514000Y-91496000D02*
X207014000Y-91496000D01*
X212514000Y-91996000D02*
X212514000Y-91496000D01*
X212514000Y-93996000D02*
X207014000Y-93996000D01*
X212514000Y-94496000D02*
X212514000Y-93996000D01*
X212514000Y-96496000D02*
X207014000Y-96496000D01*
X212514000Y-96996000D02*
X212514000Y-96496000D01*
X213124000Y-89186000D02*
X201404000Y-89186000D01*
X213124000Y-94246000D02*
X213124000Y-89186000D01*
X213124000Y-94246000D02*
X213124000Y-99306000D01*
X213124000Y-99306000D02*
X201404000Y-99306000D01*
%TO.C,J1*%
X140546000Y-81366000D02*
X140546000Y-90086000D01*
X141846000Y-79666000D02*
X140546000Y-81366000D01*
X144666000Y-79666000D02*
X141846000Y-79666000D01*
X144666000Y-79666000D02*
X145966000Y-81366000D01*
X145966000Y-81366000D02*
X145966000Y-90086000D01*
X145966000Y-90086000D02*
X140546000Y-90086000D01*
D12*
%TO.C,U1*%
X158215500Y-141062000D02*
X158215500Y-94802000D01*
X159215500Y-93802000D02*
X163185500Y-93802000D01*
X159215500Y-142062000D02*
X168135500Y-142062000D01*
X163185500Y-87062000D02*
X181185500Y-87062000D01*
X163185500Y-93802000D02*
X163185500Y-87062000D01*
X168135500Y-142062000D02*
X168135500Y-143062000D01*
X168135500Y-143062000D02*
X176235500Y-143062000D01*
X176235500Y-142062000D02*
X185155500Y-142062000D01*
X176235500Y-143062000D02*
X176235500Y-142062000D01*
X181185500Y-87062000D02*
X181185500Y-93802000D01*
X181185500Y-93802000D02*
X185155500Y-93802000D01*
X186155500Y-141062000D02*
X186155500Y-94802000D01*
X158215500Y-94802000D02*
G75*
G02*
X159215500Y-93802000I999999J1D01*
G01*
X159215500Y-142062000D02*
G75*
G02*
X158215500Y-141062000I-1J999999D01*
G01*
X185155500Y-93802000D02*
G75*
G02*
X186155500Y-94802000I0J-1000000D01*
G01*
X186155500Y-141062000D02*
G75*
G02*
X185155500Y-142062000I-1000000J0D01*
G01*
D13*
X157785500Y-95097000D02*
G75*
G02*
X157585500Y-95097000I-100000J0D01*
G01*
X157585500Y-95097000D02*
G75*
G02*
X157785500Y-95097000I100000J0D01*
G01*
D11*
%TO.C,C1*%
X194034000Y-112622000D02*
X194034000Y-112867000D01*
X194034000Y-112622000D02*
X197674000Y-112622000D01*
X194034000Y-114717000D02*
X194034000Y-114962000D01*
X194034000Y-114962000D02*
X197674000Y-114962000D01*
X197674000Y-112622000D02*
X197674000Y-112867000D01*
X197674000Y-114717000D02*
X197674000Y-114962000D01*
%TD*%
M02*
