M48
; DRILL file {KiCad 8.0.4} date 2024-09-06T02:12:03+0900
; FORMAT={-:-/ absolute / inch / decimal}
; #@! TF.CreationDate,2024-09-06T02:12:03+09:00
; #@! TF.GenerationSoftware,Kicad,Pcbnew,8.0.4
; #@! TF.FileFunction,Plated,1,2,PTH
FMAT,2
INCH
; #@! TA.AperFunction,Plated,PTH,ViaDrill
T1C0.0118
; #@! TA.AperFunction,Plated,PTH,ComponentDrill
T2C0.0315
; #@! TA.AperFunction,Plated,PTH,ComponentDrill
T3C0.0354
; #@! TA.AperFunction,Plated,PTH,ComponentDrill
T4C0.0374
; #@! TA.AperFunction,Plated,PTH,ComponentDrill
T5C0.0394
; #@! TA.AperFunction,Plated,PTH,ComponentDrill
T6C0.0472
; #@! TA.AperFunction,Plated,PTH,ComponentDrill
T7C0.1063
%
G90
G05
T1
X5.91Y-4.27
X6.13Y-3.87
X6.48Y-3.7124
X6.51Y-3.51
X6.74Y-3.77
X6.7921Y-3.77
X6.85Y-3.77
X6.95Y-3.46
X6.95Y-3.77
X7.43Y-4.17
X7.525Y-4.485
X7.64Y-4.78
X7.7146Y-4.3248
X7.89Y-3.15
X7.89Y-3.15
X7.89Y-3.31
X7.89Y-3.31
X7.895Y-4.835
X7.95Y-5.32
X8.31Y-3.48
T2
X5.82Y-3.3908
X5.82Y-3.4892
X6.79Y-3.0816
X6.79Y-3.18
X7.1Y-3.14
X7.1Y-3.2384
X7.4488Y-3.1383
X7.4488Y-3.2367
X7.54Y-4.66
X7.54Y-5.55
X7.55Y-5.14
X7.6457Y-4.4764
X7.6708Y-4.9
X7.6816Y-5.29
X7.7441Y-4.4764
X7.7692Y-4.9
X7.78Y-5.29
X7.94Y-4.66
X7.94Y-5.55
X7.95Y-5.14
T3
X6.04Y-3.01
X6.279Y-3.744
X6.279Y-3.844
X6.279Y-3.944
X6.279Y-4.044
X6.279Y-4.144
X6.279Y-4.244
X6.279Y-4.344
X6.279Y-4.444
X6.279Y-4.544
X6.279Y-4.644
X6.279Y-4.744
X6.279Y-4.844
X6.279Y-4.944
X6.279Y-5.044
X6.279Y-5.144
X6.279Y-5.244
X6.279Y-5.344
X6.279Y-5.444
X6.279Y-5.544
X6.34Y-3.01
X7.279Y-3.744
X7.279Y-3.844
X7.279Y-3.944
X7.279Y-4.044
X7.279Y-4.144
X7.279Y-4.244
X7.279Y-4.344
X7.279Y-4.444
X7.279Y-4.544
X7.279Y-4.644
X7.279Y-4.744
X7.279Y-4.844
X7.279Y-4.944
X7.279Y-5.044
X7.279Y-5.144
X7.279Y-5.244
X7.279Y-5.344
X7.279Y-5.444
X7.279Y-5.544
T4
X5.8372Y-4.4747
X5.8372Y-4.5731
X5.8372Y-4.6716
X5.84Y-5.05
X5.84Y-5.1484
X5.84Y-5.2469
X5.8472Y-3.8847
X5.8472Y-3.9831
X5.8472Y-4.0816
X8.0872Y-3.1416
X8.0872Y-3.24
X8.0872Y-3.3384
X8.0872Y-3.612
X8.0872Y-3.7105
X8.0872Y-3.8089
X8.0872Y-4.0825
X8.0872Y-4.1809
X8.0872Y-4.2794
T5
X8.2072Y-4.5816
X8.2072Y-4.68
X8.2072Y-4.9731
X8.2072Y-5.0716
X8.2072Y-5.3631
X8.2072Y-5.4616
T6
X6.65Y-3.18
X6.65Y-3.28
X6.65Y-3.38
T7
X5.64Y-3.2431
X5.64Y-3.44
M30
