%TF.GenerationSoftware,KiCad,Pcbnew,8.0.5*%
%TF.CreationDate,2024-09-25T10:39:00+09:00*%
%TF.ProjectId,nucleo_can_md2_roricon2,6e75636c-656f-45f6-9361-6e5f6d64325f,rev?*%
%TF.SameCoordinates,Original*%
%TF.FileFunction,Copper,L2,Bot*%
%TF.FilePolarity,Positive*%
%FSLAX46Y46*%
G04 Gerber Fmt 4.6, Leading zero omitted, Abs format (unit mm)*
G04 Created by KiCad (PCBNEW 8.0.5) date 2024-09-25 10:39:00*
%MOMM*%
%LPD*%
G01*
G04 APERTURE LIST*
G04 Aperture macros list*
%AMRoundRect*
0 Rectangle with rounded corners*
0 $1 Rounding radius*
0 $2 $3 $4 $5 $6 $7 $8 $9 X,Y pos of 4 corners*
0 Add a 4 corners polygon primitive as box body*
4,1,4,$2,$3,$4,$5,$6,$7,$8,$9,$2,$3,0*
0 Add four circle primitives for the rounded corners*
1,1,$1+$1,$2,$3*
1,1,$1+$1,$4,$5*
1,1,$1+$1,$6,$7*
1,1,$1+$1,$8,$9*
0 Add four rect primitives between the rounded corners*
20,1,$1+$1,$2,$3,$4,$5,0*
20,1,$1+$1,$4,$5,$6,$7,0*
20,1,$1+$1,$6,$7,$8,$9,0*
20,1,$1+$1,$8,$9,$2,$3,0*%
G04 Aperture macros list end*
%ADD10C,0.200000*%
%TA.AperFunction,ComponentPad*%
%ADD11C,1.600000*%
%TD*%
%TA.AperFunction,ComponentPad*%
%ADD12O,1.600000X1.600000*%
%TD*%
%TA.AperFunction,ComponentPad*%
%ADD13RoundRect,0.250000X-0.750000X0.600000X-0.750000X-0.600000X0.750000X-0.600000X0.750000X0.600000X0*%
%TD*%
%TA.AperFunction,ComponentPad*%
%ADD14O,2.000000X1.700000*%
%TD*%
%TA.AperFunction,ComponentPad*%
%ADD15RoundRect,0.250000X0.600000X0.725000X-0.600000X0.725000X-0.600000X-0.725000X0.600000X-0.725000X0*%
%TD*%
%TA.AperFunction,ComponentPad*%
%ADD16O,1.700000X1.950000*%
%TD*%
%TA.AperFunction,ComponentPad*%
%ADD17RoundRect,0.250000X-0.600000X-0.725000X0.600000X-0.725000X0.600000X0.725000X-0.600000X0.725000X0*%
%TD*%
%TA.AperFunction,ComponentPad*%
%ADD18R,1.530000X1.530000*%
%TD*%
%TA.AperFunction,ComponentPad*%
%ADD19C,1.530000*%
%TD*%
%TA.AperFunction,ComponentPad*%
%ADD20R,1.600000X1.600000*%
%TD*%
%TA.AperFunction,ViaPad*%
%ADD21C,0.600000*%
%TD*%
%TA.AperFunction,Conductor*%
%ADD22C,0.900000*%
%TD*%
%TA.AperFunction,Conductor*%
%ADD23C,0.750000*%
%TD*%
%TA.AperFunction,Conductor*%
%ADD24C,1.000000*%
%TD*%
G04 APERTURE END LIST*
D10*
G36*
X148369056Y-94218330D02*
G01*
X147327787Y-94218330D01*
X147327787Y-93578647D01*
X147438898Y-93578647D01*
X147438898Y-93911980D01*
X147440819Y-93931488D01*
X147455750Y-93967537D01*
X147468187Y-93982690D01*
X147515805Y-94030310D01*
X147530959Y-94042747D01*
X147534278Y-94044122D01*
X147536994Y-94046477D01*
X147554894Y-94054468D01*
X147697751Y-94102087D01*
X147707423Y-94104286D01*
X147709865Y-94105298D01*
X147713402Y-94105646D01*
X147716866Y-94106434D01*
X147719500Y-94106246D01*
X147729374Y-94107219D01*
X147824612Y-94107219D01*
X147834485Y-94106246D01*
X147837119Y-94106434D01*
X147840582Y-94105646D01*
X147844121Y-94105298D01*
X147846563Y-94104286D01*
X147856235Y-94102087D01*
X147999091Y-94054468D01*
X148016992Y-94046477D01*
X148019707Y-94044122D01*
X148023027Y-94042747D01*
X148038180Y-94030310D01*
X148133418Y-93935071D01*
X148139710Y-93927404D01*
X148141707Y-93925673D01*
X148143600Y-93922665D01*
X148145855Y-93919918D01*
X148146866Y-93917476D01*
X148152150Y-93909082D01*
X148199769Y-93813845D01*
X148200315Y-93812416D01*
X148200745Y-93811837D01*
X148203666Y-93803660D01*
X148206775Y-93795536D01*
X148206826Y-93794815D01*
X148207340Y-93793377D01*
X148254959Y-93602901D01*
X148255459Y-93599519D01*
X148256024Y-93598156D01*
X148256747Y-93590805D01*
X148257827Y-93583508D01*
X148257609Y-93582049D01*
X148257945Y-93578647D01*
X148257945Y-93435790D01*
X148257609Y-93432387D01*
X148257827Y-93430929D01*
X148256747Y-93423631D01*
X148256024Y-93416281D01*
X148255459Y-93414917D01*
X148254959Y-93411536D01*
X148207340Y-93221060D01*
X148206826Y-93219621D01*
X148206775Y-93218901D01*
X148203666Y-93210776D01*
X148200745Y-93202600D01*
X148200315Y-93202020D01*
X148199769Y-93200592D01*
X148152150Y-93105355D01*
X148146863Y-93096956D01*
X148145854Y-93094519D01*
X148143602Y-93091775D01*
X148141707Y-93088764D01*
X148139709Y-93087031D01*
X148133418Y-93079365D01*
X148038180Y-92984127D01*
X148023026Y-92971691D01*
X148019707Y-92970316D01*
X148016992Y-92967961D01*
X147999091Y-92959970D01*
X147856235Y-92912351D01*
X147846563Y-92910151D01*
X147844121Y-92909140D01*
X147840582Y-92908791D01*
X147837119Y-92908004D01*
X147834485Y-92908191D01*
X147824612Y-92907219D01*
X147681755Y-92907219D01*
X147662246Y-92909140D01*
X147658925Y-92910515D01*
X147655342Y-92910770D01*
X147637033Y-92917776D01*
X147541796Y-92965395D01*
X147525205Y-92975838D01*
X147499641Y-93005315D01*
X147487302Y-93042331D01*
X147490068Y-93081251D01*
X147507517Y-93116150D01*
X147536994Y-93141714D01*
X147574010Y-93154053D01*
X147612930Y-93151287D01*
X147631238Y-93144281D01*
X147705362Y-93107219D01*
X147808385Y-93107219D01*
X147913449Y-93142240D01*
X147980522Y-93209313D01*
X148015974Y-93280218D01*
X148057945Y-93448099D01*
X148057945Y-93566337D01*
X148015974Y-93734218D01*
X147980521Y-93805124D01*
X147913450Y-93872197D01*
X147808385Y-93907219D01*
X147745600Y-93907219D01*
X147640535Y-93872197D01*
X147638898Y-93870559D01*
X147638898Y-93678647D01*
X147729374Y-93678647D01*
X147748883Y-93676726D01*
X147784931Y-93661794D01*
X147812521Y-93634204D01*
X147827453Y-93598156D01*
X147827453Y-93559138D01*
X147812521Y-93523090D01*
X147784931Y-93495500D01*
X147748883Y-93480568D01*
X147729374Y-93478647D01*
X147538898Y-93478647D01*
X147519389Y-93480568D01*
X147483341Y-93495500D01*
X147455751Y-93523090D01*
X147440819Y-93559138D01*
X147438898Y-93578647D01*
X147327787Y-93578647D01*
X147327787Y-92796108D01*
X148369056Y-92796108D01*
X148369056Y-94218330D01*
G37*
G36*
X156861056Y-84914330D02*
G01*
X155819787Y-84914330D01*
X155819787Y-84274647D01*
X155930898Y-84274647D01*
X155930898Y-84607980D01*
X155932819Y-84627488D01*
X155947750Y-84663537D01*
X155960187Y-84678690D01*
X156007805Y-84726310D01*
X156022959Y-84738747D01*
X156026278Y-84740122D01*
X156028994Y-84742477D01*
X156046894Y-84750468D01*
X156189751Y-84798087D01*
X156199423Y-84800286D01*
X156201865Y-84801298D01*
X156205402Y-84801646D01*
X156208866Y-84802434D01*
X156211500Y-84802246D01*
X156221374Y-84803219D01*
X156316612Y-84803219D01*
X156326485Y-84802246D01*
X156329119Y-84802434D01*
X156332582Y-84801646D01*
X156336121Y-84801298D01*
X156338563Y-84800286D01*
X156348235Y-84798087D01*
X156491091Y-84750468D01*
X156508992Y-84742477D01*
X156511707Y-84740122D01*
X156515027Y-84738747D01*
X156530180Y-84726310D01*
X156625418Y-84631071D01*
X156631710Y-84623404D01*
X156633707Y-84621673D01*
X156635600Y-84618665D01*
X156637855Y-84615918D01*
X156638866Y-84613476D01*
X156644150Y-84605082D01*
X156691769Y-84509845D01*
X156692315Y-84508416D01*
X156692745Y-84507837D01*
X156695666Y-84499660D01*
X156698775Y-84491536D01*
X156698826Y-84490815D01*
X156699340Y-84489377D01*
X156746959Y-84298901D01*
X156747459Y-84295519D01*
X156748024Y-84294156D01*
X156748747Y-84286805D01*
X156749827Y-84279508D01*
X156749609Y-84278049D01*
X156749945Y-84274647D01*
X156749945Y-84131790D01*
X156749609Y-84128387D01*
X156749827Y-84126929D01*
X156748747Y-84119631D01*
X156748024Y-84112281D01*
X156747459Y-84110917D01*
X156746959Y-84107536D01*
X156699340Y-83917060D01*
X156698826Y-83915621D01*
X156698775Y-83914901D01*
X156695666Y-83906776D01*
X156692745Y-83898600D01*
X156692315Y-83898020D01*
X156691769Y-83896592D01*
X156644150Y-83801355D01*
X156638863Y-83792956D01*
X156637854Y-83790519D01*
X156635602Y-83787775D01*
X156633707Y-83784764D01*
X156631709Y-83783031D01*
X156625418Y-83775365D01*
X156530180Y-83680127D01*
X156515026Y-83667691D01*
X156511707Y-83666316D01*
X156508992Y-83663961D01*
X156491091Y-83655970D01*
X156348235Y-83608351D01*
X156338563Y-83606151D01*
X156336121Y-83605140D01*
X156332582Y-83604791D01*
X156329119Y-83604004D01*
X156326485Y-83604191D01*
X156316612Y-83603219D01*
X156173755Y-83603219D01*
X156154246Y-83605140D01*
X156150925Y-83606515D01*
X156147342Y-83606770D01*
X156129033Y-83613776D01*
X156033796Y-83661395D01*
X156017205Y-83671838D01*
X155991641Y-83701315D01*
X155979302Y-83738331D01*
X155982068Y-83777251D01*
X155999517Y-83812150D01*
X156028994Y-83837714D01*
X156066010Y-83850053D01*
X156104930Y-83847287D01*
X156123238Y-83840281D01*
X156197362Y-83803219D01*
X156300385Y-83803219D01*
X156405449Y-83838240D01*
X156472522Y-83905313D01*
X156507974Y-83976218D01*
X156549945Y-84144099D01*
X156549945Y-84262337D01*
X156507974Y-84430218D01*
X156472521Y-84501124D01*
X156405450Y-84568197D01*
X156300385Y-84603219D01*
X156237600Y-84603219D01*
X156132535Y-84568197D01*
X156130898Y-84566559D01*
X156130898Y-84374647D01*
X156221374Y-84374647D01*
X156240883Y-84372726D01*
X156276931Y-84357794D01*
X156304521Y-84330204D01*
X156319453Y-84294156D01*
X156319453Y-84255138D01*
X156304521Y-84219090D01*
X156276931Y-84191500D01*
X156240883Y-84176568D01*
X156221374Y-84174647D01*
X156030898Y-84174647D01*
X156011389Y-84176568D01*
X155975341Y-84191500D01*
X155947751Y-84219090D01*
X155932819Y-84255138D01*
X155930898Y-84274647D01*
X155819787Y-84274647D01*
X155819787Y-83492108D01*
X156861056Y-83492108D01*
X156861056Y-84914330D01*
G37*
D11*
%TO.P,R1,1*%
%TO.N,/H*%
X166310000Y-90424000D03*
D12*
%TO.P,R1,2*%
%TO.N,/L*%
X166310000Y-92964000D03*
%TD*%
D11*
%TO.P,C1,1*%
%TO.N,GND*%
X161550000Y-101100000D03*
%TO.P,C1,2*%
%TO.N,+3.3V*%
X156550000Y-101100000D03*
%TD*%
D13*
%TO.P,J3,1,Pin_1*%
%TO.N,/H*%
X171610000Y-93390000D03*
D14*
%TO.P,J3,2,Pin_2*%
%TO.N,/L*%
X171610000Y-95890000D03*
%TD*%
D11*
%TO.P,C7,1*%
%TO.N,A2*%
X147900000Y-79300000D03*
%TO.P,C7,2*%
%TO.N,GND*%
X147900000Y-84300000D03*
%TD*%
D15*
%TO.P,J2,1,Pin_1*%
%TO.N,GND*%
X152620000Y-76750000D03*
D16*
%TO.P,J2,2,Pin_2*%
%TO.N,X2*%
X150120000Y-76750000D03*
%TO.P,J2,3,Pin_3*%
%TO.N,A2*%
X147620000Y-76750000D03*
%TO.P,J2,4,Pin_4*%
%TO.N,+5V*%
X145120000Y-76750000D03*
%TO.P,J2,5,Pin_5*%
%TO.N,B2*%
X142620000Y-76750000D03*
%TD*%
D15*
%TO.P,J1,1,Pin_1*%
%TO.N,GND*%
X169600000Y-76740000D03*
D16*
%TO.P,J1,2,Pin_2*%
%TO.N,X1*%
X167100000Y-76740000D03*
%TO.P,J1,3,Pin_3*%
%TO.N,A1*%
X164600000Y-76740000D03*
%TO.P,J1,4,Pin_4*%
%TO.N,+5V*%
X162100000Y-76740000D03*
%TO.P,J1,5,Pin_5*%
%TO.N,B1*%
X159600000Y-76740000D03*
%TD*%
D11*
%TO.P,C2,1*%
%TO.N,GND*%
X172450000Y-104250000D03*
%TO.P,C2,2*%
%TO.N,+5V*%
X172450000Y-99250000D03*
%TD*%
%TO.P,C5,1*%
%TO.N,X1*%
X167300000Y-79300000D03*
%TO.P,C5,2*%
%TO.N,GND*%
X167300000Y-84300000D03*
%TD*%
D16*
%TO.P,MD2,1,Pin_1*%
%TO.N,GND*%
X161450000Y-111440000D03*
%TO.P,MD2,2,Pin_2*%
%TO.N,MD2_pwm*%
X163950000Y-111440000D03*
D17*
%TO.P,MD2,3,Pin_3*%
%TO.N,MD2_dir*%
X166450000Y-111440000D03*
%TD*%
D11*
%TO.P,C6,1*%
%TO.N,GND*%
X142900000Y-84300000D03*
%TO.P,C6,2*%
%TO.N,B2*%
X142900000Y-79300000D03*
%TD*%
D18*
%TO.P,U1,3_1,PA9*%
%TO.N,B1*%
X121590000Y-78085000D03*
D19*
%TO.P,U1,3_2,PA10*%
%TO.N,unconnected-(U1A-PA10-Pad3_2)*%
X121590000Y-80625000D03*
%TO.P,U1,3_3,NRST_1*%
%TO.N,unconnected-(U1A-NRST_1-Pad3_3)*%
X121590000Y-83165000D03*
%TO.P,U1,3_4,GND_1*%
%TO.N,GND*%
X121590000Y-85705000D03*
%TO.P,U1,3_5,PA12*%
%TO.N,CAN_Tx*%
X121590000Y-88245000D03*
%TO.P,U1,3_6,PB0*%
%TO.N,X1*%
X121590000Y-90785000D03*
%TO.P,U1,3_7,PB7*%
%TO.N,unconnected-(U1A-PB7-Pad3_7)*%
X121590000Y-93325000D03*
%TO.P,U1,3_8,PB6*%
%TO.N,unconnected-(U1A-PB6-Pad3_8)*%
X121590000Y-95865000D03*
%TO.P,U1,3_9,PB1*%
%TO.N,X2*%
X121590000Y-98405000D03*
%TO.P,U1,3_10,PF0*%
%TO.N,unconnected-(U1A-PF0-Pad3_10)*%
X121590000Y-100945000D03*
%TO.P,U1,3_11,PF1*%
%TO.N,unconnected-(U1A-PF1-Pad3_11)*%
X121590000Y-103485000D03*
%TO.P,U1,3_12,PA8*%
%TO.N,A1*%
X121590000Y-106025000D03*
%TO.P,U1,3_13,PA11*%
%TO.N,CAN_Rx*%
X121590000Y-108565000D03*
%TO.P,U1,3_14,PB5*%
%TO.N,unconnected-(U1A-PB5-Pad3_14)*%
X121590000Y-111105000D03*
%TO.P,U1,3_15,PB4*%
%TO.N,unconnected-(U1A-PB4-Pad3_15)*%
X121590000Y-113645000D03*
D18*
%TO.P,U1,4_1,VIN*%
%TO.N,unconnected-(U1B-VIN-Pad4_1)*%
X136830000Y-78085000D03*
D19*
%TO.P,U1,4_2,GND_2*%
%TO.N,GND*%
X136830000Y-80625000D03*
%TO.P,U1,4_3,NRST_2*%
%TO.N,unconnected-(U1B-NRST_2-Pad4_3)*%
X136830000Y-83165000D03*
%TO.P,U1,4_4,+5V*%
%TO.N,+5V*%
X136830000Y-85705000D03*
%TO.P,U1,4_5,PA2*%
%TO.N,unconnected-(U1B-PA2-Pad4_5)*%
X136830000Y-88245000D03*
%TO.P,U1,4_6,PA7*%
%TO.N,unconnected-(U1B-PA7-Pad4_6)*%
X136830000Y-90785000D03*
%TO.P,U1,4_7,PA6*%
%TO.N,MD2_pwm*%
X136830000Y-93325000D03*
%TO.P,U1,4_8,PA5*%
%TO.N,MD2_dir*%
X136830000Y-95865000D03*
%TO.P,U1,4_9,PA4*%
%TO.N,MD1_pwm*%
X136830000Y-98405000D03*
%TO.P,U1,4_10,PA3*%
%TO.N,MD1_dir*%
X136830000Y-100945000D03*
%TO.P,U1,4_11,PA1*%
%TO.N,B2*%
X136830000Y-103485000D03*
%TO.P,U1,4_12,PA0*%
%TO.N,A2*%
X136830000Y-106025000D03*
%TO.P,U1,4_13,AREF*%
%TO.N,unconnected-(U1B-AREF-Pad4_13)*%
X136830000Y-108565000D03*
%TO.P,U1,4_14,+3V3*%
%TO.N,+3.3V*%
X136830000Y-111105000D03*
%TO.P,U1,4_15,PB3*%
%TO.N,unconnected-(U1B-PB3-Pad4_15)*%
X136830000Y-113645000D03*
%TD*%
D11*
%TO.P,C8,1*%
%TO.N,X2*%
X150330000Y-79300000D03*
%TO.P,C8,2*%
%TO.N,GND*%
X150330000Y-84300000D03*
%TD*%
D20*
%TO.P,U2,1,TXD*%
%TO.N,CAN_Tx*%
X143760000Y-91450000D03*
D12*
%TO.P,U2,2,VSS*%
%TO.N,GND*%
X143760000Y-93990000D03*
%TO.P,U2,3,VDD*%
%TO.N,+5V*%
X143760000Y-96530000D03*
%TO.P,U2,4,RXD*%
%TO.N,CAN_Rx*%
X143760000Y-99070000D03*
%TO.P,U2,5,Vio*%
%TO.N,+3.3V*%
X151380000Y-99070000D03*
%TO.P,U2,6,CANL*%
%TO.N,/L*%
X151380000Y-96530000D03*
%TO.P,U2,7,CANH*%
%TO.N,/H*%
X151380000Y-93990000D03*
%TO.P,U2,8,STBY*%
%TO.N,GND*%
X151380000Y-91450000D03*
%TD*%
D11*
%TO.P,C4,1*%
%TO.N,B1*%
X159700000Y-79300000D03*
%TO.P,C4,2*%
%TO.N,GND*%
X159700000Y-84300000D03*
%TD*%
%TO.P,C3,1*%
%TO.N,A1*%
X164600000Y-79300000D03*
%TO.P,C3,2*%
%TO.N,GND*%
X164600000Y-84300000D03*
%TD*%
D16*
%TO.P,MD1,1,Pin_1*%
%TO.N,GND*%
X146370000Y-111500000D03*
%TO.P,MD1,2,Pin_2*%
%TO.N,MD1_pwm*%
X148870000Y-111500000D03*
D17*
%TO.P,MD1,3,Pin_3*%
%TO.N,MD1_dir*%
X151370000Y-111500000D03*
%TD*%
D21*
%TO.N,GND*%
X157600000Y-114850000D03*
%TO.N,+3.3V*%
X139450000Y-113725000D03*
X153700000Y-99050000D03*
%TO.N,MD2_pwm*%
X140219900Y-94440100D03*
X148300000Y-105900000D03*
%TO.N,GND*%
X142050000Y-107800000D03*
X154940000Y-82296000D03*
X140208000Y-82296000D03*
X140580000Y-89240000D03*
%TO.N,X1*%
X124760000Y-89660000D03*
X166510000Y-72870000D03*
%TO.N,A1*%
X129248000Y-87886700D03*
X126090700Y-101890700D03*
%TO.N,B1*%
X124800000Y-74660000D03*
X159630000Y-71510000D03*
%TO.N,CAN_Tx*%
X128470000Y-68490000D03*
X147740000Y-88290000D03*
%TD*%
D22*
%TO.N,CAN_Rx*%
X126415000Y-108565000D02*
X121590000Y-108565000D01*
X168300000Y-114200000D02*
X165350000Y-117150000D01*
X168300000Y-106400000D02*
X168300000Y-114200000D01*
X165200000Y-103300000D02*
X168300000Y-106400000D01*
X148004000Y-103300000D02*
X165200000Y-103300000D01*
X135000000Y-117150000D02*
X126415000Y-108565000D01*
X143774000Y-99070000D02*
X148004000Y-103300000D01*
X165350000Y-117150000D02*
X135000000Y-117150000D01*
X143760000Y-99070000D02*
X143774000Y-99070000D01*
%TO.N,MD1_dir*%
X141150000Y-111050000D02*
X139800000Y-109700000D01*
X139800000Y-104250000D02*
X136830000Y-101280000D01*
X136830000Y-101280000D02*
X136830000Y-100945000D01*
X142266000Y-115316000D02*
X141150000Y-114200000D01*
X151370000Y-115316000D02*
X142266000Y-115316000D01*
X139800000Y-109700000D02*
X139800000Y-104250000D01*
X151370000Y-111710000D02*
X151370000Y-115316000D01*
X141150000Y-114200000D02*
X141150000Y-111050000D01*
D23*
%TO.N,+3.3V*%
X139450000Y-113725000D02*
X136830000Y-111105000D01*
D24*
%TO.N,+5V*%
X174870000Y-90150000D02*
X171270000Y-86550000D01*
X171270000Y-86550000D02*
X160980000Y-86550000D01*
X174870000Y-96830000D02*
X174870000Y-90150000D01*
X172450000Y-99250000D02*
X174870000Y-96830000D01*
X167650000Y-99250000D02*
X172450000Y-99250000D01*
X163100000Y-94700000D02*
X167650000Y-99250000D01*
X160300000Y-94700000D02*
X163100000Y-94700000D01*
D23*
%TO.N,+3.3V*%
X153700000Y-99050000D02*
X153680000Y-99070000D01*
X153680000Y-99070000D02*
X151380000Y-99070000D01*
D22*
%TO.N,+5V*%
X153500000Y-101500000D02*
X148730000Y-101500000D01*
X148730000Y-101500000D02*
X143760000Y-96530000D01*
X160300000Y-94700000D02*
X153500000Y-101500000D01*
X161800000Y-94700000D02*
X160300000Y-94700000D01*
%TO.N,/L*%
X155970000Y-91940000D02*
X165286000Y-91940000D01*
X165286000Y-91940000D02*
X166310000Y-92964000D01*
X151380000Y-96530000D02*
X155970000Y-91940000D01*
X169236000Y-95890000D02*
X171610000Y-95890000D01*
X166310000Y-92964000D02*
X169236000Y-95890000D01*
%TO.N,MD2_pwm*%
X163950000Y-106800000D02*
X163950000Y-111440000D01*
X148300000Y-105900000D02*
X163050000Y-105900000D01*
X163050000Y-105900000D02*
X163950000Y-106800000D01*
%TO.N,MD2_dir*%
X163750000Y-104550000D02*
X166450000Y-107250000D01*
X166450000Y-107250000D02*
X166450000Y-111440000D01*
X137875000Y-95865000D02*
X146560000Y-104550000D01*
X146560000Y-104550000D02*
X163750000Y-104550000D01*
X136830000Y-95865000D02*
X137875000Y-95865000D01*
%TO.N,A2*%
X134990000Y-74180000D02*
X145660000Y-74180000D01*
X132550000Y-76620000D02*
X134990000Y-74180000D01*
X136460400Y-106025000D02*
X132550000Y-102114600D01*
X145660000Y-74180000D02*
X147800000Y-76320000D01*
X147800000Y-76320000D02*
X147800000Y-79520000D01*
X136830000Y-106025000D02*
X136460400Y-106025000D01*
X132550000Y-102114600D02*
X132550000Y-76620000D01*
%TO.N,X2*%
X128755000Y-98405000D02*
X130860000Y-96300000D01*
X135130000Y-71700000D02*
X147695184Y-71700000D01*
X130860000Y-96300000D02*
X130860000Y-75970000D01*
X150410000Y-79590000D02*
X150410000Y-79670000D01*
X121590000Y-98405000D02*
X128755000Y-98405000D01*
X130860000Y-75970000D02*
X135130000Y-71700000D01*
X150120000Y-74124816D02*
X150120000Y-79300000D01*
X147695184Y-71700000D02*
X150120000Y-74124816D01*
X150120000Y-79300000D02*
X150410000Y-79590000D01*
%TO.N,MD1_pwm*%
X148870000Y-111710000D02*
X148870000Y-109000000D01*
X138275000Y-98405000D02*
X136830000Y-98405000D01*
X148870000Y-109000000D02*
X138275000Y-98405000D01*
%TO.N,MD2_pwm*%
X140219900Y-94440100D02*
X139104800Y-93325000D01*
X139104800Y-93325000D02*
X136830000Y-93325000D01*
%TO.N,GND*%
X121278000Y-85705000D02*
X121590000Y-85705000D01*
D24*
%TO.N,+5V*%
X162130000Y-85480000D02*
X162130000Y-86480000D01*
X145830000Y-86550000D02*
X160980000Y-86550000D01*
X162130000Y-76770000D02*
X162130000Y-85480000D01*
X162130000Y-85480000D02*
X163200000Y-86550000D01*
X161060000Y-86550000D02*
X162130000Y-85480000D01*
X160980000Y-86550000D02*
X161060000Y-86550000D01*
X145240000Y-85940000D02*
X145230000Y-85950000D01*
X145830000Y-86550000D02*
X146360000Y-86550000D01*
X144630000Y-86550000D02*
X145830000Y-86550000D01*
X145240000Y-85960000D02*
X145830000Y-86550000D01*
X137675000Y-86550000D02*
X144630000Y-86550000D01*
X145240000Y-76870000D02*
X145240000Y-85940000D01*
X145240000Y-85940000D02*
X145240000Y-85960000D01*
X145120000Y-76750000D02*
X145240000Y-76870000D01*
X163200000Y-86550000D02*
X163580000Y-86550000D01*
X162100000Y-76740000D02*
X162130000Y-76770000D01*
X144630000Y-86550000D02*
X145230000Y-85950000D01*
X162130000Y-86480000D02*
X162200000Y-86550000D01*
X136830000Y-85705000D02*
X137675000Y-86550000D01*
D22*
%TO.N,X1*%
X167140000Y-79422000D02*
X167220000Y-79502000D01*
X167140000Y-73500000D02*
X167140000Y-79422000D01*
X123635000Y-90785000D02*
X121590000Y-90785000D01*
X124760000Y-89660000D02*
X123635000Y-90785000D01*
X166510000Y-72870000D02*
X167140000Y-73500000D01*
%TO.N,A1*%
X121956400Y-106025000D02*
X121590000Y-106025000D01*
X126090700Y-101890700D02*
X121956400Y-106025000D01*
X129248000Y-87886700D02*
X129248000Y-75116700D01*
X160730800Y-69710800D02*
X164630000Y-73610000D01*
X164630000Y-73610000D02*
X164630000Y-79502000D01*
X134653900Y-69710800D02*
X160730800Y-69710800D01*
X129248000Y-75116700D02*
X134653900Y-69710800D01*
D24*
%TO.N,B1*%
X159600000Y-71540000D02*
X159600000Y-79160000D01*
X159600000Y-79160000D02*
X159512000Y-79248000D01*
X159630000Y-71510000D02*
X159600000Y-71540000D01*
D22*
X123285000Y-78085000D02*
X121590000Y-78085000D01*
X124800000Y-74660000D02*
X124800000Y-76570000D01*
X124800000Y-76570000D02*
X123285000Y-78085000D01*
%TO.N,B2*%
X141894700Y-76024700D02*
X135559800Y-76024700D01*
X135559800Y-76024700D02*
X134270000Y-77314500D01*
X142920000Y-79670000D02*
X142900000Y-79650000D01*
X136443500Y-103485000D02*
X136830000Y-103485000D01*
X142900000Y-79650000D02*
X142900000Y-77030000D01*
X142900000Y-77030000D02*
X141894700Y-76024700D01*
X134270000Y-101311500D02*
X136443500Y-103485000D01*
X134270000Y-77314500D02*
X134270000Y-101311500D01*
%TO.N,/H*%
X155026000Y-90424000D02*
X170334000Y-90424000D01*
X151460000Y-93990000D02*
X155026000Y-90424000D01*
X170334000Y-90424000D02*
X171610000Y-91700000D01*
X151380000Y-93990000D02*
X151460000Y-93990000D01*
X171610000Y-91700000D02*
X171610000Y-93390000D01*
D24*
%TO.N,CAN_Tx*%
X128470000Y-68490000D02*
X127700000Y-69260000D01*
X127700000Y-69260000D02*
X127700000Y-83740000D01*
X144580000Y-91450000D02*
X143760000Y-91450000D01*
X123195000Y-88245000D02*
X121590000Y-88245000D01*
X147740000Y-88290000D02*
X144580000Y-91450000D01*
X127700000Y-83740000D02*
X123195000Y-88245000D01*
%TD*%
%TA.AperFunction,Conductor*%
%TO.N,GND*%
G36*
X162442539Y-107370185D02*
G01*
X162488294Y-107422989D01*
X162499500Y-107474500D01*
X162499500Y-110123456D01*
X162479815Y-110190495D01*
X162473876Y-110198942D01*
X162408063Y-110284711D01*
X162286777Y-110494784D01*
X162286773Y-110494794D01*
X162193947Y-110718895D01*
X162131161Y-110953214D01*
X162099500Y-111193711D01*
X162099500Y-111686288D01*
X162131161Y-111926785D01*
X162193947Y-112161104D01*
X162277316Y-112362374D01*
X162286776Y-112385212D01*
X162408064Y-112595289D01*
X162408066Y-112595292D01*
X162408067Y-112595293D01*
X162555733Y-112787736D01*
X162555739Y-112787743D01*
X162727256Y-112959260D01*
X162727262Y-112959265D01*
X162919711Y-113106936D01*
X163129788Y-113228224D01*
X163353900Y-113321054D01*
X163588211Y-113383838D01*
X163768586Y-113407584D01*
X163828711Y-113415500D01*
X163828712Y-113415500D01*
X164071289Y-113415500D01*
X164119388Y-113409167D01*
X164311789Y-113383838D01*
X164546100Y-113321054D01*
X164770212Y-113228224D01*
X164930512Y-113135674D01*
X164998406Y-113119203D01*
X165063123Y-113141135D01*
X165230367Y-113257003D01*
X165230371Y-113257005D01*
X165230374Y-113257007D01*
X165435317Y-113350096D01*
X165435321Y-113350097D01*
X165653579Y-113405094D01*
X165653581Y-113405094D01*
X165653588Y-113405096D01*
X165785783Y-113415500D01*
X166725500Y-113415499D01*
X166792539Y-113435183D01*
X166838294Y-113487987D01*
X166849500Y-113539499D01*
X166849500Y-113547821D01*
X166829815Y-113614860D01*
X166813181Y-113635502D01*
X164785502Y-115663181D01*
X164724179Y-115696666D01*
X164697821Y-115699500D01*
X152923026Y-115699500D01*
X152855987Y-115679815D01*
X152810232Y-115627011D01*
X152800288Y-115557853D01*
X152800553Y-115556102D01*
X152820500Y-115430162D01*
X152820500Y-113194335D01*
X152840185Y-113127296D01*
X152856819Y-113106654D01*
X152875282Y-113088191D01*
X152933819Y-113029654D01*
X153062007Y-112844626D01*
X153155096Y-112639683D01*
X153210096Y-112421412D01*
X153220500Y-112289217D01*
X153220499Y-110710784D01*
X153210096Y-110578588D01*
X153204100Y-110554794D01*
X153155097Y-110360321D01*
X153155096Y-110360318D01*
X153144427Y-110336830D01*
X153062007Y-110155374D01*
X152978740Y-110035185D01*
X152933825Y-109970354D01*
X152933822Y-109970350D01*
X152933819Y-109970346D01*
X152774654Y-109811181D01*
X152774650Y-109811178D01*
X152774645Y-109811174D01*
X152589632Y-109682997D01*
X152589630Y-109682995D01*
X152589626Y-109682993D01*
X152521786Y-109652179D01*
X152384681Y-109589903D01*
X152384678Y-109589902D01*
X152166420Y-109534905D01*
X152166413Y-109534904D01*
X152122347Y-109531436D01*
X152034217Y-109524500D01*
X152034215Y-109524500D01*
X150705791Y-109524500D01*
X150705776Y-109524501D01*
X150573588Y-109534904D01*
X150474798Y-109559797D01*
X150404981Y-109557089D01*
X150347711Y-109517065D01*
X150321170Y-109452432D01*
X150320500Y-109439555D01*
X150320500Y-108885837D01*
X150284784Y-108660339D01*
X150214229Y-108443196D01*
X150110578Y-108239771D01*
X150023559Y-108120000D01*
X150023559Y-108119999D01*
X150023557Y-108119998D01*
X150004687Y-108094025D01*
X149976383Y-108055066D01*
X149483498Y-107562181D01*
X149450013Y-107500858D01*
X149454997Y-107431166D01*
X149496869Y-107375233D01*
X149562333Y-107350816D01*
X149571179Y-107350500D01*
X162375500Y-107350500D01*
X162442539Y-107370185D01*
G37*
%TD.AperFunction*%
%TA.AperFunction,Conductor*%
G36*
X141315895Y-103497212D02*
G01*
X147383181Y-109564498D01*
X147416666Y-109625821D01*
X147419500Y-109652179D01*
X147419500Y-110183456D01*
X147399815Y-110250495D01*
X147393876Y-110258942D01*
X147328063Y-110344711D01*
X147206777Y-110554784D01*
X147206773Y-110554794D01*
X147113947Y-110778895D01*
X147051161Y-111013214D01*
X147019500Y-111253711D01*
X147019500Y-111746288D01*
X147051161Y-111986785D01*
X147113947Y-112221104D01*
X147204943Y-112440787D01*
X147206776Y-112445212D01*
X147328064Y-112655289D01*
X147328066Y-112655292D01*
X147328067Y-112655293D01*
X147475733Y-112847736D01*
X147475739Y-112847743D01*
X147647256Y-113019260D01*
X147647263Y-113019266D01*
X147660801Y-113029654D01*
X147839711Y-113166936D01*
X148049788Y-113288224D01*
X148273900Y-113381054D01*
X148508211Y-113443838D01*
X148688586Y-113467584D01*
X148748711Y-113475500D01*
X148748712Y-113475500D01*
X148991289Y-113475500D01*
X149039388Y-113469167D01*
X149231789Y-113443838D01*
X149466100Y-113381054D01*
X149690212Y-113288224D01*
X149733499Y-113263231D01*
X149801399Y-113246758D01*
X149867426Y-113269610D01*
X149910617Y-113324531D01*
X149919500Y-113370618D01*
X149919500Y-113741500D01*
X149899815Y-113808539D01*
X149847011Y-113854294D01*
X149795500Y-113865500D01*
X142918178Y-113865500D01*
X142851139Y-113845815D01*
X142830497Y-113829181D01*
X142636819Y-113635502D01*
X142603334Y-113574179D01*
X142600500Y-113547821D01*
X142600500Y-110935837D01*
X142564784Y-110710339D01*
X142514242Y-110554788D01*
X142494231Y-110493201D01*
X142494229Y-110493198D01*
X142494229Y-110493196D01*
X142414556Y-110336830D01*
X142390579Y-110289772D01*
X142256379Y-110105063D01*
X142094937Y-109943621D01*
X141708405Y-109557089D01*
X141286819Y-109135502D01*
X141253334Y-109074179D01*
X141250500Y-109047821D01*
X141250500Y-104135837D01*
X141214784Y-103910339D01*
X141182049Y-103809592D01*
X141144231Y-103693201D01*
X141144229Y-103693198D01*
X141144229Y-103693196D01*
X141117729Y-103641188D01*
X141104833Y-103572519D01*
X141131109Y-103507778D01*
X141188215Y-103467521D01*
X141258021Y-103464529D01*
X141315895Y-103497212D01*
G37*
%TD.AperFunction*%
%TA.AperFunction,Conductor*%
G36*
X145625150Y-88070185D02*
G01*
X145670905Y-88122989D01*
X145680849Y-88192147D01*
X145651824Y-88255703D01*
X145645792Y-88262181D01*
X144294790Y-89613181D01*
X144233467Y-89646666D01*
X144207109Y-89649500D01*
X142901971Y-89649500D01*
X142901965Y-89649500D01*
X142901964Y-89649501D01*
X142890316Y-89650536D01*
X142782584Y-89660113D01*
X142586954Y-89716089D01*
X142496772Y-89763196D01*
X142406593Y-89810302D01*
X142406591Y-89810303D01*
X142406590Y-89810304D01*
X142248890Y-89938890D01*
X142120304Y-90096590D01*
X142026089Y-90276954D01*
X141970114Y-90472583D01*
X141970113Y-90472586D01*
X141959500Y-90591966D01*
X141959500Y-92308028D01*
X141959501Y-92308034D01*
X141970113Y-92427415D01*
X142026089Y-92623045D01*
X142026090Y-92623048D01*
X142026091Y-92623049D01*
X142120302Y-92803407D01*
X142120304Y-92803409D01*
X142248890Y-92961109D01*
X142342803Y-93037684D01*
X142406593Y-93089698D01*
X142586951Y-93183909D01*
X142782582Y-93239886D01*
X142901963Y-93250500D01*
X144618036Y-93250499D01*
X144737418Y-93239886D01*
X144933049Y-93183909D01*
X145113407Y-93089698D01*
X145271109Y-92961109D01*
X145399698Y-92803407D01*
X145465552Y-92677334D01*
X145502572Y-92634431D01*
X145557510Y-92594517D01*
X148884517Y-89267510D01*
X149023343Y-89076433D01*
X149130568Y-88865992D01*
X149203553Y-88641368D01*
X149206383Y-88623500D01*
X149240500Y-88408097D01*
X149240500Y-88174500D01*
X149260185Y-88107461D01*
X149312989Y-88061706D01*
X149364500Y-88050500D01*
X160861908Y-88050500D01*
X160941908Y-88050500D01*
X161178092Y-88050500D01*
X162081908Y-88050500D01*
X162318092Y-88050500D01*
X163081908Y-88050500D01*
X163081909Y-88050500D01*
X163318092Y-88050500D01*
X163698092Y-88050500D01*
X170597111Y-88050500D01*
X170664150Y-88070185D01*
X170684792Y-88086819D01*
X173333181Y-90735208D01*
X173366666Y-90796531D01*
X173369500Y-90822889D01*
X173369500Y-91732142D01*
X173349815Y-91799181D01*
X173297011Y-91844936D01*
X173227853Y-91854880D01*
X173169545Y-91828897D01*
X173169231Y-91829352D01*
X173166827Y-91827686D01*
X173166038Y-91827335D01*
X173164662Y-91826187D01*
X173164655Y-91826182D01*
X173164654Y-91826181D01*
X173129767Y-91802011D01*
X173113883Y-91791006D01*
X173069987Y-91736646D01*
X173060500Y-91689078D01*
X173060500Y-91585838D01*
X173039619Y-91454007D01*
X173039619Y-91454002D01*
X173034840Y-91423834D01*
X173024785Y-91360341D01*
X172954232Y-91143202D01*
X172954230Y-91143199D01*
X172954230Y-91143197D01*
X172850579Y-90939772D01*
X172716380Y-90755063D01*
X171278937Y-89317620D01*
X171135633Y-89213504D01*
X171094228Y-89183421D01*
X171072769Y-89172487D01*
X170890803Y-89079770D01*
X170673660Y-89009215D01*
X170448162Y-88973500D01*
X170448157Y-88973500D01*
X167416987Y-88973500D01*
X167349948Y-88953815D01*
X167347136Y-88951954D01*
X167212775Y-88860349D01*
X167212767Y-88860344D01*
X166969643Y-88743263D01*
X166969645Y-88743263D01*
X166711773Y-88663720D01*
X166711767Y-88663718D01*
X166444936Y-88623500D01*
X166444929Y-88623500D01*
X166175071Y-88623500D01*
X166175063Y-88623500D01*
X165908232Y-88663718D01*
X165908226Y-88663720D01*
X165650358Y-88743262D01*
X165407229Y-88860347D01*
X165407225Y-88860349D01*
X165272865Y-88951954D01*
X165206386Y-88973454D01*
X165203014Y-88973500D01*
X154911842Y-88973500D01*
X154876126Y-88979156D01*
X154876125Y-88979155D01*
X154686340Y-89009214D01*
X154469197Y-89079769D01*
X154265772Y-89183420D01*
X154184689Y-89242331D01*
X154081063Y-89317620D01*
X154081061Y-89317622D01*
X154081060Y-89317622D01*
X151231665Y-92167016D01*
X151170342Y-92200501D01*
X151162466Y-92201950D01*
X151087232Y-92213290D01*
X150978228Y-92229720D01*
X150978225Y-92229721D01*
X150978219Y-92229722D01*
X150720358Y-92309262D01*
X150477230Y-92426346D01*
X150254258Y-92578365D01*
X150056442Y-92761910D01*
X149888185Y-92972898D01*
X149753258Y-93206599D01*
X149753256Y-93206603D01*
X149654666Y-93457804D01*
X149654664Y-93457811D01*
X149594616Y-93720898D01*
X149574451Y-93989995D01*
X149574451Y-93990004D01*
X149594616Y-94259101D01*
X149654664Y-94522188D01*
X149654666Y-94522195D01*
X149751812Y-94769718D01*
X149753257Y-94773398D01*
X149888185Y-95007102D01*
X149959741Y-95096830D01*
X150028210Y-95182687D01*
X150054618Y-95247374D01*
X150041862Y-95316069D01*
X150028210Y-95337313D01*
X149888185Y-95512898D01*
X149753258Y-95746599D01*
X149753256Y-95746603D01*
X149654666Y-95997804D01*
X149654664Y-95997811D01*
X149594616Y-96260898D01*
X149574451Y-96529995D01*
X149574451Y-96530004D01*
X149594616Y-96799101D01*
X149654664Y-97062188D01*
X149654666Y-97062195D01*
X149713583Y-97212313D01*
X149753257Y-97313398D01*
X149888185Y-97547102D01*
X150017166Y-97708838D01*
X150028210Y-97722687D01*
X150054618Y-97787374D01*
X150041862Y-97856069D01*
X150028210Y-97877313D01*
X149888185Y-98052898D01*
X149753258Y-98286599D01*
X149753256Y-98286603D01*
X149654666Y-98537804D01*
X149654664Y-98537811D01*
X149594616Y-98800898D01*
X149574451Y-99069995D01*
X149574451Y-99070004D01*
X149594616Y-99339101D01*
X149654664Y-99602188D01*
X149654666Y-99602195D01*
X149753256Y-99853396D01*
X149759090Y-99863501D01*
X149775561Y-99931401D01*
X149752709Y-99997428D01*
X149697787Y-100040618D01*
X149651702Y-100049500D01*
X149382178Y-100049500D01*
X149315139Y-100029815D01*
X149294497Y-100013181D01*
X147435238Y-98153922D01*
X145571581Y-96290264D01*
X145538371Y-96230175D01*
X145485336Y-95997814D01*
X145485335Y-95997811D01*
X145485334Y-95997805D01*
X145386743Y-95746602D01*
X145251815Y-95512898D01*
X145083561Y-95301915D01*
X145083560Y-95301914D01*
X145083557Y-95301910D01*
X144885741Y-95118365D01*
X144854155Y-95096830D01*
X144662775Y-94966349D01*
X144662769Y-94966346D01*
X144662768Y-94966345D01*
X144662767Y-94966344D01*
X144419643Y-94849263D01*
X144419645Y-94849263D01*
X144161773Y-94769720D01*
X144161767Y-94769718D01*
X143894936Y-94729500D01*
X143894929Y-94729500D01*
X143625071Y-94729500D01*
X143625063Y-94729500D01*
X143358232Y-94769718D01*
X143358226Y-94769720D01*
X143100358Y-94849262D01*
X142857230Y-94966346D01*
X142634258Y-95118365D01*
X142436442Y-95301910D01*
X142268185Y-95512898D01*
X142133258Y-95746599D01*
X142133256Y-95746603D01*
X142034666Y-95997804D01*
X142034664Y-95997811D01*
X141974616Y-96260898D01*
X141954451Y-96529995D01*
X141954451Y-96530004D01*
X141974616Y-96799101D01*
X142034664Y-97062188D01*
X142034666Y-97062195D01*
X142093583Y-97212313D01*
X142133257Y-97313398D01*
X142268185Y-97547102D01*
X142397166Y-97708838D01*
X142408210Y-97722687D01*
X142434618Y-97787374D01*
X142421862Y-97856069D01*
X142408209Y-97877313D01*
X142286385Y-98030073D01*
X142229197Y-98070213D01*
X142159385Y-98073063D01*
X142101758Y-98040441D01*
X140163598Y-96102281D01*
X140130113Y-96040958D01*
X140135097Y-95971266D01*
X140176969Y-95915333D01*
X140242433Y-95890916D01*
X140251279Y-95890600D01*
X140334061Y-95890600D01*
X140516833Y-95861652D01*
X140559560Y-95854885D01*
X140776699Y-95784332D01*
X140980128Y-95680680D01*
X141164838Y-95546480D01*
X141326280Y-95385038D01*
X141460480Y-95200328D01*
X141564132Y-94996899D01*
X141634685Y-94779760D01*
X141647853Y-94696615D01*
X141670400Y-94554261D01*
X141670400Y-94325939D01*
X141636732Y-94113364D01*
X147433898Y-94113364D01*
X148264729Y-94113364D01*
X148264729Y-92901074D01*
X147433898Y-92901074D01*
X147433898Y-94113364D01*
X141636732Y-94113364D01*
X141634685Y-94100442D01*
X141634683Y-94100436D01*
X141632323Y-94093170D01*
X141564132Y-93883302D01*
X141564130Y-93883299D01*
X141564130Y-93883297D01*
X141509451Y-93775985D01*
X141460480Y-93679873D01*
X141326280Y-93495163D01*
X140049737Y-92218620D01*
X139915081Y-92120787D01*
X139915079Y-92120786D01*
X139915079Y-92120785D01*
X139865028Y-92084421D01*
X139661603Y-91980770D01*
X139444460Y-91910215D01*
X139218962Y-91874500D01*
X139218957Y-91874500D01*
X138454375Y-91874500D01*
X138387336Y-91854815D01*
X138341581Y-91802011D01*
X138331637Y-91732853D01*
X138346988Y-91688500D01*
X138425121Y-91553170D01*
X138521795Y-91306850D01*
X138580677Y-91048872D01*
X138600451Y-90785000D01*
X138599441Y-90771527D01*
X138580677Y-90521130D01*
X138580677Y-90521128D01*
X138521795Y-90263150D01*
X138425121Y-90016830D01*
X138292815Y-89787669D01*
X138137022Y-89592311D01*
X138110615Y-89527626D01*
X138123370Y-89458931D01*
X138137020Y-89437691D01*
X138292815Y-89242331D01*
X138425121Y-89013170D01*
X138521795Y-88766850D01*
X138580677Y-88508872D01*
X138589151Y-88395784D01*
X138600451Y-88245004D01*
X138600451Y-88244995D01*
X138595863Y-88183765D01*
X138610483Y-88115443D01*
X138659720Y-88065870D01*
X138719516Y-88050500D01*
X144511908Y-88050500D01*
X144748092Y-88050500D01*
X145558111Y-88050500D01*
X145625150Y-88070185D01*
G37*
%TD.AperFunction*%
%TA.AperFunction,Conductor*%
G36*
X140849829Y-77494885D02*
G01*
X140895584Y-77547689D01*
X140897351Y-77551748D01*
X140956771Y-77695202D01*
X140956779Y-77695219D01*
X141029707Y-77821532D01*
X141078064Y-77905289D01*
X141078066Y-77905292D01*
X141078067Y-77905293D01*
X141225733Y-78097736D01*
X141225739Y-78097743D01*
X141341896Y-78213900D01*
X141375381Y-78275223D01*
X141370397Y-78344915D01*
X141361603Y-78363580D01*
X141273256Y-78516603D01*
X141174666Y-78767804D01*
X141174664Y-78767811D01*
X141114616Y-79030898D01*
X141094451Y-79299995D01*
X141094451Y-79300004D01*
X141114616Y-79569101D01*
X141163645Y-79783909D01*
X141174666Y-79832195D01*
X141273257Y-80083398D01*
X141408185Y-80317102D01*
X141544080Y-80487509D01*
X141576442Y-80528089D01*
X141684999Y-80628814D01*
X141774259Y-80711635D01*
X141997226Y-80863651D01*
X142240359Y-80980738D01*
X142498228Y-81060280D01*
X142498232Y-81060280D01*
X142498233Y-81060281D01*
X142500596Y-81060637D01*
X142520447Y-81065323D01*
X142580340Y-81084784D01*
X142655507Y-81096689D01*
X142805839Y-81120499D01*
X142805843Y-81120499D01*
X143034161Y-81120499D01*
X143121614Y-81106647D01*
X143259659Y-81084784D01*
X143476798Y-81014231D01*
X143506757Y-80998965D01*
X143526500Y-80990959D01*
X143559641Y-80980738D01*
X143561690Y-80979751D01*
X143562493Y-80979618D01*
X143563955Y-80979045D01*
X143564077Y-80979357D01*
X143630625Y-80968392D01*
X143694763Y-80996106D01*
X143733735Y-81054097D01*
X143739500Y-81091466D01*
X143739500Y-84925500D01*
X143719815Y-84992539D01*
X143667011Y-85038294D01*
X143615500Y-85049500D01*
X138553882Y-85049500D01*
X138486843Y-85029815D01*
X138441088Y-84977011D01*
X138438454Y-84970802D01*
X138437682Y-84968834D01*
X138425121Y-84936830D01*
X138292815Y-84707669D01*
X138137022Y-84512311D01*
X138110615Y-84447626D01*
X138123370Y-84378931D01*
X138137020Y-84357691D01*
X138292815Y-84162331D01*
X138425121Y-83933170D01*
X138521795Y-83686850D01*
X138580677Y-83428872D01*
X138600451Y-83165000D01*
X138596964Y-83118473D01*
X138580677Y-82901130D01*
X138580677Y-82901128D01*
X138521795Y-82643150D01*
X138425121Y-82396830D01*
X138292815Y-82167669D01*
X138127832Y-81960787D01*
X137933858Y-81780806D01*
X137715226Y-81631744D01*
X137715225Y-81631743D01*
X137715218Y-81631739D01*
X137476820Y-81516935D01*
X137476822Y-81516935D01*
X137223963Y-81438938D01*
X137223957Y-81438936D01*
X136962313Y-81399500D01*
X136962306Y-81399500D01*
X136697694Y-81399500D01*
X136697686Y-81399500D01*
X136436042Y-81438936D01*
X136436036Y-81438938D01*
X136183178Y-81516935D01*
X135944782Y-81631739D01*
X135944776Y-81631743D01*
X135914350Y-81652487D01*
X135847870Y-81673986D01*
X135780320Y-81656131D01*
X135733147Y-81604590D01*
X135720500Y-81550032D01*
X135720500Y-79956534D01*
X135740185Y-79889495D01*
X135792989Y-79843740D01*
X135862147Y-79833796D01*
X135878603Y-79837316D01*
X135887582Y-79839886D01*
X136006963Y-79850500D01*
X137653036Y-79850499D01*
X137772418Y-79839886D01*
X137968049Y-79783909D01*
X138148407Y-79689698D01*
X138306109Y-79561109D01*
X138434698Y-79403407D01*
X138528909Y-79223049D01*
X138584886Y-79027418D01*
X138595500Y-78908037D01*
X138595499Y-77599199D01*
X138615184Y-77532161D01*
X138667987Y-77486406D01*
X138719499Y-77475200D01*
X140782790Y-77475200D01*
X140849829Y-77494885D01*
G37*
%TD.AperFunction*%
%TA.AperFunction,Conductor*%
G36*
X158062630Y-71180985D02*
G01*
X158108385Y-71233789D01*
X158118329Y-71302947D01*
X158118064Y-71304698D01*
X158099500Y-71421902D01*
X158099500Y-75488618D01*
X158079815Y-75555657D01*
X158073876Y-75564104D01*
X158058063Y-75584711D01*
X157936777Y-75794784D01*
X157936773Y-75794794D01*
X157843947Y-76018895D01*
X157781161Y-76253214D01*
X157749500Y-76493711D01*
X157749500Y-76986288D01*
X157770076Y-77142586D01*
X157781162Y-77226789D01*
X157783842Y-77236789D01*
X157843947Y-77461104D01*
X157936773Y-77685205D01*
X157936777Y-77685214D01*
X158032430Y-77850889D01*
X158058064Y-77895289D01*
X158058071Y-77895298D01*
X158058073Y-77895301D01*
X158073874Y-77915893D01*
X158099070Y-77981062D01*
X158099500Y-77991381D01*
X158099500Y-78437922D01*
X158082888Y-78499920D01*
X158073259Y-78516598D01*
X158073256Y-78516604D01*
X157974666Y-78767804D01*
X157974664Y-78767811D01*
X157914616Y-79030898D01*
X157894451Y-79299995D01*
X157894451Y-79300004D01*
X157914616Y-79569101D01*
X157963645Y-79783909D01*
X157974666Y-79832195D01*
X158073257Y-80083398D01*
X158208185Y-80317102D01*
X158344080Y-80487509D01*
X158376442Y-80528089D01*
X158484999Y-80628814D01*
X158574259Y-80711635D01*
X158797226Y-80863651D01*
X159040359Y-80980738D01*
X159298228Y-81060280D01*
X159298229Y-81060280D01*
X159298232Y-81060281D01*
X159565063Y-81100499D01*
X159565068Y-81100499D01*
X159565071Y-81100500D01*
X159565072Y-81100500D01*
X159834928Y-81100500D01*
X159834929Y-81100500D01*
X159894866Y-81091466D01*
X160101767Y-81060281D01*
X160101768Y-81060280D01*
X160101772Y-81060280D01*
X160359641Y-80980738D01*
X160451700Y-80936404D01*
X160520639Y-80925053D01*
X160584774Y-80952775D01*
X160623740Y-81010770D01*
X160629500Y-81048125D01*
X160629500Y-84807110D01*
X160609815Y-84874149D01*
X160593185Y-84894786D01*
X160474790Y-85013182D01*
X160413470Y-85046666D01*
X160387111Y-85049500D01*
X156815955Y-85049500D01*
X156748916Y-85029815D01*
X156703161Y-84977011D01*
X156693217Y-84907853D01*
X156722242Y-84844297D01*
X156728274Y-84837819D01*
X156756729Y-84809364D01*
X156756729Y-83597074D01*
X155925898Y-83597074D01*
X155925898Y-84809364D01*
X155954353Y-84837819D01*
X155987838Y-84899142D01*
X155982854Y-84968834D01*
X155940982Y-85024767D01*
X155875518Y-85049184D01*
X155866672Y-85049500D01*
X146864500Y-85049500D01*
X146797461Y-85029815D01*
X146751706Y-84977011D01*
X146740500Y-84925500D01*
X146740500Y-80923237D01*
X146760185Y-80856198D01*
X146812989Y-80810443D01*
X146882147Y-80800499D01*
X146934350Y-80820783D01*
X146997226Y-80863651D01*
X147240359Y-80980738D01*
X147498228Y-81060280D01*
X147498229Y-81060280D01*
X147498232Y-81060281D01*
X147765063Y-81100499D01*
X147765068Y-81100499D01*
X147765071Y-81100500D01*
X147765072Y-81100500D01*
X148034928Y-81100500D01*
X148034929Y-81100500D01*
X148094866Y-81091466D01*
X148301767Y-81060281D01*
X148301768Y-81060280D01*
X148301772Y-81060280D01*
X148559641Y-80980738D01*
X148802775Y-80863651D01*
X149025741Y-80711635D01*
X149030653Y-80707076D01*
X149093183Y-80675904D01*
X149162640Y-80683487D01*
X149199347Y-80707077D01*
X149204254Y-80711631D01*
X149204256Y-80711632D01*
X149204259Y-80711635D01*
X149427226Y-80863651D01*
X149670359Y-80980738D01*
X149928228Y-81060280D01*
X149928229Y-81060280D01*
X149928232Y-81060281D01*
X150042523Y-81077507D01*
X150062357Y-81082190D01*
X150070340Y-81084784D01*
X150154903Y-81098177D01*
X150295838Y-81120500D01*
X150295843Y-81120500D01*
X150524162Y-81120500D01*
X150749660Y-81084784D01*
X150772056Y-81077507D01*
X150966799Y-81014231D01*
X151170228Y-80910579D01*
X151264485Y-80842095D01*
X151267450Y-80840009D01*
X151295648Y-80820784D01*
X151455741Y-80711635D01*
X151653561Y-80528085D01*
X151821815Y-80317102D01*
X151956743Y-80083398D01*
X152055334Y-79832195D01*
X152115383Y-79569103D01*
X152135549Y-79300000D01*
X152133242Y-79269220D01*
X152115383Y-79030898D01*
X152087341Y-78908037D01*
X152055334Y-78767805D01*
X151956743Y-78516602D01*
X151821815Y-78282898D01*
X151653561Y-78071915D01*
X151653559Y-78071913D01*
X151653150Y-78071400D01*
X151626742Y-78006713D01*
X151639497Y-77938018D01*
X151651723Y-77918599D01*
X151661927Y-77905301D01*
X151661927Y-77905299D01*
X151661936Y-77905289D01*
X151783224Y-77695212D01*
X151876054Y-77471100D01*
X151938838Y-77236789D01*
X151970500Y-76996288D01*
X151970500Y-76503712D01*
X151969183Y-76493712D01*
X151960187Y-76425373D01*
X151938838Y-76263211D01*
X151876054Y-76028900D01*
X151783224Y-75804788D01*
X151777450Y-75794788D01*
X151661936Y-75594711D01*
X151596124Y-75508942D01*
X151570930Y-75443773D01*
X151570500Y-75433456D01*
X151570500Y-74010653D01*
X151534784Y-73785155D01*
X151464229Y-73568012D01*
X151360578Y-73364587D01*
X151292103Y-73270340D01*
X151292103Y-73270339D01*
X151226383Y-73179882D01*
X149419482Y-71372981D01*
X149385997Y-71311658D01*
X149390981Y-71241966D01*
X149432853Y-71186033D01*
X149498317Y-71161616D01*
X149507163Y-71161300D01*
X157995591Y-71161300D01*
X158062630Y-71180985D01*
G37*
%TD.AperFunction*%
%TA.AperFunction,Conductor*%
G36*
X177812539Y-65644185D02*
G01*
X177858294Y-65696989D01*
X177869500Y-65748500D01*
X177869500Y-123113500D01*
X177849815Y-123180539D01*
X177797011Y-123226294D01*
X177745500Y-123237500D01*
X115274500Y-123237500D01*
X115207461Y-123217815D01*
X115161706Y-123165011D01*
X115150500Y-123113500D01*
X115150500Y-119187648D01*
X116683500Y-119187648D01*
X116683500Y-119392351D01*
X116715522Y-119594534D01*
X116778781Y-119789223D01*
X116871715Y-119971613D01*
X116992028Y-120137213D01*
X117136786Y-120281971D01*
X117291749Y-120394556D01*
X117302390Y-120402287D01*
X117418607Y-120461503D01*
X117484776Y-120495218D01*
X117484778Y-120495218D01*
X117484781Y-120495220D01*
X117589137Y-120529127D01*
X117679465Y-120558477D01*
X117780557Y-120574488D01*
X117881648Y-120590500D01*
X117881649Y-120590500D01*
X118086351Y-120590500D01*
X118086352Y-120590500D01*
X118288534Y-120558477D01*
X118483219Y-120495220D01*
X118665610Y-120402287D01*
X118758590Y-120334732D01*
X118831213Y-120281971D01*
X118831215Y-120281968D01*
X118831219Y-120281966D01*
X118975966Y-120137219D01*
X118975968Y-120137215D01*
X118975971Y-120137213D01*
X119028732Y-120064590D01*
X119096287Y-119971610D01*
X119189220Y-119789219D01*
X119252477Y-119594534D01*
X119284500Y-119392352D01*
X119284500Y-119187648D01*
X119252477Y-118985466D01*
X119189220Y-118790781D01*
X119189218Y-118790778D01*
X119189218Y-118790776D01*
X119178453Y-118769648D01*
X173959500Y-118769648D01*
X173959500Y-118974351D01*
X173991522Y-119176534D01*
X174054781Y-119371223D01*
X174147715Y-119553613D01*
X174268028Y-119719213D01*
X174412786Y-119863971D01*
X174560941Y-119971610D01*
X174578390Y-119984287D01*
X174694607Y-120043503D01*
X174760776Y-120077218D01*
X174760778Y-120077218D01*
X174760781Y-120077220D01*
X174865137Y-120111127D01*
X174955465Y-120140477D01*
X175056557Y-120156488D01*
X175157648Y-120172500D01*
X175157649Y-120172500D01*
X175362351Y-120172500D01*
X175362352Y-120172500D01*
X175564534Y-120140477D01*
X175759219Y-120077220D01*
X175941610Y-119984287D01*
X176034590Y-119916732D01*
X176107213Y-119863971D01*
X176107215Y-119863968D01*
X176107219Y-119863966D01*
X176251966Y-119719219D01*
X176251968Y-119719215D01*
X176251971Y-119719213D01*
X176342554Y-119594534D01*
X176372287Y-119553610D01*
X176465220Y-119371219D01*
X176528477Y-119176534D01*
X176560500Y-118974352D01*
X176560500Y-118769648D01*
X176528477Y-118567466D01*
X176465220Y-118372781D01*
X176465218Y-118372778D01*
X176465218Y-118372776D01*
X176427131Y-118298028D01*
X176372287Y-118190390D01*
X176363077Y-118177713D01*
X176251971Y-118024786D01*
X176107213Y-117880028D01*
X175941613Y-117759715D01*
X175941612Y-117759714D01*
X175941610Y-117759713D01*
X175884653Y-117730691D01*
X175759223Y-117666781D01*
X175564534Y-117603522D01*
X175389995Y-117575878D01*
X175362352Y-117571500D01*
X175157648Y-117571500D01*
X175133329Y-117575351D01*
X174955465Y-117603522D01*
X174760776Y-117666781D01*
X174578386Y-117759715D01*
X174412786Y-117880028D01*
X174268028Y-118024786D01*
X174147715Y-118190386D01*
X174054781Y-118372776D01*
X173991522Y-118567465D01*
X173959500Y-118769648D01*
X119178453Y-118769648D01*
X119155503Y-118724607D01*
X119096287Y-118608390D01*
X119066554Y-118567466D01*
X118975971Y-118442786D01*
X118831213Y-118298028D01*
X118665613Y-118177715D01*
X118665612Y-118177714D01*
X118665610Y-118177713D01*
X118608653Y-118148691D01*
X118483223Y-118084781D01*
X118288534Y-118021522D01*
X118113995Y-117993878D01*
X118086352Y-117989500D01*
X117881648Y-117989500D01*
X117857329Y-117993351D01*
X117679465Y-118021522D01*
X117484776Y-118084781D01*
X117302386Y-118177715D01*
X117136786Y-118298028D01*
X116992028Y-118442786D01*
X116871715Y-118608386D01*
X116778781Y-118790776D01*
X116715522Y-118985465D01*
X116683500Y-119187648D01*
X115150500Y-119187648D01*
X115150500Y-80624995D01*
X119819549Y-80624995D01*
X119819549Y-80625004D01*
X119839322Y-80888869D01*
X119898202Y-81146838D01*
X119898205Y-81146850D01*
X119994879Y-81393170D01*
X120127185Y-81622331D01*
X120151234Y-81652487D01*
X120282976Y-81817687D01*
X120309385Y-81882374D01*
X120296628Y-81951069D01*
X120282976Y-81972313D01*
X120127185Y-82167669D01*
X119994879Y-82396829D01*
X119898207Y-82643144D01*
X119898202Y-82643161D01*
X119839322Y-82901130D01*
X119819549Y-83164995D01*
X119819549Y-83165004D01*
X119839322Y-83428869D01*
X119839323Y-83428872D01*
X119898205Y-83686850D01*
X119994879Y-83933170D01*
X120127185Y-84162331D01*
X120292168Y-84369213D01*
X120486142Y-84549194D01*
X120704775Y-84698256D01*
X120704780Y-84698258D01*
X120704781Y-84698259D01*
X120704782Y-84698260D01*
X120831399Y-84759234D01*
X120943178Y-84813064D01*
X120943179Y-84813064D01*
X120943182Y-84813066D01*
X121196038Y-84891062D01*
X121196039Y-84891062D01*
X121196042Y-84891063D01*
X121457686Y-84930499D01*
X121457691Y-84930499D01*
X121457694Y-84930500D01*
X121457695Y-84930500D01*
X121722305Y-84930500D01*
X121722306Y-84930500D01*
X121722313Y-84930499D01*
X121983957Y-84891063D01*
X121983958Y-84891062D01*
X121983962Y-84891062D01*
X122236818Y-84813066D01*
X122425198Y-84722347D01*
X122475218Y-84698260D01*
X122475218Y-84698259D01*
X122475226Y-84698256D01*
X122693858Y-84549194D01*
X122887832Y-84369213D01*
X123052815Y-84162331D01*
X123185121Y-83933170D01*
X123281795Y-83686850D01*
X123340677Y-83428872D01*
X123360451Y-83165000D01*
X123356964Y-83118473D01*
X123340677Y-82901130D01*
X123340677Y-82901128D01*
X123281795Y-82643150D01*
X123185121Y-82396830D01*
X123052815Y-82167669D01*
X122897022Y-81972311D01*
X122870615Y-81907626D01*
X122883370Y-81838931D01*
X122897020Y-81817691D01*
X123052815Y-81622331D01*
X123185121Y-81393170D01*
X123281795Y-81146850D01*
X123340677Y-80888872D01*
X123356306Y-80680311D01*
X123360451Y-80625004D01*
X123360451Y-80624995D01*
X123340677Y-80361130D01*
X123330628Y-80317101D01*
X123281795Y-80103150D01*
X123185121Y-79856830D01*
X123185120Y-79856829D01*
X123185121Y-79856829D01*
X123106988Y-79721500D01*
X123090515Y-79653600D01*
X123113367Y-79587573D01*
X123168289Y-79544382D01*
X123214375Y-79535500D01*
X123399162Y-79535500D01*
X123624660Y-79499784D01*
X123841799Y-79429231D01*
X124045228Y-79325579D01*
X124122954Y-79269106D01*
X124229937Y-79191380D01*
X125906380Y-77514937D01*
X125975182Y-77420238D01*
X126030512Y-77377573D01*
X126100125Y-77371594D01*
X126161920Y-77404200D01*
X126196277Y-77465038D01*
X126199500Y-77493124D01*
X126199500Y-83067111D01*
X126179815Y-83134150D01*
X126163181Y-83154792D01*
X122625558Y-86692414D01*
X122564235Y-86725899D01*
X122494543Y-86720915D01*
X122475871Y-86712117D01*
X122475229Y-86711746D01*
X122475226Y-86711744D01*
X122475218Y-86711740D01*
X122475215Y-86711738D01*
X122236820Y-86596935D01*
X122236822Y-86596935D01*
X121983963Y-86518938D01*
X121983957Y-86518936D01*
X121722313Y-86479500D01*
X121722306Y-86479500D01*
X121457694Y-86479500D01*
X121457686Y-86479500D01*
X121196042Y-86518936D01*
X121196036Y-86518938D01*
X120943178Y-86596935D01*
X120704782Y-86711739D01*
X120704781Y-86711740D01*
X120486141Y-86860806D01*
X120292170Y-87040785D01*
X120292168Y-87040787D01*
X120127185Y-87247669D01*
X119994879Y-87476829D01*
X119898207Y-87723144D01*
X119898202Y-87723161D01*
X119839322Y-87981130D01*
X119819549Y-88244995D01*
X119819549Y-88245004D01*
X119839322Y-88508869D01*
X119874666Y-88663720D01*
X119898205Y-88766850D01*
X119994879Y-89013170D01*
X120127185Y-89242331D01*
X120223867Y-89363566D01*
X120282976Y-89437687D01*
X120309385Y-89502374D01*
X120296628Y-89571069D01*
X120282976Y-89592313D01*
X120127185Y-89787669D01*
X119994879Y-90016829D01*
X119898207Y-90263144D01*
X119898202Y-90263161D01*
X119839322Y-90521130D01*
X119819549Y-90784995D01*
X119819549Y-90785004D01*
X119839322Y-91048869D01*
X119839323Y-91048872D01*
X119898205Y-91306850D01*
X119994879Y-91553170D01*
X120127185Y-91782331D01*
X120207771Y-91883382D01*
X120282976Y-91977687D01*
X120309385Y-92042374D01*
X120296628Y-92111069D01*
X120282976Y-92132313D01*
X120127185Y-92327669D01*
X119994879Y-92556829D01*
X119898207Y-92803144D01*
X119898202Y-92803161D01*
X119839322Y-93061130D01*
X119819549Y-93324995D01*
X119819549Y-93325004D01*
X119839322Y-93588869D01*
X119875506Y-93747400D01*
X119898205Y-93846850D01*
X119994879Y-94093170D01*
X120127185Y-94322331D01*
X120169694Y-94375635D01*
X120282976Y-94517687D01*
X120309385Y-94582374D01*
X120296628Y-94651069D01*
X120282976Y-94672313D01*
X120127185Y-94867669D01*
X119994879Y-95096829D01*
X119898207Y-95343144D01*
X119898202Y-95343161D01*
X119839322Y-95601130D01*
X119819549Y-95864995D01*
X119819549Y-95865004D01*
X119839322Y-96128869D01*
X119876160Y-96290264D01*
X119898205Y-96386850D01*
X119994879Y-96633170D01*
X120127185Y-96862331D01*
X120195577Y-96948092D01*
X120282976Y-97057687D01*
X120309385Y-97122374D01*
X120296628Y-97191069D01*
X120282976Y-97212313D01*
X120127185Y-97407669D01*
X119994879Y-97636829D01*
X119898207Y-97883144D01*
X119898202Y-97883161D01*
X119839322Y-98141130D01*
X119819549Y-98404995D01*
X119819549Y-98405004D01*
X119839322Y-98668869D01*
X119839323Y-98668872D01*
X119898205Y-98926850D01*
X119994879Y-99173170D01*
X120127185Y-99402331D01*
X120169772Y-99455733D01*
X120282976Y-99597687D01*
X120309385Y-99662374D01*
X120296628Y-99731069D01*
X120282976Y-99752313D01*
X120127185Y-99947669D01*
X119994879Y-100176829D01*
X119898207Y-100423144D01*
X119898202Y-100423161D01*
X119839322Y-100681130D01*
X119819549Y-100944995D01*
X119819549Y-100945004D01*
X119839322Y-101208869D01*
X119839323Y-101208872D01*
X119898205Y-101466850D01*
X119994879Y-101713170D01*
X120127185Y-101942331D01*
X120238806Y-102082299D01*
X120282976Y-102137687D01*
X120309385Y-102202374D01*
X120296628Y-102271069D01*
X120282976Y-102292313D01*
X120127185Y-102487669D01*
X119994879Y-102716829D01*
X119898207Y-102963144D01*
X119898202Y-102963161D01*
X119839322Y-103221130D01*
X119819549Y-103484995D01*
X119819549Y-103485004D01*
X119839322Y-103748869D01*
X119839323Y-103748872D01*
X119898205Y-104006850D01*
X119994879Y-104253170D01*
X120127185Y-104482331D01*
X120238806Y-104622299D01*
X120282976Y-104677687D01*
X120309385Y-104742374D01*
X120296628Y-104811069D01*
X120282976Y-104832313D01*
X120127185Y-105027669D01*
X119994879Y-105256829D01*
X119898207Y-105503144D01*
X119898202Y-105503161D01*
X119839322Y-105761130D01*
X119819549Y-106024995D01*
X119819549Y-106025004D01*
X119839322Y-106288869D01*
X119839323Y-106288872D01*
X119898205Y-106546850D01*
X119994879Y-106793170D01*
X120127185Y-107022331D01*
X120238806Y-107162299D01*
X120282976Y-107217687D01*
X120309385Y-107282374D01*
X120296628Y-107351069D01*
X120282976Y-107372313D01*
X120127185Y-107567669D01*
X119994879Y-107796829D01*
X119898207Y-108043144D01*
X119898202Y-108043161D01*
X119839322Y-108301130D01*
X119819549Y-108564995D01*
X119819549Y-108565004D01*
X119839322Y-108828869D01*
X119839323Y-108828872D01*
X119898205Y-109086850D01*
X119994879Y-109333170D01*
X120127185Y-109562331D01*
X120223408Y-109682991D01*
X120282976Y-109757687D01*
X120309385Y-109822374D01*
X120296628Y-109891069D01*
X120282976Y-109912313D01*
X120127185Y-110107669D01*
X119994879Y-110336829D01*
X119898207Y-110583144D01*
X119898202Y-110583161D01*
X119839322Y-110841130D01*
X119819549Y-111104995D01*
X119819549Y-111105004D01*
X119839322Y-111368869D01*
X119839323Y-111368872D01*
X119898205Y-111626850D01*
X119994879Y-111873170D01*
X120127185Y-112102331D01*
X120174052Y-112161100D01*
X120282976Y-112297687D01*
X120309385Y-112362374D01*
X120296628Y-112431069D01*
X120282976Y-112452313D01*
X120127185Y-112647669D01*
X119994879Y-112876829D01*
X119898207Y-113123144D01*
X119898202Y-113123161D01*
X119839322Y-113381130D01*
X119819549Y-113644995D01*
X119819549Y-113645004D01*
X119839322Y-113908869D01*
X119839323Y-113908872D01*
X119898205Y-114166850D01*
X119994879Y-114413170D01*
X120127185Y-114642331D01*
X120292168Y-114849213D01*
X120486142Y-115029194D01*
X120704775Y-115178256D01*
X120704780Y-115178258D01*
X120704781Y-115178259D01*
X120704782Y-115178260D01*
X120792720Y-115220608D01*
X120943178Y-115293064D01*
X120943179Y-115293064D01*
X120943182Y-115293066D01*
X121196038Y-115371062D01*
X121196039Y-115371062D01*
X121196042Y-115371063D01*
X121457686Y-115410499D01*
X121457691Y-115410499D01*
X121457694Y-115410500D01*
X121457695Y-115410500D01*
X121722305Y-115410500D01*
X121722306Y-115410500D01*
X121722313Y-115410499D01*
X121983957Y-115371063D01*
X121983958Y-115371062D01*
X121983962Y-115371062D01*
X122236818Y-115293066D01*
X122475226Y-115178256D01*
X122693858Y-115029194D01*
X122887832Y-114849213D01*
X123052815Y-114642331D01*
X123185121Y-114413170D01*
X123281795Y-114166850D01*
X123340677Y-113908872D01*
X123349151Y-113795784D01*
X123360451Y-113645004D01*
X123360451Y-113644995D01*
X123340677Y-113381130D01*
X123340660Y-113381054D01*
X123281795Y-113123150D01*
X123185121Y-112876830D01*
X123052815Y-112647669D01*
X122897022Y-112452311D01*
X122870615Y-112387626D01*
X122883370Y-112318931D01*
X122897020Y-112297691D01*
X123052815Y-112102331D01*
X123185121Y-111873170D01*
X123281795Y-111626850D01*
X123340677Y-111368872D01*
X123360451Y-111105000D01*
X123349076Y-110953214D01*
X123340677Y-110841130D01*
X123340466Y-110840204D01*
X123281795Y-110583150D01*
X123185121Y-110336830D01*
X123185120Y-110336829D01*
X123185121Y-110336829D01*
X123106988Y-110201500D01*
X123090515Y-110133600D01*
X123113367Y-110067573D01*
X123168289Y-110024382D01*
X123214375Y-110015500D01*
X125762821Y-110015500D01*
X125829860Y-110035185D01*
X125850502Y-110051819D01*
X134055062Y-118256379D01*
X134215275Y-118372781D01*
X134227523Y-118381680D01*
X134239770Y-118390578D01*
X134443196Y-118494229D01*
X134443198Y-118494229D01*
X134443201Y-118494231D01*
X134559592Y-118532049D01*
X134660339Y-118564784D01*
X134885838Y-118600500D01*
X134885843Y-118600500D01*
X165464162Y-118600500D01*
X165689660Y-118564784D01*
X165906799Y-118494231D01*
X166110228Y-118390579D01*
X166187954Y-118334106D01*
X166294937Y-118256380D01*
X169406380Y-115144937D01*
X169503956Y-115010635D01*
X169540579Y-114960228D01*
X169644231Y-114756799D01*
X169714784Y-114539660D01*
X169734818Y-114413170D01*
X169750500Y-114314162D01*
X169750500Y-106285837D01*
X169714784Y-106060339D01*
X169644229Y-105843196D01*
X169593291Y-105743226D01*
X169540579Y-105639772D01*
X169525636Y-105619205D01*
X169406380Y-105455063D01*
X166144937Y-102193620D01*
X166144933Y-102193616D01*
X166037955Y-102115894D01*
X166037953Y-102115891D01*
X165977629Y-102072063D01*
X165960228Y-102059421D01*
X165946310Y-102052329D01*
X165756803Y-101955770D01*
X165539660Y-101885215D01*
X165314162Y-101849500D01*
X165314157Y-101849500D01*
X158371922Y-101849500D01*
X158304883Y-101829815D01*
X158259128Y-101777011D01*
X158249184Y-101707853D01*
X158256494Y-101680197D01*
X158275334Y-101632195D01*
X158335383Y-101369103D01*
X158355549Y-101100000D01*
X158335383Y-100830897D01*
X158275334Y-100567805D01*
X158176743Y-100316602D01*
X158041815Y-100082898D01*
X157873561Y-99871915D01*
X157873560Y-99871914D01*
X157873557Y-99871910D01*
X157754683Y-99761612D01*
X157675741Y-99688365D01*
X157654258Y-99673718D01*
X157613409Y-99645867D01*
X157569108Y-99591837D01*
X157561050Y-99522434D01*
X157591793Y-99459692D01*
X157595558Y-99455756D01*
X160814497Y-96236819D01*
X160875820Y-96203334D01*
X160902178Y-96200500D01*
X162427111Y-96200500D01*
X162494150Y-96220185D01*
X162514792Y-96236819D01*
X166672491Y-100394519D01*
X166672496Y-100394523D01*
X166787516Y-100478089D01*
X166863567Y-100533343D01*
X166997659Y-100601666D01*
X167074003Y-100640566D01*
X167074005Y-100640566D01*
X167074008Y-100640568D01*
X167194412Y-100679689D01*
X167298631Y-100713553D01*
X167531903Y-100750500D01*
X167531908Y-100750500D01*
X167768092Y-100750500D01*
X171416351Y-100750500D01*
X171483390Y-100770185D01*
X171486202Y-100772046D01*
X171547226Y-100813651D01*
X171790359Y-100930738D01*
X172048228Y-101010280D01*
X172048229Y-101010280D01*
X172048232Y-101010281D01*
X172315063Y-101050499D01*
X172315068Y-101050499D01*
X172315071Y-101050500D01*
X172315072Y-101050500D01*
X172584928Y-101050500D01*
X172584929Y-101050500D01*
X172584936Y-101050499D01*
X172851767Y-101010281D01*
X172851768Y-101010280D01*
X172851772Y-101010280D01*
X173109641Y-100930738D01*
X173352775Y-100813651D01*
X173575741Y-100661635D01*
X173773561Y-100478085D01*
X173941815Y-100267102D01*
X174076743Y-100033398D01*
X174175334Y-99782195D01*
X174207458Y-99641447D01*
X174240666Y-99581359D01*
X176014518Y-97807510D01*
X176153343Y-97616433D01*
X176260568Y-97405992D01*
X176333553Y-97181368D01*
X176342897Y-97122374D01*
X176370500Y-96948097D01*
X176370500Y-90031902D01*
X176333553Y-89798631D01*
X176273296Y-89613181D01*
X176260568Y-89574008D01*
X176260566Y-89574005D01*
X176260566Y-89574003D01*
X176191109Y-89437687D01*
X176153343Y-89363567D01*
X176132225Y-89334500D01*
X176119962Y-89317622D01*
X176014520Y-89172493D01*
X176014515Y-89172487D01*
X172247512Y-85405485D01*
X172247511Y-85405484D01*
X172056434Y-85266657D01*
X171845996Y-85159433D01*
X171621368Y-85086446D01*
X171388097Y-85049500D01*
X171388092Y-85049500D01*
X163872890Y-85049500D01*
X163805851Y-85029815D01*
X163785209Y-85013181D01*
X163666819Y-84894791D01*
X163633334Y-84833468D01*
X163630500Y-84807110D01*
X163630500Y-81028862D01*
X163650185Y-80961823D01*
X163702989Y-80916068D01*
X163772147Y-80906124D01*
X163808299Y-80917141D01*
X163940359Y-80980738D01*
X164198228Y-81060280D01*
X164198229Y-81060280D01*
X164198232Y-81060281D01*
X164465063Y-81100499D01*
X164465068Y-81100499D01*
X164465071Y-81100500D01*
X164465072Y-81100500D01*
X164734928Y-81100500D01*
X164734929Y-81100500D01*
X164794866Y-81091466D01*
X165001767Y-81060281D01*
X165001768Y-81060280D01*
X165001772Y-81060280D01*
X165259641Y-80980738D01*
X165502775Y-80863651D01*
X165725741Y-80711635D01*
X165865660Y-80581808D01*
X165928191Y-80550641D01*
X165997647Y-80558228D01*
X166034338Y-80581807D01*
X166174259Y-80711635D01*
X166397226Y-80863651D01*
X166640359Y-80980738D01*
X166898228Y-81060280D01*
X166898229Y-81060280D01*
X166898232Y-81060281D01*
X167165063Y-81100499D01*
X167165068Y-81100499D01*
X167165071Y-81100500D01*
X167165072Y-81100500D01*
X167434928Y-81100500D01*
X167434929Y-81100500D01*
X167494866Y-81091466D01*
X167701767Y-81060281D01*
X167701768Y-81060280D01*
X167701772Y-81060280D01*
X167959641Y-80980738D01*
X168202775Y-80863651D01*
X168425741Y-80711635D01*
X168591075Y-80558228D01*
X168623557Y-80528089D01*
X168623557Y-80528087D01*
X168623561Y-80528085D01*
X168791815Y-80317102D01*
X168926743Y-80083398D01*
X169025334Y-79832195D01*
X169085383Y-79569103D01*
X169105549Y-79300000D01*
X169103242Y-79269220D01*
X169085383Y-79030898D01*
X169057341Y-78908037D01*
X169025334Y-78767805D01*
X168926743Y-78516602D01*
X168791815Y-78282898D01*
X168624333Y-78072884D01*
X168597927Y-78008201D01*
X168610682Y-77939505D01*
X168622902Y-77920093D01*
X168641936Y-77895289D01*
X168763224Y-77685212D01*
X168856054Y-77461100D01*
X168918838Y-77226789D01*
X168950500Y-76986288D01*
X168950500Y-76493712D01*
X168918838Y-76253211D01*
X168856054Y-76018900D01*
X168763224Y-75794788D01*
X168641936Y-75584711D01*
X168626124Y-75564104D01*
X168616123Y-75551070D01*
X168590930Y-75485901D01*
X168590500Y-75475585D01*
X168590500Y-73385838D01*
X168579517Y-73316497D01*
X168579517Y-73316496D01*
X168554785Y-73160340D01*
X168484230Y-72943197D01*
X168380579Y-72739772D01*
X168246380Y-72555063D01*
X167454937Y-71763620D01*
X167454935Y-71763618D01*
X167454930Y-71763614D01*
X167270230Y-71629423D01*
X167270229Y-71629422D01*
X167270227Y-71629421D01*
X167066799Y-71525769D01*
X166954170Y-71489173D01*
X166849660Y-71455216D01*
X166624161Y-71419501D01*
X166624157Y-71419501D01*
X166395843Y-71419501D01*
X166395839Y-71419501D01*
X166170340Y-71455216D01*
X166170337Y-71455216D01*
X165953198Y-71525770D01*
X165749769Y-71629423D01*
X165565069Y-71763614D01*
X165565064Y-71763618D01*
X165403618Y-71925064D01*
X165317587Y-72043476D01*
X165262257Y-72086141D01*
X165192643Y-72092120D01*
X165130848Y-72059514D01*
X165129588Y-72058271D01*
X161675731Y-68604414D01*
X161518251Y-68490000D01*
X161518250Y-68489998D01*
X161501695Y-68477971D01*
X161491028Y-68470221D01*
X161477110Y-68463129D01*
X161287603Y-68366570D01*
X161070460Y-68296015D01*
X160844962Y-68260300D01*
X160844957Y-68260300D01*
X134539743Y-68260300D01*
X134539738Y-68260300D01*
X134314239Y-68296015D01*
X134097096Y-68366570D01*
X133893671Y-68470221D01*
X133863211Y-68492352D01*
X133708963Y-68604420D01*
X133708961Y-68604422D01*
X133708960Y-68604422D01*
X129412181Y-72901202D01*
X129350858Y-72934687D01*
X129281166Y-72929703D01*
X129225233Y-72887831D01*
X129200816Y-72822367D01*
X129200500Y-72813521D01*
X129200500Y-69932889D01*
X129220185Y-69865850D01*
X129236819Y-69845208D01*
X129423550Y-69658477D01*
X129614517Y-69467510D01*
X129753343Y-69276434D01*
X129860568Y-69065993D01*
X129933552Y-68841369D01*
X129959699Y-68676284D01*
X129970499Y-68608097D01*
X129970499Y-68371903D01*
X129949004Y-68236198D01*
X129933552Y-68138632D01*
X129860568Y-67914008D01*
X129860568Y-67914007D01*
X129753342Y-67703566D01*
X129614517Y-67512490D01*
X129563675Y-67461648D01*
X174721500Y-67461648D01*
X174721500Y-67666351D01*
X174753522Y-67868534D01*
X174816781Y-68063223D01*
X174909715Y-68245613D01*
X175030028Y-68411213D01*
X175174786Y-68555971D01*
X175329749Y-68668556D01*
X175340390Y-68676287D01*
X175456607Y-68735503D01*
X175522776Y-68769218D01*
X175522778Y-68769218D01*
X175522781Y-68769220D01*
X175627137Y-68803127D01*
X175717465Y-68832477D01*
X175773607Y-68841369D01*
X175919648Y-68864500D01*
X175919649Y-68864500D01*
X176124351Y-68864500D01*
X176124352Y-68864500D01*
X176326534Y-68832477D01*
X176521219Y-68769220D01*
X176703610Y-68676287D01*
X176797473Y-68608092D01*
X176869213Y-68555971D01*
X176869215Y-68555968D01*
X176869219Y-68555966D01*
X177013966Y-68411219D01*
X177013968Y-68411215D01*
X177013971Y-68411213D01*
X177097666Y-68296015D01*
X177134287Y-68245610D01*
X177227220Y-68063219D01*
X177290477Y-67868534D01*
X177322500Y-67666352D01*
X177322500Y-67461648D01*
X177304101Y-67345483D01*
X177290477Y-67259465D01*
X177261127Y-67169137D01*
X177227220Y-67064781D01*
X177227218Y-67064778D01*
X177227218Y-67064776D01*
X177188863Y-66989501D01*
X177134287Y-66882390D01*
X177126556Y-66871749D01*
X177013971Y-66716786D01*
X176869213Y-66572028D01*
X176703613Y-66451715D01*
X176703612Y-66451714D01*
X176703610Y-66451713D01*
X176646653Y-66422691D01*
X176521223Y-66358781D01*
X176326534Y-66295522D01*
X176151995Y-66267878D01*
X176124352Y-66263500D01*
X175919648Y-66263500D01*
X175895329Y-66267351D01*
X175717465Y-66295522D01*
X175522776Y-66358781D01*
X175340386Y-66451715D01*
X175174786Y-66572028D01*
X175030028Y-66716786D01*
X174909715Y-66882386D01*
X174816781Y-67064776D01*
X174753522Y-67259465D01*
X174721500Y-67461648D01*
X129563675Y-67461648D01*
X129447510Y-67345483D01*
X129256433Y-67206657D01*
X129213497Y-67184780D01*
X129045992Y-67099431D01*
X129045989Y-67099430D01*
X128821369Y-67026448D01*
X128588096Y-66989501D01*
X128588091Y-66989501D01*
X128351908Y-66989501D01*
X128351903Y-66989501D01*
X128118629Y-67026448D01*
X127894009Y-67099430D01*
X127894006Y-67099431D01*
X127683565Y-67206657D01*
X127492488Y-67345484D01*
X126555484Y-68282488D01*
X126416657Y-68473565D01*
X126348113Y-68608092D01*
X126309433Y-68684003D01*
X126236446Y-68908631D01*
X126199500Y-69141902D01*
X126199500Y-73736875D01*
X126179815Y-73803914D01*
X126127011Y-73849669D01*
X126057853Y-73859613D01*
X125994297Y-73830588D01*
X125975183Y-73809761D01*
X125906383Y-73715069D01*
X125906379Y-73715063D01*
X125744937Y-73553621D01*
X125560228Y-73419421D01*
X125356803Y-73315770D01*
X125139660Y-73245215D01*
X124914162Y-73209500D01*
X124914157Y-73209500D01*
X124685843Y-73209500D01*
X124685838Y-73209500D01*
X124460339Y-73245215D01*
X124243196Y-73315770D01*
X124039771Y-73419421D01*
X123855061Y-73553622D01*
X123693622Y-73715061D01*
X123559421Y-73899771D01*
X123455770Y-74103196D01*
X123385215Y-74320339D01*
X123349500Y-74545837D01*
X123349500Y-75917820D01*
X123329815Y-75984859D01*
X123313181Y-76005501D01*
X122926793Y-76391888D01*
X122865470Y-76425373D01*
X122795778Y-76420389D01*
X122781702Y-76414117D01*
X122728049Y-76386091D01*
X122728044Y-76386089D01*
X122728043Y-76386089D01*
X122663283Y-76367559D01*
X122532418Y-76330114D01*
X122532415Y-76330113D01*
X122532413Y-76330113D01*
X122466102Y-76324217D01*
X122413037Y-76319500D01*
X122413032Y-76319500D01*
X120766971Y-76319500D01*
X120766965Y-76319500D01*
X120766964Y-76319501D01*
X120755316Y-76320536D01*
X120647584Y-76330113D01*
X120451954Y-76386089D01*
X120398298Y-76414117D01*
X120271593Y-76480302D01*
X120271591Y-76480303D01*
X120271590Y-76480304D01*
X120113890Y-76608890D01*
X119985304Y-76766590D01*
X119891089Y-76946954D01*
X119846332Y-77103376D01*
X119839631Y-77126798D01*
X119835114Y-77142583D01*
X119835113Y-77142586D01*
X119824500Y-77261966D01*
X119824500Y-78908028D01*
X119824501Y-78908034D01*
X119835113Y-79027415D01*
X119891089Y-79223045D01*
X119985305Y-79403412D01*
X120090121Y-79531959D01*
X120117230Y-79596355D01*
X120105221Y-79665185D01*
X120101406Y-79672319D01*
X119994879Y-79856829D01*
X119898207Y-80103144D01*
X119898202Y-80103161D01*
X119839322Y-80361130D01*
X119819549Y-80624995D01*
X115150500Y-80624995D01*
X115150500Y-68287648D01*
X117063500Y-68287648D01*
X117063500Y-68492351D01*
X117095522Y-68694534D01*
X117158781Y-68889223D01*
X117168671Y-68908632D01*
X117248849Y-69065990D01*
X117251715Y-69071613D01*
X117372028Y-69237213D01*
X117516786Y-69381971D01*
X117671749Y-69494556D01*
X117682390Y-69502287D01*
X117798607Y-69561503D01*
X117864776Y-69595218D01*
X117864778Y-69595218D01*
X117864781Y-69595220D01*
X117969137Y-69629127D01*
X118059465Y-69658477D01*
X118160557Y-69674488D01*
X118261648Y-69690500D01*
X118261649Y-69690500D01*
X118466351Y-69690500D01*
X118466352Y-69690500D01*
X118668534Y-69658477D01*
X118863219Y-69595220D01*
X119045610Y-69502287D01*
X119138590Y-69434732D01*
X119211213Y-69381971D01*
X119211215Y-69381968D01*
X119211219Y-69381966D01*
X119355966Y-69237219D01*
X119355968Y-69237215D01*
X119355971Y-69237213D01*
X119425217Y-69141902D01*
X119476287Y-69071610D01*
X119569220Y-68889219D01*
X119632477Y-68694534D01*
X119664500Y-68492352D01*
X119664500Y-68287648D01*
X119640898Y-68138632D01*
X119632477Y-68085465D01*
X119603127Y-67995137D01*
X119569220Y-67890781D01*
X119569218Y-67890778D01*
X119569218Y-67890776D01*
X119535503Y-67824607D01*
X119476287Y-67708390D01*
X119445744Y-67666351D01*
X119355971Y-67542786D01*
X119211213Y-67398028D01*
X119045613Y-67277715D01*
X119045612Y-67277714D01*
X119045610Y-67277713D01*
X118988653Y-67248691D01*
X118863223Y-67184781D01*
X118668534Y-67121522D01*
X118493995Y-67093878D01*
X118466352Y-67089500D01*
X118261648Y-67089500D01*
X118237329Y-67093351D01*
X118059465Y-67121522D01*
X117864776Y-67184781D01*
X117682386Y-67277715D01*
X117516786Y-67398028D01*
X117372028Y-67542786D01*
X117251715Y-67708386D01*
X117158781Y-67890776D01*
X117095522Y-68085465D01*
X117063500Y-68287648D01*
X115150500Y-68287648D01*
X115150500Y-65748500D01*
X115170185Y-65681461D01*
X115222989Y-65635706D01*
X115274500Y-65624500D01*
X177745500Y-65624500D01*
X177812539Y-65644185D01*
G37*
%TD.AperFunction*%
%TD*%
%TA.AperFunction,NonConductor*%
G36*
X127716834Y-85947706D02*
G01*
X127772767Y-85989578D01*
X127797184Y-86055042D01*
X127797500Y-86063888D01*
X127797500Y-88000862D01*
X127833215Y-88226360D01*
X127903770Y-88443503D01*
X128007421Y-88646928D01*
X128141621Y-88831637D01*
X128303063Y-88993079D01*
X128487772Y-89127279D01*
X128583884Y-89176250D01*
X128691196Y-89230929D01*
X128691198Y-89230929D01*
X128691201Y-89230931D01*
X128807592Y-89268749D01*
X128908339Y-89301484D01*
X129133838Y-89337200D01*
X129285500Y-89337200D01*
X129352539Y-89356885D01*
X129398294Y-89409689D01*
X129409500Y-89461200D01*
X129409500Y-95647821D01*
X129389815Y-95714860D01*
X129373181Y-95735502D01*
X128190502Y-96918181D01*
X128129179Y-96951666D01*
X128102821Y-96954500D01*
X123214375Y-96954500D01*
X123147336Y-96934815D01*
X123101581Y-96882011D01*
X123091637Y-96812853D01*
X123106988Y-96768500D01*
X123185121Y-96633170D01*
X123281795Y-96386850D01*
X123340677Y-96128872D01*
X123360451Y-95865000D01*
X123340677Y-95601128D01*
X123281795Y-95343150D01*
X123185121Y-95096830D01*
X123052815Y-94867669D01*
X122994613Y-94794686D01*
X122968204Y-94729999D01*
X122967561Y-94717980D01*
X122966394Y-94474678D01*
X122985756Y-94407551D01*
X122993432Y-94396793D01*
X123052815Y-94322331D01*
X123185121Y-94093170D01*
X123281795Y-93846850D01*
X123340677Y-93588872D01*
X123360451Y-93325000D01*
X123340677Y-93061128D01*
X123281795Y-92803150D01*
X123185121Y-92556830D01*
X123185120Y-92556829D01*
X123185121Y-92556829D01*
X123106988Y-92421500D01*
X123090515Y-92353600D01*
X123113367Y-92287573D01*
X123168289Y-92244382D01*
X123214375Y-92235500D01*
X123749162Y-92235500D01*
X123974660Y-92199784D01*
X124191799Y-92129231D01*
X124395228Y-92025579D01*
X124472954Y-91969106D01*
X124579937Y-91891380D01*
X125866379Y-90604937D01*
X126000579Y-90420228D01*
X126104231Y-90216799D01*
X126174784Y-89999660D01*
X126186689Y-89924492D01*
X126210499Y-89774161D01*
X126210499Y-89545838D01*
X126188935Y-89409689D01*
X126174784Y-89320341D01*
X126104231Y-89103202D01*
X126104229Y-89103199D01*
X126104229Y-89103197D01*
X126000578Y-88899772D01*
X125866379Y-88715063D01*
X125704937Y-88553621D01*
X125520227Y-88419421D01*
X125422136Y-88369441D01*
X125371340Y-88321466D01*
X125354545Y-88253645D01*
X125377083Y-88187510D01*
X125390744Y-88171281D01*
X127585821Y-85976205D01*
X127647142Y-85942722D01*
X127716834Y-85947706D01*
G37*
%TD.AperFunction*%
%TA.AperFunction,NonConductor*%
G36*
X131018834Y-98294997D02*
G01*
X131074767Y-98336869D01*
X131099184Y-98402333D01*
X131099500Y-98411179D01*
X131099500Y-102228762D01*
X131135215Y-102454260D01*
X131205770Y-102671403D01*
X131289452Y-102835637D01*
X131309421Y-102874828D01*
X131345872Y-102924998D01*
X131443620Y-103059537D01*
X134556607Y-106172524D01*
X134590092Y-106233847D01*
X134592920Y-106261439D01*
X134512802Y-114313363D01*
X134492451Y-114380203D01*
X134439195Y-114425430D01*
X134369941Y-114434685D01*
X134306677Y-114405029D01*
X134301127Y-114399810D01*
X127359937Y-107458620D01*
X127334011Y-107439784D01*
X127225281Y-107360787D01*
X127225279Y-107360786D01*
X127225279Y-107360785D01*
X127175228Y-107324421D01*
X126971803Y-107220770D01*
X126754660Y-107150215D01*
X126529162Y-107114500D01*
X126529157Y-107114500D01*
X123217577Y-107114500D01*
X123150538Y-107094815D01*
X123104783Y-107042011D01*
X123094839Y-106972853D01*
X123123864Y-106909297D01*
X123129896Y-106902819D01*
X125005046Y-105027669D01*
X127197079Y-102835637D01*
X127331279Y-102650928D01*
X127434931Y-102447499D01*
X127505484Y-102230360D01*
X127534189Y-102049121D01*
X127541199Y-102004861D01*
X127541199Y-101776538D01*
X127523884Y-101667220D01*
X127505484Y-101551041D01*
X127434931Y-101333902D01*
X127434929Y-101333899D01*
X127434929Y-101333897D01*
X127331278Y-101130472D01*
X127197079Y-100945763D01*
X127035637Y-100784321D01*
X126850927Y-100650121D01*
X126647502Y-100546470D01*
X126430359Y-100475916D01*
X126204861Y-100440201D01*
X126204857Y-100440201D01*
X125976543Y-100440201D01*
X125976539Y-100440201D01*
X125751041Y-100475915D01*
X125751035Y-100475917D01*
X125533896Y-100546470D01*
X125330471Y-100650121D01*
X125145761Y-100784322D01*
X125145760Y-100784323D01*
X123309686Y-102620396D01*
X123248363Y-102653881D01*
X123178671Y-102648897D01*
X123122738Y-102607025D01*
X123114618Y-102594715D01*
X123112230Y-102590580D01*
X123052815Y-102487669D01*
X123031383Y-102460794D01*
X123004976Y-102396110D01*
X123004333Y-102384099D01*
X123002726Y-102049121D01*
X123022088Y-101981993D01*
X123029773Y-101971224D01*
X123052815Y-101942331D01*
X123185121Y-101713170D01*
X123281795Y-101466850D01*
X123340677Y-101208872D01*
X123360451Y-100945000D01*
X123340677Y-100681128D01*
X123281795Y-100423150D01*
X123185121Y-100176830D01*
X123185120Y-100176829D01*
X123185121Y-100176829D01*
X123106988Y-100041500D01*
X123090515Y-99973600D01*
X123113367Y-99907573D01*
X123168289Y-99864382D01*
X123214375Y-99855500D01*
X128869162Y-99855500D01*
X129094660Y-99819784D01*
X129311799Y-99749231D01*
X129515228Y-99645579D01*
X129592954Y-99589106D01*
X129699937Y-99511380D01*
X130887819Y-98323498D01*
X130949142Y-98290013D01*
X131018834Y-98294997D01*
G37*
%TD.AperFunction*%
M02*
