%TF.GenerationSoftware,KiCad,Pcbnew,8.0.4*%
%TF.CreationDate,2024-08-31T00:15:27+09:00*%
%TF.ProjectId,nucleo_can_md2_roricon2,6e75636c-656f-45f6-9361-6e5f6d64325f,rev?*%
%TF.SameCoordinates,Original*%
%TF.FileFunction,Copper,L2,Bot*%
%TF.FilePolarity,Positive*%
%FSLAX46Y46*%
G04 Gerber Fmt 4.6, Leading zero omitted, Abs format (unit mm)*
G04 Created by KiCad (PCBNEW 8.0.4) date 2024-08-31 00:15:27*
%MOMM*%
%LPD*%
G01*
G04 APERTURE LIST*
G04 Aperture macros list*
%AMRoundRect*
0 Rectangle with rounded corners*
0 $1 Rounding radius*
0 $2 $3 $4 $5 $6 $7 $8 $9 X,Y pos of 4 corners*
0 Add a 4 corners polygon primitive as box body*
4,1,4,$2,$3,$4,$5,$6,$7,$8,$9,$2,$3,0*
0 Add four circle primitives for the rounded corners*
1,1,$1+$1,$2,$3*
1,1,$1+$1,$4,$5*
1,1,$1+$1,$6,$7*
1,1,$1+$1,$8,$9*
0 Add four rect primitives between the rounded corners*
20,1,$1+$1,$2,$3,$4,$5,0*
20,1,$1+$1,$4,$5,$6,$7,0*
20,1,$1+$1,$6,$7,$8,$9,0*
20,1,$1+$1,$8,$9,$2,$3,0*%
G04 Aperture macros list end*
%ADD10C,0.200000*%
%TA.AperFunction,ComponentPad*%
%ADD11C,1.600000*%
%TD*%
%TA.AperFunction,ComponentPad*%
%ADD12RoundRect,0.250000X-0.750000X0.600000X-0.750000X-0.600000X0.750000X-0.600000X0.750000X0.600000X0*%
%TD*%
%TA.AperFunction,ComponentPad*%
%ADD13O,2.000000X1.700000*%
%TD*%
%TA.AperFunction,ComponentPad*%
%ADD14RoundRect,0.250000X0.600000X0.725000X-0.600000X0.725000X-0.600000X-0.725000X0.600000X-0.725000X0*%
%TD*%
%TA.AperFunction,ComponentPad*%
%ADD15O,1.700000X1.950000*%
%TD*%
%TA.AperFunction,ComponentPad*%
%ADD16O,1.600000X1.600000*%
%TD*%
%TA.AperFunction,ComponentPad*%
%ADD17RoundRect,0.250000X-0.600000X-0.725000X0.600000X-0.725000X0.600000X0.725000X-0.600000X0.725000X0*%
%TD*%
%TA.AperFunction,ComponentPad*%
%ADD18R,1.530000X1.530000*%
%TD*%
%TA.AperFunction,ComponentPad*%
%ADD19C,1.530000*%
%TD*%
%TA.AperFunction,ComponentPad*%
%ADD20R,1.600000X1.600000*%
%TD*%
%TA.AperFunction,ViaPad*%
%ADD21C,0.600000*%
%TD*%
%TA.AperFunction,Conductor*%
%ADD22C,0.900000*%
%TD*%
%TA.AperFunction,Conductor*%
%ADD23C,1.000000*%
%TD*%
G04 APERTURE END LIST*
D10*
G36*
X148369056Y-94218330D02*
G01*
X147327787Y-94218330D01*
X147327787Y-93578647D01*
X147438898Y-93578647D01*
X147438898Y-93911980D01*
X147440819Y-93931488D01*
X147455750Y-93967537D01*
X147468187Y-93982690D01*
X147515805Y-94030310D01*
X147530959Y-94042747D01*
X147534278Y-94044122D01*
X147536994Y-94046477D01*
X147554894Y-94054468D01*
X147697751Y-94102087D01*
X147707423Y-94104286D01*
X147709865Y-94105298D01*
X147713402Y-94105646D01*
X147716866Y-94106434D01*
X147719500Y-94106246D01*
X147729374Y-94107219D01*
X147824612Y-94107219D01*
X147834485Y-94106246D01*
X147837119Y-94106434D01*
X147840582Y-94105646D01*
X147844121Y-94105298D01*
X147846563Y-94104286D01*
X147856235Y-94102087D01*
X147999091Y-94054468D01*
X148016992Y-94046477D01*
X148019707Y-94044122D01*
X148023027Y-94042747D01*
X148038180Y-94030310D01*
X148133418Y-93935071D01*
X148139710Y-93927404D01*
X148141707Y-93925673D01*
X148143600Y-93922665D01*
X148145855Y-93919918D01*
X148146866Y-93917476D01*
X148152150Y-93909082D01*
X148199769Y-93813845D01*
X148200315Y-93812416D01*
X148200745Y-93811837D01*
X148203666Y-93803660D01*
X148206775Y-93795536D01*
X148206826Y-93794815D01*
X148207340Y-93793377D01*
X148254959Y-93602901D01*
X148255459Y-93599519D01*
X148256024Y-93598156D01*
X148256747Y-93590805D01*
X148257827Y-93583508D01*
X148257609Y-93582049D01*
X148257945Y-93578647D01*
X148257945Y-93435790D01*
X148257609Y-93432387D01*
X148257827Y-93430929D01*
X148256747Y-93423631D01*
X148256024Y-93416281D01*
X148255459Y-93414917D01*
X148254959Y-93411536D01*
X148207340Y-93221060D01*
X148206826Y-93219621D01*
X148206775Y-93218901D01*
X148203666Y-93210776D01*
X148200745Y-93202600D01*
X148200315Y-93202020D01*
X148199769Y-93200592D01*
X148152150Y-93105355D01*
X148146863Y-93096956D01*
X148145854Y-93094519D01*
X148143602Y-93091775D01*
X148141707Y-93088764D01*
X148139709Y-93087031D01*
X148133418Y-93079365D01*
X148038180Y-92984127D01*
X148023026Y-92971691D01*
X148019707Y-92970316D01*
X148016992Y-92967961D01*
X147999091Y-92959970D01*
X147856235Y-92912351D01*
X147846563Y-92910151D01*
X147844121Y-92909140D01*
X147840582Y-92908791D01*
X147837119Y-92908004D01*
X147834485Y-92908191D01*
X147824612Y-92907219D01*
X147681755Y-92907219D01*
X147662246Y-92909140D01*
X147658925Y-92910515D01*
X147655342Y-92910770D01*
X147637033Y-92917776D01*
X147541796Y-92965395D01*
X147525205Y-92975838D01*
X147499641Y-93005315D01*
X147487302Y-93042331D01*
X147490068Y-93081251D01*
X147507517Y-93116150D01*
X147536994Y-93141714D01*
X147574010Y-93154053D01*
X147612930Y-93151287D01*
X147631238Y-93144281D01*
X147705362Y-93107219D01*
X147808385Y-93107219D01*
X147913449Y-93142240D01*
X147980522Y-93209313D01*
X148015974Y-93280218D01*
X148057945Y-93448099D01*
X148057945Y-93566337D01*
X148015974Y-93734218D01*
X147980521Y-93805124D01*
X147913450Y-93872197D01*
X147808385Y-93907219D01*
X147745600Y-93907219D01*
X147640535Y-93872197D01*
X147638898Y-93870559D01*
X147638898Y-93678647D01*
X147729374Y-93678647D01*
X147748883Y-93676726D01*
X147784931Y-93661794D01*
X147812521Y-93634204D01*
X147827453Y-93598156D01*
X147827453Y-93559138D01*
X147812521Y-93523090D01*
X147784931Y-93495500D01*
X147748883Y-93480568D01*
X147729374Y-93478647D01*
X147538898Y-93478647D01*
X147519389Y-93480568D01*
X147483341Y-93495500D01*
X147455751Y-93523090D01*
X147440819Y-93559138D01*
X147438898Y-93578647D01*
X147327787Y-93578647D01*
X147327787Y-92796108D01*
X148369056Y-92796108D01*
X148369056Y-94218330D01*
G37*
G36*
X156861056Y-84914330D02*
G01*
X155819787Y-84914330D01*
X155819787Y-84274647D01*
X155930898Y-84274647D01*
X155930898Y-84607980D01*
X155932819Y-84627488D01*
X155947750Y-84663537D01*
X155960187Y-84678690D01*
X156007805Y-84726310D01*
X156022959Y-84738747D01*
X156026278Y-84740122D01*
X156028994Y-84742477D01*
X156046894Y-84750468D01*
X156189751Y-84798087D01*
X156199423Y-84800286D01*
X156201865Y-84801298D01*
X156205402Y-84801646D01*
X156208866Y-84802434D01*
X156211500Y-84802246D01*
X156221374Y-84803219D01*
X156316612Y-84803219D01*
X156326485Y-84802246D01*
X156329119Y-84802434D01*
X156332582Y-84801646D01*
X156336121Y-84801298D01*
X156338563Y-84800286D01*
X156348235Y-84798087D01*
X156491091Y-84750468D01*
X156508992Y-84742477D01*
X156511707Y-84740122D01*
X156515027Y-84738747D01*
X156530180Y-84726310D01*
X156625418Y-84631071D01*
X156631710Y-84623404D01*
X156633707Y-84621673D01*
X156635600Y-84618665D01*
X156637855Y-84615918D01*
X156638866Y-84613476D01*
X156644150Y-84605082D01*
X156691769Y-84509845D01*
X156692315Y-84508416D01*
X156692745Y-84507837D01*
X156695666Y-84499660D01*
X156698775Y-84491536D01*
X156698826Y-84490815D01*
X156699340Y-84489377D01*
X156746959Y-84298901D01*
X156747459Y-84295519D01*
X156748024Y-84294156D01*
X156748747Y-84286805D01*
X156749827Y-84279508D01*
X156749609Y-84278049D01*
X156749945Y-84274647D01*
X156749945Y-84131790D01*
X156749609Y-84128387D01*
X156749827Y-84126929D01*
X156748747Y-84119631D01*
X156748024Y-84112281D01*
X156747459Y-84110917D01*
X156746959Y-84107536D01*
X156699340Y-83917060D01*
X156698826Y-83915621D01*
X156698775Y-83914901D01*
X156695666Y-83906776D01*
X156692745Y-83898600D01*
X156692315Y-83898020D01*
X156691769Y-83896592D01*
X156644150Y-83801355D01*
X156638863Y-83792956D01*
X156637854Y-83790519D01*
X156635602Y-83787775D01*
X156633707Y-83784764D01*
X156631709Y-83783031D01*
X156625418Y-83775365D01*
X156530180Y-83680127D01*
X156515026Y-83667691D01*
X156511707Y-83666316D01*
X156508992Y-83663961D01*
X156491091Y-83655970D01*
X156348235Y-83608351D01*
X156338563Y-83606151D01*
X156336121Y-83605140D01*
X156332582Y-83604791D01*
X156329119Y-83604004D01*
X156326485Y-83604191D01*
X156316612Y-83603219D01*
X156173755Y-83603219D01*
X156154246Y-83605140D01*
X156150925Y-83606515D01*
X156147342Y-83606770D01*
X156129033Y-83613776D01*
X156033796Y-83661395D01*
X156017205Y-83671838D01*
X155991641Y-83701315D01*
X155979302Y-83738331D01*
X155982068Y-83777251D01*
X155999517Y-83812150D01*
X156028994Y-83837714D01*
X156066010Y-83850053D01*
X156104930Y-83847287D01*
X156123238Y-83840281D01*
X156197362Y-83803219D01*
X156300385Y-83803219D01*
X156405449Y-83838240D01*
X156472522Y-83905313D01*
X156507974Y-83976218D01*
X156549945Y-84144099D01*
X156549945Y-84262337D01*
X156507974Y-84430218D01*
X156472521Y-84501124D01*
X156405450Y-84568197D01*
X156300385Y-84603219D01*
X156237600Y-84603219D01*
X156132535Y-84568197D01*
X156130898Y-84566559D01*
X156130898Y-84374647D01*
X156221374Y-84374647D01*
X156240883Y-84372726D01*
X156276931Y-84357794D01*
X156304521Y-84330204D01*
X156319453Y-84294156D01*
X156319453Y-84255138D01*
X156304521Y-84219090D01*
X156276931Y-84191500D01*
X156240883Y-84176568D01*
X156221374Y-84174647D01*
X156030898Y-84174647D01*
X156011389Y-84176568D01*
X155975341Y-84191500D01*
X155947751Y-84219090D01*
X155932819Y-84255138D01*
X155930898Y-84274647D01*
X155819787Y-84274647D01*
X155819787Y-83492108D01*
X156861056Y-83492108D01*
X156861056Y-84914330D01*
G37*
D11*
%TO.P,C1,1*%
%TO.N,GND*%
X160250000Y-101092000D03*
%TO.P,C1,2*%
%TO.N,+5V*%
X160250000Y-96092000D03*
%TD*%
D12*
%TO.P,J3,1,Pin_1*%
%TO.N,/H*%
X171610000Y-93390000D03*
D13*
%TO.P,J3,2,Pin_2*%
%TO.N,/L*%
X171610000Y-95890000D03*
%TD*%
D11*
%TO.P,C7,1*%
%TO.N,A2*%
X147800000Y-79520000D03*
%TO.P,C7,2*%
%TO.N,GND*%
X147800000Y-84520000D03*
%TD*%
D14*
%TO.P,J2,1,Pin_1*%
%TO.N,GND*%
X152620000Y-76750000D03*
D15*
%TO.P,J2,2,Pin_2*%
%TO.N,X2*%
X150120000Y-76750000D03*
%TO.P,J2,3,Pin_3*%
%TO.N,A2*%
X147620000Y-76750000D03*
%TO.P,J2,4,Pin_4*%
%TO.N,+5V*%
X145120000Y-76750000D03*
%TO.P,J2,5,Pin_5*%
%TO.N,B2*%
X142620000Y-76750000D03*
%TD*%
D11*
%TO.P,R1,1*%
%TO.N,/H*%
X166310000Y-90424000D03*
D16*
%TO.P,R1,2*%
%TO.N,/L*%
X166310000Y-100584000D03*
%TD*%
D14*
%TO.P,J1,1,Pin_1*%
%TO.N,GND*%
X169600000Y-76740000D03*
D15*
%TO.P,J1,2,Pin_2*%
%TO.N,X1*%
X167100000Y-76740000D03*
%TO.P,J1,3,Pin_3*%
%TO.N,A1*%
X164600000Y-76740000D03*
%TO.P,J1,4,Pin_4*%
%TO.N,+5V*%
X162100000Y-76740000D03*
%TO.P,J1,5,Pin_5*%
%TO.N,B1*%
X159600000Y-76740000D03*
%TD*%
D11*
%TO.P,C2,1*%
%TO.N,GND*%
X156718000Y-101012000D03*
%TO.P,C2,2*%
%TO.N,+5V*%
X156718000Y-96012000D03*
%TD*%
%TO.P,C5,1*%
%TO.N,X1*%
X167220000Y-79502000D03*
%TO.P,C5,2*%
%TO.N,GND*%
X167220000Y-84502000D03*
%TD*%
D15*
%TO.P,MD2,1,Pin_1*%
%TO.N,GND*%
X161450000Y-111440000D03*
%TO.P,MD2,2,Pin_2*%
%TO.N,MD2_pwm*%
X163950000Y-111440000D03*
D17*
%TO.P,MD2,3,Pin_3*%
%TO.N,MD2_dir*%
X166450000Y-111440000D03*
%TD*%
D11*
%TO.P,C6,1*%
%TO.N,GND*%
X142748000Y-84542000D03*
%TO.P,C6,2*%
%TO.N,B2*%
X142748000Y-79542000D03*
%TD*%
D18*
%TO.P,U1,3_1,PA9*%
%TO.N,B1*%
X121590000Y-78085000D03*
D19*
%TO.P,U1,3_2,PA10*%
%TO.N,unconnected-(U1A-PA10-Pad3_2)*%
X121590000Y-80625000D03*
%TO.P,U1,3_3,NRST_1*%
%TO.N,unconnected-(U1A-NRST_1-Pad3_3)*%
X121590000Y-83165000D03*
%TO.P,U1,3_4,GND_1*%
%TO.N,GND*%
X121590000Y-85705000D03*
%TO.P,U1,3_5,PA12*%
%TO.N,CAN_Tx*%
X121590000Y-88245000D03*
%TO.P,U1,3_6,PB0*%
%TO.N,X1*%
X121590000Y-90785000D03*
%TO.P,U1,3_7,PB7*%
%TO.N,unconnected-(U1A-PB7-Pad3_7)*%
X121590000Y-93325000D03*
%TO.P,U1,3_8,PB6*%
%TO.N,unconnected-(U1A-PB6-Pad3_8)*%
X121590000Y-95865000D03*
%TO.P,U1,3_9,PB1*%
%TO.N,X2*%
X121590000Y-98405000D03*
%TO.P,U1,3_10,PF0*%
%TO.N,unconnected-(U1A-PF0-Pad3_10)*%
X121590000Y-100945000D03*
%TO.P,U1,3_11,PF1*%
%TO.N,unconnected-(U1A-PF1-Pad3_11)*%
X121590000Y-103485000D03*
%TO.P,U1,3_12,PA8*%
%TO.N,A1*%
X121590000Y-106025000D03*
%TO.P,U1,3_13,PA11*%
%TO.N,CAN_Rx*%
X121590000Y-108565000D03*
%TO.P,U1,3_14,PB5*%
%TO.N,unconnected-(U1A-PB5-Pad3_14)*%
X121590000Y-111105000D03*
%TO.P,U1,3_15,PB4*%
%TO.N,unconnected-(U1A-PB4-Pad3_15)*%
X121590000Y-113645000D03*
D18*
%TO.P,U1,4_1,VIN*%
%TO.N,unconnected-(U1B-VIN-Pad4_1)*%
X136830000Y-78085000D03*
D19*
%TO.P,U1,4_2,GND_2*%
%TO.N,GND*%
X136830000Y-80625000D03*
%TO.P,U1,4_3,NRST_2*%
%TO.N,unconnected-(U1B-NRST_2-Pad4_3)*%
X136830000Y-83165000D03*
%TO.P,U1,4_4,+5V*%
%TO.N,+5V*%
X136830000Y-85705000D03*
%TO.P,U1,4_5,PA2*%
%TO.N,unconnected-(U1B-PA2-Pad4_5)*%
X136830000Y-88245000D03*
%TO.P,U1,4_6,PA7*%
%TO.N,unconnected-(U1B-PA7-Pad4_6)*%
X136830000Y-90785000D03*
%TO.P,U1,4_7,PA6*%
%TO.N,MD2_pwm*%
X136830000Y-93325000D03*
%TO.P,U1,4_8,PA5*%
%TO.N,MD2_dir*%
X136830000Y-95865000D03*
%TO.P,U1,4_9,PA4*%
%TO.N,MD1_pwm*%
X136830000Y-98405000D03*
%TO.P,U1,4_10,PA3*%
%TO.N,MD1_dir*%
X136830000Y-100945000D03*
%TO.P,U1,4_11,PA1*%
%TO.N,B2*%
X136830000Y-103485000D03*
%TO.P,U1,4_12,PA0*%
%TO.N,A2*%
X136830000Y-106025000D03*
%TO.P,U1,4_13,AREF*%
%TO.N,unconnected-(U1B-AREF-Pad4_13)*%
X136830000Y-108565000D03*
%TO.P,U1,4_14,+3V3*%
%TO.N,unconnected-(U1B-+3V3-Pad4_14)*%
X136830000Y-111105000D03*
%TO.P,U1,4_15,PB3*%
%TO.N,unconnected-(U1B-PB3-Pad4_15)*%
X136830000Y-113645000D03*
%TD*%
D11*
%TO.P,C8,1*%
%TO.N,X2*%
X150330000Y-79510000D03*
%TO.P,C8,2*%
%TO.N,GND*%
X150330000Y-84510000D03*
%TD*%
D20*
%TO.P,U2,1,TXD*%
%TO.N,CAN_Tx*%
X143760000Y-91450000D03*
D16*
%TO.P,U2,2,VSS*%
%TO.N,GND*%
X143760000Y-93990000D03*
%TO.P,U2,3,VDD*%
%TO.N,+5V*%
X143760000Y-96530000D03*
%TO.P,U2,4,RXD*%
%TO.N,CAN_Rx*%
X143760000Y-99070000D03*
%TO.P,U2,5,Vio*%
%TO.N,+5V*%
X151380000Y-99070000D03*
%TO.P,U2,6,CANL*%
%TO.N,/L*%
X151380000Y-96530000D03*
%TO.P,U2,7,CANH*%
%TO.N,/H*%
X151380000Y-93990000D03*
%TO.P,U2,8,STBY*%
%TO.N,GND*%
X151380000Y-91450000D03*
%TD*%
D11*
%TO.P,C4,1*%
%TO.N,B1*%
X159512000Y-79248000D03*
%TO.P,C4,2*%
%TO.N,GND*%
X159512000Y-84248000D03*
%TD*%
%TO.P,C3,1*%
%TO.N,A1*%
X164630000Y-79502000D03*
%TO.P,C3,2*%
%TO.N,GND*%
X164630000Y-84502000D03*
%TD*%
D15*
%TO.P,MD1,1,Pin_1*%
%TO.N,GND*%
X146370000Y-111710000D03*
%TO.P,MD1,2,Pin_2*%
%TO.N,MD1_pwm*%
X148870000Y-111710000D03*
D17*
%TO.P,MD1,3,Pin_3*%
%TO.N,MD1_dir*%
X151370000Y-111710000D03*
%TD*%
D21*
%TO.N,MD2_pwm*%
X140219900Y-94440100D03*
X163576000Y-105664000D03*
%TO.N,GND*%
X142494000Y-107950000D03*
X154940000Y-82296000D03*
X140208000Y-82296000D03*
X140580000Y-89240000D03*
%TO.N,X1*%
X124760000Y-89660000D03*
X166510000Y-72870000D03*
%TO.N,A1*%
X129248000Y-87886700D03*
X126090700Y-101890700D03*
%TO.N,B1*%
X124800000Y-74660000D03*
X159630000Y-71510000D03*
%TO.N,CAN_Rx*%
X130165000Y-113285000D03*
X148844000Y-102616000D03*
%TO.N,CAN_Tx*%
X128470000Y-68490000D03*
X147740000Y-88290000D03*
%TD*%
D22*
%TO.N,A2*%
X134990000Y-74180000D02*
X145660000Y-74180000D01*
X132550000Y-76620000D02*
X134990000Y-74180000D01*
X136460400Y-106025000D02*
X132550000Y-102114600D01*
X145660000Y-74180000D02*
X147800000Y-76320000D01*
X147800000Y-76320000D02*
X147800000Y-79520000D01*
X136830000Y-106025000D02*
X136460400Y-106025000D01*
X132550000Y-102114600D02*
X132550000Y-76620000D01*
%TO.N,X2*%
X147695184Y-71700000D02*
X150120000Y-74124816D01*
X128755000Y-98405000D02*
X130860000Y-96300000D01*
X130860000Y-75970000D02*
X135130000Y-71700000D01*
X121590000Y-98405000D02*
X128755000Y-98405000D01*
X150120000Y-74124816D02*
X150120000Y-79300000D01*
X135130000Y-71700000D02*
X147695184Y-71700000D01*
X150410000Y-79590000D02*
X150410000Y-79670000D01*
X150120000Y-79300000D02*
X150410000Y-79590000D01*
X130860000Y-96300000D02*
X130860000Y-75970000D01*
%TO.N,MD1_pwm*%
X148870000Y-111710000D02*
X148870000Y-109000000D01*
X138275000Y-98405000D02*
X136830000Y-98405000D01*
X148870000Y-109000000D02*
X138275000Y-98405000D01*
%TO.N,MD2_pwm*%
X140219900Y-94440100D02*
X139104800Y-93325000D01*
X163576000Y-105664000D02*
X163950000Y-106038000D01*
X163950000Y-106038000D02*
X163950000Y-111440000D01*
X139104800Y-93325000D02*
X136830000Y-93325000D01*
%TO.N,GND*%
X140740000Y-119130000D02*
X140730000Y-119120000D01*
X121278000Y-85705000D02*
X121590000Y-85705000D01*
D23*
%TO.N,+5V*%
X162130000Y-85480000D02*
X162130000Y-86480000D01*
X145830000Y-86550000D02*
X160980000Y-86550000D01*
X160250000Y-94280000D02*
X160020000Y-94050000D01*
X156718000Y-94742000D02*
X157410000Y-94050000D01*
X162130000Y-76770000D02*
X162130000Y-85480000D01*
X161470000Y-94050000D02*
X161140000Y-94050000D01*
X162130000Y-85480000D02*
X163200000Y-86550000D01*
X161060000Y-86550000D02*
X162130000Y-85480000D01*
D22*
X144181500Y-96530000D02*
X143760000Y-96530000D01*
D23*
X157410000Y-94050000D02*
X157960000Y-94050000D01*
X160980000Y-86550000D02*
X161060000Y-86550000D01*
X174870000Y-90150000D02*
X174870000Y-97240000D01*
X145240000Y-85940000D02*
X145230000Y-85950000D01*
X156718000Y-96012000D02*
X156718000Y-94742000D01*
X145830000Y-86550000D02*
X146360000Y-86550000D01*
X144630000Y-86550000D02*
X145830000Y-86550000D01*
X158820000Y-94050000D02*
X158530000Y-94050000D01*
X155956000Y-94996000D02*
X155956000Y-95036000D01*
X145240000Y-85960000D02*
X145830000Y-86550000D01*
X163050000Y-100820000D02*
X163050000Y-95630000D01*
X163050000Y-95630000D02*
X161470000Y-94050000D01*
D22*
X144181500Y-96530000D02*
X145811700Y-96530000D01*
D23*
X137675000Y-86550000D02*
X144630000Y-86550000D01*
X145240000Y-76870000D02*
X145240000Y-85940000D01*
X155956000Y-95036000D02*
X156700000Y-95780000D01*
X171270000Y-86550000D02*
X174870000Y-90150000D01*
X159400000Y-94050000D02*
X158530000Y-94050000D01*
X156400000Y-94050000D02*
X151380000Y-99070000D01*
X164846000Y-102616000D02*
X163050000Y-100820000D01*
X145240000Y-85940000D02*
X145240000Y-85960000D01*
X145120000Y-76750000D02*
X145240000Y-76870000D01*
X161675000Y-94357000D02*
X161777000Y-94357000D01*
X161140000Y-94050000D02*
X160640000Y-94050000D01*
X160250000Y-95480000D02*
X158820000Y-94050000D01*
X160640000Y-94050000D02*
X159400000Y-94050000D01*
X160980000Y-86550000D02*
X171270000Y-86550000D01*
X160250000Y-95700000D02*
X160250000Y-94280000D01*
X160250000Y-95782000D02*
X161675000Y-94357000D01*
X156700000Y-95310000D02*
X156700000Y-95952468D01*
X163200000Y-86550000D02*
X163580000Y-86550000D01*
X160180000Y-95700000D02*
X160250000Y-95700000D01*
X162100000Y-76740000D02*
X162130000Y-76770000D01*
X160250000Y-96092000D02*
X160250000Y-95480000D01*
X169494000Y-102616000D02*
X164846000Y-102616000D01*
X144630000Y-86550000D02*
X145230000Y-85950000D01*
X162130000Y-86480000D02*
X162200000Y-86550000D01*
X136830000Y-85705000D02*
X137675000Y-86550000D01*
X158530000Y-94050000D02*
X156400000Y-94050000D01*
D22*
X148351700Y-99070000D02*
X145811700Y-96530000D01*
D23*
X160250000Y-96092000D02*
X160250000Y-95782000D01*
D22*
X151380000Y-99070000D02*
X148351700Y-99070000D01*
D23*
X174870000Y-97240000D02*
X169494000Y-102616000D01*
D22*
%TO.N,X1*%
X167140000Y-79422000D02*
X167220000Y-79502000D01*
X167140000Y-73500000D02*
X167140000Y-79422000D01*
X123635000Y-90785000D02*
X121590000Y-90785000D01*
X124760000Y-89660000D02*
X123635000Y-90785000D01*
X166510000Y-72870000D02*
X167140000Y-73500000D01*
%TO.N,A1*%
X121956400Y-106025000D02*
X121590000Y-106025000D01*
X126090700Y-101890700D02*
X121956400Y-106025000D01*
X129248000Y-87886700D02*
X129248000Y-75116700D01*
X160730800Y-69710800D02*
X164630000Y-73610000D01*
X164630000Y-73610000D02*
X164630000Y-79502000D01*
X134653900Y-69710800D02*
X160730800Y-69710800D01*
X129248000Y-75116700D02*
X134653900Y-69710800D01*
D23*
%TO.N,B1*%
X159600000Y-71540000D02*
X159600000Y-79160000D01*
X159600000Y-79160000D02*
X159512000Y-79248000D01*
X159630000Y-71510000D02*
X159600000Y-71540000D01*
D22*
X123285000Y-78085000D02*
X121590000Y-78085000D01*
X124800000Y-74660000D02*
X124800000Y-76570000D01*
X124800000Y-76570000D02*
X123285000Y-78085000D01*
%TO.N,B2*%
X135559800Y-76024700D02*
X134270000Y-77314500D01*
X142748000Y-79498000D02*
X142748000Y-76878000D01*
X142748000Y-76878000D02*
X141894700Y-76024700D01*
X134270000Y-77314500D02*
X134270000Y-101311500D01*
X142920000Y-79670000D02*
X142748000Y-79498000D01*
X141894700Y-76024700D02*
X135559800Y-76024700D01*
X134270000Y-101311500D02*
X136443500Y-103485000D01*
X136443500Y-103485000D02*
X136830000Y-103485000D01*
%TO.N,/H*%
X155026000Y-90424000D02*
X170334000Y-90424000D01*
X151460000Y-93990000D02*
X155026000Y-90424000D01*
X170334000Y-90424000D02*
X171610000Y-91700000D01*
X151380000Y-93990000D02*
X151460000Y-93990000D01*
X171610000Y-91700000D02*
X171610000Y-93390000D01*
%TO.N,/L*%
X151380000Y-96530000D02*
X155970000Y-91940000D01*
X167894000Y-100584000D02*
X171610000Y-96868000D01*
X164320000Y-91940000D02*
X165450000Y-93070000D01*
X165450000Y-93070000D02*
X165450000Y-99724000D01*
X155970000Y-91940000D02*
X164320000Y-91940000D01*
X165450000Y-99724000D02*
X166310000Y-100584000D01*
X171610000Y-96868000D02*
X171610000Y-95890000D01*
X166310000Y-100584000D02*
X167894000Y-100584000D01*
%TO.N,MD1_dir*%
X151370000Y-115316000D02*
X140970000Y-115316000D01*
X137775000Y-100945000D02*
X136830000Y-100945000D01*
X139954000Y-103124000D02*
X137775000Y-100945000D01*
X151370000Y-111710000D02*
X151370000Y-115316000D01*
X139954000Y-114300000D02*
X139954000Y-103124000D01*
X140970000Y-115316000D02*
X139954000Y-114300000D01*
%TO.N,MD2_dir*%
X164846000Y-104394000D02*
X166450000Y-105998000D01*
X137875000Y-95865000D02*
X146404000Y-104394000D01*
X166450000Y-105998000D02*
X166450000Y-111440000D01*
X136830000Y-95865000D02*
X137875000Y-95865000D01*
X146404000Y-104394000D02*
X164846000Y-104394000D01*
%TO.N,CAN_Rx*%
X148844000Y-102616000D02*
X147320000Y-102616000D01*
X130165000Y-113285000D02*
X125445000Y-108565000D01*
X147320000Y-102616000D02*
X143774000Y-99070000D01*
X125445000Y-108565000D02*
X121590000Y-108565000D01*
X143774000Y-99070000D02*
X143760000Y-99070000D01*
D23*
%TO.N,CAN_Tx*%
X128470000Y-68490000D02*
X127700000Y-69260000D01*
X127700000Y-69260000D02*
X127700000Y-83740000D01*
X144580000Y-91450000D02*
X143760000Y-91450000D01*
X123195000Y-88245000D02*
X121590000Y-88245000D01*
X147740000Y-88290000D02*
X144580000Y-91450000D01*
X127700000Y-83740000D02*
X123195000Y-88245000D01*
%TD*%
%TA.AperFunction,Conductor*%
%TO.N,GND*%
G36*
X141609703Y-103791466D02*
G01*
X141616181Y-103797498D01*
X147383181Y-109564498D01*
X147416666Y-109625821D01*
X147419500Y-109652179D01*
X147419500Y-110393456D01*
X147399815Y-110460495D01*
X147393876Y-110468942D01*
X147328063Y-110554711D01*
X147206777Y-110764784D01*
X147206773Y-110764794D01*
X147113947Y-110988895D01*
X147051161Y-111223214D01*
X147019500Y-111463711D01*
X147019500Y-111956288D01*
X147050598Y-112192511D01*
X147051162Y-112196789D01*
X147078198Y-112297687D01*
X147113947Y-112431104D01*
X147206773Y-112655205D01*
X147206776Y-112655212D01*
X147328064Y-112865289D01*
X147328066Y-112865292D01*
X147328067Y-112865293D01*
X147475733Y-113057736D01*
X147475739Y-113057743D01*
X147647256Y-113229260D01*
X147647263Y-113229266D01*
X147683411Y-113257003D01*
X147839711Y-113376936D01*
X148049788Y-113498224D01*
X148273900Y-113591054D01*
X148388368Y-113621726D01*
X148448027Y-113658090D01*
X148478556Y-113720937D01*
X148470261Y-113790313D01*
X148425776Y-113844191D01*
X148359224Y-113865465D01*
X148356273Y-113865500D01*
X141622179Y-113865500D01*
X141555140Y-113845815D01*
X141534498Y-113829181D01*
X141440819Y-113735502D01*
X141407334Y-113674179D01*
X141404500Y-113647821D01*
X141404500Y-103885179D01*
X141424185Y-103818140D01*
X141476989Y-103772385D01*
X141546147Y-103762441D01*
X141609703Y-103791466D01*
G37*
%TD.AperFunction*%
%TA.AperFunction,Conductor*%
G36*
X158529569Y-96712179D02*
G01*
X158578127Y-96762417D01*
X158583729Y-96774684D01*
X158623254Y-96875392D01*
X158623257Y-96875398D01*
X158758185Y-97109102D01*
X158862641Y-97240085D01*
X158926442Y-97320089D01*
X159020832Y-97407669D01*
X159124259Y-97503635D01*
X159347226Y-97655651D01*
X159590359Y-97772738D01*
X159848228Y-97852280D01*
X159848229Y-97852280D01*
X159848232Y-97852281D01*
X160115063Y-97892499D01*
X160115068Y-97892499D01*
X160115071Y-97892500D01*
X160115072Y-97892500D01*
X160384928Y-97892500D01*
X160384929Y-97892500D01*
X160384936Y-97892499D01*
X160651767Y-97852281D01*
X160651768Y-97852280D01*
X160651772Y-97852280D01*
X160909641Y-97772738D01*
X161152775Y-97655651D01*
X161355648Y-97517333D01*
X161422127Y-97495833D01*
X161489677Y-97513687D01*
X161536852Y-97565227D01*
X161549500Y-97619787D01*
X161549500Y-100938097D01*
X161586446Y-101171368D01*
X161659433Y-101395996D01*
X161717329Y-101509622D01*
X161766657Y-101606434D01*
X161890249Y-101776543D01*
X161905484Y-101797511D01*
X161905485Y-101797512D01*
X162839791Y-102731819D01*
X162873276Y-102793142D01*
X162868292Y-102862834D01*
X162826420Y-102918767D01*
X162760956Y-102943184D01*
X162752110Y-102943500D01*
X150405895Y-102943500D01*
X150338856Y-102923815D01*
X150293101Y-102871011D01*
X150283157Y-102801853D01*
X150283422Y-102800101D01*
X150294500Y-102730161D01*
X150294500Y-102501837D01*
X150258784Y-102276339D01*
X150188229Y-102059196D01*
X150084578Y-101855771D01*
X150042250Y-101797512D01*
X149950379Y-101671063D01*
X149788937Y-101509621D01*
X149604228Y-101375421D01*
X149400803Y-101271770D01*
X149183660Y-101201215D01*
X148958162Y-101165500D01*
X148958157Y-101165500D01*
X147972178Y-101165500D01*
X147905139Y-101145815D01*
X147884497Y-101129181D01*
X145567439Y-98812123D01*
X145534230Y-98752035D01*
X145497457Y-98590919D01*
X145501731Y-98521180D01*
X145543030Y-98464822D01*
X145608242Y-98439740D01*
X145676663Y-98453895D01*
X145706029Y-98475646D01*
X147406762Y-100176379D01*
X147574276Y-100298085D01*
X147591467Y-100310576D01*
X147591469Y-100310577D01*
X147591472Y-100310579D01*
X147685577Y-100358528D01*
X147794896Y-100414229D01*
X147794898Y-100414229D01*
X147794901Y-100414231D01*
X147911292Y-100452049D01*
X148012039Y-100484784D01*
X148237538Y-100520500D01*
X148237543Y-100520500D01*
X150273014Y-100520500D01*
X150340053Y-100540185D01*
X150342865Y-100542046D01*
X150438934Y-100607544D01*
X150477226Y-100633651D01*
X150720359Y-100750738D01*
X150978228Y-100830280D01*
X150978229Y-100830280D01*
X150978232Y-100830281D01*
X151245063Y-100870499D01*
X151245068Y-100870499D01*
X151245071Y-100870500D01*
X151245072Y-100870500D01*
X151514928Y-100870500D01*
X151514929Y-100870500D01*
X151514936Y-100870499D01*
X151781767Y-100830281D01*
X151781768Y-100830280D01*
X151781772Y-100830280D01*
X152039641Y-100750738D01*
X152282775Y-100633651D01*
X152505741Y-100481635D01*
X152703561Y-100298085D01*
X152871815Y-100087102D01*
X153006743Y-99853398D01*
X153105334Y-99602195D01*
X153108296Y-99589220D01*
X153115447Y-99557885D01*
X153137458Y-99461445D01*
X153170666Y-99401359D01*
X155277560Y-97294465D01*
X155338881Y-97260982D01*
X155408573Y-97265966D01*
X155449580Y-97291249D01*
X155575052Y-97407669D01*
X155592259Y-97423635D01*
X155815226Y-97575651D01*
X156058359Y-97692738D01*
X156316228Y-97772280D01*
X156316229Y-97772280D01*
X156316232Y-97772281D01*
X156583063Y-97812499D01*
X156583068Y-97812499D01*
X156583071Y-97812500D01*
X156583072Y-97812500D01*
X156852928Y-97812500D01*
X156852929Y-97812500D01*
X156852936Y-97812499D01*
X157119767Y-97772281D01*
X157119768Y-97772280D01*
X157119772Y-97772280D01*
X157377641Y-97692738D01*
X157588136Y-97591369D01*
X157620767Y-97575655D01*
X157620767Y-97575654D01*
X157620775Y-97575651D01*
X157843741Y-97423635D01*
X158013668Y-97265966D01*
X158041557Y-97240089D01*
X158041557Y-97240087D01*
X158041561Y-97240085D01*
X158209815Y-97029102D01*
X158344743Y-96795398D01*
X158352873Y-96774682D01*
X158395688Y-96719470D01*
X158461558Y-96696169D01*
X158529569Y-96712179D01*
G37*
%TD.AperFunction*%
%TA.AperFunction,Conductor*%
G36*
X145625150Y-88070185D02*
G01*
X145670905Y-88122989D01*
X145680849Y-88192147D01*
X145651824Y-88255703D01*
X145645792Y-88262181D01*
X144294790Y-89613181D01*
X144233467Y-89646666D01*
X144207109Y-89649500D01*
X142901971Y-89649500D01*
X142901965Y-89649500D01*
X142901964Y-89649501D01*
X142890316Y-89650536D01*
X142782584Y-89660113D01*
X142586954Y-89716089D01*
X142514958Y-89753697D01*
X142406593Y-89810302D01*
X142406591Y-89810303D01*
X142406590Y-89810304D01*
X142248890Y-89938890D01*
X142120304Y-90096590D01*
X142026089Y-90276954D01*
X141970114Y-90472583D01*
X141970113Y-90472586D01*
X141959500Y-90591966D01*
X141959500Y-92308028D01*
X141959501Y-92308034D01*
X141970113Y-92427415D01*
X142026089Y-92623045D01*
X142026090Y-92623048D01*
X142026091Y-92623049D01*
X142120302Y-92803407D01*
X142120304Y-92803409D01*
X142248890Y-92961109D01*
X142342803Y-93037684D01*
X142406593Y-93089698D01*
X142586951Y-93183909D01*
X142782582Y-93239886D01*
X142901963Y-93250500D01*
X144618036Y-93250499D01*
X144737418Y-93239886D01*
X144933049Y-93183909D01*
X145113407Y-93089698D01*
X145271109Y-92961109D01*
X145399698Y-92803407D01*
X145465552Y-92677334D01*
X145502572Y-92634431D01*
X145557510Y-92594517D01*
X148884517Y-89267510D01*
X149023343Y-89076433D01*
X149130568Y-88865992D01*
X149203553Y-88641368D01*
X149206383Y-88623500D01*
X149240500Y-88408097D01*
X149240500Y-88174500D01*
X149260185Y-88107461D01*
X149312989Y-88061706D01*
X149364500Y-88050500D01*
X160861908Y-88050500D01*
X160941908Y-88050500D01*
X161178092Y-88050500D01*
X162081908Y-88050500D01*
X162318092Y-88050500D01*
X163081908Y-88050500D01*
X163081909Y-88050500D01*
X163318092Y-88050500D01*
X163698092Y-88050500D01*
X170597111Y-88050500D01*
X170664150Y-88070185D01*
X170684792Y-88086819D01*
X172044284Y-89446311D01*
X172077769Y-89507634D01*
X172072785Y-89577326D01*
X172030913Y-89633259D01*
X172029072Y-89634611D01*
X171943207Y-89696453D01*
X171943206Y-89696453D01*
X171893933Y-89749990D01*
X171834050Y-89785986D01*
X171764211Y-89783893D01*
X171715014Y-89753697D01*
X171278937Y-89317620D01*
X171135633Y-89213504D01*
X171094228Y-89183421D01*
X171072769Y-89172487D01*
X170890803Y-89079770D01*
X170673660Y-89009215D01*
X170448162Y-88973500D01*
X170448157Y-88973500D01*
X167416987Y-88973500D01*
X167349948Y-88953815D01*
X167347136Y-88951954D01*
X167212775Y-88860349D01*
X167212767Y-88860344D01*
X166969643Y-88743263D01*
X166969645Y-88743263D01*
X166711773Y-88663720D01*
X166711767Y-88663718D01*
X166444936Y-88623500D01*
X166444929Y-88623500D01*
X166175071Y-88623500D01*
X166175063Y-88623500D01*
X165908232Y-88663718D01*
X165908226Y-88663720D01*
X165650358Y-88743262D01*
X165407229Y-88860347D01*
X165407225Y-88860349D01*
X165272865Y-88951954D01*
X165206386Y-88973454D01*
X165203014Y-88973500D01*
X154911842Y-88973500D01*
X154876126Y-88979156D01*
X154876125Y-88979155D01*
X154686340Y-89009214D01*
X154469197Y-89079769D01*
X154265772Y-89183420D01*
X154184689Y-89242331D01*
X154081063Y-89317620D01*
X154081061Y-89317622D01*
X154081060Y-89317622D01*
X151231665Y-92167016D01*
X151170342Y-92200501D01*
X151162466Y-92201950D01*
X151087232Y-92213290D01*
X150978228Y-92229720D01*
X150978225Y-92229721D01*
X150978219Y-92229722D01*
X150720358Y-92309262D01*
X150477230Y-92426346D01*
X150254258Y-92578365D01*
X150056442Y-92761910D01*
X149888185Y-92972898D01*
X149753258Y-93206599D01*
X149753256Y-93206603D01*
X149654666Y-93457804D01*
X149654664Y-93457811D01*
X149594616Y-93720898D01*
X149574451Y-93989995D01*
X149574451Y-93990004D01*
X149594616Y-94259101D01*
X149654664Y-94522188D01*
X149654666Y-94522195D01*
X149751812Y-94769718D01*
X149753257Y-94773398D01*
X149888185Y-95007102D01*
X149976915Y-95118365D01*
X150028210Y-95182687D01*
X150054618Y-95247374D01*
X150041862Y-95316069D01*
X150028210Y-95337313D01*
X149888185Y-95512898D01*
X149753258Y-95746599D01*
X149753256Y-95746603D01*
X149654666Y-95997804D01*
X149654664Y-95997811D01*
X149594616Y-96260898D01*
X149574451Y-96529995D01*
X149574451Y-96530004D01*
X149594616Y-96799101D01*
X149654664Y-97062188D01*
X149654666Y-97062195D01*
X149753256Y-97313396D01*
X149753258Y-97313400D01*
X149822597Y-97433500D01*
X149839070Y-97501401D01*
X149816217Y-97567427D01*
X149761296Y-97610618D01*
X149715210Y-97619500D01*
X149003879Y-97619500D01*
X148936840Y-97599815D01*
X148916198Y-97583181D01*
X146756637Y-95423620D01*
X146632381Y-95333343D01*
X146632379Y-95333342D01*
X146632379Y-95333341D01*
X146571928Y-95289421D01*
X146368503Y-95185770D01*
X146151360Y-95115215D01*
X145925862Y-95079500D01*
X145925857Y-95079500D01*
X144866987Y-95079500D01*
X144799948Y-95059815D01*
X144797136Y-95057954D01*
X144662775Y-94966349D01*
X144662767Y-94966344D01*
X144419643Y-94849263D01*
X144419645Y-94849263D01*
X144161773Y-94769720D01*
X144161767Y-94769718D01*
X143894936Y-94729500D01*
X143894929Y-94729500D01*
X143625071Y-94729500D01*
X143625063Y-94729500D01*
X143358232Y-94769718D01*
X143358226Y-94769720D01*
X143100358Y-94849262D01*
X142857230Y-94966346D01*
X142634258Y-95118365D01*
X142436442Y-95301910D01*
X142268185Y-95512898D01*
X142133258Y-95746599D01*
X142133256Y-95746603D01*
X142034666Y-95997804D01*
X142034664Y-95997811D01*
X141974616Y-96260898D01*
X141954451Y-96529995D01*
X141954451Y-96530004D01*
X141974616Y-96799101D01*
X142034664Y-97062188D01*
X142034666Y-97062195D01*
X142093583Y-97212313D01*
X142133257Y-97313398D01*
X142268185Y-97547102D01*
X142384325Y-97692736D01*
X142408210Y-97722687D01*
X142434618Y-97787374D01*
X142421862Y-97856069D01*
X142408209Y-97877313D01*
X142286385Y-98030073D01*
X142229197Y-98070213D01*
X142159385Y-98073063D01*
X142101758Y-98040441D01*
X140163598Y-96102281D01*
X140130113Y-96040958D01*
X140135097Y-95971266D01*
X140176969Y-95915333D01*
X140242433Y-95890916D01*
X140251279Y-95890600D01*
X140334061Y-95890600D01*
X140516833Y-95861652D01*
X140559560Y-95854885D01*
X140776699Y-95784332D01*
X140980128Y-95680680D01*
X141164838Y-95546480D01*
X141326280Y-95385038D01*
X141460480Y-95200328D01*
X141564132Y-94996899D01*
X141634685Y-94779760D01*
X141646590Y-94704592D01*
X141670400Y-94554261D01*
X141670400Y-94325939D01*
X141636732Y-94113364D01*
X147433898Y-94113364D01*
X148264729Y-94113364D01*
X148264729Y-92901074D01*
X147433898Y-92901074D01*
X147433898Y-94113364D01*
X141636732Y-94113364D01*
X141634685Y-94100442D01*
X141634683Y-94100436D01*
X141632323Y-94093170D01*
X141564132Y-93883302D01*
X141564130Y-93883299D01*
X141564130Y-93883297D01*
X141481383Y-93720898D01*
X141460480Y-93679873D01*
X141326280Y-93495163D01*
X140049737Y-92218620D01*
X139915081Y-92120787D01*
X139915079Y-92120786D01*
X139915079Y-92120785D01*
X139865028Y-92084421D01*
X139661603Y-91980770D01*
X139444460Y-91910215D01*
X139218962Y-91874500D01*
X139218957Y-91874500D01*
X138454375Y-91874500D01*
X138387336Y-91854815D01*
X138341581Y-91802011D01*
X138331637Y-91732853D01*
X138346988Y-91688500D01*
X138425121Y-91553170D01*
X138521795Y-91306850D01*
X138580677Y-91048872D01*
X138600451Y-90785000D01*
X138580677Y-90521128D01*
X138521795Y-90263150D01*
X138425121Y-90016830D01*
X138292815Y-89787669D01*
X138137022Y-89592311D01*
X138110615Y-89527626D01*
X138123370Y-89458931D01*
X138137020Y-89437691D01*
X138292815Y-89242331D01*
X138425121Y-89013170D01*
X138521795Y-88766850D01*
X138580677Y-88508872D01*
X138589151Y-88395784D01*
X138600451Y-88245004D01*
X138600451Y-88244995D01*
X138595863Y-88183765D01*
X138610483Y-88115443D01*
X138659720Y-88065870D01*
X138719516Y-88050500D01*
X144511908Y-88050500D01*
X144748092Y-88050500D01*
X145558111Y-88050500D01*
X145625150Y-88070185D01*
G37*
%TD.AperFunction*%
%TA.AperFunction,Conductor*%
G36*
X140849829Y-77494885D02*
G01*
X140895584Y-77547689D01*
X140897351Y-77551748D01*
X140956771Y-77695202D01*
X140956779Y-77695219D01*
X141029707Y-77821532D01*
X141078064Y-77905289D01*
X141078066Y-77905292D01*
X141078067Y-77905293D01*
X141225733Y-78097736D01*
X141225738Y-78097742D01*
X141261180Y-78133183D01*
X141294666Y-78194505D01*
X141297500Y-78220865D01*
X141297500Y-78429700D01*
X141277815Y-78496739D01*
X141270449Y-78507010D01*
X141256183Y-78524900D01*
X141256179Y-78524905D01*
X141121261Y-78758593D01*
X141121256Y-78758603D01*
X141022666Y-79009804D01*
X141022664Y-79009811D01*
X140962616Y-79272898D01*
X140942451Y-79541995D01*
X140942451Y-79542004D01*
X140962616Y-79811101D01*
X141022664Y-80074188D01*
X141022666Y-80074195D01*
X141108698Y-80293400D01*
X141121257Y-80325398D01*
X141256185Y-80559102D01*
X141336357Y-80659634D01*
X141424442Y-80770089D01*
X141552461Y-80888872D01*
X141622259Y-80953635D01*
X141845226Y-81105651D01*
X142088359Y-81222738D01*
X142346228Y-81302280D01*
X142346229Y-81302280D01*
X142346232Y-81302281D01*
X142613063Y-81342499D01*
X142613068Y-81342499D01*
X142613071Y-81342500D01*
X142613072Y-81342500D01*
X142882928Y-81342500D01*
X142882929Y-81342500D01*
X142882936Y-81342499D01*
X143149767Y-81302281D01*
X143149768Y-81302280D01*
X143149772Y-81302280D01*
X143407641Y-81222738D01*
X143561701Y-81148546D01*
X143630639Y-81137195D01*
X143694774Y-81164917D01*
X143733740Y-81222912D01*
X143739500Y-81260267D01*
X143739500Y-84925500D01*
X143719815Y-84992539D01*
X143667011Y-85038294D01*
X143615500Y-85049500D01*
X138553882Y-85049500D01*
X138486843Y-85029815D01*
X138441088Y-84977011D01*
X138438454Y-84970802D01*
X138437682Y-84968834D01*
X138425121Y-84936830D01*
X138292815Y-84707669D01*
X138137022Y-84512311D01*
X138110615Y-84447626D01*
X138123370Y-84378931D01*
X138137020Y-84357691D01*
X138292815Y-84162331D01*
X138425121Y-83933170D01*
X138521795Y-83686850D01*
X138580677Y-83428872D01*
X138600451Y-83165000D01*
X138596964Y-83118473D01*
X138580677Y-82901130D01*
X138580677Y-82901128D01*
X138521795Y-82643150D01*
X138425121Y-82396830D01*
X138292815Y-82167669D01*
X138127832Y-81960787D01*
X137933858Y-81780806D01*
X137715226Y-81631744D01*
X137715225Y-81631743D01*
X137715218Y-81631739D01*
X137476820Y-81516935D01*
X137476822Y-81516935D01*
X137223963Y-81438938D01*
X137223957Y-81438936D01*
X136962313Y-81399500D01*
X136962306Y-81399500D01*
X136697694Y-81399500D01*
X136697686Y-81399500D01*
X136436042Y-81438936D01*
X136436036Y-81438938D01*
X136183178Y-81516935D01*
X135944782Y-81631739D01*
X135944776Y-81631743D01*
X135914350Y-81652487D01*
X135847870Y-81673986D01*
X135780320Y-81656131D01*
X135733147Y-81604590D01*
X135720500Y-81550032D01*
X135720500Y-79956534D01*
X135740185Y-79889495D01*
X135792989Y-79843740D01*
X135862147Y-79833796D01*
X135878603Y-79837316D01*
X135887582Y-79839886D01*
X136006963Y-79850500D01*
X137653036Y-79850499D01*
X137772418Y-79839886D01*
X137968049Y-79783909D01*
X138148407Y-79689698D01*
X138306109Y-79561109D01*
X138434698Y-79403407D01*
X138528909Y-79223049D01*
X138584886Y-79027418D01*
X138595500Y-78908037D01*
X138595499Y-77599199D01*
X138615184Y-77532161D01*
X138667987Y-77486406D01*
X138719499Y-77475200D01*
X140782790Y-77475200D01*
X140849829Y-77494885D01*
G37*
%TD.AperFunction*%
%TA.AperFunction,Conductor*%
G36*
X158062630Y-71180985D02*
G01*
X158108385Y-71233789D01*
X158118329Y-71302947D01*
X158118064Y-71304698D01*
X158099500Y-71421902D01*
X158099500Y-75488618D01*
X158079815Y-75555657D01*
X158073876Y-75564104D01*
X158058063Y-75584711D01*
X157936777Y-75794784D01*
X157936773Y-75794794D01*
X157843947Y-76018895D01*
X157781161Y-76253214D01*
X157749500Y-76493711D01*
X157749500Y-76986288D01*
X157770076Y-77142586D01*
X157781162Y-77226789D01*
X157783842Y-77236789D01*
X157843947Y-77461104D01*
X157936773Y-77685205D01*
X157936777Y-77685214D01*
X158032430Y-77850889D01*
X158058064Y-77895289D01*
X158058066Y-77895291D01*
X158058073Y-77895301D01*
X158073874Y-77915893D01*
X158099070Y-77981062D01*
X158099500Y-77991381D01*
X158099500Y-78088050D01*
X158079815Y-78155089D01*
X158072448Y-78165362D01*
X158020184Y-78230898D01*
X157885258Y-78464599D01*
X157885256Y-78464603D01*
X157786666Y-78715804D01*
X157786664Y-78715811D01*
X157726616Y-78978898D01*
X157706451Y-79247995D01*
X157706451Y-79248004D01*
X157726616Y-79517101D01*
X157786664Y-79780188D01*
X157786666Y-79780195D01*
X157885256Y-80031396D01*
X157885258Y-80031400D01*
X157909962Y-80074188D01*
X158020185Y-80265102D01*
X158096765Y-80361130D01*
X158188442Y-80476089D01*
X158375183Y-80649358D01*
X158386259Y-80659635D01*
X158609226Y-80811651D01*
X158852359Y-80928738D01*
X159110228Y-81008280D01*
X159110229Y-81008280D01*
X159110232Y-81008281D01*
X159377063Y-81048499D01*
X159377068Y-81048499D01*
X159377071Y-81048500D01*
X159377072Y-81048500D01*
X159646928Y-81048500D01*
X159646929Y-81048500D01*
X159646936Y-81048499D01*
X159913767Y-81008281D01*
X159913768Y-81008280D01*
X159913772Y-81008280D01*
X160171641Y-80928738D01*
X160414775Y-80811651D01*
X160435650Y-80797418D01*
X160502124Y-80775918D01*
X160569675Y-80793770D01*
X160616850Y-80845309D01*
X160629500Y-80899872D01*
X160629500Y-84807110D01*
X160609815Y-84874149D01*
X160593185Y-84894786D01*
X160474790Y-85013182D01*
X160413470Y-85046666D01*
X160387111Y-85049500D01*
X156815955Y-85049500D01*
X156748916Y-85029815D01*
X156703161Y-84977011D01*
X156693217Y-84907853D01*
X156722242Y-84844297D01*
X156728274Y-84837819D01*
X156756729Y-84809364D01*
X156756729Y-83597074D01*
X155925898Y-83597074D01*
X155925898Y-84809364D01*
X155954353Y-84837819D01*
X155987838Y-84899142D01*
X155982854Y-84968834D01*
X155940982Y-85024767D01*
X155875518Y-85049184D01*
X155866672Y-85049500D01*
X146864500Y-85049500D01*
X146797461Y-85029815D01*
X146751706Y-84977011D01*
X146740500Y-84925500D01*
X146740500Y-81205520D01*
X146760185Y-81138481D01*
X146812989Y-81092726D01*
X146882147Y-81082782D01*
X146918298Y-81093798D01*
X147140359Y-81200738D01*
X147398228Y-81280280D01*
X147398229Y-81280280D01*
X147398232Y-81280281D01*
X147665063Y-81320499D01*
X147665068Y-81320499D01*
X147665071Y-81320500D01*
X147665072Y-81320500D01*
X147934928Y-81320500D01*
X147934929Y-81320500D01*
X147934936Y-81320499D01*
X148201767Y-81280281D01*
X148201768Y-81280280D01*
X148201772Y-81280280D01*
X148459641Y-81200738D01*
X148661307Y-81103621D01*
X148702767Y-81083655D01*
X148702767Y-81083654D01*
X148702775Y-81083651D01*
X148925741Y-80931635D01*
X148986048Y-80875677D01*
X149048576Y-80844509D01*
X149118033Y-80852095D01*
X149154727Y-80875676D01*
X149204259Y-80921635D01*
X149427226Y-81073651D01*
X149670359Y-81190738D01*
X149928228Y-81270280D01*
X149928229Y-81270280D01*
X149928232Y-81270281D01*
X150195063Y-81310499D01*
X150195068Y-81310499D01*
X150195071Y-81310500D01*
X150195072Y-81310500D01*
X150464928Y-81310500D01*
X150464929Y-81310500D01*
X150518006Y-81302500D01*
X150731767Y-81270281D01*
X150731768Y-81270280D01*
X150731772Y-81270280D01*
X150989641Y-81190738D01*
X151193165Y-81092726D01*
X151232767Y-81073655D01*
X151232767Y-81073654D01*
X151232775Y-81073651D01*
X151455741Y-80921635D01*
X151653561Y-80738085D01*
X151821815Y-80527102D01*
X151956743Y-80293398D01*
X152055334Y-80042195D01*
X152115383Y-79779103D01*
X152129078Y-79596355D01*
X152135549Y-79510004D01*
X152135549Y-79509995D01*
X152115383Y-79240898D01*
X152104081Y-79191380D01*
X152055334Y-78977805D01*
X151956743Y-78726602D01*
X151821815Y-78492898D01*
X151653561Y-78281915D01*
X151653557Y-78281911D01*
X151610157Y-78241641D01*
X151574404Y-78181613D01*
X151570500Y-78150744D01*
X151570500Y-78066543D01*
X151590185Y-77999504D01*
X151596124Y-77991057D01*
X151653799Y-77915893D01*
X151661936Y-77905289D01*
X151783224Y-77695212D01*
X151876054Y-77471100D01*
X151938838Y-77236789D01*
X151970500Y-76996288D01*
X151970500Y-76503712D01*
X151969183Y-76493712D01*
X151960187Y-76425373D01*
X151938838Y-76263211D01*
X151876054Y-76028900D01*
X151783224Y-75804788D01*
X151777450Y-75794788D01*
X151661936Y-75594711D01*
X151596124Y-75508942D01*
X151570930Y-75443773D01*
X151570500Y-75433456D01*
X151570500Y-74010653D01*
X151534784Y-73785155D01*
X151464229Y-73568012D01*
X151360578Y-73364587D01*
X151292103Y-73270340D01*
X151292103Y-73270339D01*
X151226383Y-73179882D01*
X149419482Y-71372981D01*
X149385997Y-71311658D01*
X149390981Y-71241966D01*
X149432853Y-71186033D01*
X149498317Y-71161616D01*
X149507163Y-71161300D01*
X157995591Y-71161300D01*
X158062630Y-71180985D01*
G37*
%TD.AperFunction*%
%TA.AperFunction,Conductor*%
G36*
X177812539Y-65644185D02*
G01*
X177858294Y-65696989D01*
X177869500Y-65748500D01*
X177869500Y-123113500D01*
X177849815Y-123180539D01*
X177797011Y-123226294D01*
X177745500Y-123237500D01*
X115274500Y-123237500D01*
X115207461Y-123217815D01*
X115161706Y-123165011D01*
X115150500Y-123113500D01*
X115150500Y-119187648D01*
X116683500Y-119187648D01*
X116683500Y-119392351D01*
X116715522Y-119594534D01*
X116778781Y-119789223D01*
X116871715Y-119971613D01*
X116992028Y-120137213D01*
X117136786Y-120281971D01*
X117291749Y-120394556D01*
X117302390Y-120402287D01*
X117418607Y-120461503D01*
X117484776Y-120495218D01*
X117484778Y-120495218D01*
X117484781Y-120495220D01*
X117589137Y-120529127D01*
X117679465Y-120558477D01*
X117780557Y-120574488D01*
X117881648Y-120590500D01*
X117881649Y-120590500D01*
X118086351Y-120590500D01*
X118086352Y-120590500D01*
X118288534Y-120558477D01*
X118483219Y-120495220D01*
X118665610Y-120402287D01*
X118758590Y-120334732D01*
X118831213Y-120281971D01*
X118831215Y-120281968D01*
X118831219Y-120281966D01*
X118975966Y-120137219D01*
X118975968Y-120137215D01*
X118975971Y-120137213D01*
X119028732Y-120064590D01*
X119096287Y-119971610D01*
X119189220Y-119789219D01*
X119252477Y-119594534D01*
X119284500Y-119392352D01*
X119284500Y-119187648D01*
X119252477Y-118985466D01*
X119189220Y-118790781D01*
X119189218Y-118790778D01*
X119189218Y-118790776D01*
X119178453Y-118769648D01*
X173959500Y-118769648D01*
X173959500Y-118974351D01*
X173991522Y-119176534D01*
X174054781Y-119371223D01*
X174147715Y-119553613D01*
X174268028Y-119719213D01*
X174412786Y-119863971D01*
X174560941Y-119971610D01*
X174578390Y-119984287D01*
X174694607Y-120043503D01*
X174760776Y-120077218D01*
X174760778Y-120077218D01*
X174760781Y-120077220D01*
X174865137Y-120111127D01*
X174955465Y-120140477D01*
X175056557Y-120156488D01*
X175157648Y-120172500D01*
X175157649Y-120172500D01*
X175362351Y-120172500D01*
X175362352Y-120172500D01*
X175564534Y-120140477D01*
X175759219Y-120077220D01*
X175941610Y-119984287D01*
X176034590Y-119916732D01*
X176107213Y-119863971D01*
X176107215Y-119863968D01*
X176107219Y-119863966D01*
X176251966Y-119719219D01*
X176251968Y-119719215D01*
X176251971Y-119719213D01*
X176342554Y-119594534D01*
X176372287Y-119553610D01*
X176465220Y-119371219D01*
X176528477Y-119176534D01*
X176560500Y-118974352D01*
X176560500Y-118769648D01*
X176528477Y-118567466D01*
X176465220Y-118372781D01*
X176465218Y-118372778D01*
X176465218Y-118372776D01*
X176427131Y-118298028D01*
X176372287Y-118190390D01*
X176363077Y-118177713D01*
X176251971Y-118024786D01*
X176107213Y-117880028D01*
X175941613Y-117759715D01*
X175941612Y-117759714D01*
X175941610Y-117759713D01*
X175884653Y-117730691D01*
X175759223Y-117666781D01*
X175564534Y-117603522D01*
X175389995Y-117575878D01*
X175362352Y-117571500D01*
X175157648Y-117571500D01*
X175133329Y-117575351D01*
X174955465Y-117603522D01*
X174760776Y-117666781D01*
X174578386Y-117759715D01*
X174412786Y-117880028D01*
X174268028Y-118024786D01*
X174147715Y-118190386D01*
X174054781Y-118372776D01*
X173991522Y-118567465D01*
X173959500Y-118769648D01*
X119178453Y-118769648D01*
X119155503Y-118724607D01*
X119096287Y-118608390D01*
X119066554Y-118567466D01*
X118975971Y-118442786D01*
X118831213Y-118298028D01*
X118665613Y-118177715D01*
X118665612Y-118177714D01*
X118665610Y-118177713D01*
X118608653Y-118148691D01*
X118483223Y-118084781D01*
X118288534Y-118021522D01*
X118113995Y-117993878D01*
X118086352Y-117989500D01*
X117881648Y-117989500D01*
X117857329Y-117993351D01*
X117679465Y-118021522D01*
X117484776Y-118084781D01*
X117302386Y-118177715D01*
X117136786Y-118298028D01*
X116992028Y-118442786D01*
X116871715Y-118608386D01*
X116778781Y-118790776D01*
X116715522Y-118985465D01*
X116683500Y-119187648D01*
X115150500Y-119187648D01*
X115150500Y-80624995D01*
X119819549Y-80624995D01*
X119819549Y-80625004D01*
X119839322Y-80888869D01*
X119888802Y-81105653D01*
X119898205Y-81146850D01*
X119994879Y-81393170D01*
X120127185Y-81622331D01*
X120151234Y-81652487D01*
X120282976Y-81817687D01*
X120309385Y-81882374D01*
X120296628Y-81951069D01*
X120282976Y-81972313D01*
X120127185Y-82167669D01*
X119994879Y-82396829D01*
X119898207Y-82643144D01*
X119898202Y-82643161D01*
X119839322Y-82901130D01*
X119819549Y-83164995D01*
X119819549Y-83165004D01*
X119839322Y-83428869D01*
X119839323Y-83428872D01*
X119898205Y-83686850D01*
X119994879Y-83933170D01*
X120127185Y-84162331D01*
X120292168Y-84369213D01*
X120486142Y-84549194D01*
X120704775Y-84698256D01*
X120704780Y-84698258D01*
X120704781Y-84698259D01*
X120704782Y-84698260D01*
X120831399Y-84759234D01*
X120943178Y-84813064D01*
X120943179Y-84813064D01*
X120943182Y-84813066D01*
X121196038Y-84891062D01*
X121196039Y-84891062D01*
X121196042Y-84891063D01*
X121457686Y-84930499D01*
X121457691Y-84930499D01*
X121457694Y-84930500D01*
X121457695Y-84930500D01*
X121722305Y-84930500D01*
X121722306Y-84930500D01*
X121722313Y-84930499D01*
X121983957Y-84891063D01*
X121983958Y-84891062D01*
X121983962Y-84891062D01*
X122236818Y-84813066D01*
X122425198Y-84722347D01*
X122475218Y-84698260D01*
X122475218Y-84698259D01*
X122475226Y-84698256D01*
X122693858Y-84549194D01*
X122887832Y-84369213D01*
X123052815Y-84162331D01*
X123185121Y-83933170D01*
X123281795Y-83686850D01*
X123340677Y-83428872D01*
X123360451Y-83165000D01*
X123356964Y-83118473D01*
X123340677Y-82901130D01*
X123340677Y-82901128D01*
X123281795Y-82643150D01*
X123185121Y-82396830D01*
X123052815Y-82167669D01*
X122897022Y-81972311D01*
X122870615Y-81907626D01*
X122883370Y-81838931D01*
X122897020Y-81817691D01*
X123052815Y-81622331D01*
X123185121Y-81393170D01*
X123281795Y-81146850D01*
X123340677Y-80888872D01*
X123360451Y-80625000D01*
X123340677Y-80361128D01*
X123281795Y-80103150D01*
X123185121Y-79856830D01*
X123185120Y-79856829D01*
X123185121Y-79856829D01*
X123106988Y-79721500D01*
X123090515Y-79653600D01*
X123113367Y-79587573D01*
X123168289Y-79544382D01*
X123214375Y-79535500D01*
X123399162Y-79535500D01*
X123624660Y-79499784D01*
X123841799Y-79429231D01*
X124045228Y-79325579D01*
X124148018Y-79250897D01*
X124229937Y-79191380D01*
X125906380Y-77514937D01*
X125975182Y-77420238D01*
X126030512Y-77377573D01*
X126100125Y-77371594D01*
X126161920Y-77404200D01*
X126196277Y-77465038D01*
X126199500Y-77493124D01*
X126199500Y-83067111D01*
X126179815Y-83134150D01*
X126163181Y-83154792D01*
X122625558Y-86692414D01*
X122564235Y-86725899D01*
X122494543Y-86720915D01*
X122475871Y-86712117D01*
X122475229Y-86711746D01*
X122475226Y-86711744D01*
X122475218Y-86711740D01*
X122475215Y-86711738D01*
X122236820Y-86596935D01*
X122236822Y-86596935D01*
X121983963Y-86518938D01*
X121983957Y-86518936D01*
X121722313Y-86479500D01*
X121722306Y-86479500D01*
X121457694Y-86479500D01*
X121457686Y-86479500D01*
X121196042Y-86518936D01*
X121196036Y-86518938D01*
X120943178Y-86596935D01*
X120704782Y-86711739D01*
X120704781Y-86711740D01*
X120486141Y-86860806D01*
X120292170Y-87040785D01*
X120292168Y-87040787D01*
X120127185Y-87247669D01*
X119994879Y-87476829D01*
X119898207Y-87723144D01*
X119898202Y-87723161D01*
X119839322Y-87981130D01*
X119819549Y-88244995D01*
X119819549Y-88245004D01*
X119839322Y-88508869D01*
X119874666Y-88663720D01*
X119898205Y-88766850D01*
X119994879Y-89013170D01*
X120127185Y-89242331D01*
X120223867Y-89363566D01*
X120282976Y-89437687D01*
X120309385Y-89502374D01*
X120296628Y-89571069D01*
X120282976Y-89592313D01*
X120127185Y-89787669D01*
X119994879Y-90016829D01*
X119898207Y-90263144D01*
X119898202Y-90263161D01*
X119839322Y-90521130D01*
X119819549Y-90784995D01*
X119819549Y-90785004D01*
X119839322Y-91048869D01*
X119839323Y-91048872D01*
X119898205Y-91306850D01*
X119994879Y-91553170D01*
X120127185Y-91782331D01*
X120229169Y-91910215D01*
X120282976Y-91977687D01*
X120309385Y-92042374D01*
X120296628Y-92111069D01*
X120282976Y-92132313D01*
X120127185Y-92327669D01*
X119994879Y-92556829D01*
X119898207Y-92803144D01*
X119898202Y-92803161D01*
X119839322Y-93061130D01*
X119819549Y-93324995D01*
X119819549Y-93325004D01*
X119839322Y-93588869D01*
X119858026Y-93670816D01*
X119898205Y-93846850D01*
X119994879Y-94093170D01*
X120127185Y-94322331D01*
X120234957Y-94457473D01*
X120282976Y-94517687D01*
X120309385Y-94582374D01*
X120296628Y-94651069D01*
X120282976Y-94672313D01*
X120127185Y-94867669D01*
X119994879Y-95096829D01*
X119898207Y-95343144D01*
X119898202Y-95343161D01*
X119839322Y-95601130D01*
X119819549Y-95864995D01*
X119819549Y-95865004D01*
X119839322Y-96128869D01*
X119839323Y-96128872D01*
X119898205Y-96386850D01*
X119994879Y-96633170D01*
X120127185Y-96862331D01*
X120238806Y-97002299D01*
X120282976Y-97057687D01*
X120309385Y-97122374D01*
X120296628Y-97191069D01*
X120282976Y-97212313D01*
X120127185Y-97407669D01*
X119994879Y-97636829D01*
X119898207Y-97883144D01*
X119898202Y-97883161D01*
X119839322Y-98141130D01*
X119819549Y-98404995D01*
X119819549Y-98405004D01*
X119839322Y-98668869D01*
X119872019Y-98812123D01*
X119898205Y-98926850D01*
X119994879Y-99173170D01*
X120127185Y-99402331D01*
X120214147Y-99511378D01*
X120282976Y-99597687D01*
X120309385Y-99662374D01*
X120296628Y-99731069D01*
X120282976Y-99752313D01*
X120127185Y-99947669D01*
X119994879Y-100176829D01*
X119898207Y-100423144D01*
X119898202Y-100423161D01*
X119839322Y-100681130D01*
X119819549Y-100944995D01*
X119819549Y-100945004D01*
X119839322Y-101208869D01*
X119839323Y-101208872D01*
X119898205Y-101466850D01*
X119994879Y-101713170D01*
X120127185Y-101942331D01*
X120177048Y-102004857D01*
X120282976Y-102137687D01*
X120309385Y-102202374D01*
X120296628Y-102271069D01*
X120282976Y-102292313D01*
X120127185Y-102487669D01*
X119994879Y-102716829D01*
X119898207Y-102963144D01*
X119898202Y-102963161D01*
X119839322Y-103221130D01*
X119819549Y-103484995D01*
X119819549Y-103485004D01*
X119839322Y-103748869D01*
X119898202Y-104006838D01*
X119898205Y-104006850D01*
X119994879Y-104253170D01*
X120127185Y-104482331D01*
X120199101Y-104572511D01*
X120282976Y-104677687D01*
X120309385Y-104742374D01*
X120296628Y-104811069D01*
X120282976Y-104832313D01*
X120127185Y-105027669D01*
X119994879Y-105256829D01*
X119898207Y-105503144D01*
X119898202Y-105503161D01*
X119839322Y-105761129D01*
X119819549Y-106024995D01*
X119819549Y-106025004D01*
X119839322Y-106288869D01*
X119898202Y-106546838D01*
X119898205Y-106546850D01*
X119994879Y-106793170D01*
X120127185Y-107022331D01*
X120229169Y-107150215D01*
X120282976Y-107217687D01*
X120309385Y-107282374D01*
X120296628Y-107351069D01*
X120282976Y-107372313D01*
X120127185Y-107567669D01*
X119994879Y-107796829D01*
X119898207Y-108043144D01*
X119898202Y-108043161D01*
X119839322Y-108301130D01*
X119819549Y-108564995D01*
X119819549Y-108565004D01*
X119839322Y-108828869D01*
X119839323Y-108828872D01*
X119898205Y-109086850D01*
X119994879Y-109333170D01*
X120127185Y-109562331D01*
X120199101Y-109652511D01*
X120282976Y-109757687D01*
X120309385Y-109822374D01*
X120296628Y-109891069D01*
X120282976Y-109912313D01*
X120127185Y-110107669D01*
X119994879Y-110336829D01*
X119898207Y-110583144D01*
X119898202Y-110583161D01*
X119839322Y-110841130D01*
X119819549Y-111104995D01*
X119819549Y-111105004D01*
X119839322Y-111368869D01*
X119898202Y-111626838D01*
X119898205Y-111626850D01*
X119994879Y-111873170D01*
X120127185Y-112102331D01*
X120199101Y-112192511D01*
X120282976Y-112297687D01*
X120309385Y-112362374D01*
X120296628Y-112431069D01*
X120282976Y-112452313D01*
X120127185Y-112647669D01*
X119994879Y-112876829D01*
X119898207Y-113123144D01*
X119898202Y-113123161D01*
X119839322Y-113381130D01*
X119819549Y-113644995D01*
X119819549Y-113645004D01*
X119839322Y-113908869D01*
X119839323Y-113908872D01*
X119898205Y-114166850D01*
X119994879Y-114413170D01*
X120127185Y-114642331D01*
X120292168Y-114849213D01*
X120486142Y-115029194D01*
X120704775Y-115178256D01*
X120704780Y-115178258D01*
X120704781Y-115178259D01*
X120704782Y-115178260D01*
X120831399Y-115239234D01*
X120943178Y-115293064D01*
X120943179Y-115293064D01*
X120943182Y-115293066D01*
X121196038Y-115371062D01*
X121196039Y-115371062D01*
X121196042Y-115371063D01*
X121457686Y-115410499D01*
X121457691Y-115410499D01*
X121457694Y-115410500D01*
X121457695Y-115410500D01*
X121722305Y-115410500D01*
X121722306Y-115410500D01*
X121722313Y-115410499D01*
X121983957Y-115371063D01*
X121983958Y-115371062D01*
X121983962Y-115371062D01*
X122236818Y-115293066D01*
X122475226Y-115178256D01*
X122693858Y-115029194D01*
X122887832Y-114849213D01*
X123052815Y-114642331D01*
X123185121Y-114413170D01*
X123281795Y-114166850D01*
X123340677Y-113908872D01*
X123349562Y-113790313D01*
X123360451Y-113645004D01*
X123360451Y-113644995D01*
X123340677Y-113381130D01*
X123336355Y-113362194D01*
X123281795Y-113123150D01*
X123185121Y-112876830D01*
X123052815Y-112647669D01*
X122897022Y-112452311D01*
X122870615Y-112387626D01*
X122883370Y-112318931D01*
X122897020Y-112297691D01*
X123052815Y-112102331D01*
X123185121Y-111873170D01*
X123281795Y-111626850D01*
X123340677Y-111368872D01*
X123360451Y-111105000D01*
X123349076Y-110953214D01*
X123340677Y-110841130D01*
X123328685Y-110788588D01*
X123281795Y-110583150D01*
X123185121Y-110336830D01*
X123185120Y-110336829D01*
X123185121Y-110336829D01*
X123106988Y-110201500D01*
X123090515Y-110133600D01*
X123113367Y-110067573D01*
X123168289Y-110024382D01*
X123214375Y-110015500D01*
X124792821Y-110015500D01*
X124859860Y-110035185D01*
X124880502Y-110051819D01*
X129220064Y-114391381D01*
X129220069Y-114391385D01*
X129381174Y-114508433D01*
X129404773Y-114525579D01*
X129608201Y-114629231D01*
X129825341Y-114699784D01*
X129942346Y-114718315D01*
X130050839Y-114735499D01*
X130050843Y-114735499D01*
X130279161Y-114735499D01*
X130366614Y-114721647D01*
X130504659Y-114699784D01*
X130721798Y-114629231D01*
X130925227Y-114525579D01*
X131109937Y-114391380D01*
X131271380Y-114229937D01*
X131405579Y-114045227D01*
X131509231Y-113841798D01*
X131579784Y-113624659D01*
X131612911Y-113415498D01*
X131615499Y-113399161D01*
X131615499Y-113170838D01*
X131597585Y-113057736D01*
X131579784Y-112945341D01*
X131509231Y-112728201D01*
X131405579Y-112524773D01*
X131337522Y-112431100D01*
X131271385Y-112340069D01*
X131271381Y-112340064D01*
X126389937Y-107458620D01*
X126255281Y-107360787D01*
X126255279Y-107360786D01*
X126255279Y-107360785D01*
X126205228Y-107324421D01*
X126001803Y-107220770D01*
X125784660Y-107150215D01*
X125559162Y-107114500D01*
X125559157Y-107114500D01*
X123217577Y-107114500D01*
X123150538Y-107094815D01*
X123104783Y-107042011D01*
X123094839Y-106972853D01*
X123123864Y-106909297D01*
X123129896Y-106902819D01*
X125095227Y-104937488D01*
X127197079Y-102835637D01*
X127331279Y-102650928D01*
X127434931Y-102447499D01*
X127505484Y-102230360D01*
X127518336Y-102149213D01*
X127541199Y-102004861D01*
X127541199Y-101776538D01*
X127514257Y-101606434D01*
X127505484Y-101551041D01*
X127434931Y-101333902D01*
X127434929Y-101333899D01*
X127434929Y-101333897D01*
X127331278Y-101130472D01*
X127330340Y-101129181D01*
X127197079Y-100945763D01*
X127035637Y-100784321D01*
X126850927Y-100650121D01*
X126818601Y-100633650D01*
X126647502Y-100546470D01*
X126430359Y-100475916D01*
X126204861Y-100440201D01*
X126204857Y-100440201D01*
X125976543Y-100440201D01*
X125976539Y-100440201D01*
X125751041Y-100475915D01*
X125751035Y-100475917D01*
X125533896Y-100546470D01*
X125330471Y-100650121D01*
X125145761Y-100784322D01*
X125145760Y-100784323D01*
X123309686Y-102620396D01*
X123248363Y-102653881D01*
X123178671Y-102648897D01*
X123122738Y-102607025D01*
X123114618Y-102594715D01*
X123112230Y-102590580D01*
X123052815Y-102487669D01*
X122897022Y-102292311D01*
X122870615Y-102227626D01*
X122883370Y-102158931D01*
X122897020Y-102137691D01*
X123052815Y-101942331D01*
X123185121Y-101713170D01*
X123281795Y-101466850D01*
X123340677Y-101208872D01*
X123360451Y-100945000D01*
X123359933Y-100938092D01*
X123340677Y-100681130D01*
X123340677Y-100681128D01*
X123281795Y-100423150D01*
X123185121Y-100176830D01*
X123185120Y-100176829D01*
X123185121Y-100176829D01*
X123106988Y-100041500D01*
X123090515Y-99973600D01*
X123113367Y-99907573D01*
X123168289Y-99864382D01*
X123214375Y-99855500D01*
X128869162Y-99855500D01*
X129094660Y-99819784D01*
X129311799Y-99749231D01*
X129515228Y-99645579D01*
X129592954Y-99589106D01*
X129699937Y-99511380D01*
X130887819Y-98323498D01*
X130949142Y-98290013D01*
X131018834Y-98294997D01*
X131074767Y-98336869D01*
X131099184Y-98402333D01*
X131099500Y-98411179D01*
X131099500Y-102228762D01*
X131135215Y-102454260D01*
X131205770Y-102671403D01*
X131272238Y-102801853D01*
X131309421Y-102874828D01*
X131345872Y-102924998D01*
X131443620Y-103059537D01*
X135302053Y-106917970D01*
X135321759Y-106943651D01*
X135367185Y-107022331D01*
X135469169Y-107150215D01*
X135522976Y-107217687D01*
X135549385Y-107282374D01*
X135536628Y-107351069D01*
X135522976Y-107372313D01*
X135367185Y-107567669D01*
X135234879Y-107796829D01*
X135138207Y-108043144D01*
X135138202Y-108043161D01*
X135079322Y-108301130D01*
X135059549Y-108564995D01*
X135059549Y-108565004D01*
X135079322Y-108828869D01*
X135079323Y-108828872D01*
X135138205Y-109086850D01*
X135234879Y-109333170D01*
X135367185Y-109562331D01*
X135439101Y-109652511D01*
X135522976Y-109757687D01*
X135549385Y-109822374D01*
X135536628Y-109891069D01*
X135522976Y-109912313D01*
X135367185Y-110107669D01*
X135234879Y-110336829D01*
X135138207Y-110583144D01*
X135138202Y-110583161D01*
X135079322Y-110841130D01*
X135059549Y-111104995D01*
X135059549Y-111105004D01*
X135079322Y-111368869D01*
X135138202Y-111626838D01*
X135138205Y-111626850D01*
X135234879Y-111873170D01*
X135367185Y-112102331D01*
X135439101Y-112192511D01*
X135522976Y-112297687D01*
X135549385Y-112362374D01*
X135536628Y-112431069D01*
X135522976Y-112452313D01*
X135367185Y-112647669D01*
X135234879Y-112876829D01*
X135138207Y-113123144D01*
X135138202Y-113123161D01*
X135079322Y-113381130D01*
X135059549Y-113644995D01*
X135059549Y-113645004D01*
X135079322Y-113908869D01*
X135079323Y-113908872D01*
X135138205Y-114166850D01*
X135234879Y-114413170D01*
X135367185Y-114642331D01*
X135532168Y-114849213D01*
X135726142Y-115029194D01*
X135944775Y-115178256D01*
X135944780Y-115178258D01*
X135944781Y-115178259D01*
X135944782Y-115178260D01*
X136071399Y-115239234D01*
X136183178Y-115293064D01*
X136183179Y-115293064D01*
X136183182Y-115293066D01*
X136436038Y-115371062D01*
X136436039Y-115371062D01*
X136436042Y-115371063D01*
X136697686Y-115410499D01*
X136697691Y-115410499D01*
X136697694Y-115410500D01*
X136697695Y-115410500D01*
X136962305Y-115410500D01*
X136962306Y-115410500D01*
X136962313Y-115410499D01*
X137223957Y-115371063D01*
X137223958Y-115371062D01*
X137223962Y-115371062D01*
X137476818Y-115293066D01*
X137715226Y-115178256D01*
X137933858Y-115029194D01*
X138127832Y-114849213D01*
X138292815Y-114642331D01*
X138311896Y-114609280D01*
X138362461Y-114561065D01*
X138431068Y-114547841D01*
X138495933Y-114573808D01*
X138536462Y-114630722D01*
X138537817Y-114635357D01*
X138609770Y-114856803D01*
X138681051Y-114996700D01*
X138697609Y-115029196D01*
X138713423Y-115060231D01*
X138755614Y-115118303D01*
X138755618Y-115118307D01*
X138847617Y-115244933D01*
X138847622Y-115244939D01*
X140025066Y-116422383D01*
X140132042Y-116500105D01*
X140132045Y-116500106D01*
X140209772Y-116556579D01*
X140305884Y-116605550D01*
X140413196Y-116660229D01*
X140413198Y-116660229D01*
X140413201Y-116660231D01*
X140529592Y-116698049D01*
X140630339Y-116730784D01*
X140855838Y-116766500D01*
X140855843Y-116766500D01*
X151484162Y-116766500D01*
X151709660Y-116730784D01*
X151926799Y-116660231D01*
X152130228Y-116556579D01*
X152314937Y-116422379D01*
X152476379Y-116260937D01*
X152610579Y-116076228D01*
X152714231Y-115872799D01*
X152784784Y-115655660D01*
X152820500Y-115430162D01*
X152820500Y-113404335D01*
X152840185Y-113337296D01*
X152856819Y-113316654D01*
X152933819Y-113239654D01*
X153062007Y-113054626D01*
X153155096Y-112849683D01*
X153210096Y-112631412D01*
X153220500Y-112499217D01*
X153220499Y-110920784D01*
X153210096Y-110788588D01*
X153204100Y-110764794D01*
X153155097Y-110570321D01*
X153155096Y-110570318D01*
X153139751Y-110536535D01*
X153062007Y-110365374D01*
X153016935Y-110300317D01*
X152933825Y-110180354D01*
X152933822Y-110180350D01*
X152933819Y-110180346D01*
X152774654Y-110021181D01*
X152774650Y-110021178D01*
X152774645Y-110021174D01*
X152589632Y-109892997D01*
X152589630Y-109892995D01*
X152589626Y-109892993D01*
X152585390Y-109891069D01*
X152384681Y-109799903D01*
X152384678Y-109799902D01*
X152166420Y-109744905D01*
X152166413Y-109744904D01*
X152122347Y-109741436D01*
X152034217Y-109734500D01*
X152034215Y-109734500D01*
X150705791Y-109734500D01*
X150705776Y-109734501D01*
X150573588Y-109744904D01*
X150474798Y-109769797D01*
X150404981Y-109767089D01*
X150347711Y-109727065D01*
X150321170Y-109662432D01*
X150320500Y-109649555D01*
X150320500Y-108885837D01*
X150284784Y-108660339D01*
X150214229Y-108443196D01*
X150110578Y-108239771D01*
X150054107Y-108162047D01*
X150054105Y-108162043D01*
X149976383Y-108055066D01*
X147977498Y-106056181D01*
X147944013Y-105994858D01*
X147948997Y-105925166D01*
X147990869Y-105869233D01*
X148056333Y-105844816D01*
X148065179Y-105844500D01*
X162030102Y-105844500D01*
X162097141Y-105864185D01*
X162142896Y-105916989D01*
X162152575Y-105949102D01*
X162161216Y-106003660D01*
X162231770Y-106220803D01*
X162335423Y-106424230D01*
X162469614Y-106608931D01*
X162469782Y-106609127D01*
X162469822Y-106609216D01*
X162472483Y-106612879D01*
X162471714Y-106613437D01*
X162498359Y-106672886D01*
X162499500Y-106689668D01*
X162499500Y-110123456D01*
X162479815Y-110190495D01*
X162473876Y-110198942D01*
X162408063Y-110284711D01*
X162286777Y-110494784D01*
X162286773Y-110494794D01*
X162193947Y-110718895D01*
X162131161Y-110953214D01*
X162099500Y-111193711D01*
X162099500Y-111686288D01*
X162131161Y-111926785D01*
X162193947Y-112161104D01*
X162268075Y-112340063D01*
X162286776Y-112385212D01*
X162408064Y-112595289D01*
X162408066Y-112595292D01*
X162408067Y-112595293D01*
X162555733Y-112787736D01*
X162555739Y-112787743D01*
X162727256Y-112959260D01*
X162727263Y-112959266D01*
X162740801Y-112969654D01*
X162919711Y-113106936D01*
X163129788Y-113228224D01*
X163353900Y-113321054D01*
X163588211Y-113383838D01*
X163768586Y-113407584D01*
X163828711Y-113415500D01*
X163828712Y-113415500D01*
X164071289Y-113415500D01*
X164119388Y-113409167D01*
X164311789Y-113383838D01*
X164546100Y-113321054D01*
X164770212Y-113228224D01*
X164930512Y-113135674D01*
X164998406Y-113119203D01*
X165063123Y-113141135D01*
X165230367Y-113257003D01*
X165230371Y-113257005D01*
X165230374Y-113257007D01*
X165435317Y-113350096D01*
X165435321Y-113350097D01*
X165653579Y-113405094D01*
X165653581Y-113405094D01*
X165653588Y-113405096D01*
X165785783Y-113415500D01*
X167114216Y-113415499D01*
X167246412Y-113405096D01*
X167464683Y-113350096D01*
X167669626Y-113257007D01*
X167854654Y-113128819D01*
X168013819Y-112969654D01*
X168142007Y-112784626D01*
X168235096Y-112579683D01*
X168290096Y-112361412D01*
X168300500Y-112229217D01*
X168300499Y-110650784D01*
X168290096Y-110518588D01*
X168284100Y-110494794D01*
X168235097Y-110300321D01*
X168235096Y-110300318D01*
X168189049Y-110198942D01*
X168142007Y-110095374D01*
X168013819Y-109910346D01*
X167936819Y-109833346D01*
X167903334Y-109772023D01*
X167900500Y-109745665D01*
X167900500Y-105883838D01*
X167881064Y-105761130D01*
X167881064Y-105761125D01*
X167875820Y-105728019D01*
X167864785Y-105658341D01*
X167794232Y-105441202D01*
X167794230Y-105441199D01*
X167794230Y-105441197D01*
X167690579Y-105237772D01*
X167556380Y-105053063D01*
X166831498Y-104328181D01*
X166798013Y-104266858D01*
X166802997Y-104197166D01*
X166844869Y-104141233D01*
X166910333Y-104116816D01*
X166919179Y-104116500D01*
X169612097Y-104116500D01*
X169845368Y-104079553D01*
X169925661Y-104053464D01*
X170069992Y-104006568D01*
X170280434Y-103899343D01*
X170471510Y-103760517D01*
X176014517Y-98217510D01*
X176153343Y-98026434D01*
X176260568Y-97815992D01*
X176333553Y-97591369D01*
X176358557Y-97433500D01*
X176370500Y-97358097D01*
X176370500Y-90031902D01*
X176333553Y-89798631D01*
X176273296Y-89613181D01*
X176260568Y-89574008D01*
X176260566Y-89574005D01*
X176260566Y-89574003D01*
X176191109Y-89437687D01*
X176153343Y-89363567D01*
X176132225Y-89334500D01*
X176119962Y-89317622D01*
X176014520Y-89172493D01*
X176014515Y-89172487D01*
X172247512Y-85405485D01*
X172247511Y-85405484D01*
X172056434Y-85266657D01*
X171845996Y-85159433D01*
X171621368Y-85086446D01*
X171388097Y-85049500D01*
X171388092Y-85049500D01*
X163872890Y-85049500D01*
X163805851Y-85029815D01*
X163785209Y-85013181D01*
X163666819Y-84894791D01*
X163633334Y-84833468D01*
X163630500Y-84807110D01*
X163630500Y-81216415D01*
X163650185Y-81149376D01*
X163702989Y-81103621D01*
X163772147Y-81093677D01*
X163808300Y-81104694D01*
X163970359Y-81182738D01*
X164228228Y-81262280D01*
X164228229Y-81262280D01*
X164228232Y-81262281D01*
X164495063Y-81302499D01*
X164495068Y-81302499D01*
X164495071Y-81302500D01*
X164495072Y-81302500D01*
X164764928Y-81302500D01*
X164764929Y-81302500D01*
X164766389Y-81302280D01*
X165031767Y-81262281D01*
X165031768Y-81262280D01*
X165031772Y-81262280D01*
X165289641Y-81182738D01*
X165497202Y-81082782D01*
X165532767Y-81065655D01*
X165532767Y-81065654D01*
X165532775Y-81065651D01*
X165755741Y-80913635D01*
X165840660Y-80834840D01*
X165903190Y-80803673D01*
X165972647Y-80811259D01*
X166009337Y-80834839D01*
X166094259Y-80913635D01*
X166317226Y-81065651D01*
X166560359Y-81182738D01*
X166818228Y-81262280D01*
X166818229Y-81262280D01*
X166818232Y-81262281D01*
X167085063Y-81302499D01*
X167085068Y-81302499D01*
X167085071Y-81302500D01*
X167085072Y-81302500D01*
X167354928Y-81302500D01*
X167354929Y-81302500D01*
X167356389Y-81302280D01*
X167621767Y-81262281D01*
X167621768Y-81262280D01*
X167621772Y-81262280D01*
X167879641Y-81182738D01*
X168087202Y-81082782D01*
X168122767Y-81065655D01*
X168122767Y-81065654D01*
X168122775Y-81065651D01*
X168345741Y-80913635D01*
X168543561Y-80730085D01*
X168711815Y-80519102D01*
X168846743Y-80285398D01*
X168945334Y-80034195D01*
X169005383Y-79771103D01*
X169018662Y-79593904D01*
X169025549Y-79502004D01*
X169025549Y-79501995D01*
X169005983Y-79240898D01*
X169005383Y-79232897D01*
X168945334Y-78969805D01*
X168846743Y-78718602D01*
X168711815Y-78484898D01*
X168617553Y-78366697D01*
X168591144Y-78302010D01*
X168590500Y-78289384D01*
X168590500Y-78004413D01*
X168610185Y-77937374D01*
X168616114Y-77928939D01*
X168641936Y-77895289D01*
X168763224Y-77685212D01*
X168856054Y-77461100D01*
X168918838Y-77226789D01*
X168950500Y-76986288D01*
X168950500Y-76493712D01*
X168918838Y-76253211D01*
X168856054Y-76018900D01*
X168763224Y-75794788D01*
X168641936Y-75584711D01*
X168626124Y-75564104D01*
X168616123Y-75551070D01*
X168590930Y-75485901D01*
X168590500Y-75475585D01*
X168590500Y-73385838D01*
X168579517Y-73316497D01*
X168579517Y-73316496D01*
X168554785Y-73160340D01*
X168484230Y-72943197D01*
X168380579Y-72739772D01*
X168246380Y-72555063D01*
X167454937Y-71763620D01*
X167454935Y-71763618D01*
X167454930Y-71763614D01*
X167270230Y-71629423D01*
X167270229Y-71629422D01*
X167270227Y-71629421D01*
X167066799Y-71525769D01*
X166954170Y-71489173D01*
X166849660Y-71455216D01*
X166624161Y-71419501D01*
X166624157Y-71419501D01*
X166395843Y-71419501D01*
X166395839Y-71419501D01*
X166170340Y-71455216D01*
X166170337Y-71455216D01*
X165953198Y-71525770D01*
X165749769Y-71629423D01*
X165565069Y-71763614D01*
X165565064Y-71763618D01*
X165403618Y-71925064D01*
X165317587Y-72043476D01*
X165262257Y-72086141D01*
X165192643Y-72092120D01*
X165130848Y-72059514D01*
X165129588Y-72058271D01*
X161675731Y-68604414D01*
X161518251Y-68490000D01*
X161518250Y-68489998D01*
X161501695Y-68477971D01*
X161491028Y-68470221D01*
X161477110Y-68463129D01*
X161287603Y-68366570D01*
X161070460Y-68296015D01*
X160844962Y-68260300D01*
X160844957Y-68260300D01*
X134539743Y-68260300D01*
X134539738Y-68260300D01*
X134314239Y-68296015D01*
X134097096Y-68366570D01*
X133893671Y-68470221D01*
X133863211Y-68492352D01*
X133708963Y-68604420D01*
X133708961Y-68604422D01*
X133708960Y-68604422D01*
X129412181Y-72901202D01*
X129350858Y-72934687D01*
X129281166Y-72929703D01*
X129225233Y-72887831D01*
X129200816Y-72822367D01*
X129200500Y-72813521D01*
X129200500Y-69932889D01*
X129220185Y-69865850D01*
X129236819Y-69845208D01*
X129423550Y-69658477D01*
X129614517Y-69467510D01*
X129753343Y-69276434D01*
X129860568Y-69065993D01*
X129933552Y-68841369D01*
X129959699Y-68676284D01*
X129970499Y-68608097D01*
X129970499Y-68371903D01*
X129949004Y-68236198D01*
X129933552Y-68138632D01*
X129860568Y-67914008D01*
X129860568Y-67914007D01*
X129753342Y-67703566D01*
X129614517Y-67512490D01*
X129563675Y-67461648D01*
X174721500Y-67461648D01*
X174721500Y-67666351D01*
X174753522Y-67868534D01*
X174816781Y-68063223D01*
X174909715Y-68245613D01*
X175030028Y-68411213D01*
X175174786Y-68555971D01*
X175329749Y-68668556D01*
X175340390Y-68676287D01*
X175456607Y-68735503D01*
X175522776Y-68769218D01*
X175522778Y-68769218D01*
X175522781Y-68769220D01*
X175627137Y-68803127D01*
X175717465Y-68832477D01*
X175773607Y-68841369D01*
X175919648Y-68864500D01*
X175919649Y-68864500D01*
X176124351Y-68864500D01*
X176124352Y-68864500D01*
X176326534Y-68832477D01*
X176521219Y-68769220D01*
X176703610Y-68676287D01*
X176797473Y-68608092D01*
X176869213Y-68555971D01*
X176869215Y-68555968D01*
X176869219Y-68555966D01*
X177013966Y-68411219D01*
X177013968Y-68411215D01*
X177013971Y-68411213D01*
X177097666Y-68296015D01*
X177134287Y-68245610D01*
X177227220Y-68063219D01*
X177290477Y-67868534D01*
X177322500Y-67666352D01*
X177322500Y-67461648D01*
X177304101Y-67345483D01*
X177290477Y-67259465D01*
X177261127Y-67169137D01*
X177227220Y-67064781D01*
X177227218Y-67064778D01*
X177227218Y-67064776D01*
X177188863Y-66989501D01*
X177134287Y-66882390D01*
X177126556Y-66871749D01*
X177013971Y-66716786D01*
X176869213Y-66572028D01*
X176703613Y-66451715D01*
X176703612Y-66451714D01*
X176703610Y-66451713D01*
X176646653Y-66422691D01*
X176521223Y-66358781D01*
X176326534Y-66295522D01*
X176151995Y-66267878D01*
X176124352Y-66263500D01*
X175919648Y-66263500D01*
X175895329Y-66267351D01*
X175717465Y-66295522D01*
X175522776Y-66358781D01*
X175340386Y-66451715D01*
X175174786Y-66572028D01*
X175030028Y-66716786D01*
X174909715Y-66882386D01*
X174816781Y-67064776D01*
X174753522Y-67259465D01*
X174721500Y-67461648D01*
X129563675Y-67461648D01*
X129447510Y-67345483D01*
X129256433Y-67206657D01*
X129213497Y-67184780D01*
X129045992Y-67099431D01*
X129045989Y-67099430D01*
X128821369Y-67026448D01*
X128588096Y-66989501D01*
X128588091Y-66989501D01*
X128351908Y-66989501D01*
X128351903Y-66989501D01*
X128118629Y-67026448D01*
X127894009Y-67099430D01*
X127894006Y-67099431D01*
X127683565Y-67206657D01*
X127492488Y-67345484D01*
X126555484Y-68282488D01*
X126416657Y-68473565D01*
X126348113Y-68608092D01*
X126309433Y-68684003D01*
X126236446Y-68908631D01*
X126199500Y-69141902D01*
X126199500Y-73736875D01*
X126179815Y-73803914D01*
X126127011Y-73849669D01*
X126057853Y-73859613D01*
X125994297Y-73830588D01*
X125975183Y-73809761D01*
X125906383Y-73715069D01*
X125906379Y-73715063D01*
X125744937Y-73553621D01*
X125560228Y-73419421D01*
X125356803Y-73315770D01*
X125139660Y-73245215D01*
X124914162Y-73209500D01*
X124914157Y-73209500D01*
X124685843Y-73209500D01*
X124685838Y-73209500D01*
X124460339Y-73245215D01*
X124243196Y-73315770D01*
X124039771Y-73419421D01*
X123855061Y-73553622D01*
X123693622Y-73715061D01*
X123559421Y-73899771D01*
X123455770Y-74103196D01*
X123385215Y-74320339D01*
X123349500Y-74545837D01*
X123349500Y-75917820D01*
X123329815Y-75984859D01*
X123313181Y-76005501D01*
X122926793Y-76391888D01*
X122865470Y-76425373D01*
X122795778Y-76420389D01*
X122781702Y-76414117D01*
X122728049Y-76386091D01*
X122728044Y-76386089D01*
X122728043Y-76386089D01*
X122663283Y-76367559D01*
X122532418Y-76330114D01*
X122532415Y-76330113D01*
X122532413Y-76330113D01*
X122466102Y-76324217D01*
X122413037Y-76319500D01*
X122413032Y-76319500D01*
X120766971Y-76319500D01*
X120766965Y-76319500D01*
X120766964Y-76319501D01*
X120755316Y-76320536D01*
X120647584Y-76330113D01*
X120451954Y-76386089D01*
X120398298Y-76414117D01*
X120271593Y-76480302D01*
X120271591Y-76480303D01*
X120271590Y-76480304D01*
X120113890Y-76608890D01*
X119985304Y-76766590D01*
X119891089Y-76946954D01*
X119846332Y-77103376D01*
X119839631Y-77126798D01*
X119835114Y-77142583D01*
X119835113Y-77142586D01*
X119824500Y-77261966D01*
X119824500Y-78908028D01*
X119824501Y-78908034D01*
X119835113Y-79027415D01*
X119891089Y-79223045D01*
X119891090Y-79223048D01*
X119891091Y-79223049D01*
X119917129Y-79272897D01*
X119985305Y-79403412D01*
X120090121Y-79531959D01*
X120117230Y-79596355D01*
X120105221Y-79665185D01*
X120101406Y-79672319D01*
X119994879Y-79856829D01*
X119898207Y-80103144D01*
X119898202Y-80103161D01*
X119839322Y-80361130D01*
X119819549Y-80624995D01*
X115150500Y-80624995D01*
X115150500Y-68287648D01*
X117063500Y-68287648D01*
X117063500Y-68492351D01*
X117095522Y-68694534D01*
X117158781Y-68889223D01*
X117168671Y-68908632D01*
X117248849Y-69065990D01*
X117251715Y-69071613D01*
X117372028Y-69237213D01*
X117516786Y-69381971D01*
X117671749Y-69494556D01*
X117682390Y-69502287D01*
X117798607Y-69561503D01*
X117864776Y-69595218D01*
X117864778Y-69595218D01*
X117864781Y-69595220D01*
X117969137Y-69629127D01*
X118059465Y-69658477D01*
X118160557Y-69674488D01*
X118261648Y-69690500D01*
X118261649Y-69690500D01*
X118466351Y-69690500D01*
X118466352Y-69690500D01*
X118668534Y-69658477D01*
X118863219Y-69595220D01*
X119045610Y-69502287D01*
X119138590Y-69434732D01*
X119211213Y-69381971D01*
X119211215Y-69381968D01*
X119211219Y-69381966D01*
X119355966Y-69237219D01*
X119355968Y-69237215D01*
X119355971Y-69237213D01*
X119425217Y-69141902D01*
X119476287Y-69071610D01*
X119569220Y-68889219D01*
X119632477Y-68694534D01*
X119664500Y-68492352D01*
X119664500Y-68287648D01*
X119640898Y-68138632D01*
X119632477Y-68085465D01*
X119603127Y-67995137D01*
X119569220Y-67890781D01*
X119569218Y-67890778D01*
X119569218Y-67890776D01*
X119535503Y-67824607D01*
X119476287Y-67708390D01*
X119445744Y-67666351D01*
X119355971Y-67542786D01*
X119211213Y-67398028D01*
X119045613Y-67277715D01*
X119045612Y-67277714D01*
X119045610Y-67277713D01*
X118988653Y-67248691D01*
X118863223Y-67184781D01*
X118668534Y-67121522D01*
X118493995Y-67093878D01*
X118466352Y-67089500D01*
X118261648Y-67089500D01*
X118237329Y-67093351D01*
X118059465Y-67121522D01*
X117864776Y-67184781D01*
X117682386Y-67277715D01*
X117516786Y-67398028D01*
X117372028Y-67542786D01*
X117251715Y-67708386D01*
X117158781Y-67890776D01*
X117095522Y-68085465D01*
X117063500Y-68287648D01*
X115150500Y-68287648D01*
X115150500Y-65748500D01*
X115170185Y-65681461D01*
X115222989Y-65635706D01*
X115274500Y-65624500D01*
X177745500Y-65624500D01*
X177812539Y-65644185D01*
G37*
%TD.AperFunction*%
%TD*%
%TA.AperFunction,NonConductor*%
G36*
X127716834Y-85947706D02*
G01*
X127772767Y-85989578D01*
X127797184Y-86055042D01*
X127797500Y-86063888D01*
X127797500Y-88000862D01*
X127833215Y-88226360D01*
X127903770Y-88443503D01*
X128007421Y-88646928D01*
X128141621Y-88831637D01*
X128303063Y-88993079D01*
X128487772Y-89127279D01*
X128583884Y-89176250D01*
X128691196Y-89230929D01*
X128691198Y-89230929D01*
X128691201Y-89230931D01*
X128807592Y-89268749D01*
X128908339Y-89301484D01*
X129133838Y-89337200D01*
X129285500Y-89337200D01*
X129352539Y-89356885D01*
X129398294Y-89409689D01*
X129409500Y-89461200D01*
X129409500Y-95647821D01*
X129389815Y-95714860D01*
X129373181Y-95735502D01*
X128190502Y-96918181D01*
X128129179Y-96951666D01*
X128102821Y-96954500D01*
X123214375Y-96954500D01*
X123147336Y-96934815D01*
X123101581Y-96882011D01*
X123091637Y-96812853D01*
X123106988Y-96768500D01*
X123185121Y-96633170D01*
X123281795Y-96386850D01*
X123340677Y-96128872D01*
X123360451Y-95865000D01*
X123340677Y-95601128D01*
X123281795Y-95343150D01*
X123185121Y-95096830D01*
X123052815Y-94867669D01*
X122963052Y-94755109D01*
X122936644Y-94690422D01*
X122936000Y-94677797D01*
X122936000Y-94512201D01*
X122955685Y-94445162D01*
X122963046Y-94434897D01*
X123052815Y-94322331D01*
X123185121Y-94093170D01*
X123281795Y-93846850D01*
X123340677Y-93588872D01*
X123360451Y-93325000D01*
X123340677Y-93061128D01*
X123281795Y-92803150D01*
X123185121Y-92556830D01*
X123185120Y-92556829D01*
X123185121Y-92556829D01*
X123106988Y-92421500D01*
X123090515Y-92353600D01*
X123113367Y-92287573D01*
X123168289Y-92244382D01*
X123214375Y-92235500D01*
X123749162Y-92235500D01*
X123974660Y-92199784D01*
X124191799Y-92129231D01*
X124395228Y-92025579D01*
X124472954Y-91969106D01*
X124579937Y-91891380D01*
X125866379Y-90604937D01*
X126000579Y-90420228D01*
X126104231Y-90216799D01*
X126174784Y-89999660D01*
X126186689Y-89924492D01*
X126210499Y-89774161D01*
X126210499Y-89545838D01*
X126188935Y-89409689D01*
X126174784Y-89320341D01*
X126104231Y-89103202D01*
X126104229Y-89103199D01*
X126104229Y-89103197D01*
X126000578Y-88899772D01*
X125866379Y-88715063D01*
X125704937Y-88553621D01*
X125520227Y-88419421D01*
X125422136Y-88369441D01*
X125371340Y-88321466D01*
X125354545Y-88253645D01*
X125377083Y-88187510D01*
X125390744Y-88171281D01*
X127585821Y-85976205D01*
X127647142Y-85942722D01*
X127716834Y-85947706D01*
G37*
%TD.AperFunction*%
%TA.AperFunction,NonConductor*%
G36*
X173037650Y-90443685D02*
G01*
X173058292Y-90460319D01*
X173333181Y-90735208D01*
X173366666Y-90796531D01*
X173369500Y-90822889D01*
X173369500Y-91732142D01*
X173349815Y-91799181D01*
X173297011Y-91844936D01*
X173227853Y-91854880D01*
X173169545Y-91828897D01*
X173169231Y-91829352D01*
X173166827Y-91827686D01*
X173166038Y-91827335D01*
X173164662Y-91826187D01*
X173164655Y-91826182D01*
X173164654Y-91826181D01*
X173134420Y-91805234D01*
X173113883Y-91791006D01*
X173069987Y-91736646D01*
X173060500Y-91689078D01*
X173060500Y-91585843D01*
X173045675Y-91492243D01*
X173045675Y-91492239D01*
X173038946Y-91449755D01*
X173024785Y-91360341D01*
X172954232Y-91143202D01*
X172954230Y-91143199D01*
X172954230Y-91143197D01*
X172899551Y-91035885D01*
X172850580Y-90939773D01*
X172716380Y-90755063D01*
X172596998Y-90635681D01*
X172563513Y-90574358D01*
X172568497Y-90504666D01*
X172610369Y-90448733D01*
X172675833Y-90424316D01*
X172684679Y-90424000D01*
X172970611Y-90424000D01*
X173037650Y-90443685D01*
G37*
%TD.AperFunction*%
%TA.AperFunction,NonConductor*%
G36*
X169748860Y-91894185D02*
G01*
X169769502Y-91910819D01*
X169801635Y-91942952D01*
X169835120Y-92004275D01*
X169830136Y-92073967D01*
X169815883Y-92101249D01*
X169767992Y-92170375D01*
X169767991Y-92170377D01*
X169674903Y-92375318D01*
X169674902Y-92375321D01*
X169619905Y-92593579D01*
X169619904Y-92593586D01*
X169609500Y-92725777D01*
X169609500Y-94054208D01*
X169609501Y-94054223D01*
X169619904Y-94186413D01*
X169619905Y-94186420D01*
X169674902Y-94404678D01*
X169674903Y-94404681D01*
X169767991Y-94609622D01*
X169767997Y-94609632D01*
X169883863Y-94776876D01*
X169905860Y-94843193D01*
X169889322Y-94909492D01*
X169796777Y-95069784D01*
X169796773Y-95069794D01*
X169703947Y-95293895D01*
X169641161Y-95528214D01*
X169609500Y-95768711D01*
X169609500Y-96011288D01*
X169641161Y-96251785D01*
X169703946Y-96486100D01*
X169741548Y-96576880D01*
X169749017Y-96646349D01*
X169717741Y-96708828D01*
X169714668Y-96712013D01*
X167400512Y-99026169D01*
X167339189Y-99059654D01*
X167269497Y-99054670D01*
X167242981Y-99040943D01*
X167212775Y-99020349D01*
X166970698Y-98903771D01*
X166918839Y-98856949D01*
X166900500Y-98792051D01*
X166900500Y-92955837D01*
X166864784Y-92730339D01*
X166794229Y-92513196D01*
X166705120Y-92338311D01*
X166692224Y-92269642D01*
X166718500Y-92204901D01*
X166775607Y-92164644D01*
X166779015Y-92163538D01*
X166969641Y-92104738D01*
X167212775Y-91987651D01*
X167287487Y-91936713D01*
X167347136Y-91896046D01*
X167413615Y-91874546D01*
X167416987Y-91874500D01*
X169681821Y-91874500D01*
X169748860Y-91894185D01*
G37*
%TD.AperFunction*%
M02*
