M48
; DRILL file {KiCad 8.0.4} date 2024-08-31T00:15:30+0900
; FORMAT={-:-/ absolute / inch / decimal}
; #@! TF.CreationDate,2024-08-31T00:15:30+09:00
; #@! TF.GenerationSoftware,Kicad,Pcbnew,8.0.4
; #@! TF.FileFunction,Plated,1,2,PTH
FMAT,2
INCH
; #@! TA.AperFunction,Plated,PTH,ViaDrill
T1C0.0118
; #@! TA.AperFunction,Plated,PTH,ComponentDrill
T2C0.0315
; #@! TA.AperFunction,Plated,PTH,ComponentDrill
T3C0.0374
; #@! TA.AperFunction,Plated,PTH,ComponentDrill
T4C0.0394
; #@! TA.AperFunction,Plated,PTH,ComponentDrill
T5C0.0402
%
G90
G05
T1
X4.9118Y-3.5299
X4.9134Y-2.9394
X4.9642Y-4.0114
X5.0579Y-2.6965
X5.0885Y-3.4601
X5.1246Y-4.46
X5.52Y-3.24
X5.5205Y-3.7181
X5.5346Y-3.5134
X5.61Y-4.25
X5.8165Y-3.476
X5.86Y-4.04
X6.1Y-3.24
X6.2846Y-2.8154
X6.44Y-4.16
X6.5555Y-2.8689
T2
X5.62Y-3.1316
X5.62Y-3.3284
X5.6598Y-3.6004
X5.6598Y-3.7004
X5.6598Y-3.8004
X5.6598Y-3.9004
X5.8189Y-3.1307
X5.8189Y-3.3276
X5.9185Y-3.1303
X5.9185Y-3.3272
X5.9598Y-3.6004
X5.9598Y-3.7004
X5.9598Y-3.8004
X5.9598Y-3.9004
X6.17Y-3.78
X6.17Y-3.9769
X6.28Y-3.12
X6.28Y-3.3169
X6.3091Y-3.7831
X6.3091Y-3.98
X6.4815Y-3.13
X6.4815Y-3.3269
X6.5476Y-3.56
X6.5476Y-3.96
X6.5835Y-3.13
X6.5835Y-3.3269
T3
X5.615Y-3.0217
X5.7134Y-3.0217
X5.7626Y-4.398
X5.8118Y-3.0217
X5.861Y-4.398
X5.9102Y-3.0217
X5.9594Y-4.398
X6.0087Y-3.0217
X6.2835Y-3.0213
X6.3563Y-4.3874
X6.3819Y-3.0213
X6.4547Y-4.3874
X6.4803Y-3.0213
X6.5531Y-4.3874
X6.5787Y-3.0213
X6.6772Y-3.0213
T4
X6.7563Y-3.6768
X6.7563Y-3.7752
T5
X4.787Y-3.0742
X4.787Y-3.1742
X4.787Y-3.2742
X4.787Y-3.3742
X4.787Y-3.4742
X4.787Y-3.5742
X4.787Y-3.6742
X4.787Y-3.7742
X4.787Y-3.8742
X4.787Y-3.9742
X4.787Y-4.0742
X4.787Y-4.1742
X4.787Y-4.2742
X4.787Y-4.3742
X4.787Y-4.4742
X5.387Y-3.0742
X5.387Y-3.1742
X5.387Y-3.2742
X5.387Y-3.3742
X5.387Y-3.4742
X5.387Y-3.5742
X5.387Y-3.6742
X5.387Y-3.7742
X5.387Y-3.8742
X5.387Y-3.9742
X5.387Y-4.0742
X5.387Y-4.1742
X5.387Y-4.2742
X5.387Y-4.3742
X5.387Y-4.4742
M30
