%TF.GenerationSoftware,KiCad,Pcbnew,8.0.4*%
%TF.CreationDate,2024-09-01T23:45:10+09:00*%
%TF.ProjectId,servo_supply,73657276-6f5f-4737-9570-706c792e6b69,rev?*%
%TF.SameCoordinates,Original*%
%TF.FileFunction,Legend,Top*%
%TF.FilePolarity,Positive*%
%FSLAX46Y46*%
G04 Gerber Fmt 4.6, Leading zero omitted, Abs format (unit mm)*
G04 Created by KiCad (PCBNEW 8.0.4) date 2024-09-01 23:45:10*
%MOMM*%
%LPD*%
G01*
G04 APERTURE LIST*
%ADD10C,0.150000*%
%ADD11C,0.120000*%
G04 APERTURE END LIST*
D10*
X150728333Y-92232819D02*
X150395000Y-91756628D01*
X150156905Y-92232819D02*
X150156905Y-91232819D01*
X150156905Y-91232819D02*
X150537857Y-91232819D01*
X150537857Y-91232819D02*
X150633095Y-91280438D01*
X150633095Y-91280438D02*
X150680714Y-91328057D01*
X150680714Y-91328057D02*
X150728333Y-91423295D01*
X150728333Y-91423295D02*
X150728333Y-91566152D01*
X150728333Y-91566152D02*
X150680714Y-91661390D01*
X150680714Y-91661390D02*
X150633095Y-91709009D01*
X150633095Y-91709009D02*
X150537857Y-91756628D01*
X150537857Y-91756628D02*
X150156905Y-91756628D01*
X151585476Y-91232819D02*
X151395000Y-91232819D01*
X151395000Y-91232819D02*
X151299762Y-91280438D01*
X151299762Y-91280438D02*
X151252143Y-91328057D01*
X151252143Y-91328057D02*
X151156905Y-91470914D01*
X151156905Y-91470914D02*
X151109286Y-91661390D01*
X151109286Y-91661390D02*
X151109286Y-92042342D01*
X151109286Y-92042342D02*
X151156905Y-92137580D01*
X151156905Y-92137580D02*
X151204524Y-92185200D01*
X151204524Y-92185200D02*
X151299762Y-92232819D01*
X151299762Y-92232819D02*
X151490238Y-92232819D01*
X151490238Y-92232819D02*
X151585476Y-92185200D01*
X151585476Y-92185200D02*
X151633095Y-92137580D01*
X151633095Y-92137580D02*
X151680714Y-92042342D01*
X151680714Y-92042342D02*
X151680714Y-91804247D01*
X151680714Y-91804247D02*
X151633095Y-91709009D01*
X151633095Y-91709009D02*
X151585476Y-91661390D01*
X151585476Y-91661390D02*
X151490238Y-91613771D01*
X151490238Y-91613771D02*
X151299762Y-91613771D01*
X151299762Y-91613771D02*
X151204524Y-91661390D01*
X151204524Y-91661390D02*
X151156905Y-91709009D01*
X151156905Y-91709009D02*
X151109286Y-91804247D01*
X156258220Y-85169580D02*
X156210601Y-85217200D01*
X156210601Y-85217200D02*
X156067744Y-85264819D01*
X156067744Y-85264819D02*
X155972506Y-85264819D01*
X155972506Y-85264819D02*
X155829649Y-85217200D01*
X155829649Y-85217200D02*
X155734411Y-85121961D01*
X155734411Y-85121961D02*
X155686792Y-85026723D01*
X155686792Y-85026723D02*
X155639173Y-84836247D01*
X155639173Y-84836247D02*
X155639173Y-84693390D01*
X155639173Y-84693390D02*
X155686792Y-84502914D01*
X155686792Y-84502914D02*
X155734411Y-84407676D01*
X155734411Y-84407676D02*
X155829649Y-84312438D01*
X155829649Y-84312438D02*
X155972506Y-84264819D01*
X155972506Y-84264819D02*
X156067744Y-84264819D01*
X156067744Y-84264819D02*
X156210601Y-84312438D01*
X156210601Y-84312438D02*
X156258220Y-84360057D01*
X156639173Y-84360057D02*
X156686792Y-84312438D01*
X156686792Y-84312438D02*
X156782030Y-84264819D01*
X156782030Y-84264819D02*
X157020125Y-84264819D01*
X157020125Y-84264819D02*
X157115363Y-84312438D01*
X157115363Y-84312438D02*
X157162982Y-84360057D01*
X157162982Y-84360057D02*
X157210601Y-84455295D01*
X157210601Y-84455295D02*
X157210601Y-84550533D01*
X157210601Y-84550533D02*
X157162982Y-84693390D01*
X157162982Y-84693390D02*
X156591554Y-85264819D01*
X156591554Y-85264819D02*
X157210601Y-85264819D01*
X179566666Y-73740319D02*
X179233333Y-73264128D01*
X178995238Y-73740319D02*
X178995238Y-72740319D01*
X178995238Y-72740319D02*
X179376190Y-72740319D01*
X179376190Y-72740319D02*
X179471428Y-72787938D01*
X179471428Y-72787938D02*
X179519047Y-72835557D01*
X179519047Y-72835557D02*
X179566666Y-72930795D01*
X179566666Y-72930795D02*
X179566666Y-73073652D01*
X179566666Y-73073652D02*
X179519047Y-73168890D01*
X179519047Y-73168890D02*
X179471428Y-73216509D01*
X179471428Y-73216509D02*
X179376190Y-73264128D01*
X179376190Y-73264128D02*
X178995238Y-73264128D01*
X179995238Y-73216509D02*
X180328571Y-73216509D01*
X180471428Y-73740319D02*
X179995238Y-73740319D01*
X179995238Y-73740319D02*
X179995238Y-72740319D01*
X179995238Y-72740319D02*
X180471428Y-72740319D01*
X181233333Y-73216509D02*
X180900000Y-73216509D01*
X180900000Y-73740319D02*
X180900000Y-72740319D01*
X180900000Y-72740319D02*
X181376190Y-72740319D01*
X181900000Y-72740319D02*
X181900000Y-72978414D01*
X181661905Y-72883176D02*
X181900000Y-72978414D01*
X181900000Y-72978414D02*
X182138095Y-72883176D01*
X181757143Y-73168890D02*
X181900000Y-72978414D01*
X181900000Y-72978414D02*
X182042857Y-73168890D01*
X182661905Y-72740319D02*
X182661905Y-72978414D01*
X182423810Y-72883176D02*
X182661905Y-72978414D01*
X182661905Y-72978414D02*
X182900000Y-72883176D01*
X182519048Y-73168890D02*
X182661905Y-72978414D01*
X182661905Y-72978414D02*
X182804762Y-73168890D01*
X165187333Y-92232819D02*
X164854000Y-91756628D01*
X164615905Y-92232819D02*
X164615905Y-91232819D01*
X164615905Y-91232819D02*
X164996857Y-91232819D01*
X164996857Y-91232819D02*
X165092095Y-91280438D01*
X165092095Y-91280438D02*
X165139714Y-91328057D01*
X165139714Y-91328057D02*
X165187333Y-91423295D01*
X165187333Y-91423295D02*
X165187333Y-91566152D01*
X165187333Y-91566152D02*
X165139714Y-91661390D01*
X165139714Y-91661390D02*
X165092095Y-91709009D01*
X165092095Y-91709009D02*
X164996857Y-91756628D01*
X164996857Y-91756628D02*
X164615905Y-91756628D01*
X166092095Y-91232819D02*
X165615905Y-91232819D01*
X165615905Y-91232819D02*
X165568286Y-91709009D01*
X165568286Y-91709009D02*
X165615905Y-91661390D01*
X165615905Y-91661390D02*
X165711143Y-91613771D01*
X165711143Y-91613771D02*
X165949238Y-91613771D01*
X165949238Y-91613771D02*
X166044476Y-91661390D01*
X166044476Y-91661390D02*
X166092095Y-91709009D01*
X166092095Y-91709009D02*
X166139714Y-91804247D01*
X166139714Y-91804247D02*
X166139714Y-92042342D01*
X166139714Y-92042342D02*
X166092095Y-92137580D01*
X166092095Y-92137580D02*
X166044476Y-92185200D01*
X166044476Y-92185200D02*
X165949238Y-92232819D01*
X165949238Y-92232819D02*
X165711143Y-92232819D01*
X165711143Y-92232819D02*
X165615905Y-92185200D01*
X165615905Y-92185200D02*
X165568286Y-92137580D01*
X145481905Y-87004819D02*
X145481905Y-86004819D01*
X145481905Y-86004819D02*
X145720000Y-86004819D01*
X145720000Y-86004819D02*
X145862857Y-86052438D01*
X145862857Y-86052438D02*
X145958095Y-86147676D01*
X145958095Y-86147676D02*
X146005714Y-86242914D01*
X146005714Y-86242914D02*
X146053333Y-86433390D01*
X146053333Y-86433390D02*
X146053333Y-86576247D01*
X146053333Y-86576247D02*
X146005714Y-86766723D01*
X146005714Y-86766723D02*
X145958095Y-86861961D01*
X145958095Y-86861961D02*
X145862857Y-86957200D01*
X145862857Y-86957200D02*
X145720000Y-87004819D01*
X145720000Y-87004819D02*
X145481905Y-87004819D01*
X146386667Y-86004819D02*
X147005714Y-86004819D01*
X147005714Y-86004819D02*
X146672381Y-86385771D01*
X146672381Y-86385771D02*
X146815238Y-86385771D01*
X146815238Y-86385771D02*
X146910476Y-86433390D01*
X146910476Y-86433390D02*
X146958095Y-86481009D01*
X146958095Y-86481009D02*
X147005714Y-86576247D01*
X147005714Y-86576247D02*
X147005714Y-86814342D01*
X147005714Y-86814342D02*
X146958095Y-86909580D01*
X146958095Y-86909580D02*
X146910476Y-86957200D01*
X146910476Y-86957200D02*
X146815238Y-87004819D01*
X146815238Y-87004819D02*
X146529524Y-87004819D01*
X146529524Y-87004819D02*
X146434286Y-86957200D01*
X146434286Y-86957200D02*
X146386667Y-86909580D01*
X151038095Y-86634819D02*
X151038095Y-85634819D01*
X151609523Y-86634819D02*
X151180952Y-86063390D01*
X151609523Y-85634819D02*
X151038095Y-86206247D01*
X138966666Y-104054819D02*
X138633333Y-103578628D01*
X138395238Y-104054819D02*
X138395238Y-103054819D01*
X138395238Y-103054819D02*
X138776190Y-103054819D01*
X138776190Y-103054819D02*
X138871428Y-103102438D01*
X138871428Y-103102438D02*
X138919047Y-103150057D01*
X138919047Y-103150057D02*
X138966666Y-103245295D01*
X138966666Y-103245295D02*
X138966666Y-103388152D01*
X138966666Y-103388152D02*
X138919047Y-103483390D01*
X138919047Y-103483390D02*
X138871428Y-103531009D01*
X138871428Y-103531009D02*
X138776190Y-103578628D01*
X138776190Y-103578628D02*
X138395238Y-103578628D01*
X139395238Y-103531009D02*
X139728571Y-103531009D01*
X139871428Y-104054819D02*
X139395238Y-104054819D01*
X139395238Y-104054819D02*
X139395238Y-103054819D01*
X139395238Y-103054819D02*
X139871428Y-103054819D01*
X140633333Y-103531009D02*
X140300000Y-103531009D01*
X140300000Y-104054819D02*
X140300000Y-103054819D01*
X140300000Y-103054819D02*
X140776190Y-103054819D01*
X141300000Y-103054819D02*
X141300000Y-103292914D01*
X141061905Y-103197676D02*
X141300000Y-103292914D01*
X141300000Y-103292914D02*
X141538095Y-103197676D01*
X141157143Y-103483390D02*
X141300000Y-103292914D01*
X141300000Y-103292914D02*
X141442857Y-103483390D01*
X142061905Y-103054819D02*
X142061905Y-103292914D01*
X141823810Y-103197676D02*
X142061905Y-103292914D01*
X142061905Y-103292914D02*
X142300000Y-103197676D01*
X141919048Y-103483390D02*
X142061905Y-103292914D01*
X142061905Y-103292914D02*
X142204762Y-103483390D01*
X179566666Y-71954819D02*
X179233333Y-71478628D01*
X178995238Y-71954819D02*
X178995238Y-70954819D01*
X178995238Y-70954819D02*
X179376190Y-70954819D01*
X179376190Y-70954819D02*
X179471428Y-71002438D01*
X179471428Y-71002438D02*
X179519047Y-71050057D01*
X179519047Y-71050057D02*
X179566666Y-71145295D01*
X179566666Y-71145295D02*
X179566666Y-71288152D01*
X179566666Y-71288152D02*
X179519047Y-71383390D01*
X179519047Y-71383390D02*
X179471428Y-71431009D01*
X179471428Y-71431009D02*
X179376190Y-71478628D01*
X179376190Y-71478628D02*
X178995238Y-71478628D01*
X179995238Y-71431009D02*
X180328571Y-71431009D01*
X180471428Y-71954819D02*
X179995238Y-71954819D01*
X179995238Y-71954819D02*
X179995238Y-70954819D01*
X179995238Y-70954819D02*
X180471428Y-70954819D01*
X181233333Y-71431009D02*
X180900000Y-71431009D01*
X180900000Y-71954819D02*
X180900000Y-70954819D01*
X180900000Y-70954819D02*
X181376190Y-70954819D01*
X181900000Y-70954819D02*
X181900000Y-71192914D01*
X181661905Y-71097676D02*
X181900000Y-71192914D01*
X181900000Y-71192914D02*
X182138095Y-71097676D01*
X181757143Y-71383390D02*
X181900000Y-71192914D01*
X181900000Y-71192914D02*
X182042857Y-71383390D01*
X182661905Y-70954819D02*
X182661905Y-71192914D01*
X182423810Y-71097676D02*
X182661905Y-71192914D01*
X182661905Y-71192914D02*
X182900000Y-71097676D01*
X182519048Y-71383390D02*
X182661905Y-71192914D01*
X182661905Y-71192914D02*
X182804762Y-71383390D01*
X179411333Y-92194819D02*
X179078000Y-91718628D01*
X178839905Y-92194819D02*
X178839905Y-91194819D01*
X178839905Y-91194819D02*
X179220857Y-91194819D01*
X179220857Y-91194819D02*
X179316095Y-91242438D01*
X179316095Y-91242438D02*
X179363714Y-91290057D01*
X179363714Y-91290057D02*
X179411333Y-91385295D01*
X179411333Y-91385295D02*
X179411333Y-91528152D01*
X179411333Y-91528152D02*
X179363714Y-91623390D01*
X179363714Y-91623390D02*
X179316095Y-91671009D01*
X179316095Y-91671009D02*
X179220857Y-91718628D01*
X179220857Y-91718628D02*
X178839905Y-91718628D01*
X180268476Y-91528152D02*
X180268476Y-92194819D01*
X180030381Y-91147200D02*
X179792286Y-91861485D01*
X179792286Y-91861485D02*
X180411333Y-91861485D01*
X170428221Y-85169580D02*
X170380602Y-85217200D01*
X170380602Y-85217200D02*
X170237745Y-85264819D01*
X170237745Y-85264819D02*
X170142507Y-85264819D01*
X170142507Y-85264819D02*
X169999650Y-85217200D01*
X169999650Y-85217200D02*
X169904412Y-85121961D01*
X169904412Y-85121961D02*
X169856793Y-85026723D01*
X169856793Y-85026723D02*
X169809174Y-84836247D01*
X169809174Y-84836247D02*
X169809174Y-84693390D01*
X169809174Y-84693390D02*
X169856793Y-84502914D01*
X169856793Y-84502914D02*
X169904412Y-84407676D01*
X169904412Y-84407676D02*
X169999650Y-84312438D01*
X169999650Y-84312438D02*
X170142507Y-84264819D01*
X170142507Y-84264819D02*
X170237745Y-84264819D01*
X170237745Y-84264819D02*
X170380602Y-84312438D01*
X170380602Y-84312438D02*
X170428221Y-84360057D01*
X171285364Y-84598152D02*
X171285364Y-85264819D01*
X171047269Y-84217200D02*
X170809174Y-84931485D01*
X170809174Y-84931485D02*
X171428221Y-84931485D01*
X138966666Y-71954819D02*
X138633333Y-71478628D01*
X138395238Y-71954819D02*
X138395238Y-70954819D01*
X138395238Y-70954819D02*
X138776190Y-70954819D01*
X138776190Y-70954819D02*
X138871428Y-71002438D01*
X138871428Y-71002438D02*
X138919047Y-71050057D01*
X138919047Y-71050057D02*
X138966666Y-71145295D01*
X138966666Y-71145295D02*
X138966666Y-71288152D01*
X138966666Y-71288152D02*
X138919047Y-71383390D01*
X138919047Y-71383390D02*
X138871428Y-71431009D01*
X138871428Y-71431009D02*
X138776190Y-71478628D01*
X138776190Y-71478628D02*
X138395238Y-71478628D01*
X139395238Y-71431009D02*
X139728571Y-71431009D01*
X139871428Y-71954819D02*
X139395238Y-71954819D01*
X139395238Y-71954819D02*
X139395238Y-70954819D01*
X139395238Y-70954819D02*
X139871428Y-70954819D01*
X140633333Y-71431009D02*
X140300000Y-71431009D01*
X140300000Y-71954819D02*
X140300000Y-70954819D01*
X140300000Y-70954819D02*
X140776190Y-70954819D01*
X141300000Y-70954819D02*
X141300000Y-71192914D01*
X141061905Y-71097676D02*
X141300000Y-71192914D01*
X141300000Y-71192914D02*
X141538095Y-71097676D01*
X141157143Y-71383390D02*
X141300000Y-71192914D01*
X141300000Y-71192914D02*
X141442857Y-71383390D01*
X142061905Y-70954819D02*
X142061905Y-71192914D01*
X141823810Y-71097676D02*
X142061905Y-71192914D01*
X142061905Y-71192914D02*
X142300000Y-71097676D01*
X141919048Y-71383390D02*
X142061905Y-71192914D01*
X142061905Y-71192914D02*
X142204762Y-71383390D01*
X153896666Y-71834819D02*
X153896666Y-72549104D01*
X153896666Y-72549104D02*
X153849047Y-72691961D01*
X153849047Y-72691961D02*
X153753809Y-72787200D01*
X153753809Y-72787200D02*
X153610952Y-72834819D01*
X153610952Y-72834819D02*
X153515714Y-72834819D01*
X154325238Y-71930057D02*
X154372857Y-71882438D01*
X154372857Y-71882438D02*
X154468095Y-71834819D01*
X154468095Y-71834819D02*
X154706190Y-71834819D01*
X154706190Y-71834819D02*
X154801428Y-71882438D01*
X154801428Y-71882438D02*
X154849047Y-71930057D01*
X154849047Y-71930057D02*
X154896666Y-72025295D01*
X154896666Y-72025295D02*
X154896666Y-72120533D01*
X154896666Y-72120533D02*
X154849047Y-72263390D01*
X154849047Y-72263390D02*
X154277619Y-72834819D01*
X154277619Y-72834819D02*
X154896666Y-72834819D01*
X179466666Y-104054819D02*
X179133333Y-103578628D01*
X178895238Y-104054819D02*
X178895238Y-103054819D01*
X178895238Y-103054819D02*
X179276190Y-103054819D01*
X179276190Y-103054819D02*
X179371428Y-103102438D01*
X179371428Y-103102438D02*
X179419047Y-103150057D01*
X179419047Y-103150057D02*
X179466666Y-103245295D01*
X179466666Y-103245295D02*
X179466666Y-103388152D01*
X179466666Y-103388152D02*
X179419047Y-103483390D01*
X179419047Y-103483390D02*
X179371428Y-103531009D01*
X179371428Y-103531009D02*
X179276190Y-103578628D01*
X179276190Y-103578628D02*
X178895238Y-103578628D01*
X179895238Y-103531009D02*
X180228571Y-103531009D01*
X180371428Y-104054819D02*
X179895238Y-104054819D01*
X179895238Y-104054819D02*
X179895238Y-103054819D01*
X179895238Y-103054819D02*
X180371428Y-103054819D01*
X181133333Y-103531009D02*
X180800000Y-103531009D01*
X180800000Y-104054819D02*
X180800000Y-103054819D01*
X180800000Y-103054819D02*
X181276190Y-103054819D01*
X181800000Y-103054819D02*
X181800000Y-103292914D01*
X181561905Y-103197676D02*
X181800000Y-103292914D01*
X181800000Y-103292914D02*
X182038095Y-103197676D01*
X181657143Y-103483390D02*
X181800000Y-103292914D01*
X181800000Y-103292914D02*
X181942857Y-103483390D01*
X182561905Y-103054819D02*
X182561905Y-103292914D01*
X182323810Y-103197676D02*
X182561905Y-103292914D01*
X182561905Y-103292914D02*
X182800000Y-103197676D01*
X182419048Y-103483390D02*
X182561905Y-103292914D01*
X182561905Y-103292914D02*
X182704762Y-103483390D01*
X182029580Y-96956666D02*
X182077200Y-97004285D01*
X182077200Y-97004285D02*
X182124819Y-97147142D01*
X182124819Y-97147142D02*
X182124819Y-97242380D01*
X182124819Y-97242380D02*
X182077200Y-97385237D01*
X182077200Y-97385237D02*
X181981961Y-97480475D01*
X181981961Y-97480475D02*
X181886723Y-97528094D01*
X181886723Y-97528094D02*
X181696247Y-97575713D01*
X181696247Y-97575713D02*
X181553390Y-97575713D01*
X181553390Y-97575713D02*
X181362914Y-97528094D01*
X181362914Y-97528094D02*
X181267676Y-97480475D01*
X181267676Y-97480475D02*
X181172438Y-97385237D01*
X181172438Y-97385237D02*
X181124819Y-97242380D01*
X181124819Y-97242380D02*
X181124819Y-97147142D01*
X181124819Y-97147142D02*
X181172438Y-97004285D01*
X181172438Y-97004285D02*
X181220057Y-96956666D01*
X182124819Y-96004285D02*
X182124819Y-96575713D01*
X182124819Y-96289999D02*
X181124819Y-96289999D01*
X181124819Y-96289999D02*
X181267676Y-96385237D01*
X181267676Y-96385237D02*
X181362914Y-96480475D01*
X181362914Y-96480475D02*
X181410533Y-96575713D01*
X167909580Y-96941554D02*
X167957200Y-96989173D01*
X167957200Y-96989173D02*
X168004819Y-97132030D01*
X168004819Y-97132030D02*
X168004819Y-97227268D01*
X168004819Y-97227268D02*
X167957200Y-97370125D01*
X167957200Y-97370125D02*
X167861961Y-97465363D01*
X167861961Y-97465363D02*
X167766723Y-97512982D01*
X167766723Y-97512982D02*
X167576247Y-97560601D01*
X167576247Y-97560601D02*
X167433390Y-97560601D01*
X167433390Y-97560601D02*
X167242914Y-97512982D01*
X167242914Y-97512982D02*
X167147676Y-97465363D01*
X167147676Y-97465363D02*
X167052438Y-97370125D01*
X167052438Y-97370125D02*
X167004819Y-97227268D01*
X167004819Y-97227268D02*
X167004819Y-97132030D01*
X167004819Y-97132030D02*
X167052438Y-96989173D01*
X167052438Y-96989173D02*
X167100057Y-96941554D01*
X167004819Y-96608220D02*
X167004819Y-95989173D01*
X167004819Y-95989173D02*
X167385771Y-96322506D01*
X167385771Y-96322506D02*
X167385771Y-96179649D01*
X167385771Y-96179649D02*
X167433390Y-96084411D01*
X167433390Y-96084411D02*
X167481009Y-96036792D01*
X167481009Y-96036792D02*
X167576247Y-95989173D01*
X167576247Y-95989173D02*
X167814342Y-95989173D01*
X167814342Y-95989173D02*
X167909580Y-96036792D01*
X167909580Y-96036792D02*
X167957200Y-96084411D01*
X167957200Y-96084411D02*
X168004819Y-96179649D01*
X168004819Y-96179649D02*
X168004819Y-96465363D01*
X168004819Y-96465363D02*
X167957200Y-96560601D01*
X167957200Y-96560601D02*
X167909580Y-96608220D01*
X153749580Y-96941554D02*
X153797200Y-96989173D01*
X153797200Y-96989173D02*
X153844819Y-97132030D01*
X153844819Y-97132030D02*
X153844819Y-97227268D01*
X153844819Y-97227268D02*
X153797200Y-97370125D01*
X153797200Y-97370125D02*
X153701961Y-97465363D01*
X153701961Y-97465363D02*
X153606723Y-97512982D01*
X153606723Y-97512982D02*
X153416247Y-97560601D01*
X153416247Y-97560601D02*
X153273390Y-97560601D01*
X153273390Y-97560601D02*
X153082914Y-97512982D01*
X153082914Y-97512982D02*
X152987676Y-97465363D01*
X152987676Y-97465363D02*
X152892438Y-97370125D01*
X152892438Y-97370125D02*
X152844819Y-97227268D01*
X152844819Y-97227268D02*
X152844819Y-97132030D01*
X152844819Y-97132030D02*
X152892438Y-96989173D01*
X152892438Y-96989173D02*
X152940057Y-96941554D01*
X152844819Y-96036792D02*
X152844819Y-96512982D01*
X152844819Y-96512982D02*
X153321009Y-96560601D01*
X153321009Y-96560601D02*
X153273390Y-96512982D01*
X153273390Y-96512982D02*
X153225771Y-96417744D01*
X153225771Y-96417744D02*
X153225771Y-96179649D01*
X153225771Y-96179649D02*
X153273390Y-96084411D01*
X153273390Y-96084411D02*
X153321009Y-96036792D01*
X153321009Y-96036792D02*
X153416247Y-95989173D01*
X153416247Y-95989173D02*
X153654342Y-95989173D01*
X153654342Y-95989173D02*
X153749580Y-96036792D01*
X153749580Y-96036792D02*
X153797200Y-96084411D01*
X153797200Y-96084411D02*
X153844819Y-96179649D01*
X153844819Y-96179649D02*
X153844819Y-96417744D01*
X153844819Y-96417744D02*
X153797200Y-96512982D01*
X153797200Y-96512982D02*
X153749580Y-96560601D01*
X173505905Y-86998819D02*
X173505905Y-85998819D01*
X173505905Y-85998819D02*
X173744000Y-85998819D01*
X173744000Y-85998819D02*
X173886857Y-86046438D01*
X173886857Y-86046438D02*
X173982095Y-86141676D01*
X173982095Y-86141676D02*
X174029714Y-86236914D01*
X174029714Y-86236914D02*
X174077333Y-86427390D01*
X174077333Y-86427390D02*
X174077333Y-86570247D01*
X174077333Y-86570247D02*
X174029714Y-86760723D01*
X174029714Y-86760723D02*
X173982095Y-86855961D01*
X173982095Y-86855961D02*
X173886857Y-86951200D01*
X173886857Y-86951200D02*
X173744000Y-86998819D01*
X173744000Y-86998819D02*
X173505905Y-86998819D01*
X175029714Y-86998819D02*
X174458286Y-86998819D01*
X174744000Y-86998819D02*
X174744000Y-85998819D01*
X174744000Y-85998819D02*
X174648762Y-86141676D01*
X174648762Y-86141676D02*
X174553524Y-86236914D01*
X174553524Y-86236914D02*
X174458286Y-86284533D01*
X179062095Y-86628819D02*
X179062095Y-85628819D01*
X179633523Y-86628819D02*
X179204952Y-86057390D01*
X179633523Y-85628819D02*
X179062095Y-86200247D01*
X150963333Y-90594819D02*
X150630000Y-90118628D01*
X150391905Y-90594819D02*
X150391905Y-89594819D01*
X150391905Y-89594819D02*
X150772857Y-89594819D01*
X150772857Y-89594819D02*
X150868095Y-89642438D01*
X150868095Y-89642438D02*
X150915714Y-89690057D01*
X150915714Y-89690057D02*
X150963333Y-89785295D01*
X150963333Y-89785295D02*
X150963333Y-89928152D01*
X150963333Y-89928152D02*
X150915714Y-90023390D01*
X150915714Y-90023390D02*
X150868095Y-90071009D01*
X150868095Y-90071009D02*
X150772857Y-90118628D01*
X150772857Y-90118628D02*
X150391905Y-90118628D01*
X151296667Y-89594819D02*
X151915714Y-89594819D01*
X151915714Y-89594819D02*
X151582381Y-89975771D01*
X151582381Y-89975771D02*
X151725238Y-89975771D01*
X151725238Y-89975771D02*
X151820476Y-90023390D01*
X151820476Y-90023390D02*
X151868095Y-90071009D01*
X151868095Y-90071009D02*
X151915714Y-90166247D01*
X151915714Y-90166247D02*
X151915714Y-90404342D01*
X151915714Y-90404342D02*
X151868095Y-90499580D01*
X151868095Y-90499580D02*
X151820476Y-90547200D01*
X151820476Y-90547200D02*
X151725238Y-90594819D01*
X151725238Y-90594819D02*
X151439524Y-90594819D01*
X151439524Y-90594819D02*
X151344286Y-90547200D01*
X151344286Y-90547200D02*
X151296667Y-90499580D01*
X165318333Y-90534819D02*
X164985000Y-90058628D01*
X164746905Y-90534819D02*
X164746905Y-89534819D01*
X164746905Y-89534819D02*
X165127857Y-89534819D01*
X165127857Y-89534819D02*
X165223095Y-89582438D01*
X165223095Y-89582438D02*
X165270714Y-89630057D01*
X165270714Y-89630057D02*
X165318333Y-89725295D01*
X165318333Y-89725295D02*
X165318333Y-89868152D01*
X165318333Y-89868152D02*
X165270714Y-89963390D01*
X165270714Y-89963390D02*
X165223095Y-90011009D01*
X165223095Y-90011009D02*
X165127857Y-90058628D01*
X165127857Y-90058628D02*
X164746905Y-90058628D01*
X165699286Y-89630057D02*
X165746905Y-89582438D01*
X165746905Y-89582438D02*
X165842143Y-89534819D01*
X165842143Y-89534819D02*
X166080238Y-89534819D01*
X166080238Y-89534819D02*
X166175476Y-89582438D01*
X166175476Y-89582438D02*
X166223095Y-89630057D01*
X166223095Y-89630057D02*
X166270714Y-89725295D01*
X166270714Y-89725295D02*
X166270714Y-89820533D01*
X166270714Y-89820533D02*
X166223095Y-89963390D01*
X166223095Y-89963390D02*
X165651667Y-90534819D01*
X165651667Y-90534819D02*
X166270714Y-90534819D01*
X159491905Y-86984819D02*
X159491905Y-85984819D01*
X159491905Y-85984819D02*
X159730000Y-85984819D01*
X159730000Y-85984819D02*
X159872857Y-86032438D01*
X159872857Y-86032438D02*
X159968095Y-86127676D01*
X159968095Y-86127676D02*
X160015714Y-86222914D01*
X160015714Y-86222914D02*
X160063333Y-86413390D01*
X160063333Y-86413390D02*
X160063333Y-86556247D01*
X160063333Y-86556247D02*
X160015714Y-86746723D01*
X160015714Y-86746723D02*
X159968095Y-86841961D01*
X159968095Y-86841961D02*
X159872857Y-86937200D01*
X159872857Y-86937200D02*
X159730000Y-86984819D01*
X159730000Y-86984819D02*
X159491905Y-86984819D01*
X160444286Y-86080057D02*
X160491905Y-86032438D01*
X160491905Y-86032438D02*
X160587143Y-85984819D01*
X160587143Y-85984819D02*
X160825238Y-85984819D01*
X160825238Y-85984819D02*
X160920476Y-86032438D01*
X160920476Y-86032438D02*
X160968095Y-86080057D01*
X160968095Y-86080057D02*
X161015714Y-86175295D01*
X161015714Y-86175295D02*
X161015714Y-86270533D01*
X161015714Y-86270533D02*
X160968095Y-86413390D01*
X160968095Y-86413390D02*
X160396667Y-86984819D01*
X160396667Y-86984819D02*
X161015714Y-86984819D01*
X165048095Y-86614819D02*
X165048095Y-85614819D01*
X165619523Y-86614819D02*
X165190952Y-86043390D01*
X165619523Y-85614819D02*
X165048095Y-86186247D01*
X179518333Y-90504819D02*
X179185000Y-90028628D01*
X178946905Y-90504819D02*
X178946905Y-89504819D01*
X178946905Y-89504819D02*
X179327857Y-89504819D01*
X179327857Y-89504819D02*
X179423095Y-89552438D01*
X179423095Y-89552438D02*
X179470714Y-89600057D01*
X179470714Y-89600057D02*
X179518333Y-89695295D01*
X179518333Y-89695295D02*
X179518333Y-89838152D01*
X179518333Y-89838152D02*
X179470714Y-89933390D01*
X179470714Y-89933390D02*
X179423095Y-89981009D01*
X179423095Y-89981009D02*
X179327857Y-90028628D01*
X179327857Y-90028628D02*
X178946905Y-90028628D01*
X180470714Y-90504819D02*
X179899286Y-90504819D01*
X180185000Y-90504819D02*
X180185000Y-89504819D01*
X180185000Y-89504819D02*
X180089762Y-89647676D01*
X180089762Y-89647676D02*
X179994524Y-89742914D01*
X179994524Y-89742914D02*
X179899286Y-89790533D01*
X142203333Y-85239580D02*
X142155714Y-85287200D01*
X142155714Y-85287200D02*
X142012857Y-85334819D01*
X142012857Y-85334819D02*
X141917619Y-85334819D01*
X141917619Y-85334819D02*
X141774762Y-85287200D01*
X141774762Y-85287200D02*
X141679524Y-85191961D01*
X141679524Y-85191961D02*
X141631905Y-85096723D01*
X141631905Y-85096723D02*
X141584286Y-84906247D01*
X141584286Y-84906247D02*
X141584286Y-84763390D01*
X141584286Y-84763390D02*
X141631905Y-84572914D01*
X141631905Y-84572914D02*
X141679524Y-84477676D01*
X141679524Y-84477676D02*
X141774762Y-84382438D01*
X141774762Y-84382438D02*
X141917619Y-84334819D01*
X141917619Y-84334819D02*
X142012857Y-84334819D01*
X142012857Y-84334819D02*
X142155714Y-84382438D01*
X142155714Y-84382438D02*
X142203333Y-84430057D01*
X143060476Y-84334819D02*
X142870000Y-84334819D01*
X142870000Y-84334819D02*
X142774762Y-84382438D01*
X142774762Y-84382438D02*
X142727143Y-84430057D01*
X142727143Y-84430057D02*
X142631905Y-84572914D01*
X142631905Y-84572914D02*
X142584286Y-84763390D01*
X142584286Y-84763390D02*
X142584286Y-85144342D01*
X142584286Y-85144342D02*
X142631905Y-85239580D01*
X142631905Y-85239580D02*
X142679524Y-85287200D01*
X142679524Y-85287200D02*
X142774762Y-85334819D01*
X142774762Y-85334819D02*
X142965238Y-85334819D01*
X142965238Y-85334819D02*
X143060476Y-85287200D01*
X143060476Y-85287200D02*
X143108095Y-85239580D01*
X143108095Y-85239580D02*
X143155714Y-85144342D01*
X143155714Y-85144342D02*
X143155714Y-84906247D01*
X143155714Y-84906247D02*
X143108095Y-84811009D01*
X143108095Y-84811009D02*
X143060476Y-84763390D01*
X143060476Y-84763390D02*
X142965238Y-84715771D01*
X142965238Y-84715771D02*
X142774762Y-84715771D01*
X142774762Y-84715771D02*
X142679524Y-84763390D01*
X142679524Y-84763390D02*
X142631905Y-84811009D01*
X142631905Y-84811009D02*
X142584286Y-84906247D01*
X170016666Y-71684819D02*
X170016666Y-72399104D01*
X170016666Y-72399104D02*
X169969047Y-72541961D01*
X169969047Y-72541961D02*
X169873809Y-72637200D01*
X169873809Y-72637200D02*
X169730952Y-72684819D01*
X169730952Y-72684819D02*
X169635714Y-72684819D01*
X170397619Y-71684819D02*
X171016666Y-71684819D01*
X171016666Y-71684819D02*
X170683333Y-72065771D01*
X170683333Y-72065771D02*
X170826190Y-72065771D01*
X170826190Y-72065771D02*
X170921428Y-72113390D01*
X170921428Y-72113390D02*
X170969047Y-72161009D01*
X170969047Y-72161009D02*
X171016666Y-72256247D01*
X171016666Y-72256247D02*
X171016666Y-72494342D01*
X171016666Y-72494342D02*
X170969047Y-72589580D01*
X170969047Y-72589580D02*
X170921428Y-72637200D01*
X170921428Y-72637200D02*
X170826190Y-72684819D01*
X170826190Y-72684819D02*
X170540476Y-72684819D01*
X170540476Y-72684819D02*
X170445238Y-72637200D01*
X170445238Y-72637200D02*
X170397619Y-72589580D01*
D11*
%TO.C,R6*%
X150795000Y-89408000D02*
X150725000Y-89408000D01*
X153535000Y-89408000D02*
G75*
G02*
X150795000Y-89408000I-1370000J0D01*
G01*
X150795000Y-89408000D02*
G75*
G02*
X153535000Y-89408000I1370000J0D01*
G01*
%TO.C,C2*%
X153620112Y-87085000D02*
X154120112Y-87085000D01*
X153870112Y-86835000D02*
X153870112Y-87335000D01*
X156424887Y-85980000D02*
X156424887Y-91140000D01*
X156464887Y-85980000D02*
X156464887Y-91140000D01*
X156504887Y-85981000D02*
X156504887Y-91139000D01*
X156544887Y-85982000D02*
X156544887Y-91138000D01*
X156584887Y-85984000D02*
X156584887Y-91136000D01*
X156624887Y-85987000D02*
X156624887Y-91133000D01*
X156664887Y-85991000D02*
X156664887Y-87520000D01*
X156664887Y-89600000D02*
X156664887Y-91129000D01*
X156704887Y-85995000D02*
X156704887Y-87520000D01*
X156704887Y-89600000D02*
X156704887Y-91125000D01*
X156744887Y-85999000D02*
X156744887Y-87520000D01*
X156744887Y-89600000D02*
X156744887Y-91121000D01*
X156784887Y-86004000D02*
X156784887Y-87520000D01*
X156784887Y-89600000D02*
X156784887Y-91116000D01*
X156824887Y-86010000D02*
X156824887Y-87520000D01*
X156824887Y-89600000D02*
X156824887Y-91110000D01*
X156864887Y-86017000D02*
X156864887Y-87520000D01*
X156864887Y-89600000D02*
X156864887Y-91103000D01*
X156904887Y-86024000D02*
X156904887Y-87520000D01*
X156904887Y-89600000D02*
X156904887Y-91096000D01*
X156944887Y-86032000D02*
X156944887Y-87520000D01*
X156944887Y-89600000D02*
X156944887Y-91088000D01*
X156984887Y-86040000D02*
X156984887Y-87520000D01*
X156984887Y-89600000D02*
X156984887Y-91080000D01*
X157024887Y-86049000D02*
X157024887Y-87520000D01*
X157024887Y-89600000D02*
X157024887Y-91071000D01*
X157064887Y-86059000D02*
X157064887Y-87520000D01*
X157064887Y-89600000D02*
X157064887Y-91061000D01*
X157104887Y-86069000D02*
X157104887Y-87520000D01*
X157104887Y-89600000D02*
X157104887Y-91051000D01*
X157145887Y-86080000D02*
X157145887Y-87520000D01*
X157145887Y-89600000D02*
X157145887Y-91040000D01*
X157185887Y-86092000D02*
X157185887Y-87520000D01*
X157185887Y-89600000D02*
X157185887Y-91028000D01*
X157225887Y-86105000D02*
X157225887Y-87520000D01*
X157225887Y-89600000D02*
X157225887Y-91015000D01*
X157265887Y-86118000D02*
X157265887Y-87520000D01*
X157265887Y-89600000D02*
X157265887Y-91002000D01*
X157305887Y-86132000D02*
X157305887Y-87520000D01*
X157305887Y-89600000D02*
X157305887Y-90988000D01*
X157345887Y-86146000D02*
X157345887Y-87520000D01*
X157345887Y-89600000D02*
X157345887Y-90974000D01*
X157385887Y-86162000D02*
X157385887Y-87520000D01*
X157385887Y-89600000D02*
X157385887Y-90958000D01*
X157425887Y-86178000D02*
X157425887Y-87520000D01*
X157425887Y-89600000D02*
X157425887Y-90942000D01*
X157465887Y-86195000D02*
X157465887Y-87520000D01*
X157465887Y-89600000D02*
X157465887Y-90925000D01*
X157505887Y-86212000D02*
X157505887Y-87520000D01*
X157505887Y-89600000D02*
X157505887Y-90908000D01*
X157545887Y-86231000D02*
X157545887Y-87520000D01*
X157545887Y-89600000D02*
X157545887Y-90889000D01*
X157585887Y-86250000D02*
X157585887Y-87520000D01*
X157585887Y-89600000D02*
X157585887Y-90870000D01*
X157625887Y-86270000D02*
X157625887Y-87520000D01*
X157625887Y-89600000D02*
X157625887Y-90850000D01*
X157665887Y-86292000D02*
X157665887Y-87520000D01*
X157665887Y-89600000D02*
X157665887Y-90828000D01*
X157705887Y-86313000D02*
X157705887Y-87520000D01*
X157705887Y-89600000D02*
X157705887Y-90807000D01*
X157745887Y-86336000D02*
X157745887Y-87520000D01*
X157745887Y-89600000D02*
X157745887Y-90784000D01*
X157785887Y-86360000D02*
X157785887Y-87520000D01*
X157785887Y-89600000D02*
X157785887Y-90760000D01*
X157825887Y-86385000D02*
X157825887Y-87520000D01*
X157825887Y-89600000D02*
X157825887Y-90735000D01*
X157865887Y-86411000D02*
X157865887Y-87520000D01*
X157865887Y-89600000D02*
X157865887Y-90709000D01*
X157905887Y-86438000D02*
X157905887Y-87520000D01*
X157905887Y-89600000D02*
X157905887Y-90682000D01*
X157945887Y-86465000D02*
X157945887Y-87520000D01*
X157945887Y-89600000D02*
X157945887Y-90655000D01*
X157985887Y-86495000D02*
X157985887Y-87520000D01*
X157985887Y-89600000D02*
X157985887Y-90625000D01*
X158025887Y-86525000D02*
X158025887Y-87520000D01*
X158025887Y-89600000D02*
X158025887Y-90595000D01*
X158065887Y-86556000D02*
X158065887Y-87520000D01*
X158065887Y-89600000D02*
X158065887Y-90564000D01*
X158105887Y-86589000D02*
X158105887Y-87520000D01*
X158105887Y-89600000D02*
X158105887Y-90531000D01*
X158145887Y-86623000D02*
X158145887Y-87520000D01*
X158145887Y-89600000D02*
X158145887Y-90497000D01*
X158185887Y-86659000D02*
X158185887Y-87520000D01*
X158185887Y-89600000D02*
X158185887Y-90461000D01*
X158225887Y-86696000D02*
X158225887Y-87520000D01*
X158225887Y-89600000D02*
X158225887Y-90424000D01*
X158265887Y-86734000D02*
X158265887Y-87520000D01*
X158265887Y-89600000D02*
X158265887Y-90386000D01*
X158305887Y-86775000D02*
X158305887Y-87520000D01*
X158305887Y-89600000D02*
X158305887Y-90345000D01*
X158345887Y-86817000D02*
X158345887Y-87520000D01*
X158345887Y-89600000D02*
X158345887Y-90303000D01*
X158385887Y-86861000D02*
X158385887Y-87520000D01*
X158385887Y-89600000D02*
X158385887Y-90259000D01*
X158425887Y-86907000D02*
X158425887Y-87520000D01*
X158425887Y-89600000D02*
X158425887Y-90213000D01*
X158465887Y-86955000D02*
X158465887Y-87520000D01*
X158465887Y-89600000D02*
X158465887Y-90165000D01*
X158505887Y-87006000D02*
X158505887Y-87520000D01*
X158505887Y-89600000D02*
X158505887Y-90114000D01*
X158545887Y-87060000D02*
X158545887Y-87520000D01*
X158545887Y-89600000D02*
X158545887Y-90060000D01*
X158585887Y-87117000D02*
X158585887Y-87520000D01*
X158585887Y-89600000D02*
X158585887Y-90003000D01*
X158625887Y-87177000D02*
X158625887Y-87520000D01*
X158625887Y-89600000D02*
X158625887Y-89943000D01*
X158665887Y-87241000D02*
X158665887Y-87520000D01*
X158665887Y-89600000D02*
X158665887Y-89879000D01*
X158705887Y-87309000D02*
X158705887Y-87520000D01*
X158705887Y-89600000D02*
X158705887Y-89811000D01*
X158745887Y-87382000D02*
X158745887Y-89738000D01*
X158785887Y-87462000D02*
X158785887Y-89658000D01*
X158825887Y-87549000D02*
X158825887Y-89571000D01*
X158865887Y-87645000D02*
X158865887Y-89475000D01*
X158905887Y-87755000D02*
X158905887Y-89365000D01*
X158945887Y-87883000D02*
X158945887Y-89237000D01*
X158985887Y-88042000D02*
X158985887Y-89078000D01*
X159025887Y-88276000D02*
X159025887Y-88844000D01*
X159044887Y-88560000D02*
G75*
G02*
X153804887Y-88560000I-2620000J0D01*
G01*
X153804887Y-88560000D02*
G75*
G02*
X159044887Y-88560000I2620000J0D01*
G01*
%TO.C,R5*%
X165254000Y-89408000D02*
X165184000Y-89408000D01*
X167994000Y-89408000D02*
G75*
G02*
X165254000Y-89408000I-1370000J0D01*
G01*
X165254000Y-89408000D02*
G75*
G02*
X167994000Y-89408000I1370000J0D01*
G01*
%TO.C,D3*%
X142480000Y-84080000D02*
X143500000Y-84080000D01*
X143500000Y-82610000D02*
X143500000Y-85550000D01*
X143500000Y-85550000D02*
X148940000Y-85550000D01*
X147920000Y-85550000D02*
X147920000Y-82610000D01*
X148040000Y-85550000D02*
X148040000Y-82610000D01*
X148160000Y-85550000D02*
X148160000Y-82610000D01*
X148940000Y-82610000D02*
X143500000Y-82610000D01*
X148940000Y-85550000D02*
X148940000Y-82610000D01*
X149960000Y-84080000D02*
X148940000Y-84080000D01*
%TO.C,R4*%
X179478000Y-89370000D02*
X179408000Y-89370000D01*
X182218000Y-89370000D02*
G75*
G02*
X179478000Y-89370000I-1370000J0D01*
G01*
X179478000Y-89370000D02*
G75*
G02*
X182218000Y-89370000I1370000J0D01*
G01*
%TO.C,C4*%
X167790113Y-87085000D02*
X168290113Y-87085000D01*
X168040113Y-86835000D02*
X168040113Y-87335000D01*
X170594888Y-85980000D02*
X170594888Y-91140000D01*
X170634888Y-85980000D02*
X170634888Y-91140000D01*
X170674888Y-85981000D02*
X170674888Y-91139000D01*
X170714888Y-85982000D02*
X170714888Y-91138000D01*
X170754888Y-85984000D02*
X170754888Y-91136000D01*
X170794888Y-85987000D02*
X170794888Y-91133000D01*
X170834888Y-85991000D02*
X170834888Y-87520000D01*
X170834888Y-89600000D02*
X170834888Y-91129000D01*
X170874888Y-85995000D02*
X170874888Y-87520000D01*
X170874888Y-89600000D02*
X170874888Y-91125000D01*
X170914888Y-85999000D02*
X170914888Y-87520000D01*
X170914888Y-89600000D02*
X170914888Y-91121000D01*
X170954888Y-86004000D02*
X170954888Y-87520000D01*
X170954888Y-89600000D02*
X170954888Y-91116000D01*
X170994888Y-86010000D02*
X170994888Y-87520000D01*
X170994888Y-89600000D02*
X170994888Y-91110000D01*
X171034888Y-86017000D02*
X171034888Y-87520000D01*
X171034888Y-89600000D02*
X171034888Y-91103000D01*
X171074888Y-86024000D02*
X171074888Y-87520000D01*
X171074888Y-89600000D02*
X171074888Y-91096000D01*
X171114888Y-86032000D02*
X171114888Y-87520000D01*
X171114888Y-89600000D02*
X171114888Y-91088000D01*
X171154888Y-86040000D02*
X171154888Y-87520000D01*
X171154888Y-89600000D02*
X171154888Y-91080000D01*
X171194888Y-86049000D02*
X171194888Y-87520000D01*
X171194888Y-89600000D02*
X171194888Y-91071000D01*
X171234888Y-86059000D02*
X171234888Y-87520000D01*
X171234888Y-89600000D02*
X171234888Y-91061000D01*
X171274888Y-86069000D02*
X171274888Y-87520000D01*
X171274888Y-89600000D02*
X171274888Y-91051000D01*
X171315888Y-86080000D02*
X171315888Y-87520000D01*
X171315888Y-89600000D02*
X171315888Y-91040000D01*
X171355888Y-86092000D02*
X171355888Y-87520000D01*
X171355888Y-89600000D02*
X171355888Y-91028000D01*
X171395888Y-86105000D02*
X171395888Y-87520000D01*
X171395888Y-89600000D02*
X171395888Y-91015000D01*
X171435888Y-86118000D02*
X171435888Y-87520000D01*
X171435888Y-89600000D02*
X171435888Y-91002000D01*
X171475888Y-86132000D02*
X171475888Y-87520000D01*
X171475888Y-89600000D02*
X171475888Y-90988000D01*
X171515888Y-86146000D02*
X171515888Y-87520000D01*
X171515888Y-89600000D02*
X171515888Y-90974000D01*
X171555888Y-86162000D02*
X171555888Y-87520000D01*
X171555888Y-89600000D02*
X171555888Y-90958000D01*
X171595888Y-86178000D02*
X171595888Y-87520000D01*
X171595888Y-89600000D02*
X171595888Y-90942000D01*
X171635888Y-86195000D02*
X171635888Y-87520000D01*
X171635888Y-89600000D02*
X171635888Y-90925000D01*
X171675888Y-86212000D02*
X171675888Y-87520000D01*
X171675888Y-89600000D02*
X171675888Y-90908000D01*
X171715888Y-86231000D02*
X171715888Y-87520000D01*
X171715888Y-89600000D02*
X171715888Y-90889000D01*
X171755888Y-86250000D02*
X171755888Y-87520000D01*
X171755888Y-89600000D02*
X171755888Y-90870000D01*
X171795888Y-86270000D02*
X171795888Y-87520000D01*
X171795888Y-89600000D02*
X171795888Y-90850000D01*
X171835888Y-86292000D02*
X171835888Y-87520000D01*
X171835888Y-89600000D02*
X171835888Y-90828000D01*
X171875888Y-86313000D02*
X171875888Y-87520000D01*
X171875888Y-89600000D02*
X171875888Y-90807000D01*
X171915888Y-86336000D02*
X171915888Y-87520000D01*
X171915888Y-89600000D02*
X171915888Y-90784000D01*
X171955888Y-86360000D02*
X171955888Y-87520000D01*
X171955888Y-89600000D02*
X171955888Y-90760000D01*
X171995888Y-86385000D02*
X171995888Y-87520000D01*
X171995888Y-89600000D02*
X171995888Y-90735000D01*
X172035888Y-86411000D02*
X172035888Y-87520000D01*
X172035888Y-89600000D02*
X172035888Y-90709000D01*
X172075888Y-86438000D02*
X172075888Y-87520000D01*
X172075888Y-89600000D02*
X172075888Y-90682000D01*
X172115888Y-86465000D02*
X172115888Y-87520000D01*
X172115888Y-89600000D02*
X172115888Y-90655000D01*
X172155888Y-86495000D02*
X172155888Y-87520000D01*
X172155888Y-89600000D02*
X172155888Y-90625000D01*
X172195888Y-86525000D02*
X172195888Y-87520000D01*
X172195888Y-89600000D02*
X172195888Y-90595000D01*
X172235888Y-86556000D02*
X172235888Y-87520000D01*
X172235888Y-89600000D02*
X172235888Y-90564000D01*
X172275888Y-86589000D02*
X172275888Y-87520000D01*
X172275888Y-89600000D02*
X172275888Y-90531000D01*
X172315888Y-86623000D02*
X172315888Y-87520000D01*
X172315888Y-89600000D02*
X172315888Y-90497000D01*
X172355888Y-86659000D02*
X172355888Y-87520000D01*
X172355888Y-89600000D02*
X172355888Y-90461000D01*
X172395888Y-86696000D02*
X172395888Y-87520000D01*
X172395888Y-89600000D02*
X172395888Y-90424000D01*
X172435888Y-86734000D02*
X172435888Y-87520000D01*
X172435888Y-89600000D02*
X172435888Y-90386000D01*
X172475888Y-86775000D02*
X172475888Y-87520000D01*
X172475888Y-89600000D02*
X172475888Y-90345000D01*
X172515888Y-86817000D02*
X172515888Y-87520000D01*
X172515888Y-89600000D02*
X172515888Y-90303000D01*
X172555888Y-86861000D02*
X172555888Y-87520000D01*
X172555888Y-89600000D02*
X172555888Y-90259000D01*
X172595888Y-86907000D02*
X172595888Y-87520000D01*
X172595888Y-89600000D02*
X172595888Y-90213000D01*
X172635888Y-86955000D02*
X172635888Y-87520000D01*
X172635888Y-89600000D02*
X172635888Y-90165000D01*
X172675888Y-87006000D02*
X172675888Y-87520000D01*
X172675888Y-89600000D02*
X172675888Y-90114000D01*
X172715888Y-87060000D02*
X172715888Y-87520000D01*
X172715888Y-89600000D02*
X172715888Y-90060000D01*
X172755888Y-87117000D02*
X172755888Y-87520000D01*
X172755888Y-89600000D02*
X172755888Y-90003000D01*
X172795888Y-87177000D02*
X172795888Y-87520000D01*
X172795888Y-89600000D02*
X172795888Y-89943000D01*
X172835888Y-87241000D02*
X172835888Y-87520000D01*
X172835888Y-89600000D02*
X172835888Y-89879000D01*
X172875888Y-87309000D02*
X172875888Y-87520000D01*
X172875888Y-89600000D02*
X172875888Y-89811000D01*
X172915888Y-87382000D02*
X172915888Y-89738000D01*
X172955888Y-87462000D02*
X172955888Y-89658000D01*
X172995888Y-87549000D02*
X172995888Y-89571000D01*
X173035888Y-87645000D02*
X173035888Y-89475000D01*
X173075888Y-87755000D02*
X173075888Y-89365000D01*
X173115888Y-87883000D02*
X173115888Y-89237000D01*
X173155888Y-88042000D02*
X173155888Y-89078000D01*
X173195888Y-88276000D02*
X173195888Y-88844000D01*
X173214888Y-88560000D02*
G75*
G02*
X167974888Y-88560000I-2620000J0D01*
G01*
X167974888Y-88560000D02*
G75*
G02*
X173214888Y-88560000I2620000J0D01*
G01*
%TO.C,J2*%
X150070000Y-75290000D02*
X150070000Y-77790000D01*
X150070000Y-77790000D02*
X152570000Y-77790000D01*
X150370000Y-73470000D02*
X150370000Y-77490000D01*
X150370000Y-75180000D02*
X150870000Y-75180000D01*
X150370000Y-75990000D02*
X151370000Y-75990000D01*
X150370000Y-77490000D02*
X158090000Y-77490000D01*
X150870000Y-73970000D02*
X157590000Y-73970000D01*
X150870000Y-75180000D02*
X150870000Y-73970000D01*
X151370000Y-75990000D02*
X151370000Y-77490000D01*
X157090000Y-75990000D02*
X157090000Y-77490000D01*
X157590000Y-73970000D02*
X157590000Y-75180000D01*
X157590000Y-75180000D02*
X158090000Y-75180000D01*
X158090000Y-73470000D02*
X150370000Y-73470000D01*
X158090000Y-75990000D02*
X157090000Y-75990000D01*
X158090000Y-77490000D02*
X158090000Y-73470000D01*
%TO.C,C1*%
X176880000Y-97030000D02*
X175351000Y-97030000D01*
X176880000Y-97070000D02*
X175355000Y-97070000D01*
X176880000Y-97110000D02*
X175359000Y-97110000D01*
X176880000Y-97150000D02*
X175364000Y-97150000D01*
X176880000Y-97190000D02*
X175370000Y-97190000D01*
X176880000Y-97230000D02*
X175377000Y-97230000D01*
X176880000Y-97270000D02*
X175384000Y-97270000D01*
X176880000Y-97310000D02*
X175392000Y-97310000D01*
X176880000Y-97350000D02*
X175400000Y-97350000D01*
X176880000Y-97390000D02*
X175409000Y-97390000D01*
X176880000Y-97430000D02*
X175419000Y-97430000D01*
X176880000Y-97470000D02*
X175429000Y-97470000D01*
X176880000Y-97511000D02*
X175440000Y-97511000D01*
X176880000Y-97551000D02*
X175452000Y-97551000D01*
X176880000Y-97591000D02*
X175465000Y-97591000D01*
X176880000Y-97631000D02*
X175478000Y-97631000D01*
X176880000Y-97671000D02*
X175492000Y-97671000D01*
X176880000Y-97711000D02*
X175506000Y-97711000D01*
X176880000Y-97751000D02*
X175522000Y-97751000D01*
X176880000Y-97791000D02*
X175538000Y-97791000D01*
X176880000Y-97831000D02*
X175555000Y-97831000D01*
X176880000Y-97871000D02*
X175572000Y-97871000D01*
X176880000Y-97911000D02*
X175591000Y-97911000D01*
X176880000Y-97951000D02*
X175610000Y-97951000D01*
X176880000Y-97991000D02*
X175630000Y-97991000D01*
X176880000Y-98031000D02*
X175652000Y-98031000D01*
X176880000Y-98071000D02*
X175673000Y-98071000D01*
X176880000Y-98111000D02*
X175696000Y-98111000D01*
X176880000Y-98151000D02*
X175720000Y-98151000D01*
X176880000Y-98191000D02*
X175745000Y-98191000D01*
X176880000Y-98231000D02*
X175771000Y-98231000D01*
X176880000Y-98271000D02*
X175798000Y-98271000D01*
X176880000Y-98311000D02*
X175825000Y-98311000D01*
X176880000Y-98351000D02*
X175855000Y-98351000D01*
X176880000Y-98391000D02*
X175885000Y-98391000D01*
X176880000Y-98431000D02*
X175916000Y-98431000D01*
X176880000Y-98471000D02*
X175949000Y-98471000D01*
X176880000Y-98511000D02*
X175983000Y-98511000D01*
X176880000Y-98551000D02*
X176019000Y-98551000D01*
X176880000Y-98591000D02*
X176056000Y-98591000D01*
X176880000Y-98631000D02*
X176094000Y-98631000D01*
X176880000Y-98671000D02*
X176135000Y-98671000D01*
X176880000Y-98711000D02*
X176177000Y-98711000D01*
X176880000Y-98751000D02*
X176221000Y-98751000D01*
X176880000Y-98791000D02*
X176267000Y-98791000D01*
X176880000Y-98831000D02*
X176315000Y-98831000D01*
X176880000Y-98871000D02*
X176366000Y-98871000D01*
X176880000Y-98911000D02*
X176420000Y-98911000D01*
X176880000Y-98951000D02*
X176477000Y-98951000D01*
X176880000Y-98991000D02*
X176537000Y-98991000D01*
X176880000Y-99031000D02*
X176601000Y-99031000D01*
X176880000Y-99071000D02*
X176669000Y-99071000D01*
X178204000Y-99391000D02*
X177636000Y-99391000D01*
X178438000Y-99351000D02*
X177402000Y-99351000D01*
X178597000Y-99311000D02*
X177243000Y-99311000D01*
X178725000Y-99271000D02*
X177115000Y-99271000D01*
X178835000Y-99231000D02*
X177005000Y-99231000D01*
X178931000Y-99191000D02*
X176909000Y-99191000D01*
X179018000Y-99151000D02*
X176822000Y-99151000D01*
X179098000Y-99111000D02*
X176742000Y-99111000D01*
X179171000Y-99071000D02*
X178960000Y-99071000D01*
X179239000Y-99031000D02*
X178960000Y-99031000D01*
X179303000Y-98991000D02*
X178960000Y-98991000D01*
X179363000Y-98951000D02*
X178960000Y-98951000D01*
X179395000Y-93985225D02*
X179395000Y-94485225D01*
X179420000Y-98911000D02*
X178960000Y-98911000D01*
X179474000Y-98871000D02*
X178960000Y-98871000D01*
X179525000Y-98831000D02*
X178960000Y-98831000D01*
X179573000Y-98791000D02*
X178960000Y-98791000D01*
X179619000Y-98751000D02*
X178960000Y-98751000D01*
X179645000Y-94235225D02*
X179145000Y-94235225D01*
X179663000Y-98711000D02*
X178960000Y-98711000D01*
X179705000Y-98671000D02*
X178960000Y-98671000D01*
X179746000Y-98631000D02*
X178960000Y-98631000D01*
X179784000Y-98591000D02*
X178960000Y-98591000D01*
X179821000Y-98551000D02*
X178960000Y-98551000D01*
X179857000Y-98511000D02*
X178960000Y-98511000D01*
X179891000Y-98471000D02*
X178960000Y-98471000D01*
X179924000Y-98431000D02*
X178960000Y-98431000D01*
X179955000Y-98391000D02*
X178960000Y-98391000D01*
X179985000Y-98351000D02*
X178960000Y-98351000D01*
X180015000Y-98311000D02*
X178960000Y-98311000D01*
X180042000Y-98271000D02*
X178960000Y-98271000D01*
X180069000Y-98231000D02*
X178960000Y-98231000D01*
X180095000Y-98191000D02*
X178960000Y-98191000D01*
X180120000Y-98151000D02*
X178960000Y-98151000D01*
X180144000Y-98111000D02*
X178960000Y-98111000D01*
X180167000Y-98071000D02*
X178960000Y-98071000D01*
X180188000Y-98031000D02*
X178960000Y-98031000D01*
X180210000Y-97991000D02*
X178960000Y-97991000D01*
X180230000Y-97951000D02*
X178960000Y-97951000D01*
X180249000Y-97911000D02*
X178960000Y-97911000D01*
X180268000Y-97871000D02*
X178960000Y-97871000D01*
X180285000Y-97831000D02*
X178960000Y-97831000D01*
X180302000Y-97791000D02*
X178960000Y-97791000D01*
X180318000Y-97751000D02*
X178960000Y-97751000D01*
X180334000Y-97711000D02*
X178960000Y-97711000D01*
X180348000Y-97671000D02*
X178960000Y-97671000D01*
X180362000Y-97631000D02*
X178960000Y-97631000D01*
X180375000Y-97591000D02*
X178960000Y-97591000D01*
X180388000Y-97551000D02*
X178960000Y-97551000D01*
X180400000Y-97511000D02*
X178960000Y-97511000D01*
X180411000Y-97470000D02*
X178960000Y-97470000D01*
X180421000Y-97430000D02*
X178960000Y-97430000D01*
X180431000Y-97390000D02*
X178960000Y-97390000D01*
X180440000Y-97350000D02*
X178960000Y-97350000D01*
X180448000Y-97310000D02*
X178960000Y-97310000D01*
X180456000Y-97270000D02*
X178960000Y-97270000D01*
X180463000Y-97230000D02*
X178960000Y-97230000D01*
X180470000Y-97190000D02*
X178960000Y-97190000D01*
X180476000Y-97150000D02*
X178960000Y-97150000D01*
X180481000Y-97110000D02*
X178960000Y-97110000D01*
X180485000Y-97070000D02*
X178960000Y-97070000D01*
X180489000Y-97030000D02*
X178960000Y-97030000D01*
X180493000Y-96990000D02*
X175347000Y-96990000D01*
X180496000Y-96950000D02*
X175344000Y-96950000D01*
X180498000Y-96910000D02*
X175342000Y-96910000D01*
X180499000Y-96870000D02*
X175341000Y-96870000D01*
X180500000Y-96790000D02*
X175340000Y-96790000D01*
X180500000Y-96830000D02*
X175340000Y-96830000D01*
X180540000Y-96790000D02*
G75*
G02*
X175300000Y-96790000I-2620000J0D01*
G01*
X175300000Y-96790000D02*
G75*
G02*
X180540000Y-96790000I2620000J0D01*
G01*
%TO.C,C3*%
X162760000Y-97014888D02*
X161231000Y-97014888D01*
X162760000Y-97054888D02*
X161235000Y-97054888D01*
X162760000Y-97094888D02*
X161239000Y-97094888D01*
X162760000Y-97134888D02*
X161244000Y-97134888D01*
X162760000Y-97174888D02*
X161250000Y-97174888D01*
X162760000Y-97214888D02*
X161257000Y-97214888D01*
X162760000Y-97254888D02*
X161264000Y-97254888D01*
X162760000Y-97294888D02*
X161272000Y-97294888D01*
X162760000Y-97334888D02*
X161280000Y-97334888D01*
X162760000Y-97374888D02*
X161289000Y-97374888D01*
X162760000Y-97414888D02*
X161299000Y-97414888D01*
X162760000Y-97454888D02*
X161309000Y-97454888D01*
X162760000Y-97495888D02*
X161320000Y-97495888D01*
X162760000Y-97535888D02*
X161332000Y-97535888D01*
X162760000Y-97575888D02*
X161345000Y-97575888D01*
X162760000Y-97615888D02*
X161358000Y-97615888D01*
X162760000Y-97655888D02*
X161372000Y-97655888D01*
X162760000Y-97695888D02*
X161386000Y-97695888D01*
X162760000Y-97735888D02*
X161402000Y-97735888D01*
X162760000Y-97775888D02*
X161418000Y-97775888D01*
X162760000Y-97815888D02*
X161435000Y-97815888D01*
X162760000Y-97855888D02*
X161452000Y-97855888D01*
X162760000Y-97895888D02*
X161471000Y-97895888D01*
X162760000Y-97935888D02*
X161490000Y-97935888D01*
X162760000Y-97975888D02*
X161510000Y-97975888D01*
X162760000Y-98015888D02*
X161532000Y-98015888D01*
X162760000Y-98055888D02*
X161553000Y-98055888D01*
X162760000Y-98095888D02*
X161576000Y-98095888D01*
X162760000Y-98135888D02*
X161600000Y-98135888D01*
X162760000Y-98175888D02*
X161625000Y-98175888D01*
X162760000Y-98215888D02*
X161651000Y-98215888D01*
X162760000Y-98255888D02*
X161678000Y-98255888D01*
X162760000Y-98295888D02*
X161705000Y-98295888D01*
X162760000Y-98335888D02*
X161735000Y-98335888D01*
X162760000Y-98375888D02*
X161765000Y-98375888D01*
X162760000Y-98415888D02*
X161796000Y-98415888D01*
X162760000Y-98455888D02*
X161829000Y-98455888D01*
X162760000Y-98495888D02*
X161863000Y-98495888D01*
X162760000Y-98535888D02*
X161899000Y-98535888D01*
X162760000Y-98575888D02*
X161936000Y-98575888D01*
X162760000Y-98615888D02*
X161974000Y-98615888D01*
X162760000Y-98655888D02*
X162015000Y-98655888D01*
X162760000Y-98695888D02*
X162057000Y-98695888D01*
X162760000Y-98735888D02*
X162101000Y-98735888D01*
X162760000Y-98775888D02*
X162147000Y-98775888D01*
X162760000Y-98815888D02*
X162195000Y-98815888D01*
X162760000Y-98855888D02*
X162246000Y-98855888D01*
X162760000Y-98895888D02*
X162300000Y-98895888D01*
X162760000Y-98935888D02*
X162357000Y-98935888D01*
X162760000Y-98975888D02*
X162417000Y-98975888D01*
X162760000Y-99015888D02*
X162481000Y-99015888D01*
X162760000Y-99055888D02*
X162549000Y-99055888D01*
X164084000Y-99375888D02*
X163516000Y-99375888D01*
X164318000Y-99335888D02*
X163282000Y-99335888D01*
X164477000Y-99295888D02*
X163123000Y-99295888D01*
X164605000Y-99255888D02*
X162995000Y-99255888D01*
X164715000Y-99215888D02*
X162885000Y-99215888D01*
X164811000Y-99175888D02*
X162789000Y-99175888D01*
X164898000Y-99135888D02*
X162702000Y-99135888D01*
X164978000Y-99095888D02*
X162622000Y-99095888D01*
X165051000Y-99055888D02*
X164840000Y-99055888D01*
X165119000Y-99015888D02*
X164840000Y-99015888D01*
X165183000Y-98975888D02*
X164840000Y-98975888D01*
X165243000Y-98935888D02*
X164840000Y-98935888D01*
X165275000Y-93970113D02*
X165275000Y-94470113D01*
X165300000Y-98895888D02*
X164840000Y-98895888D01*
X165354000Y-98855888D02*
X164840000Y-98855888D01*
X165405000Y-98815888D02*
X164840000Y-98815888D01*
X165453000Y-98775888D02*
X164840000Y-98775888D01*
X165499000Y-98735888D02*
X164840000Y-98735888D01*
X165525000Y-94220113D02*
X165025000Y-94220113D01*
X165543000Y-98695888D02*
X164840000Y-98695888D01*
X165585000Y-98655888D02*
X164840000Y-98655888D01*
X165626000Y-98615888D02*
X164840000Y-98615888D01*
X165664000Y-98575888D02*
X164840000Y-98575888D01*
X165701000Y-98535888D02*
X164840000Y-98535888D01*
X165737000Y-98495888D02*
X164840000Y-98495888D01*
X165771000Y-98455888D02*
X164840000Y-98455888D01*
X165804000Y-98415888D02*
X164840000Y-98415888D01*
X165835000Y-98375888D02*
X164840000Y-98375888D01*
X165865000Y-98335888D02*
X164840000Y-98335888D01*
X165895000Y-98295888D02*
X164840000Y-98295888D01*
X165922000Y-98255888D02*
X164840000Y-98255888D01*
X165949000Y-98215888D02*
X164840000Y-98215888D01*
X165975000Y-98175888D02*
X164840000Y-98175888D01*
X166000000Y-98135888D02*
X164840000Y-98135888D01*
X166024000Y-98095888D02*
X164840000Y-98095888D01*
X166047000Y-98055888D02*
X164840000Y-98055888D01*
X166068000Y-98015888D02*
X164840000Y-98015888D01*
X166090000Y-97975888D02*
X164840000Y-97975888D01*
X166110000Y-97935888D02*
X164840000Y-97935888D01*
X166129000Y-97895888D02*
X164840000Y-97895888D01*
X166148000Y-97855888D02*
X164840000Y-97855888D01*
X166165000Y-97815888D02*
X164840000Y-97815888D01*
X166182000Y-97775888D02*
X164840000Y-97775888D01*
X166198000Y-97735888D02*
X164840000Y-97735888D01*
X166214000Y-97695888D02*
X164840000Y-97695888D01*
X166228000Y-97655888D02*
X164840000Y-97655888D01*
X166242000Y-97615888D02*
X164840000Y-97615888D01*
X166255000Y-97575888D02*
X164840000Y-97575888D01*
X166268000Y-97535888D02*
X164840000Y-97535888D01*
X166280000Y-97495888D02*
X164840000Y-97495888D01*
X166291000Y-97454888D02*
X164840000Y-97454888D01*
X166301000Y-97414888D02*
X164840000Y-97414888D01*
X166311000Y-97374888D02*
X164840000Y-97374888D01*
X166320000Y-97334888D02*
X164840000Y-97334888D01*
X166328000Y-97294888D02*
X164840000Y-97294888D01*
X166336000Y-97254888D02*
X164840000Y-97254888D01*
X166343000Y-97214888D02*
X164840000Y-97214888D01*
X166350000Y-97174888D02*
X164840000Y-97174888D01*
X166356000Y-97134888D02*
X164840000Y-97134888D01*
X166361000Y-97094888D02*
X164840000Y-97094888D01*
X166365000Y-97054888D02*
X164840000Y-97054888D01*
X166369000Y-97014888D02*
X164840000Y-97014888D01*
X166373000Y-96974888D02*
X161227000Y-96974888D01*
X166376000Y-96934888D02*
X161224000Y-96934888D01*
X166378000Y-96894888D02*
X161222000Y-96894888D01*
X166379000Y-96854888D02*
X161221000Y-96854888D01*
X166380000Y-96774888D02*
X161220000Y-96774888D01*
X166380000Y-96814888D02*
X161220000Y-96814888D01*
X166420000Y-96774888D02*
G75*
G02*
X161180000Y-96774888I-2620000J0D01*
G01*
X161180000Y-96774888D02*
G75*
G02*
X166420000Y-96774888I2620000J0D01*
G01*
%TO.C,C5*%
X148600000Y-97014888D02*
X147071000Y-97014888D01*
X148600000Y-97054888D02*
X147075000Y-97054888D01*
X148600000Y-97094888D02*
X147079000Y-97094888D01*
X148600000Y-97134888D02*
X147084000Y-97134888D01*
X148600000Y-97174888D02*
X147090000Y-97174888D01*
X148600000Y-97214888D02*
X147097000Y-97214888D01*
X148600000Y-97254888D02*
X147104000Y-97254888D01*
X148600000Y-97294888D02*
X147112000Y-97294888D01*
X148600000Y-97334888D02*
X147120000Y-97334888D01*
X148600000Y-97374888D02*
X147129000Y-97374888D01*
X148600000Y-97414888D02*
X147139000Y-97414888D01*
X148600000Y-97454888D02*
X147149000Y-97454888D01*
X148600000Y-97495888D02*
X147160000Y-97495888D01*
X148600000Y-97535888D02*
X147172000Y-97535888D01*
X148600000Y-97575888D02*
X147185000Y-97575888D01*
X148600000Y-97615888D02*
X147198000Y-97615888D01*
X148600000Y-97655888D02*
X147212000Y-97655888D01*
X148600000Y-97695888D02*
X147226000Y-97695888D01*
X148600000Y-97735888D02*
X147242000Y-97735888D01*
X148600000Y-97775888D02*
X147258000Y-97775888D01*
X148600000Y-97815888D02*
X147275000Y-97815888D01*
X148600000Y-97855888D02*
X147292000Y-97855888D01*
X148600000Y-97895888D02*
X147311000Y-97895888D01*
X148600000Y-97935888D02*
X147330000Y-97935888D01*
X148600000Y-97975888D02*
X147350000Y-97975888D01*
X148600000Y-98015888D02*
X147372000Y-98015888D01*
X148600000Y-98055888D02*
X147393000Y-98055888D01*
X148600000Y-98095888D02*
X147416000Y-98095888D01*
X148600000Y-98135888D02*
X147440000Y-98135888D01*
X148600000Y-98175888D02*
X147465000Y-98175888D01*
X148600000Y-98215888D02*
X147491000Y-98215888D01*
X148600000Y-98255888D02*
X147518000Y-98255888D01*
X148600000Y-98295888D02*
X147545000Y-98295888D01*
X148600000Y-98335888D02*
X147575000Y-98335888D01*
X148600000Y-98375888D02*
X147605000Y-98375888D01*
X148600000Y-98415888D02*
X147636000Y-98415888D01*
X148600000Y-98455888D02*
X147669000Y-98455888D01*
X148600000Y-98495888D02*
X147703000Y-98495888D01*
X148600000Y-98535888D02*
X147739000Y-98535888D01*
X148600000Y-98575888D02*
X147776000Y-98575888D01*
X148600000Y-98615888D02*
X147814000Y-98615888D01*
X148600000Y-98655888D02*
X147855000Y-98655888D01*
X148600000Y-98695888D02*
X147897000Y-98695888D01*
X148600000Y-98735888D02*
X147941000Y-98735888D01*
X148600000Y-98775888D02*
X147987000Y-98775888D01*
X148600000Y-98815888D02*
X148035000Y-98815888D01*
X148600000Y-98855888D02*
X148086000Y-98855888D01*
X148600000Y-98895888D02*
X148140000Y-98895888D01*
X148600000Y-98935888D02*
X148197000Y-98935888D01*
X148600000Y-98975888D02*
X148257000Y-98975888D01*
X148600000Y-99015888D02*
X148321000Y-99015888D01*
X148600000Y-99055888D02*
X148389000Y-99055888D01*
X149924000Y-99375888D02*
X149356000Y-99375888D01*
X150158000Y-99335888D02*
X149122000Y-99335888D01*
X150317000Y-99295888D02*
X148963000Y-99295888D01*
X150445000Y-99255888D02*
X148835000Y-99255888D01*
X150555000Y-99215888D02*
X148725000Y-99215888D01*
X150651000Y-99175888D02*
X148629000Y-99175888D01*
X150738000Y-99135888D02*
X148542000Y-99135888D01*
X150818000Y-99095888D02*
X148462000Y-99095888D01*
X150891000Y-99055888D02*
X150680000Y-99055888D01*
X150959000Y-99015888D02*
X150680000Y-99015888D01*
X151023000Y-98975888D02*
X150680000Y-98975888D01*
X151083000Y-98935888D02*
X150680000Y-98935888D01*
X151115000Y-93970113D02*
X151115000Y-94470113D01*
X151140000Y-98895888D02*
X150680000Y-98895888D01*
X151194000Y-98855888D02*
X150680000Y-98855888D01*
X151245000Y-98815888D02*
X150680000Y-98815888D01*
X151293000Y-98775888D02*
X150680000Y-98775888D01*
X151339000Y-98735888D02*
X150680000Y-98735888D01*
X151365000Y-94220113D02*
X150865000Y-94220113D01*
X151383000Y-98695888D02*
X150680000Y-98695888D01*
X151425000Y-98655888D02*
X150680000Y-98655888D01*
X151466000Y-98615888D02*
X150680000Y-98615888D01*
X151504000Y-98575888D02*
X150680000Y-98575888D01*
X151541000Y-98535888D02*
X150680000Y-98535888D01*
X151577000Y-98495888D02*
X150680000Y-98495888D01*
X151611000Y-98455888D02*
X150680000Y-98455888D01*
X151644000Y-98415888D02*
X150680000Y-98415888D01*
X151675000Y-98375888D02*
X150680000Y-98375888D01*
X151705000Y-98335888D02*
X150680000Y-98335888D01*
X151735000Y-98295888D02*
X150680000Y-98295888D01*
X151762000Y-98255888D02*
X150680000Y-98255888D01*
X151789000Y-98215888D02*
X150680000Y-98215888D01*
X151815000Y-98175888D02*
X150680000Y-98175888D01*
X151840000Y-98135888D02*
X150680000Y-98135888D01*
X151864000Y-98095888D02*
X150680000Y-98095888D01*
X151887000Y-98055888D02*
X150680000Y-98055888D01*
X151908000Y-98015888D02*
X150680000Y-98015888D01*
X151930000Y-97975888D02*
X150680000Y-97975888D01*
X151950000Y-97935888D02*
X150680000Y-97935888D01*
X151969000Y-97895888D02*
X150680000Y-97895888D01*
X151988000Y-97855888D02*
X150680000Y-97855888D01*
X152005000Y-97815888D02*
X150680000Y-97815888D01*
X152022000Y-97775888D02*
X150680000Y-97775888D01*
X152038000Y-97735888D02*
X150680000Y-97735888D01*
X152054000Y-97695888D02*
X150680000Y-97695888D01*
X152068000Y-97655888D02*
X150680000Y-97655888D01*
X152082000Y-97615888D02*
X150680000Y-97615888D01*
X152095000Y-97575888D02*
X150680000Y-97575888D01*
X152108000Y-97535888D02*
X150680000Y-97535888D01*
X152120000Y-97495888D02*
X150680000Y-97495888D01*
X152131000Y-97454888D02*
X150680000Y-97454888D01*
X152141000Y-97414888D02*
X150680000Y-97414888D01*
X152151000Y-97374888D02*
X150680000Y-97374888D01*
X152160000Y-97334888D02*
X150680000Y-97334888D01*
X152168000Y-97294888D02*
X150680000Y-97294888D01*
X152176000Y-97254888D02*
X150680000Y-97254888D01*
X152183000Y-97214888D02*
X150680000Y-97214888D01*
X152190000Y-97174888D02*
X150680000Y-97174888D01*
X152196000Y-97134888D02*
X150680000Y-97134888D01*
X152201000Y-97094888D02*
X150680000Y-97094888D01*
X152205000Y-97054888D02*
X150680000Y-97054888D01*
X152209000Y-97014888D02*
X150680000Y-97014888D01*
X152213000Y-96974888D02*
X147067000Y-96974888D01*
X152216000Y-96934888D02*
X147064000Y-96934888D01*
X152218000Y-96894888D02*
X147062000Y-96894888D01*
X152219000Y-96854888D02*
X147061000Y-96854888D01*
X152220000Y-96774888D02*
X147060000Y-96774888D01*
X152220000Y-96814888D02*
X147060000Y-96814888D01*
X152260000Y-96774888D02*
G75*
G02*
X147020000Y-96774888I-2620000J0D01*
G01*
X147020000Y-96774888D02*
G75*
G02*
X152260000Y-96774888I2620000J0D01*
G01*
%TO.C,D1*%
X170504000Y-84074000D02*
X171524000Y-84074000D01*
X171524000Y-82604000D02*
X171524000Y-85544000D01*
X171524000Y-85544000D02*
X176964000Y-85544000D01*
X175944000Y-85544000D02*
X175944000Y-82604000D01*
X176064000Y-85544000D02*
X176064000Y-82604000D01*
X176184000Y-85544000D02*
X176184000Y-82604000D01*
X176964000Y-82604000D02*
X171524000Y-82604000D01*
X176964000Y-85544000D02*
X176964000Y-82604000D01*
X177984000Y-84074000D02*
X176964000Y-84074000D01*
%TO.C,R3*%
X151230000Y-92510000D02*
X151300000Y-92510000D01*
X151230000Y-92510000D02*
G75*
G02*
X148490000Y-92510000I-1370000J0D01*
G01*
X148490000Y-92510000D02*
G75*
G02*
X151230000Y-92510000I1370000J0D01*
G01*
%TO.C,R2*%
X165585000Y-92450000D02*
X165655000Y-92450000D01*
X165585000Y-92450000D02*
G75*
G02*
X162845000Y-92450000I-1370000J0D01*
G01*
X162845000Y-92450000D02*
G75*
G02*
X165585000Y-92450000I1370000J0D01*
G01*
%TO.C,D2*%
X156490000Y-84060000D02*
X157510000Y-84060000D01*
X157510000Y-82590000D02*
X157510000Y-85530000D01*
X157510000Y-85530000D02*
X162950000Y-85530000D01*
X161930000Y-85530000D02*
X161930000Y-82590000D01*
X162050000Y-85530000D02*
X162050000Y-82590000D01*
X162170000Y-85530000D02*
X162170000Y-82590000D01*
X162950000Y-82590000D02*
X157510000Y-82590000D01*
X162950000Y-85530000D02*
X162950000Y-82590000D01*
X163970000Y-84060000D02*
X162950000Y-84060000D01*
%TO.C,R1*%
X179785000Y-92420000D02*
X179855000Y-92420000D01*
X179785000Y-92420000D02*
G75*
G02*
X177045000Y-92420000I-1370000J0D01*
G01*
X177045000Y-92420000D02*
G75*
G02*
X179785000Y-92420000I1370000J0D01*
G01*
%TO.C,C6*%
X139565225Y-87155000D02*
X140065225Y-87155000D01*
X139815225Y-86905000D02*
X139815225Y-87405000D01*
X142370000Y-86050000D02*
X142370000Y-91210000D01*
X142410000Y-86050000D02*
X142410000Y-91210000D01*
X142450000Y-86051000D02*
X142450000Y-91209000D01*
X142490000Y-86052000D02*
X142490000Y-91208000D01*
X142530000Y-86054000D02*
X142530000Y-91206000D01*
X142570000Y-86057000D02*
X142570000Y-91203000D01*
X142610000Y-86061000D02*
X142610000Y-87590000D01*
X142610000Y-89670000D02*
X142610000Y-91199000D01*
X142650000Y-86065000D02*
X142650000Y-87590000D01*
X142650000Y-89670000D02*
X142650000Y-91195000D01*
X142690000Y-86069000D02*
X142690000Y-87590000D01*
X142690000Y-89670000D02*
X142690000Y-91191000D01*
X142730000Y-86074000D02*
X142730000Y-87590000D01*
X142730000Y-89670000D02*
X142730000Y-91186000D01*
X142770000Y-86080000D02*
X142770000Y-87590000D01*
X142770000Y-89670000D02*
X142770000Y-91180000D01*
X142810000Y-86087000D02*
X142810000Y-87590000D01*
X142810000Y-89670000D02*
X142810000Y-91173000D01*
X142850000Y-86094000D02*
X142850000Y-87590000D01*
X142850000Y-89670000D02*
X142850000Y-91166000D01*
X142890000Y-86102000D02*
X142890000Y-87590000D01*
X142890000Y-89670000D02*
X142890000Y-91158000D01*
X142930000Y-86110000D02*
X142930000Y-87590000D01*
X142930000Y-89670000D02*
X142930000Y-91150000D01*
X142970000Y-86119000D02*
X142970000Y-87590000D01*
X142970000Y-89670000D02*
X142970000Y-91141000D01*
X143010000Y-86129000D02*
X143010000Y-87590000D01*
X143010000Y-89670000D02*
X143010000Y-91131000D01*
X143050000Y-86139000D02*
X143050000Y-87590000D01*
X143050000Y-89670000D02*
X143050000Y-91121000D01*
X143091000Y-86150000D02*
X143091000Y-87590000D01*
X143091000Y-89670000D02*
X143091000Y-91110000D01*
X143131000Y-86162000D02*
X143131000Y-87590000D01*
X143131000Y-89670000D02*
X143131000Y-91098000D01*
X143171000Y-86175000D02*
X143171000Y-87590000D01*
X143171000Y-89670000D02*
X143171000Y-91085000D01*
X143211000Y-86188000D02*
X143211000Y-87590000D01*
X143211000Y-89670000D02*
X143211000Y-91072000D01*
X143251000Y-86202000D02*
X143251000Y-87590000D01*
X143251000Y-89670000D02*
X143251000Y-91058000D01*
X143291000Y-86216000D02*
X143291000Y-87590000D01*
X143291000Y-89670000D02*
X143291000Y-91044000D01*
X143331000Y-86232000D02*
X143331000Y-87590000D01*
X143331000Y-89670000D02*
X143331000Y-91028000D01*
X143371000Y-86248000D02*
X143371000Y-87590000D01*
X143371000Y-89670000D02*
X143371000Y-91012000D01*
X143411000Y-86265000D02*
X143411000Y-87590000D01*
X143411000Y-89670000D02*
X143411000Y-90995000D01*
X143451000Y-86282000D02*
X143451000Y-87590000D01*
X143451000Y-89670000D02*
X143451000Y-90978000D01*
X143491000Y-86301000D02*
X143491000Y-87590000D01*
X143491000Y-89670000D02*
X143491000Y-90959000D01*
X143531000Y-86320000D02*
X143531000Y-87590000D01*
X143531000Y-89670000D02*
X143531000Y-90940000D01*
X143571000Y-86340000D02*
X143571000Y-87590000D01*
X143571000Y-89670000D02*
X143571000Y-90920000D01*
X143611000Y-86362000D02*
X143611000Y-87590000D01*
X143611000Y-89670000D02*
X143611000Y-90898000D01*
X143651000Y-86383000D02*
X143651000Y-87590000D01*
X143651000Y-89670000D02*
X143651000Y-90877000D01*
X143691000Y-86406000D02*
X143691000Y-87590000D01*
X143691000Y-89670000D02*
X143691000Y-90854000D01*
X143731000Y-86430000D02*
X143731000Y-87590000D01*
X143731000Y-89670000D02*
X143731000Y-90830000D01*
X143771000Y-86455000D02*
X143771000Y-87590000D01*
X143771000Y-89670000D02*
X143771000Y-90805000D01*
X143811000Y-86481000D02*
X143811000Y-87590000D01*
X143811000Y-89670000D02*
X143811000Y-90779000D01*
X143851000Y-86508000D02*
X143851000Y-87590000D01*
X143851000Y-89670000D02*
X143851000Y-90752000D01*
X143891000Y-86535000D02*
X143891000Y-87590000D01*
X143891000Y-89670000D02*
X143891000Y-90725000D01*
X143931000Y-86565000D02*
X143931000Y-87590000D01*
X143931000Y-89670000D02*
X143931000Y-90695000D01*
X143971000Y-86595000D02*
X143971000Y-87590000D01*
X143971000Y-89670000D02*
X143971000Y-90665000D01*
X144011000Y-86626000D02*
X144011000Y-87590000D01*
X144011000Y-89670000D02*
X144011000Y-90634000D01*
X144051000Y-86659000D02*
X144051000Y-87590000D01*
X144051000Y-89670000D02*
X144051000Y-90601000D01*
X144091000Y-86693000D02*
X144091000Y-87590000D01*
X144091000Y-89670000D02*
X144091000Y-90567000D01*
X144131000Y-86729000D02*
X144131000Y-87590000D01*
X144131000Y-89670000D02*
X144131000Y-90531000D01*
X144171000Y-86766000D02*
X144171000Y-87590000D01*
X144171000Y-89670000D02*
X144171000Y-90494000D01*
X144211000Y-86804000D02*
X144211000Y-87590000D01*
X144211000Y-89670000D02*
X144211000Y-90456000D01*
X144251000Y-86845000D02*
X144251000Y-87590000D01*
X144251000Y-89670000D02*
X144251000Y-90415000D01*
X144291000Y-86887000D02*
X144291000Y-87590000D01*
X144291000Y-89670000D02*
X144291000Y-90373000D01*
X144331000Y-86931000D02*
X144331000Y-87590000D01*
X144331000Y-89670000D02*
X144331000Y-90329000D01*
X144371000Y-86977000D02*
X144371000Y-87590000D01*
X144371000Y-89670000D02*
X144371000Y-90283000D01*
X144411000Y-87025000D02*
X144411000Y-87590000D01*
X144411000Y-89670000D02*
X144411000Y-90235000D01*
X144451000Y-87076000D02*
X144451000Y-87590000D01*
X144451000Y-89670000D02*
X144451000Y-90184000D01*
X144491000Y-87130000D02*
X144491000Y-87590000D01*
X144491000Y-89670000D02*
X144491000Y-90130000D01*
X144531000Y-87187000D02*
X144531000Y-87590000D01*
X144531000Y-89670000D02*
X144531000Y-90073000D01*
X144571000Y-87247000D02*
X144571000Y-87590000D01*
X144571000Y-89670000D02*
X144571000Y-90013000D01*
X144611000Y-87311000D02*
X144611000Y-87590000D01*
X144611000Y-89670000D02*
X144611000Y-89949000D01*
X144651000Y-87379000D02*
X144651000Y-87590000D01*
X144651000Y-89670000D02*
X144651000Y-89881000D01*
X144691000Y-87452000D02*
X144691000Y-89808000D01*
X144731000Y-87532000D02*
X144731000Y-89728000D01*
X144771000Y-87619000D02*
X144771000Y-89641000D01*
X144811000Y-87715000D02*
X144811000Y-89545000D01*
X144851000Y-87825000D02*
X144851000Y-89435000D01*
X144891000Y-87953000D02*
X144891000Y-89307000D01*
X144931000Y-88112000D02*
X144931000Y-89148000D01*
X144971000Y-88346000D02*
X144971000Y-88914000D01*
X144990000Y-88630000D02*
G75*
G02*
X139750000Y-88630000I-2620000J0D01*
G01*
X139750000Y-88630000D02*
G75*
G02*
X144990000Y-88630000I2620000J0D01*
G01*
%TO.C,J3*%
X166190000Y-75140000D02*
X166190000Y-77640000D01*
X166190000Y-77640000D02*
X168690000Y-77640000D01*
X166490000Y-73320000D02*
X166490000Y-77340000D01*
X166490000Y-75030000D02*
X166990000Y-75030000D01*
X166490000Y-75840000D02*
X167490000Y-75840000D01*
X166490000Y-77340000D02*
X174210000Y-77340000D01*
X166990000Y-73820000D02*
X173710000Y-73820000D01*
X166990000Y-75030000D02*
X166990000Y-73820000D01*
X167490000Y-75840000D02*
X167490000Y-77340000D01*
X173210000Y-75840000D02*
X173210000Y-77340000D01*
X173710000Y-73820000D02*
X173710000Y-75030000D01*
X173710000Y-75030000D02*
X174210000Y-75030000D01*
X174210000Y-73320000D02*
X166490000Y-73320000D01*
X174210000Y-75840000D02*
X173210000Y-75840000D01*
X174210000Y-77340000D02*
X174210000Y-73320000D01*
%TD*%
M02*
