%TF.GenerationSoftware,KiCad,Pcbnew,8.0.4*%
%TF.CreationDate,2024-09-04T12:44:35+09:00*%
%TF.ProjectId,servo_supply,73657276-6f5f-4737-9570-706c792e6b69,rev?*%
%TF.SameCoordinates,Original*%
%TF.FileFunction,Soldermask,Bot*%
%TF.FilePolarity,Negative*%
%FSLAX46Y46*%
G04 Gerber Fmt 4.6, Leading zero omitted, Abs format (unit mm)*
G04 Created by KiCad (PCBNEW 8.0.4) date 2024-09-04 12:44:35*
%MOMM*%
%LPD*%
G01*
G04 APERTURE LIST*
G04 Aperture macros list*
%AMRoundRect*
0 Rectangle with rounded corners*
0 $1 Rounding radius*
0 $2 $3 $4 $5 $6 $7 $8 $9 X,Y pos of 4 corners*
0 Add a 4 corners polygon primitive as box body*
4,1,4,$2,$3,$4,$5,$6,$7,$8,$9,$2,$3,0*
0 Add four circle primitives for the rounded corners*
1,1,$1+$1,$2,$3*
1,1,$1+$1,$4,$5*
1,1,$1+$1,$6,$7*
1,1,$1+$1,$8,$9*
0 Add four rect primitives between the rounded corners*
20,1,$1+$1,$2,$3,$4,$5,0*
20,1,$1+$1,$4,$5,$6,$7,0*
20,1,$1+$1,$6,$7,$8,$9,0*
20,1,$1+$1,$8,$9,$2,$3,0*%
G04 Aperture macros list end*
%ADD10C,1.600000*%
%ADD11O,1.600000X1.600000*%
%ADD12R,1.600000X1.600000*%
%ADD13R,2.200000X2.200000*%
%ADD14O,2.200000X2.200000*%
%ADD15C,2.500000*%
%ADD16RoundRect,0.250000X-0.600000X-0.750000X0.600000X-0.750000X0.600000X0.750000X-0.600000X0.750000X0*%
%ADD17O,1.700000X2.000000*%
%ADD18RoundRect,0.375000X0.625000X0.375000X-0.625000X0.375000X-0.625000X-0.375000X0.625000X-0.375000X0*%
%ADD19RoundRect,0.500000X0.500000X1.400000X-0.500000X1.400000X-0.500000X-1.400000X0.500000X-1.400000X0*%
%ADD20R,3.800000X3.800000*%
%ADD21C,3.800000*%
G04 APERTURE END LIST*
D10*
%TO.C,R6*%
X152165000Y-89408000D03*
D11*
X149625000Y-89408000D03*
%TD*%
D12*
%TO.C,C2*%
X155174887Y-88560000D03*
D10*
X157674887Y-88560000D03*
%TD*%
%TO.C,R5*%
X166624000Y-89408000D03*
D11*
X164084000Y-89408000D03*
%TD*%
D13*
%TO.C,D3*%
X151300000Y-84080000D03*
D14*
X141140000Y-84080000D03*
%TD*%
D15*
%TO.C,REF\u002A\u002A*%
X140300000Y-107100000D03*
%TD*%
%TO.C,REF\u002A\u002A*%
X180900000Y-75000000D03*
%TD*%
D10*
%TO.C,R4*%
X180848000Y-89370000D03*
D11*
X178308000Y-89370000D03*
%TD*%
D12*
%TO.C,C4*%
X169344888Y-88560000D03*
D10*
X171844888Y-88560000D03*
%TD*%
D15*
%TO.C,REF\u002A\u002A*%
X140300000Y-75000000D03*
%TD*%
D16*
%TO.C,J2*%
X152980000Y-75180000D03*
D17*
X155480000Y-75180000D03*
%TD*%
D15*
%TO.C,REF\u002A\u002A*%
X180800000Y-107100000D03*
%TD*%
D12*
%TO.C,C1*%
X177920000Y-95540000D03*
D10*
X177920000Y-98040000D03*
%TD*%
D12*
%TO.C,C3*%
X163800000Y-95524888D03*
D10*
X163800000Y-98024888D03*
%TD*%
D12*
%TO.C,C5*%
X149640000Y-95524888D03*
D10*
X149640000Y-98024888D03*
%TD*%
D13*
%TO.C,D1*%
X179324000Y-84074000D03*
D14*
X169164000Y-84074000D03*
%TD*%
D10*
%TO.C,R3*%
X149860000Y-92510000D03*
D11*
X152400000Y-92510000D03*
%TD*%
D10*
%TO.C,R2*%
X164215000Y-92450000D03*
D11*
X166755000Y-92450000D03*
%TD*%
D13*
%TO.C,D2*%
X165310000Y-84060000D03*
D14*
X155150000Y-84060000D03*
%TD*%
D10*
%TO.C,R1*%
X178415000Y-92420000D03*
D11*
X180955000Y-92420000D03*
%TD*%
D12*
%TO.C,C6*%
X141120000Y-88630000D03*
D10*
X143620000Y-88630000D03*
%TD*%
D16*
%TO.C,J3*%
X169100000Y-75030000D03*
D17*
X171600000Y-75030000D03*
%TD*%
D18*
%TO.C,U1*%
X175616000Y-90918000D03*
X175616000Y-93218000D03*
D19*
X169316000Y-93218000D03*
D18*
X175616000Y-95518000D03*
%TD*%
%TO.C,U2*%
X161494000Y-90918000D03*
X161494000Y-93218000D03*
D19*
X155194000Y-93218000D03*
D18*
X161494000Y-95518000D03*
%TD*%
D20*
%TO.C,J1*%
X161840000Y-105830000D03*
D21*
X156840000Y-105830000D03*
%TD*%
D18*
%TO.C,U3*%
X147422000Y-90918000D03*
X147422000Y-93218000D03*
D19*
X141122000Y-93218000D03*
D18*
X147422000Y-95518000D03*
%TD*%
M02*
