M48
; DRILL file {KiCad 8.0.4} date 2024-09-04T12:44:38+0900
; FORMAT={-:-/ absolute / inch / decimal}
; #@! TF.CreationDate,2024-09-04T12:44:38+09:00
; #@! TF.GenerationSoftware,Kicad,Pcbnew,8.0.4
; #@! TF.FileFunction,Plated,1,2,PTH
FMAT,2
INCH
; #@! TA.AperFunction,Plated,PTH,ViaDrill
T1C0.0118
; #@! TA.AperFunction,Plated,PTH,ComponentDrill
T2C0.0315
; #@! TA.AperFunction,Plated,PTH,ComponentDrill
T3C0.0394
; #@! TA.AperFunction,Plated,PTH,ComponentDrill
T4C0.0433
; #@! TA.AperFunction,Plated,PTH,ComponentDrill
T5C0.1063
%
G90
G05
T1
X6.05Y-3.9
X6.65Y-3.86
T2
X5.5559Y-3.4894
X5.6543Y-3.4894
X5.8907Y-3.52
X5.8913Y-3.7608
X5.8913Y-3.8592
X5.9Y-3.6421
X5.9907Y-3.52
X6.0Y-3.6421
X6.1092Y-3.4866
X6.2077Y-3.4866
X6.4488Y-3.7608
X6.4488Y-3.8592
X6.46Y-3.52
X6.4652Y-3.6398
X6.56Y-3.52
X6.5652Y-3.6398
X6.6671Y-3.4866
X6.7655Y-3.4866
X7.0047Y-3.7614
X7.0047Y-3.8598
X7.02Y-3.5185
X7.0242Y-3.6386
X7.12Y-3.5185
X7.1242Y-3.6386
T3
X6.0228Y-2.9598
X6.1213Y-2.9598
X6.6575Y-2.9539
X6.7559Y-2.9539
T4
X5.5567Y-3.3102
X5.9567Y-3.3102
X6.1083Y-3.3094
X6.5083Y-3.3094
X6.66Y-3.31
X7.06Y-3.31
T5
X6.1748Y-4.1665
X6.3717Y-4.1665
M30
