%TF.GenerationSoftware,KiCad,Pcbnew,8.0.4*%
%TF.CreationDate,2024-09-01T23:45:10+09:00*%
%TF.ProjectId,servo_supply,73657276-6f5f-4737-9570-706c792e6b69,rev?*%
%TF.SameCoordinates,Original*%
%TF.FileFunction,Copper,L2,Bot*%
%TF.FilePolarity,Positive*%
%FSLAX46Y46*%
G04 Gerber Fmt 4.6, Leading zero omitted, Abs format (unit mm)*
G04 Created by KiCad (PCBNEW 8.0.4) date 2024-09-01 23:45:10*
%MOMM*%
%LPD*%
G01*
G04 APERTURE LIST*
G04 Aperture macros list*
%AMRoundRect*
0 Rectangle with rounded corners*
0 $1 Rounding radius*
0 $2 $3 $4 $5 $6 $7 $8 $9 X,Y pos of 4 corners*
0 Add a 4 corners polygon primitive as box body*
4,1,4,$2,$3,$4,$5,$6,$7,$8,$9,$2,$3,0*
0 Add four circle primitives for the rounded corners*
1,1,$1+$1,$2,$3*
1,1,$1+$1,$4,$5*
1,1,$1+$1,$6,$7*
1,1,$1+$1,$8,$9*
0 Add four rect primitives between the rounded corners*
20,1,$1+$1,$2,$3,$4,$5,0*
20,1,$1+$1,$4,$5,$6,$7,0*
20,1,$1+$1,$6,$7,$8,$9,0*
20,1,$1+$1,$8,$9,$2,$3,0*%
G04 Aperture macros list end*
%TA.AperFunction,ComponentPad*%
%ADD10C,1.600000*%
%TD*%
%TA.AperFunction,ComponentPad*%
%ADD11O,1.600000X1.600000*%
%TD*%
%TA.AperFunction,ComponentPad*%
%ADD12R,1.600000X1.600000*%
%TD*%
%TA.AperFunction,ComponentPad*%
%ADD13R,2.200000X2.200000*%
%TD*%
%TA.AperFunction,ComponentPad*%
%ADD14O,2.200000X2.200000*%
%TD*%
%TA.AperFunction,ComponentPad*%
%ADD15RoundRect,0.250000X-0.600000X-0.750000X0.600000X-0.750000X0.600000X0.750000X-0.600000X0.750000X0*%
%TD*%
%TA.AperFunction,ComponentPad*%
%ADD16O,1.700000X2.000000*%
%TD*%
%TA.AperFunction,SMDPad,CuDef*%
%ADD17RoundRect,0.375000X0.625000X0.375000X-0.625000X0.375000X-0.625000X-0.375000X0.625000X-0.375000X0*%
%TD*%
%TA.AperFunction,SMDPad,CuDef*%
%ADD18RoundRect,0.500000X0.500000X1.400000X-0.500000X1.400000X-0.500000X-1.400000X0.500000X-1.400000X0*%
%TD*%
%TA.AperFunction,ComponentPad*%
%ADD19R,3.800000X3.800000*%
%TD*%
%TA.AperFunction,ComponentPad*%
%ADD20C,3.800000*%
%TD*%
%TA.AperFunction,ViaPad*%
%ADD21C,0.600000*%
%TD*%
%TA.AperFunction,Conductor*%
%ADD22C,1.500000*%
%TD*%
%TA.AperFunction,Conductor*%
%ADD23C,0.800000*%
%TD*%
G04 APERTURE END LIST*
D10*
%TO.P,R6,1*%
%TO.N,GND*%
X152165000Y-89408000D03*
D11*
%TO.P,R6,2*%
%TO.N,Net-(U3-ADJ)*%
X149625000Y-89408000D03*
%TD*%
D12*
%TO.P,C2,1*%
%TO.N,Net-(D2-A)*%
X155174887Y-88560000D03*
D10*
%TO.P,C2,2*%
%TO.N,GND*%
X157674887Y-88560000D03*
%TD*%
%TO.P,R5,1*%
%TO.N,GND*%
X166624000Y-89408000D03*
D11*
%TO.P,R5,2*%
%TO.N,Net-(U2-ADJ)*%
X164084000Y-89408000D03*
%TD*%
D13*
%TO.P,D3,1,K*%
%TO.N,+8V*%
X151300000Y-84080000D03*
D14*
%TO.P,D3,2,A*%
%TO.N,Net-(D3-A)*%
X141140000Y-84080000D03*
%TD*%
D10*
%TO.P,R4,1*%
%TO.N,GND*%
X180848000Y-89370000D03*
D11*
%TO.P,R4,2*%
%TO.N,Net-(U1-ADJ)*%
X178308000Y-89370000D03*
%TD*%
D12*
%TO.P,C4,1*%
%TO.N,Net-(D1-A)*%
X169344888Y-88560000D03*
D10*
%TO.P,C4,2*%
%TO.N,GND*%
X171844888Y-88560000D03*
%TD*%
D15*
%TO.P,J2,1,Pin_1*%
%TO.N,+8V*%
X152980000Y-75180000D03*
D16*
%TO.P,J2,2,Pin_2*%
%TO.N,GND*%
X155480000Y-75180000D03*
%TD*%
D12*
%TO.P,C1,1*%
%TO.N,+12V*%
X177920000Y-95540000D03*
D10*
%TO.P,C1,2*%
%TO.N,GND*%
X177920000Y-98040000D03*
%TD*%
D12*
%TO.P,C3,1*%
%TO.N,+12V*%
X163800000Y-95524888D03*
D10*
%TO.P,C3,2*%
%TO.N,GND*%
X163800000Y-98024888D03*
%TD*%
D12*
%TO.P,C5,1*%
%TO.N,+12V*%
X149640000Y-95524888D03*
D10*
%TO.P,C5,2*%
%TO.N,GND*%
X149640000Y-98024888D03*
%TD*%
D13*
%TO.P,D1,1,K*%
%TO.N,+8V*%
X179324000Y-84074000D03*
D14*
%TO.P,D1,2,A*%
%TO.N,Net-(D1-A)*%
X169164000Y-84074000D03*
%TD*%
D10*
%TO.P,R3,1*%
%TO.N,Net-(D3-A)*%
X149860000Y-92510000D03*
D11*
%TO.P,R3,2*%
%TO.N,Net-(U3-ADJ)*%
X152400000Y-92510000D03*
%TD*%
D10*
%TO.P,R2,1*%
%TO.N,Net-(D2-A)*%
X164215000Y-92450000D03*
D11*
%TO.P,R2,2*%
%TO.N,Net-(U2-ADJ)*%
X166755000Y-92450000D03*
%TD*%
D13*
%TO.P,D2,1,K*%
%TO.N,+8V*%
X165310000Y-84060000D03*
D14*
%TO.P,D2,2,A*%
%TO.N,Net-(D2-A)*%
X155150000Y-84060000D03*
%TD*%
D10*
%TO.P,R1,1*%
%TO.N,Net-(D1-A)*%
X178415000Y-92420000D03*
D11*
%TO.P,R1,2*%
%TO.N,Net-(U1-ADJ)*%
X180955000Y-92420000D03*
%TD*%
D12*
%TO.P,C6,1*%
%TO.N,Net-(D3-A)*%
X141120000Y-88630000D03*
D10*
%TO.P,C6,2*%
%TO.N,GND*%
X143620000Y-88630000D03*
%TD*%
D15*
%TO.P,J3,1,Pin_1*%
%TO.N,+8V*%
X169100000Y-75030000D03*
D16*
%TO.P,J3,2,Pin_2*%
%TO.N,GND*%
X171600000Y-75030000D03*
%TD*%
D17*
%TO.P,U1,1,ADJ*%
%TO.N,Net-(U1-ADJ)*%
X175616000Y-90918000D03*
%TO.P,U1,2,VO*%
%TO.N,Net-(D1-A)*%
X175616000Y-93218000D03*
D18*
X169316000Y-93218000D03*
D17*
%TO.P,U1,3,VI*%
%TO.N,+12V*%
X175616000Y-95518000D03*
%TD*%
%TO.P,U2,1,ADJ*%
%TO.N,Net-(U2-ADJ)*%
X161494000Y-90918000D03*
%TO.P,U2,2,VO*%
%TO.N,Net-(D2-A)*%
X161494000Y-93218000D03*
D18*
X155194000Y-93218000D03*
D17*
%TO.P,U2,3,VI*%
%TO.N,+12V*%
X161494000Y-95518000D03*
%TD*%
D19*
%TO.P,J1,1,Pin_1*%
%TO.N,GND*%
X161840000Y-105830000D03*
D20*
%TO.P,J1,2,Pin_2*%
%TO.N,+12V*%
X156840000Y-105830000D03*
%TD*%
D17*
%TO.P,U3,1,ADJ*%
%TO.N,Net-(U3-ADJ)*%
X147422000Y-90918000D03*
%TO.P,U3,2,VO*%
%TO.N,Net-(D3-A)*%
X147422000Y-93218000D03*
D18*
X141122000Y-93218000D03*
D17*
%TO.P,U3,3,VI*%
%TO.N,+12V*%
X147422000Y-95518000D03*
%TD*%
D21*
%TO.N,GND*%
X153670000Y-99060000D03*
X168910000Y-98044000D03*
%TD*%
D22*
%TO.N,+12V*%
X154152995Y-105830000D02*
X147422000Y-99099005D01*
D23*
X175638000Y-95540000D02*
X175616000Y-95518000D01*
D22*
X156840000Y-105830000D02*
X156840000Y-103142995D01*
D23*
X161500888Y-95524888D02*
X161494000Y-95518000D01*
D22*
X147422000Y-99099005D02*
X147422000Y-95518000D01*
X156840000Y-100172000D02*
X161494000Y-95518000D01*
X158872995Y-101110000D02*
X173060000Y-101110000D01*
D23*
X163800000Y-95524888D02*
X161500888Y-95524888D01*
D22*
X156840000Y-103142995D02*
X158872995Y-101110000D01*
X156840000Y-105830000D02*
X156840000Y-100172000D01*
X175616000Y-98554000D02*
X175616000Y-95518000D01*
D23*
X147428888Y-95524888D02*
X147422000Y-95518000D01*
X163576000Y-95504000D02*
X163596888Y-95524888D01*
D22*
X156840000Y-105830000D02*
X154152995Y-105830000D01*
D23*
X149640000Y-95524888D02*
X147428888Y-95524888D01*
X163800000Y-95524888D02*
X163596888Y-95524888D01*
D22*
X173060000Y-101110000D02*
X175616000Y-98554000D01*
D23*
X177920000Y-95540000D02*
X175638000Y-95540000D01*
%TO.N,Net-(D2-A)*%
X161494000Y-93218000D02*
X163447000Y-93218000D01*
X163447000Y-93218000D02*
X164215000Y-92450000D01*
D22*
X155174887Y-88560000D02*
X155174887Y-84084887D01*
X155174887Y-84084887D02*
X155150000Y-84060000D01*
X155194000Y-88579113D02*
X155174887Y-88560000D01*
X155194000Y-93218000D02*
X155194000Y-88579113D01*
%TO.N,Net-(D1-A)*%
X169316000Y-88588888D02*
X169344888Y-88560000D01*
X169344888Y-88560000D02*
X169344888Y-84254888D01*
D23*
X177617000Y-93218000D02*
X178415000Y-92420000D01*
D22*
X169344888Y-84254888D02*
X169120000Y-84030000D01*
D23*
X175616000Y-93218000D02*
X177617000Y-93218000D01*
D22*
X169120000Y-84030000D02*
X168820000Y-84030000D01*
X169316000Y-93218000D02*
X169316000Y-88588888D01*
D23*
%TO.N,Net-(D3-A)*%
X147422000Y-93218000D02*
X149152000Y-93218000D01*
D22*
X141122000Y-88632000D02*
X141120000Y-88630000D01*
X141122000Y-93218000D02*
X141122000Y-88632000D01*
X141120000Y-84100000D02*
X141140000Y-84080000D01*
X141120000Y-88630000D02*
X141120000Y-84100000D01*
D23*
X149152000Y-93218000D02*
X149860000Y-92510000D01*
%TO.N,Net-(U1-ADJ)*%
X177965000Y-89430000D02*
X178222000Y-89430000D01*
X176880000Y-89370000D02*
X177965000Y-89370000D01*
X178222000Y-89430000D02*
X180955000Y-92163000D01*
X176870000Y-89360000D02*
X176880000Y-89370000D01*
X180955000Y-92163000D02*
X180955000Y-92420000D01*
X175616000Y-90614000D02*
X176870000Y-89360000D01*
X175616000Y-90918000D02*
X175616000Y-90614000D01*
%TO.N,Net-(U2-ADJ)*%
X163802000Y-89380000D02*
X163032000Y-89380000D01*
X163032000Y-89380000D02*
X161494000Y-90918000D01*
X166755000Y-92333000D02*
X163802000Y-89380000D01*
X166755000Y-92450000D02*
X166755000Y-92333000D01*
%TO.N,Net-(U3-ADJ)*%
X152620000Y-92510000D02*
X152336500Y-92510000D01*
X148890000Y-89450000D02*
X147422000Y-90918000D01*
X152336500Y-92510000D02*
X149276500Y-89450000D01*
X149276500Y-89450000D02*
X148890000Y-89450000D01*
D22*
%TO.N,+8V*%
X159920000Y-75030000D02*
X169100000Y-75030000D01*
X151300000Y-76860000D02*
X152980000Y-75180000D01*
X175235000Y-80285000D02*
X157085000Y-80285000D01*
X151300000Y-83650000D02*
X159920000Y-75030000D01*
X169100000Y-75030000D02*
X169100000Y-76030000D01*
X169100000Y-76030000D02*
X177144000Y-84074000D01*
X151300000Y-84080000D02*
X151300000Y-76860000D01*
X165310000Y-78820000D02*
X169100000Y-75030000D01*
X157085000Y-80285000D02*
X160860000Y-84060000D01*
X151300000Y-84080000D02*
X151300000Y-83650000D01*
X152980000Y-76180000D02*
X157085000Y-80285000D01*
X165310000Y-84060000D02*
X165310000Y-78820000D01*
X160860000Y-84060000D02*
X165310000Y-84060000D01*
X152980000Y-75180000D02*
X152980000Y-76180000D01*
%TD*%
%TA.AperFunction,Conductor*%
%TO.N,+8V*%
G36*
X167657555Y-75819386D02*
G01*
X167720342Y-75850032D01*
X167756595Y-75909760D01*
X167760119Y-75929025D01*
X167760494Y-75932697D01*
X167815641Y-76099119D01*
X167815643Y-76099124D01*
X167907684Y-76248345D01*
X168031654Y-76372315D01*
X168180875Y-76464356D01*
X168180880Y-76464358D01*
X168347302Y-76519505D01*
X168347309Y-76519506D01*
X168450019Y-76529999D01*
X168849999Y-76529999D01*
X168850000Y-76529998D01*
X168850000Y-76276105D01*
X172883286Y-79248000D01*
X173203987Y-79484306D01*
X173241339Y-79528678D01*
X173897157Y-80840314D01*
X173909532Y-80909079D01*
X173882764Y-80973618D01*
X173825354Y-81013440D01*
X173782492Y-81019711D01*
X165880482Y-80780257D01*
X165608000Y-80772000D01*
X165607999Y-80772000D01*
X165373000Y-82416999D01*
X165216031Y-83515776D01*
X165097708Y-83547482D01*
X165060000Y-83569252D01*
X165060000Y-82460000D01*
X164162155Y-82460000D01*
X164102627Y-82466401D01*
X164102620Y-82466403D01*
X163967913Y-82516645D01*
X163967906Y-82516649D01*
X163852812Y-82602809D01*
X163852809Y-82602812D01*
X163766649Y-82717906D01*
X163766645Y-82717913D01*
X163716403Y-82852620D01*
X163716401Y-82852627D01*
X163710000Y-82912155D01*
X163710000Y-83949955D01*
X163690315Y-84016994D01*
X163637511Y-84062749D01*
X163568353Y-84072693D01*
X163565615Y-84072268D01*
X160561807Y-83571634D01*
X160501884Y-83543801D01*
X155448001Y-79248000D01*
X155447999Y-79247999D01*
X152031347Y-81200372D01*
X151963374Y-81216542D01*
X151897450Y-81193396D01*
X151854504Y-81138283D01*
X151850122Y-81125065D01*
X150635722Y-76632160D01*
X150637232Y-76562308D01*
X150676268Y-76504360D01*
X150735038Y-76477493D01*
X152359941Y-76206676D01*
X152429301Y-76215072D01*
X152436227Y-76218306D01*
X155400000Y-77716000D01*
X157700000Y-76700000D01*
X159854695Y-74545304D01*
X159916016Y-74511821D01*
X159963160Y-74510742D01*
X167657555Y-75819386D01*
G37*
%TD.AperFunction*%
%TD*%
%TA.AperFunction,Conductor*%
%TO.N,GND*%
G36*
X151197865Y-93053348D02*
G01*
X151242382Y-93104725D01*
X151269429Y-93162728D01*
X151269432Y-93162734D01*
X151399954Y-93349141D01*
X151560858Y-93510045D01*
X151560861Y-93510047D01*
X151747266Y-93640568D01*
X151953504Y-93736739D01*
X152173308Y-93795635D01*
X152335230Y-93809801D01*
X152399998Y-93815468D01*
X152400000Y-93815468D01*
X152400002Y-93815468D01*
X152456673Y-93810509D01*
X152626692Y-93795635D01*
X152846496Y-93736739D01*
X153052734Y-93640568D01*
X153239139Y-93510047D01*
X153400047Y-93349139D01*
X153467926Y-93252195D01*
X153522501Y-93208572D01*
X153591999Y-93201378D01*
X153654354Y-93232900D01*
X153689769Y-93293129D01*
X153693500Y-93323320D01*
X153693500Y-94676028D01*
X153693501Y-94676034D01*
X153704113Y-94795415D01*
X153760089Y-94991045D01*
X153760090Y-94991048D01*
X153760091Y-94991049D01*
X153854302Y-95171407D01*
X153854304Y-95171409D01*
X153982890Y-95329109D01*
X154063869Y-95395138D01*
X154140593Y-95457698D01*
X154320951Y-95551909D01*
X154516582Y-95607886D01*
X154635963Y-95618500D01*
X155752036Y-95618499D01*
X155871418Y-95607886D01*
X156067049Y-95551909D01*
X156247407Y-95457698D01*
X156261639Y-95446092D01*
X156326035Y-95418984D01*
X156394865Y-95430993D01*
X156446275Y-95478308D01*
X156464000Y-95542195D01*
X156464000Y-96774000D01*
X158170164Y-96774000D01*
X158237203Y-96793685D01*
X158282958Y-96846489D01*
X158292902Y-96915647D01*
X158263877Y-96979203D01*
X158257845Y-96985681D01*
X155886174Y-99357351D01*
X155886174Y-99357352D01*
X155886172Y-99357354D01*
X155861123Y-99391831D01*
X155770476Y-99516594D01*
X155681117Y-99691969D01*
X155620290Y-99879173D01*
X155589500Y-100073577D01*
X155589500Y-103708179D01*
X155569815Y-103775218D01*
X155538385Y-103808497D01*
X155306846Y-103976719D01*
X155306836Y-103976727D01*
X155086652Y-104183494D01*
X154894111Y-104416236D01*
X154827029Y-104521942D01*
X154774487Y-104567998D01*
X154722332Y-104579500D01*
X154722331Y-104579500D01*
X154655292Y-104559815D01*
X154634650Y-104543181D01*
X148708819Y-98617350D01*
X148675334Y-98556027D01*
X148672500Y-98529669D01*
X148672500Y-96949387D01*
X148692185Y-96882348D01*
X148744989Y-96836593D01*
X148796495Y-96825387D01*
X150487872Y-96825387D01*
X150547483Y-96818979D01*
X150682331Y-96768684D01*
X150797546Y-96682434D01*
X150883796Y-96567219D01*
X150934091Y-96432371D01*
X150940500Y-96372761D01*
X150940499Y-94677016D01*
X150934091Y-94617405D01*
X150889432Y-94497669D01*
X150883797Y-94482559D01*
X150883793Y-94482552D01*
X150797547Y-94367343D01*
X150797544Y-94367340D01*
X150682335Y-94281094D01*
X150682328Y-94281090D01*
X150547482Y-94230796D01*
X150547483Y-94230796D01*
X150487883Y-94224389D01*
X150487881Y-94224388D01*
X150487873Y-94224388D01*
X150487865Y-94224388D01*
X149675463Y-94224388D01*
X149608424Y-94204703D01*
X149562669Y-94151899D01*
X149552725Y-94082741D01*
X149581750Y-94019185D01*
X149606564Y-93997291D01*
X149666959Y-93956936D01*
X149726036Y-93917464D01*
X149793052Y-93850446D01*
X149854374Y-93816961D01*
X149869919Y-93814600D01*
X150086692Y-93795635D01*
X150306496Y-93736739D01*
X150512734Y-93640568D01*
X150699139Y-93510047D01*
X150860047Y-93349139D01*
X150990568Y-93162734D01*
X151017618Y-93104724D01*
X151063790Y-93052285D01*
X151130983Y-93033133D01*
X151197865Y-93053348D01*
G37*
%TD.AperFunction*%
%TA.AperFunction,Conductor*%
G36*
X165552865Y-92993348D02*
G01*
X165597382Y-93044725D01*
X165624429Y-93102728D01*
X165624432Y-93102734D01*
X165754954Y-93289141D01*
X165915858Y-93450045D01*
X165915861Y-93450047D01*
X166102266Y-93580568D01*
X166308504Y-93676739D01*
X166528308Y-93735635D01*
X166690230Y-93749801D01*
X166754998Y-93755468D01*
X166755000Y-93755468D01*
X166755002Y-93755468D01*
X166811673Y-93750509D01*
X166981692Y-93735635D01*
X167201496Y-93676739D01*
X167407734Y-93580568D01*
X167594139Y-93450047D01*
X167603816Y-93440370D01*
X167665137Y-93406883D01*
X167734829Y-93411865D01*
X167790764Y-93453734D01*
X167815184Y-93519197D01*
X167815500Y-93528048D01*
X167815500Y-94676028D01*
X167815501Y-94676034D01*
X167826113Y-94795415D01*
X167882089Y-94991045D01*
X167882090Y-94991048D01*
X167882091Y-94991049D01*
X167976302Y-95171407D01*
X167976304Y-95171409D01*
X168104890Y-95329109D01*
X168185869Y-95395138D01*
X168262593Y-95457698D01*
X168442951Y-95551909D01*
X168638582Y-95607886D01*
X168757963Y-95618500D01*
X169874036Y-95618499D01*
X169993418Y-95607886D01*
X170189049Y-95551909D01*
X170252588Y-95518718D01*
X170321123Y-95505127D01*
X170386126Y-95530746D01*
X170426960Y-95587441D01*
X170434000Y-95628627D01*
X170434000Y-96774000D01*
X174241500Y-96774000D01*
X174308539Y-96793685D01*
X174354294Y-96846489D01*
X174365500Y-96898000D01*
X174365500Y-97984664D01*
X174345815Y-98051703D01*
X174329181Y-98072345D01*
X172578345Y-99823181D01*
X172517022Y-99856666D01*
X172490664Y-99859500D01*
X159220336Y-99859500D01*
X159153297Y-99839815D01*
X159107542Y-99787011D01*
X159097598Y-99717853D01*
X159126623Y-99654297D01*
X159132655Y-99647819D01*
X161975655Y-96804818D01*
X162036978Y-96771333D01*
X162063336Y-96768499D01*
X162195123Y-96768499D01*
X162195123Y-96768498D01*
X162237889Y-96765600D01*
X162422693Y-96719641D01*
X162516438Y-96673147D01*
X162585241Y-96660996D01*
X162645840Y-96684968D01*
X162757421Y-96768498D01*
X162757668Y-96768683D01*
X162757671Y-96768685D01*
X162892517Y-96818979D01*
X162892516Y-96818979D01*
X162899444Y-96819723D01*
X162952127Y-96825388D01*
X164647872Y-96825387D01*
X164707483Y-96818979D01*
X164842331Y-96768684D01*
X164957546Y-96682434D01*
X165043796Y-96567219D01*
X165094091Y-96432371D01*
X165100500Y-96372761D01*
X165100499Y-94677016D01*
X165094091Y-94617405D01*
X165049432Y-94497669D01*
X165043797Y-94482559D01*
X165043793Y-94482552D01*
X164957547Y-94367343D01*
X164957544Y-94367340D01*
X164842335Y-94281094D01*
X164842328Y-94281090D01*
X164707482Y-94230796D01*
X164707483Y-94230796D01*
X164647883Y-94224389D01*
X164647881Y-94224388D01*
X164647873Y-94224388D01*
X164647865Y-94224388D01*
X163970463Y-94224388D01*
X163903424Y-94204703D01*
X163857669Y-94151899D01*
X163847725Y-94082741D01*
X163876750Y-94019185D01*
X163901564Y-93997291D01*
X163961959Y-93956936D01*
X164021036Y-93917464D01*
X164148054Y-93790444D01*
X164209375Y-93756961D01*
X164224919Y-93754600D01*
X164441692Y-93735635D01*
X164661496Y-93676739D01*
X164867734Y-93580568D01*
X165054139Y-93450047D01*
X165215047Y-93289139D01*
X165345568Y-93102734D01*
X165372618Y-93044724D01*
X165418790Y-92992285D01*
X165485983Y-92973133D01*
X165552865Y-92993348D01*
G37*
%TD.AperFunction*%
%TA.AperFunction,Conductor*%
G36*
X180703736Y-72700726D02*
G01*
X180993796Y-72718271D01*
X181008659Y-72720076D01*
X181290798Y-72771780D01*
X181305335Y-72775363D01*
X181579172Y-72860695D01*
X181593163Y-72866000D01*
X181854743Y-72983727D01*
X181867989Y-72990680D01*
X182113465Y-73139075D01*
X182125776Y-73147573D01*
X182351573Y-73324473D01*
X182362781Y-73334403D01*
X182565596Y-73537218D01*
X182575526Y-73548426D01*
X182729677Y-73745186D01*
X182752422Y-73774217D01*
X182760926Y-73786537D01*
X182866076Y-73960476D01*
X182909316Y-74032004D01*
X182916275Y-74045263D01*
X183033997Y-74306831D01*
X183039306Y-74320832D01*
X183124635Y-74594663D01*
X183128219Y-74609201D01*
X183179923Y-74891340D01*
X183181728Y-74906205D01*
X183199274Y-75196263D01*
X183199500Y-75203750D01*
X183199500Y-106996249D01*
X183199274Y-107003736D01*
X183181728Y-107293794D01*
X183179923Y-107308659D01*
X183128219Y-107590798D01*
X183124635Y-107605336D01*
X183039306Y-107879167D01*
X183033997Y-107893168D01*
X182916275Y-108154736D01*
X182909316Y-108167995D01*
X182760928Y-108413459D01*
X182752422Y-108425782D01*
X182575526Y-108651573D01*
X182565596Y-108662781D01*
X182362781Y-108865596D01*
X182351573Y-108875526D01*
X182125782Y-109052422D01*
X182113459Y-109060928D01*
X181867995Y-109209316D01*
X181854736Y-109216275D01*
X181593168Y-109333997D01*
X181579167Y-109339306D01*
X181305336Y-109424635D01*
X181290798Y-109428219D01*
X181008659Y-109479923D01*
X180993794Y-109481728D01*
X180703736Y-109499274D01*
X180696249Y-109499500D01*
X140403751Y-109499500D01*
X140396264Y-109499274D01*
X140106205Y-109481728D01*
X140091340Y-109479923D01*
X139809201Y-109428219D01*
X139794663Y-109424635D01*
X139520832Y-109339306D01*
X139506831Y-109333997D01*
X139245263Y-109216275D01*
X139232004Y-109209316D01*
X138986540Y-109060928D01*
X138974217Y-109052422D01*
X138748426Y-108875526D01*
X138737218Y-108865596D01*
X138534403Y-108662781D01*
X138524473Y-108651573D01*
X138455514Y-108563553D01*
X138347573Y-108425776D01*
X138339075Y-108413465D01*
X138190680Y-108167989D01*
X138183727Y-108154743D01*
X138066000Y-107893163D01*
X138060693Y-107879167D01*
X138054974Y-107860815D01*
X137975363Y-107605335D01*
X137971780Y-107590798D01*
X137920076Y-107308659D01*
X137918271Y-107293794D01*
X137900726Y-107003736D01*
X137900500Y-106996249D01*
X137900500Y-106981902D01*
X138799500Y-106981902D01*
X138799500Y-107218097D01*
X138836446Y-107451368D01*
X138909433Y-107675996D01*
X138998897Y-107851578D01*
X139016657Y-107886433D01*
X139155483Y-108077510D01*
X139322490Y-108244517D01*
X139513567Y-108383343D01*
X139572673Y-108413459D01*
X139724003Y-108490566D01*
X139724005Y-108490566D01*
X139724008Y-108490568D01*
X139844412Y-108529689D01*
X139948631Y-108563553D01*
X140181903Y-108600500D01*
X140181908Y-108600500D01*
X140418097Y-108600500D01*
X140651368Y-108563553D01*
X140875992Y-108490568D01*
X141086433Y-108383343D01*
X141277510Y-108244517D01*
X141444517Y-108077510D01*
X141583343Y-107886433D01*
X141690568Y-107675992D01*
X141763553Y-107451368D01*
X141786156Y-107308659D01*
X141800500Y-107218097D01*
X141800500Y-106981902D01*
X141763553Y-106748631D01*
X141690566Y-106524003D01*
X141583342Y-106313566D01*
X141444517Y-106122490D01*
X141277510Y-105955483D01*
X141086433Y-105816657D01*
X140875996Y-105709433D01*
X140651368Y-105636446D01*
X140418097Y-105599500D01*
X140418092Y-105599500D01*
X140181908Y-105599500D01*
X140181903Y-105599500D01*
X139948631Y-105636446D01*
X139724003Y-105709433D01*
X139513566Y-105816657D01*
X139404550Y-105895862D01*
X139322490Y-105955483D01*
X139322488Y-105955485D01*
X139322487Y-105955485D01*
X139155485Y-106122487D01*
X139155485Y-106122488D01*
X139155483Y-106122490D01*
X139095862Y-106204550D01*
X139016657Y-106313566D01*
X138909433Y-106524003D01*
X138836446Y-106748631D01*
X138799500Y-106981902D01*
X137900500Y-106981902D01*
X137900500Y-84080000D01*
X139534551Y-84080000D01*
X139554317Y-84331151D01*
X139613126Y-84576110D01*
X139709533Y-84808859D01*
X139841160Y-85023653D01*
X139844024Y-85027595D01*
X139842700Y-85028556D01*
X139868357Y-85085787D01*
X139869500Y-85102581D01*
X139869500Y-87583271D01*
X139861682Y-87626604D01*
X139825908Y-87722517D01*
X139819501Y-87782116D01*
X139819501Y-87782123D01*
X139819500Y-87782135D01*
X139819500Y-89477870D01*
X139819501Y-89477876D01*
X139825908Y-89537483D01*
X139863682Y-89638757D01*
X139871500Y-89682090D01*
X139871500Y-91111053D01*
X139851815Y-91178092D01*
X139843602Y-91189413D01*
X139782305Y-91264587D01*
X139688089Y-91444954D01*
X139649203Y-91580858D01*
X139635984Y-91627059D01*
X139632114Y-91640583D01*
X139632113Y-91640586D01*
X139621500Y-91759966D01*
X139621500Y-94676028D01*
X139621501Y-94676034D01*
X139632113Y-94795415D01*
X139688089Y-94991045D01*
X139688090Y-94991048D01*
X139688091Y-94991049D01*
X139782302Y-95171407D01*
X139782304Y-95171409D01*
X139910890Y-95329109D01*
X139991869Y-95395138D01*
X140068593Y-95457698D01*
X140248951Y-95551909D01*
X140444582Y-95607886D01*
X140563963Y-95618500D01*
X141680036Y-95618499D01*
X141799418Y-95607886D01*
X141995049Y-95551909D01*
X142175407Y-95457698D01*
X142291639Y-95362922D01*
X142356035Y-95335814D01*
X142424865Y-95347823D01*
X142476276Y-95395138D01*
X142494000Y-95459025D01*
X142494000Y-96774000D01*
X146047500Y-96774000D01*
X146114539Y-96793685D01*
X146160294Y-96846489D01*
X146171500Y-96898000D01*
X146171500Y-99197427D01*
X146202290Y-99391831D01*
X146263117Y-99579035D01*
X146320663Y-99691974D01*
X146352476Y-99754410D01*
X146468172Y-99913651D01*
X153199166Y-106644645D01*
X153199167Y-106644646D01*
X153338349Y-106783828D01*
X153497590Y-106899524D01*
X153672970Y-106988884D01*
X153672974Y-106988886D01*
X153757218Y-107016258D01*
X153799341Y-107029944D01*
X153799342Y-107029945D01*
X153799343Y-107029945D01*
X153860168Y-107049709D01*
X153933071Y-107061255D01*
X154054573Y-107080500D01*
X154054578Y-107080500D01*
X154722332Y-107080500D01*
X154789371Y-107100185D01*
X154827029Y-107138058D01*
X154894111Y-107243763D01*
X154894114Y-107243767D01*
X154894115Y-107243768D01*
X155086651Y-107476504D01*
X155299083Y-107675992D01*
X155306836Y-107683272D01*
X155306846Y-107683280D01*
X155551193Y-107860808D01*
X155551198Y-107860810D01*
X155551205Y-107860816D01*
X155815896Y-108006332D01*
X155815901Y-108006334D01*
X155815903Y-108006335D01*
X155815904Y-108006336D01*
X156096734Y-108117524D01*
X156096737Y-108117525D01*
X156194259Y-108142564D01*
X156389302Y-108192642D01*
X156536039Y-108211179D01*
X156688963Y-108230499D01*
X156688969Y-108230499D01*
X156688973Y-108230500D01*
X156688975Y-108230500D01*
X156991025Y-108230500D01*
X156991027Y-108230500D01*
X156991032Y-108230499D01*
X156991036Y-108230499D01*
X157070591Y-108220448D01*
X157290698Y-108192642D01*
X157583262Y-108117525D01*
X157583265Y-108117524D01*
X157864095Y-108006336D01*
X157864096Y-108006335D01*
X157864094Y-108006335D01*
X157864104Y-108006332D01*
X158128795Y-107860816D01*
X158373162Y-107683274D01*
X158593349Y-107476504D01*
X158785885Y-107243768D01*
X158947733Y-106988736D01*
X158950949Y-106981902D01*
X179299500Y-106981902D01*
X179299500Y-107218097D01*
X179336446Y-107451368D01*
X179409433Y-107675996D01*
X179498897Y-107851578D01*
X179516657Y-107886433D01*
X179655483Y-108077510D01*
X179822490Y-108244517D01*
X180013567Y-108383343D01*
X180072673Y-108413459D01*
X180224003Y-108490566D01*
X180224005Y-108490566D01*
X180224008Y-108490568D01*
X180344412Y-108529689D01*
X180448631Y-108563553D01*
X180681903Y-108600500D01*
X180681908Y-108600500D01*
X180918097Y-108600500D01*
X181151368Y-108563553D01*
X181375992Y-108490568D01*
X181586433Y-108383343D01*
X181777510Y-108244517D01*
X181944517Y-108077510D01*
X182083343Y-107886433D01*
X182190568Y-107675992D01*
X182263553Y-107451368D01*
X182286156Y-107308659D01*
X182300500Y-107218097D01*
X182300500Y-106981902D01*
X182263553Y-106748631D01*
X182190566Y-106524003D01*
X182083342Y-106313566D01*
X181944517Y-106122490D01*
X181777510Y-105955483D01*
X181586433Y-105816657D01*
X181375996Y-105709433D01*
X181151368Y-105636446D01*
X180918097Y-105599500D01*
X180918092Y-105599500D01*
X180681908Y-105599500D01*
X180681903Y-105599500D01*
X180448631Y-105636446D01*
X180224003Y-105709433D01*
X180013566Y-105816657D01*
X179904550Y-105895862D01*
X179822490Y-105955483D01*
X179822488Y-105955485D01*
X179822487Y-105955485D01*
X179655485Y-106122487D01*
X179655485Y-106122488D01*
X179655483Y-106122490D01*
X179595862Y-106204550D01*
X179516657Y-106313566D01*
X179409433Y-106524003D01*
X179336446Y-106748631D01*
X179299500Y-106981902D01*
X158950949Y-106981902D01*
X159076341Y-106715430D01*
X159169681Y-106428160D01*
X159226280Y-106131457D01*
X159226844Y-106122490D01*
X159245246Y-105830005D01*
X159245246Y-105829994D01*
X159226281Y-105528553D01*
X159226280Y-105528546D01*
X159226280Y-105528543D01*
X159169681Y-105231840D01*
X159076341Y-104944570D01*
X158947733Y-104671264D01*
X158889498Y-104579500D01*
X158785888Y-104416236D01*
X158593347Y-104183494D01*
X158373163Y-103976727D01*
X158373153Y-103976719D01*
X158144019Y-103810244D01*
X158101353Y-103754914D01*
X158095374Y-103685301D01*
X158127979Y-103623506D01*
X158129149Y-103622319D01*
X159354650Y-102396819D01*
X159415973Y-102363334D01*
X159442331Y-102360500D01*
X173158422Y-102360500D01*
X173352826Y-102329709D01*
X173540026Y-102268884D01*
X173715405Y-102179524D01*
X173874646Y-102063828D01*
X176569828Y-99368646D01*
X176685524Y-99209405D01*
X176774884Y-99034026D01*
X176835709Y-98846826D01*
X176866500Y-98652421D01*
X176866500Y-96956303D01*
X176886185Y-96889264D01*
X176938989Y-96843509D01*
X177004718Y-96834057D01*
X177004804Y-96833262D01*
X177007922Y-96833597D01*
X177008147Y-96833565D01*
X177008832Y-96833695D01*
X177021006Y-96835003D01*
X177072127Y-96840500D01*
X178767872Y-96840499D01*
X178827483Y-96834091D01*
X178962331Y-96783796D01*
X179077546Y-96697546D01*
X179163796Y-96582331D01*
X179214091Y-96447483D01*
X179220500Y-96387873D01*
X179220499Y-94692128D01*
X179214091Y-94632517D01*
X179208454Y-94617404D01*
X179163797Y-94497671D01*
X179163793Y-94497664D01*
X179077547Y-94382455D01*
X179077544Y-94382452D01*
X178962335Y-94296206D01*
X178962328Y-94296202D01*
X178827482Y-94245908D01*
X178827483Y-94245908D01*
X178767883Y-94239501D01*
X178767881Y-94239500D01*
X178767873Y-94239500D01*
X178767865Y-94239500D01*
X178117847Y-94239500D01*
X178050808Y-94219815D01*
X178005053Y-94167011D01*
X177995109Y-94097853D01*
X178024134Y-94034297D01*
X178048948Y-94012403D01*
X178131959Y-93956936D01*
X178191036Y-93917464D01*
X178348055Y-93760443D01*
X178409374Y-93726961D01*
X178424916Y-93724600D01*
X178641692Y-93705635D01*
X178861496Y-93646739D01*
X179067734Y-93550568D01*
X179254139Y-93420047D01*
X179415047Y-93259139D01*
X179545568Y-93072734D01*
X179572618Y-93014724D01*
X179618790Y-92962285D01*
X179685983Y-92943133D01*
X179752865Y-92963348D01*
X179797382Y-93014725D01*
X179824429Y-93072728D01*
X179824432Y-93072734D01*
X179954954Y-93259141D01*
X180115858Y-93420045D01*
X180158703Y-93450045D01*
X180302266Y-93550568D01*
X180508504Y-93646739D01*
X180728308Y-93705635D01*
X180890230Y-93719801D01*
X180954998Y-93725468D01*
X180955000Y-93725468D01*
X180955002Y-93725468D01*
X181011673Y-93720509D01*
X181181692Y-93705635D01*
X181401496Y-93646739D01*
X181607734Y-93550568D01*
X181794139Y-93420047D01*
X181955047Y-93259139D01*
X182085568Y-93072734D01*
X182181739Y-92866496D01*
X182240635Y-92646692D01*
X182260468Y-92420000D01*
X182240635Y-92193308D01*
X182181739Y-91973504D01*
X182085568Y-91767266D01*
X181955047Y-91580861D01*
X181955045Y-91580858D01*
X181794141Y-91419954D01*
X181607734Y-91289432D01*
X181607732Y-91289431D01*
X181401497Y-91193261D01*
X181401491Y-91193259D01*
X181238607Y-91149615D01*
X181183020Y-91117521D01*
X179640036Y-89574536D01*
X179606551Y-89513213D01*
X179604189Y-89476051D01*
X179613468Y-89370000D01*
X179593635Y-89143308D01*
X179544921Y-88961504D01*
X179534741Y-88923511D01*
X179534738Y-88923502D01*
X179456288Y-88755267D01*
X179438568Y-88717266D01*
X179308047Y-88530861D01*
X179308045Y-88530858D01*
X179147141Y-88369954D01*
X178960734Y-88239432D01*
X178960732Y-88239431D01*
X178754497Y-88143261D01*
X178754488Y-88143258D01*
X178534697Y-88084366D01*
X178534693Y-88084365D01*
X178534692Y-88084365D01*
X178534691Y-88084364D01*
X178534686Y-88084364D01*
X178308002Y-88064532D01*
X178307998Y-88064532D01*
X178081313Y-88084364D01*
X178081302Y-88084366D01*
X177861511Y-88143258D01*
X177861502Y-88143261D01*
X177655267Y-88239431D01*
X177655265Y-88239432D01*
X177468862Y-88369951D01*
X177437248Y-88401566D01*
X177405631Y-88433182D01*
X177344311Y-88466666D01*
X177317952Y-88469500D01*
X177021177Y-88469500D01*
X176996986Y-88467117D01*
X176981141Y-88463965D01*
X176958693Y-88459500D01*
X176958692Y-88459500D01*
X176781308Y-88459500D01*
X176781303Y-88459500D01*
X176607341Y-88494103D01*
X176607333Y-88494105D01*
X176443455Y-88561985D01*
X176295961Y-88660537D01*
X175325317Y-89631181D01*
X175263994Y-89664666D01*
X175237636Y-89667500D01*
X174914878Y-89667500D01*
X174914874Y-89667501D01*
X174872113Y-89670399D01*
X174872112Y-89670399D01*
X174687303Y-89716360D01*
X174516707Y-89800967D01*
X174516705Y-89800968D01*
X174445686Y-89858055D01*
X174381102Y-89884713D01*
X174312358Y-89872222D01*
X174261280Y-89824548D01*
X174244000Y-89761407D01*
X174244000Y-89661999D01*
X170698748Y-89898349D01*
X170630548Y-89883168D01*
X170581382Y-89833524D01*
X170566500Y-89774624D01*
X170566500Y-89673236D01*
X170584950Y-89610401D01*
X170584432Y-89610118D01*
X170585733Y-89607734D01*
X170586185Y-89606197D01*
X170588001Y-89603581D01*
X170588681Y-89602335D01*
X170588680Y-89602335D01*
X170588684Y-89602331D01*
X170638979Y-89467483D01*
X170645388Y-89407873D01*
X170645387Y-87712128D01*
X170638979Y-87652517D01*
X170603206Y-87556604D01*
X170595388Y-87513271D01*
X170595388Y-84825298D01*
X170604827Y-84777845D01*
X170690873Y-84570111D01*
X170749683Y-84325148D01*
X170769449Y-84074000D01*
X170749683Y-83822852D01*
X170690873Y-83577889D01*
X170685072Y-83563885D01*
X170594466Y-83345140D01*
X170462839Y-83130346D01*
X170462838Y-83130343D01*
X170304348Y-82944776D01*
X170299224Y-82938776D01*
X170118116Y-82784095D01*
X170107656Y-82775161D01*
X170107653Y-82775160D01*
X169892859Y-82643533D01*
X169660110Y-82547126D01*
X169415151Y-82488317D01*
X169164000Y-82468551D01*
X168912848Y-82488317D01*
X168667889Y-82547126D01*
X168435140Y-82643533D01*
X168220346Y-82775160D01*
X168220343Y-82775161D01*
X168028776Y-82938776D01*
X167865161Y-83130343D01*
X167865160Y-83130346D01*
X167733533Y-83345140D01*
X167637126Y-83577889D01*
X167578318Y-83822847D01*
X167578317Y-83822850D01*
X167570395Y-83923496D01*
X167569622Y-83930032D01*
X167569375Y-83933169D01*
X167569118Y-83939734D01*
X167558551Y-84073999D01*
X167578317Y-84325151D01*
X167637126Y-84570110D01*
X167733533Y-84802859D01*
X167865160Y-85017653D01*
X167865161Y-85017656D01*
X167896719Y-85054605D01*
X168028776Y-85209224D01*
X168050918Y-85228134D01*
X168089112Y-85286639D01*
X168094388Y-85322426D01*
X168094388Y-87513271D01*
X168086570Y-87556604D01*
X168050796Y-87652517D01*
X168044389Y-87712116D01*
X168044389Y-87712123D01*
X168044388Y-87712135D01*
X168044388Y-89407870D01*
X168044389Y-89407876D01*
X168050796Y-89467483D01*
X168057682Y-89485943D01*
X168065500Y-89529276D01*
X168065500Y-91111053D01*
X168045815Y-91178092D01*
X168037602Y-91189413D01*
X167976305Y-91264587D01*
X167944000Y-91326432D01*
X167883528Y-91442201D01*
X167882089Y-91444955D01*
X167874862Y-91470212D01*
X167837494Y-91529249D01*
X167774140Y-91558711D01*
X167704914Y-91549245D01*
X167667966Y-91523779D01*
X167594141Y-91449954D01*
X167407734Y-91319432D01*
X167407732Y-91319431D01*
X167201497Y-91223261D01*
X167201488Y-91223258D01*
X166981697Y-91164366D01*
X166981687Y-91164364D01*
X166893141Y-91156617D01*
X166828073Y-91131164D01*
X166816269Y-91120770D01*
X165407348Y-89711848D01*
X165373863Y-89650525D01*
X165371501Y-89613359D01*
X165371994Y-89607734D01*
X165389468Y-89408000D01*
X165369635Y-89181308D01*
X165310739Y-88961504D01*
X165214568Y-88755266D01*
X165084047Y-88568861D01*
X165084046Y-88568860D01*
X165084045Y-88568858D01*
X164923141Y-88407954D01*
X164736734Y-88277432D01*
X164736732Y-88277431D01*
X164530497Y-88181261D01*
X164530488Y-88181258D01*
X164310697Y-88122366D01*
X164310693Y-88122365D01*
X164310692Y-88122365D01*
X164310691Y-88122364D01*
X164310686Y-88122364D01*
X164084002Y-88102532D01*
X164083998Y-88102532D01*
X163857313Y-88122364D01*
X163857302Y-88122366D01*
X163637511Y-88181258D01*
X163637502Y-88181261D01*
X163431267Y-88277431D01*
X163431265Y-88277432D01*
X163244859Y-88407953D01*
X163209634Y-88443180D01*
X163148312Y-88476666D01*
X163121952Y-88479500D01*
X162943306Y-88479500D01*
X162769341Y-88514103D01*
X162769332Y-88514106D01*
X162605459Y-88581983D01*
X162605452Y-88581987D01*
X162570491Y-88605348D01*
X162462464Y-88677530D01*
X162462463Y-88677530D01*
X162457968Y-88680533D01*
X162457960Y-88680540D01*
X161507317Y-89631181D01*
X161445994Y-89664666D01*
X161419636Y-89667500D01*
X160792877Y-89667500D01*
X160792874Y-89667501D01*
X160750113Y-89670399D01*
X160750112Y-89670399D01*
X160565303Y-89716360D01*
X160394707Y-89800967D01*
X160394704Y-89800969D01*
X160285629Y-89888647D01*
X160221045Y-89915306D01*
X160207942Y-89916000D01*
X156568500Y-89916000D01*
X156501461Y-89896315D01*
X156455706Y-89843511D01*
X156444500Y-89792000D01*
X156444500Y-89555483D01*
X156452318Y-89512150D01*
X156454275Y-89506903D01*
X156468978Y-89467483D01*
X156475387Y-89407873D01*
X156475386Y-87712128D01*
X156468978Y-87652517D01*
X156433205Y-87556604D01*
X156425387Y-87513271D01*
X156425387Y-85076223D01*
X156445072Y-85009184D01*
X156448721Y-85003846D01*
X156448840Y-85003653D01*
X156580466Y-84788859D01*
X156676873Y-84556111D01*
X156735683Y-84311148D01*
X156755449Y-84060000D01*
X156735683Y-83808852D01*
X156676873Y-83563889D01*
X156676871Y-83563885D01*
X156580466Y-83331140D01*
X156448839Y-83116346D01*
X156448838Y-83116343D01*
X156411875Y-83073066D01*
X156285224Y-82924776D01*
X156117076Y-82781164D01*
X156093656Y-82761161D01*
X156093653Y-82761160D01*
X155878859Y-82629533D01*
X155646110Y-82533126D01*
X155401151Y-82474317D01*
X155150000Y-82454551D01*
X154898848Y-82474317D01*
X154653887Y-82533127D01*
X154653885Y-82533127D01*
X154429973Y-82625874D01*
X154360504Y-82633343D01*
X154298025Y-82602067D01*
X154262373Y-82541978D01*
X154264867Y-82472153D01*
X154294837Y-82423635D01*
X155787322Y-80931151D01*
X155848641Y-80897669D01*
X155918333Y-80902653D01*
X155962680Y-80931154D01*
X156131172Y-81099646D01*
X160045354Y-85013828D01*
X160204595Y-85129524D01*
X160379974Y-85218884D01*
X160529546Y-85267483D01*
X160567174Y-85279709D01*
X160578375Y-85281483D01*
X160761578Y-85310500D01*
X160761583Y-85310500D01*
X163645859Y-85310500D01*
X163712898Y-85330185D01*
X163758653Y-85382989D01*
X163762030Y-85391140D01*
X163766204Y-85402331D01*
X163766205Y-85402332D01*
X163766206Y-85402335D01*
X163852452Y-85517544D01*
X163852455Y-85517547D01*
X163967664Y-85603793D01*
X163967671Y-85603797D01*
X164102517Y-85654091D01*
X164102516Y-85654091D01*
X164109444Y-85654835D01*
X164162127Y-85660500D01*
X166457872Y-85660499D01*
X166517483Y-85654091D01*
X166652331Y-85603796D01*
X166767546Y-85517546D01*
X166853796Y-85402331D01*
X166904091Y-85267483D01*
X166910500Y-85207873D01*
X166910499Y-82912128D01*
X166904091Y-82852517D01*
X166878571Y-82784095D01*
X166853797Y-82717671D01*
X166853793Y-82717664D01*
X166767547Y-82602455D01*
X166767544Y-82602452D01*
X166652335Y-82516206D01*
X166652332Y-82516205D01*
X166652331Y-82516204D01*
X166641161Y-82512038D01*
X166585231Y-82470166D01*
X166560816Y-82404701D01*
X166560500Y-82395858D01*
X166560500Y-81659500D01*
X166580185Y-81592461D01*
X166632989Y-81546706D01*
X166684500Y-81535500D01*
X172785664Y-81535500D01*
X172852703Y-81555185D01*
X172873345Y-81571819D01*
X176329354Y-85027828D01*
X176488595Y-85143524D01*
X176564499Y-85182199D01*
X176663969Y-85232882D01*
X176663971Y-85232882D01*
X176663974Y-85232884D01*
X176763620Y-85265261D01*
X176851173Y-85293709D01*
X177045579Y-85324500D01*
X177045584Y-85324500D01*
X177242422Y-85324500D01*
X177436826Y-85293709D01*
X177589316Y-85244161D01*
X177659152Y-85242166D01*
X177718985Y-85278246D01*
X177743812Y-85318760D01*
X177780202Y-85416328D01*
X177780206Y-85416335D01*
X177866452Y-85531544D01*
X177866455Y-85531547D01*
X177981664Y-85617793D01*
X177981671Y-85617797D01*
X178116517Y-85668091D01*
X178116516Y-85668091D01*
X178123444Y-85668835D01*
X178176127Y-85674500D01*
X180471872Y-85674499D01*
X180531483Y-85668091D01*
X180666331Y-85617796D01*
X180781546Y-85531546D01*
X180867796Y-85416331D01*
X180918091Y-85281483D01*
X180924500Y-85221873D01*
X180924499Y-82926128D01*
X180918091Y-82866517D01*
X180912869Y-82852517D01*
X180867797Y-82731671D01*
X180867793Y-82731664D01*
X180781547Y-82616455D01*
X180781544Y-82616452D01*
X180666335Y-82530206D01*
X180666328Y-82530202D01*
X180531482Y-82479908D01*
X180531483Y-82479908D01*
X180471883Y-82473501D01*
X180471881Y-82473500D01*
X180471873Y-82473500D01*
X180471864Y-82473500D01*
X178176129Y-82473500D01*
X178176123Y-82473501D01*
X178116516Y-82479908D01*
X177981671Y-82530202D01*
X177981664Y-82530206D01*
X177866455Y-82616452D01*
X177776031Y-82737241D01*
X177720097Y-82779112D01*
X177650405Y-82784095D01*
X177589084Y-82750610D01*
X176151155Y-81312681D01*
X176117670Y-81251358D01*
X176122654Y-81181666D01*
X176151155Y-81137319D01*
X176188828Y-81099646D01*
X176304524Y-80940405D01*
X176393884Y-80765025D01*
X176454709Y-80577826D01*
X176485500Y-80383422D01*
X176485500Y-80186577D01*
X176454709Y-79992173D01*
X176393882Y-79804970D01*
X176304523Y-79629594D01*
X176188828Y-79470354D01*
X176049646Y-79331172D01*
X175890405Y-79215476D01*
X175715029Y-79126117D01*
X175527826Y-79065290D01*
X175333422Y-79034500D01*
X175333417Y-79034500D01*
X173924336Y-79034500D01*
X173857297Y-79014815D01*
X173836655Y-78998181D01*
X170486818Y-75648344D01*
X170453333Y-75587021D01*
X170450499Y-75560663D01*
X170450499Y-74881902D01*
X179399500Y-74881902D01*
X179399500Y-75118097D01*
X179436446Y-75351368D01*
X179509433Y-75575996D01*
X179616657Y-75786433D01*
X179755483Y-75977510D01*
X179922490Y-76144517D01*
X180113567Y-76283343D01*
X180212991Y-76334002D01*
X180324003Y-76390566D01*
X180324005Y-76390566D01*
X180324008Y-76390568D01*
X180444412Y-76429689D01*
X180548631Y-76463553D01*
X180781903Y-76500500D01*
X180781908Y-76500500D01*
X181018097Y-76500500D01*
X181251368Y-76463553D01*
X181475992Y-76390568D01*
X181686433Y-76283343D01*
X181877510Y-76144517D01*
X182044517Y-75977510D01*
X182183343Y-75786433D01*
X182290568Y-75575992D01*
X182363553Y-75351368D01*
X182400500Y-75118097D01*
X182400500Y-74881902D01*
X182363553Y-74648631D01*
X182290566Y-74424003D01*
X182230863Y-74306831D01*
X182183343Y-74213567D01*
X182044517Y-74022490D01*
X181877510Y-73855483D01*
X181686433Y-73716657D01*
X181475996Y-73609433D01*
X181251368Y-73536446D01*
X181018097Y-73499500D01*
X181018092Y-73499500D01*
X180781908Y-73499500D01*
X180781903Y-73499500D01*
X180548631Y-73536446D01*
X180324003Y-73609433D01*
X180113566Y-73716657D01*
X180004550Y-73795862D01*
X179922490Y-73855483D01*
X179922488Y-73855485D01*
X179922487Y-73855485D01*
X179755485Y-74022487D01*
X179755485Y-74022488D01*
X179755483Y-74022490D01*
X179716481Y-74076172D01*
X179616657Y-74213566D01*
X179509433Y-74424003D01*
X179436446Y-74648631D01*
X179399500Y-74881902D01*
X170450499Y-74881902D01*
X170450499Y-74229998D01*
X170450498Y-74229981D01*
X170439999Y-74127203D01*
X170439998Y-74127200D01*
X170434518Y-74110663D01*
X170384814Y-73960666D01*
X170292712Y-73811344D01*
X170168656Y-73687288D01*
X170019334Y-73595186D01*
X169852797Y-73540001D01*
X169852795Y-73540000D01*
X169750010Y-73529500D01*
X168449998Y-73529500D01*
X168449981Y-73529501D01*
X168347203Y-73540000D01*
X168347200Y-73540001D01*
X168180668Y-73595185D01*
X168180663Y-73595187D01*
X168031342Y-73687289D01*
X167975451Y-73743181D01*
X167914128Y-73776666D01*
X167887770Y-73779500D01*
X159821578Y-73779500D01*
X159627173Y-73810290D01*
X159439969Y-73871117D01*
X159264594Y-73960476D01*
X159173741Y-74026485D01*
X159105354Y-74076172D01*
X159105352Y-74076174D01*
X159105351Y-74076174D01*
X156523662Y-76657862D01*
X156486086Y-76683607D01*
X155707885Y-77027370D01*
X155638608Y-77036453D01*
X155575418Y-77006640D01*
X155570099Y-77001625D01*
X154366818Y-75798344D01*
X154333333Y-75737021D01*
X154330499Y-75710663D01*
X154330499Y-74379998D01*
X154330498Y-74379981D01*
X154319999Y-74277203D01*
X154319998Y-74277200D01*
X154298912Y-74213567D01*
X154264814Y-74110666D01*
X154172712Y-73961344D01*
X154048656Y-73837288D01*
X153899334Y-73745186D01*
X153732797Y-73690001D01*
X153732795Y-73690000D01*
X153630010Y-73679500D01*
X152329998Y-73679500D01*
X152329981Y-73679501D01*
X152227203Y-73690000D01*
X152227200Y-73690001D01*
X152060668Y-73745185D01*
X152060663Y-73745187D01*
X151911342Y-73837289D01*
X151787289Y-73961342D01*
X151695187Y-74110663D01*
X151695186Y-74110666D01*
X151640001Y-74277203D01*
X151640001Y-74277204D01*
X151640000Y-74277204D01*
X151629500Y-74379983D01*
X151629500Y-74710663D01*
X151609815Y-74777702D01*
X151593181Y-74798344D01*
X150346174Y-76045351D01*
X150346172Y-76045354D01*
X150296485Y-76113741D01*
X150230476Y-76204594D01*
X150140669Y-76380851D01*
X150139608Y-76384612D01*
X150080291Y-76567169D01*
X150080291Y-76567172D01*
X150049500Y-76761577D01*
X150049500Y-82415858D01*
X150029815Y-82482897D01*
X149977011Y-82528652D01*
X149968847Y-82532034D01*
X149957669Y-82536204D01*
X149957664Y-82536206D01*
X149842455Y-82622452D01*
X149842452Y-82622455D01*
X149756206Y-82737664D01*
X149756202Y-82737671D01*
X149705908Y-82872517D01*
X149699501Y-82932116D01*
X149699500Y-82932135D01*
X149699500Y-85227870D01*
X149699501Y-85227876D01*
X149705908Y-85287483D01*
X149756202Y-85422328D01*
X149756206Y-85422335D01*
X149842452Y-85537544D01*
X149842455Y-85537547D01*
X149957664Y-85623793D01*
X149957671Y-85623797D01*
X150092517Y-85674091D01*
X150092516Y-85674091D01*
X150096321Y-85674500D01*
X150152127Y-85680500D01*
X152447872Y-85680499D01*
X152507483Y-85674091D01*
X152642331Y-85623796D01*
X152757546Y-85537546D01*
X152843796Y-85422331D01*
X152894091Y-85287483D01*
X152900500Y-85227873D01*
X152900499Y-83869334D01*
X152920184Y-83802296D01*
X152936813Y-83781659D01*
X153513634Y-83204838D01*
X153574955Y-83171355D01*
X153644647Y-83176339D01*
X153700580Y-83218211D01*
X153724997Y-83283675D01*
X153715874Y-83339973D01*
X153623127Y-83563885D01*
X153623127Y-83563887D01*
X153564317Y-83808848D01*
X153544551Y-84060000D01*
X153564317Y-84311151D01*
X153623126Y-84556110D01*
X153719533Y-84788859D01*
X153851160Y-85003653D01*
X153851161Y-85003655D01*
X153851162Y-85003657D01*
X153851164Y-85003659D01*
X153894678Y-85054607D01*
X153923248Y-85118366D01*
X153924387Y-85135137D01*
X153924387Y-87513271D01*
X153916569Y-87556604D01*
X153880795Y-87652517D01*
X153874388Y-87712116D01*
X153874388Y-87712123D01*
X153874387Y-87712135D01*
X153874387Y-89407870D01*
X153874388Y-89407876D01*
X153880795Y-89467483D01*
X153934190Y-89610641D01*
X153931954Y-89611474D01*
X153943500Y-89656706D01*
X153943500Y-91111053D01*
X153923815Y-91178092D01*
X153915602Y-91189413D01*
X153854305Y-91264587D01*
X153760089Y-91444954D01*
X153721203Y-91580858D01*
X153707984Y-91627059D01*
X153704114Y-91640583D01*
X153704113Y-91640586D01*
X153697571Y-91714171D01*
X153672026Y-91779204D01*
X153615378Y-91820102D01*
X153545610Y-91823882D01*
X153484875Y-91789342D01*
X153472487Y-91774317D01*
X153400047Y-91670861D01*
X153400046Y-91670860D01*
X153400044Y-91670857D01*
X153239141Y-91509954D01*
X153052734Y-91379432D01*
X153052732Y-91379431D01*
X152846497Y-91283261D01*
X152846488Y-91283258D01*
X152626697Y-91224366D01*
X152626693Y-91224365D01*
X152626692Y-91224365D01*
X152626691Y-91224364D01*
X152626686Y-91224364D01*
X152400002Y-91204532D01*
X152399994Y-91204532D01*
X152369809Y-91207172D01*
X152301309Y-91193404D01*
X152271324Y-91171325D01*
X150924076Y-89824077D01*
X150890591Y-89762754D01*
X150891983Y-89704301D01*
X150910633Y-89634699D01*
X150910632Y-89634699D01*
X150910635Y-89634692D01*
X150930468Y-89408000D01*
X150910635Y-89181308D01*
X150851739Y-88961504D01*
X150755568Y-88755266D01*
X150625047Y-88568861D01*
X150625046Y-88568860D01*
X150625045Y-88568858D01*
X150464141Y-88407954D01*
X150277734Y-88277432D01*
X150277732Y-88277431D01*
X150071497Y-88181261D01*
X150071488Y-88181258D01*
X149851697Y-88122366D01*
X149851693Y-88122365D01*
X149851692Y-88122365D01*
X149851691Y-88122364D01*
X149851686Y-88122364D01*
X149625002Y-88102532D01*
X149624998Y-88102532D01*
X149398313Y-88122364D01*
X149398302Y-88122366D01*
X149178511Y-88181258D01*
X149178502Y-88181261D01*
X148972267Y-88277431D01*
X148972265Y-88277432D01*
X148785858Y-88407954D01*
X148624952Y-88568860D01*
X148623581Y-88570495D01*
X148622595Y-88571217D01*
X148621125Y-88572688D01*
X148620898Y-88572461D01*
X148576048Y-88605347D01*
X148511738Y-88631987D01*
X148463453Y-88651986D01*
X148412721Y-88685885D01*
X148378822Y-88708536D01*
X148315965Y-88750535D01*
X148315961Y-88750538D01*
X147435317Y-89631181D01*
X147373994Y-89664666D01*
X147347636Y-89667500D01*
X146720877Y-89667500D01*
X146720874Y-89667501D01*
X146678113Y-89670399D01*
X146678112Y-89670399D01*
X146493303Y-89716360D01*
X146493300Y-89716361D01*
X146483090Y-89721425D01*
X146414285Y-89733574D01*
X146349834Y-89706595D01*
X146343945Y-89698046D01*
X146343285Y-89698753D01*
X146304000Y-89661999D01*
X142504748Y-89915282D01*
X142436548Y-89900101D01*
X142387382Y-89850457D01*
X142372500Y-89791557D01*
X142372500Y-89671366D01*
X142380318Y-89628033D01*
X142414091Y-89537482D01*
X142416700Y-89513213D01*
X142420500Y-89477873D01*
X142420499Y-87782128D01*
X142414091Y-87722517D01*
X142410216Y-87712128D01*
X142378318Y-87626604D01*
X142370500Y-87583271D01*
X142370500Y-85149415D01*
X142390185Y-85082376D01*
X142400203Y-85068891D01*
X142438836Y-85023659D01*
X142570466Y-84808859D01*
X142666873Y-84576111D01*
X142725683Y-84331148D01*
X142745449Y-84080000D01*
X142725683Y-83828852D01*
X142666873Y-83583889D01*
X142570466Y-83351141D01*
X142570466Y-83351140D01*
X142438839Y-83136346D01*
X142438838Y-83136343D01*
X142401875Y-83093066D01*
X142275224Y-82944776D01*
X142087091Y-82784095D01*
X142083656Y-82781161D01*
X142083653Y-82781160D01*
X141868859Y-82649533D01*
X141636110Y-82553126D01*
X141391151Y-82494317D01*
X141140000Y-82474551D01*
X140888848Y-82494317D01*
X140643889Y-82553126D01*
X140411140Y-82649533D01*
X140196346Y-82781160D01*
X140196343Y-82781161D01*
X140004776Y-82944776D01*
X139841161Y-83136343D01*
X139841160Y-83136346D01*
X139709533Y-83351140D01*
X139613126Y-83583889D01*
X139554317Y-83828848D01*
X139534551Y-84080000D01*
X137900500Y-84080000D01*
X137900500Y-75203750D01*
X137900726Y-75196263D01*
X137918271Y-74906205D01*
X137920076Y-74891340D01*
X137921805Y-74881908D01*
X137921806Y-74881902D01*
X138799500Y-74881902D01*
X138799500Y-75118097D01*
X138836446Y-75351368D01*
X138909433Y-75575996D01*
X139016657Y-75786433D01*
X139155483Y-75977510D01*
X139322490Y-76144517D01*
X139513567Y-76283343D01*
X139612991Y-76334002D01*
X139724003Y-76390566D01*
X139724005Y-76390566D01*
X139724008Y-76390568D01*
X139844412Y-76429689D01*
X139948631Y-76463553D01*
X140181903Y-76500500D01*
X140181908Y-76500500D01*
X140418097Y-76500500D01*
X140651368Y-76463553D01*
X140875992Y-76390568D01*
X141086433Y-76283343D01*
X141277510Y-76144517D01*
X141444517Y-75977510D01*
X141583343Y-75786433D01*
X141690568Y-75575992D01*
X141763553Y-75351368D01*
X141800500Y-75118097D01*
X141800500Y-74881902D01*
X141763553Y-74648631D01*
X141690566Y-74424003D01*
X141630863Y-74306831D01*
X141583343Y-74213567D01*
X141444517Y-74022490D01*
X141277510Y-73855483D01*
X141086433Y-73716657D01*
X140875996Y-73609433D01*
X140651368Y-73536446D01*
X140418097Y-73499500D01*
X140418092Y-73499500D01*
X140181908Y-73499500D01*
X140181903Y-73499500D01*
X139948631Y-73536446D01*
X139724003Y-73609433D01*
X139513566Y-73716657D01*
X139404550Y-73795862D01*
X139322490Y-73855483D01*
X139322488Y-73855485D01*
X139322487Y-73855485D01*
X139155485Y-74022487D01*
X139155485Y-74022488D01*
X139155483Y-74022490D01*
X139116481Y-74076172D01*
X139016657Y-74213566D01*
X138909433Y-74424003D01*
X138836446Y-74648631D01*
X138799500Y-74881902D01*
X137921806Y-74881902D01*
X137971780Y-74609197D01*
X137975364Y-74594663D01*
X138060696Y-74320822D01*
X138065998Y-74306841D01*
X138183731Y-74045249D01*
X138190676Y-74032016D01*
X138339080Y-73786526D01*
X138347567Y-73774230D01*
X138524480Y-73548417D01*
X138534395Y-73537226D01*
X138737226Y-73334395D01*
X138748417Y-73324480D01*
X138974230Y-73147567D01*
X138986526Y-73139080D01*
X139232016Y-72990676D01*
X139245249Y-72983731D01*
X139506841Y-72865998D01*
X139520822Y-72860696D01*
X139794668Y-72775362D01*
X139809197Y-72771780D01*
X140091344Y-72720075D01*
X140106201Y-72718271D01*
X140396264Y-72700726D01*
X140403751Y-72700500D01*
X140465892Y-72700500D01*
X180634108Y-72700500D01*
X180696249Y-72700500D01*
X180703736Y-72700726D01*
G37*
%TD.AperFunction*%
%TD*%
M02*
