%TF.GenerationSoftware,KiCad,Pcbnew,8.0.4*%
%TF.CreationDate,2024-09-04T12:44:35+09:00*%
%TF.ProjectId,servo_supply,73657276-6f5f-4737-9570-706c792e6b69,rev?*%
%TF.SameCoordinates,Original*%
%TF.FileFunction,Copper,L1,Top*%
%TF.FilePolarity,Positive*%
%FSLAX46Y46*%
G04 Gerber Fmt 4.6, Leading zero omitted, Abs format (unit mm)*
G04 Created by KiCad (PCBNEW 8.0.4) date 2024-09-04 12:44:35*
%MOMM*%
%LPD*%
G01*
G04 APERTURE LIST*
G04 Aperture macros list*
%AMRoundRect*
0 Rectangle with rounded corners*
0 $1 Rounding radius*
0 $2 $3 $4 $5 $6 $7 $8 $9 X,Y pos of 4 corners*
0 Add a 4 corners polygon primitive as box body*
4,1,4,$2,$3,$4,$5,$6,$7,$8,$9,$2,$3,0*
0 Add four circle primitives for the rounded corners*
1,1,$1+$1,$2,$3*
1,1,$1+$1,$4,$5*
1,1,$1+$1,$6,$7*
1,1,$1+$1,$8,$9*
0 Add four rect primitives between the rounded corners*
20,1,$1+$1,$2,$3,$4,$5,0*
20,1,$1+$1,$4,$5,$6,$7,0*
20,1,$1+$1,$6,$7,$8,$9,0*
20,1,$1+$1,$8,$9,$2,$3,0*%
G04 Aperture macros list end*
%ADD10C,0.300000*%
%TA.AperFunction,ComponentPad*%
%ADD11C,1.600000*%
%TD*%
%TA.AperFunction,ComponentPad*%
%ADD12O,1.600000X1.600000*%
%TD*%
%TA.AperFunction,ComponentPad*%
%ADD13R,1.600000X1.600000*%
%TD*%
%TA.AperFunction,SMDPad,CuDef*%
%ADD14C,0.500000*%
%TD*%
%TA.AperFunction,ComponentPad*%
%ADD15R,2.200000X2.200000*%
%TD*%
%TA.AperFunction,ComponentPad*%
%ADD16O,2.200000X2.200000*%
%TD*%
%TA.AperFunction,ComponentPad*%
%ADD17RoundRect,0.250000X-0.600000X-0.750000X0.600000X-0.750000X0.600000X0.750000X-0.600000X0.750000X0*%
%TD*%
%TA.AperFunction,ComponentPad*%
%ADD18O,1.700000X2.000000*%
%TD*%
%TA.AperFunction,ComponentPad*%
%ADD19R,3.800000X3.800000*%
%TD*%
%TA.AperFunction,ComponentPad*%
%ADD20C,3.800000*%
%TD*%
%TA.AperFunction,ViaPad*%
%ADD21C,0.600000*%
%TD*%
%TA.AperFunction,Conductor*%
%ADD22C,0.800000*%
%TD*%
G04 APERTURE END LIST*
D10*
G36*
X168494514Y-79148392D02*
G01*
X168531518Y-79185396D01*
X168576225Y-79274810D01*
X168576225Y-79489703D01*
X168531517Y-79579117D01*
X168494514Y-79616121D01*
X168405101Y-79660828D01*
X168190206Y-79660828D01*
X168100792Y-79616121D01*
X168063787Y-79579116D01*
X168019082Y-79489704D01*
X168019082Y-79274809D01*
X168063788Y-79185395D01*
X168100792Y-79148392D01*
X168190206Y-79103685D01*
X168405100Y-79103685D01*
X168494514Y-79148392D01*
G37*
G36*
X168494514Y-78505535D02*
G01*
X168531518Y-78542539D01*
X168576225Y-78631952D01*
X168576225Y-78632560D01*
X168531517Y-78721974D01*
X168494514Y-78758978D01*
X168405101Y-78803685D01*
X168190206Y-78803685D01*
X168100792Y-78758978D01*
X168063787Y-78721973D01*
X168019082Y-78632561D01*
X168019082Y-78631951D01*
X168063787Y-78542540D01*
X168100792Y-78505535D01*
X168190206Y-78460828D01*
X168405100Y-78460828D01*
X168494514Y-78505535D01*
G37*
G36*
X170470286Y-80127495D02*
G01*
X167552415Y-80127495D01*
X167552415Y-78596542D01*
X167719082Y-78596542D01*
X167719082Y-78667971D01*
X167721964Y-78697235D01*
X167724026Y-78702213D01*
X167724408Y-78707589D01*
X167734918Y-78735053D01*
X167806346Y-78877910D01*
X167814273Y-78890503D01*
X167815789Y-78894163D01*
X167819170Y-78898282D01*
X167822011Y-78902796D01*
X167825004Y-78905392D01*
X167834444Y-78916894D01*
X167871235Y-78953685D01*
X167834445Y-78990475D01*
X167825002Y-79001980D01*
X167822011Y-79004575D01*
X167819171Y-79009085D01*
X167815790Y-79013206D01*
X167814274Y-79016865D01*
X167806346Y-79029460D01*
X167734918Y-79172319D01*
X167724408Y-79199782D01*
X167724026Y-79205157D01*
X167721964Y-79210136D01*
X167719082Y-79239400D01*
X167719082Y-79525114D01*
X167721964Y-79554378D01*
X167724026Y-79559356D01*
X167724408Y-79564732D01*
X167734918Y-79592196D01*
X167806346Y-79735053D01*
X167814273Y-79747646D01*
X167815789Y-79751306D01*
X167819170Y-79755425D01*
X167822011Y-79759939D01*
X167825004Y-79762535D01*
X167834444Y-79774037D01*
X167905873Y-79845466D01*
X167917377Y-79854907D01*
X167919972Y-79857899D01*
X167924481Y-79860737D01*
X167928604Y-79864121D01*
X167932265Y-79865637D01*
X167944857Y-79873564D01*
X168087715Y-79944992D01*
X168115178Y-79955502D01*
X168120553Y-79955883D01*
X168125532Y-79957946D01*
X168154796Y-79960828D01*
X168440510Y-79960828D01*
X168469774Y-79957946D01*
X168474752Y-79955883D01*
X168480128Y-79955502D01*
X168507591Y-79944992D01*
X168650450Y-79873564D01*
X168663044Y-79865635D01*
X168666704Y-79864120D01*
X168670824Y-79860738D01*
X168675335Y-79857899D01*
X168677929Y-79854907D01*
X168689435Y-79845465D01*
X168760863Y-79774036D01*
X168770301Y-79762535D01*
X168773295Y-79759939D01*
X168776135Y-79755426D01*
X168779517Y-79751306D01*
X168781032Y-79747646D01*
X168788960Y-79735053D01*
X168860389Y-79592197D01*
X168870898Y-79564733D01*
X168871279Y-79559358D01*
X168873343Y-79554378D01*
X168876225Y-79525114D01*
X168876225Y-79239400D01*
X168873343Y-79210136D01*
X168871281Y-79205158D01*
X168870899Y-79199781D01*
X168860389Y-79172318D01*
X168788960Y-79029460D01*
X168781033Y-79016868D01*
X168779517Y-79013206D01*
X168776133Y-79009083D01*
X168773295Y-79004574D01*
X168770302Y-79001978D01*
X168760862Y-78990476D01*
X168724071Y-78953685D01*
X168760863Y-78916893D01*
X168770301Y-78905392D01*
X168773295Y-78902796D01*
X168776135Y-78898283D01*
X168779517Y-78894163D01*
X168781032Y-78890503D01*
X168788960Y-78877910D01*
X168860389Y-78735054D01*
X168870898Y-78707590D01*
X168871279Y-78702215D01*
X168873343Y-78697235D01*
X168876225Y-78667971D01*
X168876225Y-78596542D01*
X168873343Y-78567278D01*
X168871279Y-78562297D01*
X168870898Y-78556923D01*
X168860389Y-78529459D01*
X168788960Y-78386603D01*
X168781033Y-78374011D01*
X168779517Y-78370349D01*
X168776133Y-78366226D01*
X168773295Y-78361717D01*
X168770302Y-78359121D01*
X168760862Y-78347619D01*
X168742832Y-78329589D01*
X169005974Y-78329589D01*
X169012494Y-78358262D01*
X169512494Y-79858262D01*
X169524482Y-79885113D01*
X169531504Y-79893210D01*
X169536297Y-79902795D01*
X169550503Y-79915116D01*
X169562829Y-79929328D01*
X169572416Y-79934121D01*
X169580511Y-79941142D01*
X169598353Y-79947089D01*
X169615177Y-79955501D01*
X169625867Y-79956260D01*
X169636035Y-79959650D01*
X169654791Y-79958317D01*
X169673557Y-79959651D01*
X169683727Y-79956260D01*
X169694416Y-79955501D01*
X169711237Y-79947090D01*
X169729081Y-79941142D01*
X169737177Y-79934119D01*
X169746763Y-79929327D01*
X169759086Y-79915118D01*
X169773295Y-79902795D01*
X169778087Y-79893209D01*
X169785110Y-79885113D01*
X169797098Y-79858262D01*
X170297099Y-78358262D01*
X170303619Y-78329588D01*
X170299469Y-78271208D01*
X170273295Y-78218861D01*
X170229081Y-78180514D01*
X170173557Y-78162005D01*
X170115177Y-78166155D01*
X170062829Y-78192328D01*
X170024482Y-78236543D01*
X170012494Y-78263394D01*
X169654796Y-79336486D01*
X169297098Y-78263394D01*
X169285110Y-78236543D01*
X169246763Y-78192329D01*
X169194416Y-78166155D01*
X169136035Y-78162006D01*
X169080511Y-78180514D01*
X169036297Y-78218861D01*
X169010123Y-78271208D01*
X169005974Y-78329589D01*
X168742832Y-78329589D01*
X168689434Y-78276191D01*
X168677932Y-78266751D01*
X168675336Y-78263758D01*
X168670822Y-78260917D01*
X168666703Y-78257536D01*
X168663043Y-78256020D01*
X168650450Y-78248093D01*
X168507592Y-78176664D01*
X168480129Y-78166154D01*
X168474751Y-78165771D01*
X168469774Y-78163710D01*
X168440510Y-78160828D01*
X168154796Y-78160828D01*
X168125532Y-78163710D01*
X168120551Y-78165773D01*
X168115177Y-78166155D01*
X168087713Y-78176664D01*
X167944857Y-78248093D01*
X167932263Y-78256020D01*
X167928604Y-78257536D01*
X167924483Y-78260917D01*
X167919971Y-78263758D01*
X167917374Y-78266751D01*
X167905874Y-78276190D01*
X167834445Y-78347618D01*
X167825005Y-78359120D01*
X167822011Y-78361717D01*
X167819169Y-78366231D01*
X167815790Y-78370349D01*
X167814274Y-78374007D01*
X167806346Y-78386603D01*
X167734918Y-78529460D01*
X167724408Y-78556924D01*
X167724026Y-78562299D01*
X167721964Y-78567278D01*
X167719082Y-78596542D01*
X167552415Y-78596542D01*
X167552415Y-77994161D01*
X170470286Y-77994161D01*
X170470286Y-80127495D01*
G37*
G36*
X152492514Y-79148392D02*
G01*
X152529518Y-79185396D01*
X152574225Y-79274810D01*
X152574225Y-79489703D01*
X152529517Y-79579117D01*
X152492514Y-79616121D01*
X152403101Y-79660828D01*
X152188206Y-79660828D01*
X152098792Y-79616121D01*
X152061787Y-79579116D01*
X152017082Y-79489704D01*
X152017082Y-79274809D01*
X152061788Y-79185395D01*
X152098792Y-79148392D01*
X152188206Y-79103685D01*
X152403100Y-79103685D01*
X152492514Y-79148392D01*
G37*
G36*
X152492514Y-78505535D02*
G01*
X152529518Y-78542539D01*
X152574225Y-78631952D01*
X152574225Y-78632560D01*
X152529517Y-78721974D01*
X152492514Y-78758978D01*
X152403101Y-78803685D01*
X152188206Y-78803685D01*
X152098792Y-78758978D01*
X152061787Y-78721973D01*
X152017082Y-78632561D01*
X152017082Y-78631951D01*
X152061787Y-78542540D01*
X152098792Y-78505535D01*
X152188206Y-78460828D01*
X152403100Y-78460828D01*
X152492514Y-78505535D01*
G37*
G36*
X154468286Y-80127495D02*
G01*
X151550415Y-80127495D01*
X151550415Y-78596542D01*
X151717082Y-78596542D01*
X151717082Y-78667971D01*
X151719964Y-78697235D01*
X151722026Y-78702213D01*
X151722408Y-78707589D01*
X151732918Y-78735053D01*
X151804346Y-78877910D01*
X151812273Y-78890503D01*
X151813789Y-78894163D01*
X151817170Y-78898282D01*
X151820011Y-78902796D01*
X151823004Y-78905392D01*
X151832444Y-78916894D01*
X151869235Y-78953685D01*
X151832445Y-78990475D01*
X151823002Y-79001980D01*
X151820011Y-79004575D01*
X151817171Y-79009085D01*
X151813790Y-79013206D01*
X151812274Y-79016865D01*
X151804346Y-79029460D01*
X151732918Y-79172319D01*
X151722408Y-79199782D01*
X151722026Y-79205157D01*
X151719964Y-79210136D01*
X151717082Y-79239400D01*
X151717082Y-79525114D01*
X151719964Y-79554378D01*
X151722026Y-79559356D01*
X151722408Y-79564732D01*
X151732918Y-79592196D01*
X151804346Y-79735053D01*
X151812273Y-79747646D01*
X151813789Y-79751306D01*
X151817170Y-79755425D01*
X151820011Y-79759939D01*
X151823004Y-79762535D01*
X151832444Y-79774037D01*
X151903873Y-79845466D01*
X151915377Y-79854907D01*
X151917972Y-79857899D01*
X151922481Y-79860737D01*
X151926604Y-79864121D01*
X151930265Y-79865637D01*
X151942857Y-79873564D01*
X152085715Y-79944992D01*
X152113178Y-79955502D01*
X152118553Y-79955883D01*
X152123532Y-79957946D01*
X152152796Y-79960828D01*
X152438510Y-79960828D01*
X152467774Y-79957946D01*
X152472752Y-79955883D01*
X152478128Y-79955502D01*
X152505591Y-79944992D01*
X152648450Y-79873564D01*
X152661044Y-79865635D01*
X152664704Y-79864120D01*
X152668824Y-79860738D01*
X152673335Y-79857899D01*
X152675929Y-79854907D01*
X152687435Y-79845465D01*
X152758863Y-79774036D01*
X152768301Y-79762535D01*
X152771295Y-79759939D01*
X152774135Y-79755426D01*
X152777517Y-79751306D01*
X152779032Y-79747646D01*
X152786960Y-79735053D01*
X152858389Y-79592197D01*
X152868898Y-79564733D01*
X152869279Y-79559358D01*
X152871343Y-79554378D01*
X152874225Y-79525114D01*
X152874225Y-79239400D01*
X152871343Y-79210136D01*
X152869281Y-79205158D01*
X152868899Y-79199781D01*
X152858389Y-79172318D01*
X152786960Y-79029460D01*
X152779033Y-79016868D01*
X152777517Y-79013206D01*
X152774133Y-79009083D01*
X152771295Y-79004574D01*
X152768302Y-79001978D01*
X152758862Y-78990476D01*
X152722071Y-78953685D01*
X152758863Y-78916893D01*
X152768301Y-78905392D01*
X152771295Y-78902796D01*
X152774135Y-78898283D01*
X152777517Y-78894163D01*
X152779032Y-78890503D01*
X152786960Y-78877910D01*
X152858389Y-78735054D01*
X152868898Y-78707590D01*
X152869279Y-78702215D01*
X152871343Y-78697235D01*
X152874225Y-78667971D01*
X152874225Y-78596542D01*
X152871343Y-78567278D01*
X152869279Y-78562297D01*
X152868898Y-78556923D01*
X152858389Y-78529459D01*
X152786960Y-78386603D01*
X152779033Y-78374011D01*
X152777517Y-78370349D01*
X152774133Y-78366226D01*
X152771295Y-78361717D01*
X152768302Y-78359121D01*
X152758862Y-78347619D01*
X152740832Y-78329589D01*
X153003974Y-78329589D01*
X153010494Y-78358262D01*
X153510494Y-79858262D01*
X153522482Y-79885113D01*
X153529504Y-79893210D01*
X153534297Y-79902795D01*
X153548503Y-79915116D01*
X153560829Y-79929328D01*
X153570416Y-79934121D01*
X153578511Y-79941142D01*
X153596353Y-79947089D01*
X153613177Y-79955501D01*
X153623867Y-79956260D01*
X153634035Y-79959650D01*
X153652791Y-79958317D01*
X153671557Y-79959651D01*
X153681727Y-79956260D01*
X153692416Y-79955501D01*
X153709237Y-79947090D01*
X153727081Y-79941142D01*
X153735177Y-79934119D01*
X153744763Y-79929327D01*
X153757086Y-79915118D01*
X153771295Y-79902795D01*
X153776087Y-79893209D01*
X153783110Y-79885113D01*
X153795098Y-79858262D01*
X154295099Y-78358262D01*
X154301619Y-78329588D01*
X154297469Y-78271208D01*
X154271295Y-78218861D01*
X154227081Y-78180514D01*
X154171557Y-78162005D01*
X154113177Y-78166155D01*
X154060829Y-78192328D01*
X154022482Y-78236543D01*
X154010494Y-78263394D01*
X153652796Y-79336486D01*
X153295098Y-78263394D01*
X153283110Y-78236543D01*
X153244763Y-78192329D01*
X153192416Y-78166155D01*
X153134035Y-78162006D01*
X153078511Y-78180514D01*
X153034297Y-78218861D01*
X153008123Y-78271208D01*
X153003974Y-78329589D01*
X152740832Y-78329589D01*
X152687434Y-78276191D01*
X152675932Y-78266751D01*
X152673336Y-78263758D01*
X152668822Y-78260917D01*
X152664703Y-78257536D01*
X152661043Y-78256020D01*
X152648450Y-78248093D01*
X152505592Y-78176664D01*
X152478129Y-78166154D01*
X152472751Y-78165771D01*
X152467774Y-78163710D01*
X152438510Y-78160828D01*
X152152796Y-78160828D01*
X152123532Y-78163710D01*
X152118551Y-78165773D01*
X152113177Y-78166155D01*
X152085713Y-78176664D01*
X151942857Y-78248093D01*
X151930263Y-78256020D01*
X151926604Y-78257536D01*
X151922483Y-78260917D01*
X151917971Y-78263758D01*
X151915374Y-78266751D01*
X151903874Y-78276190D01*
X151832445Y-78347618D01*
X151823005Y-78359120D01*
X151820011Y-78361717D01*
X151817169Y-78366231D01*
X151813790Y-78370349D01*
X151812274Y-78374007D01*
X151804346Y-78386603D01*
X151732918Y-78529460D01*
X151722408Y-78556924D01*
X151722026Y-78562299D01*
X151719964Y-78567278D01*
X151717082Y-78596542D01*
X151550415Y-78596542D01*
X151550415Y-77994161D01*
X154468286Y-77994161D01*
X154468286Y-80127495D01*
G37*
D11*
%TO.P,R6,1*%
%TO.N,GND*%
X152165000Y-89408000D03*
D12*
%TO.P,R6,2*%
%TO.N,Net-(U3-ADJ)*%
X149625000Y-89408000D03*
%TD*%
D13*
%TO.P,C2,1*%
%TO.N,Net-(D2-A)*%
X155174887Y-88560000D03*
D11*
%TO.P,C2,2*%
%TO.N,GND*%
X157674887Y-88560000D03*
%TD*%
D14*
%TO.P,REF\u002A\u002A,*%
%TO.N,*%
X180900000Y-75000000D03*
%TD*%
D11*
%TO.P,R5,1*%
%TO.N,GND*%
X166624000Y-89408000D03*
D12*
%TO.P,R5,2*%
%TO.N,Net-(U2-ADJ)*%
X164084000Y-89408000D03*
%TD*%
D15*
%TO.P,D3,1,K*%
%TO.N,+8V*%
X151300000Y-84080000D03*
D16*
%TO.P,D3,2,A*%
%TO.N,Net-(D3-A)*%
X141140000Y-84080000D03*
%TD*%
D11*
%TO.P,R4,1*%
%TO.N,GND*%
X180848000Y-89370000D03*
D12*
%TO.P,R4,2*%
%TO.N,Net-(U1-ADJ)*%
X178308000Y-89370000D03*
%TD*%
D13*
%TO.P,C4,1*%
%TO.N,Net-(D1-A)*%
X169344888Y-88560000D03*
D11*
%TO.P,C4,2*%
%TO.N,GND*%
X171844888Y-88560000D03*
%TD*%
D17*
%TO.P,J2,1,Pin_1*%
%TO.N,+8V*%
X152980000Y-75180000D03*
D18*
%TO.P,J2,2,Pin_2*%
%TO.N,GND*%
X155480000Y-75180000D03*
%TD*%
D13*
%TO.P,C1,1*%
%TO.N,+12V*%
X177920000Y-95540000D03*
D11*
%TO.P,C1,2*%
%TO.N,GND*%
X177920000Y-98040000D03*
%TD*%
D13*
%TO.P,C3,1*%
%TO.N,+12V*%
X163800000Y-95524888D03*
D11*
%TO.P,C3,2*%
%TO.N,GND*%
X163800000Y-98024888D03*
%TD*%
D13*
%TO.P,C5,1*%
%TO.N,+12V*%
X149640000Y-95524888D03*
D11*
%TO.P,C5,2*%
%TO.N,GND*%
X149640000Y-98024888D03*
%TD*%
D15*
%TO.P,D1,1,K*%
%TO.N,+8V*%
X179324000Y-84074000D03*
D16*
%TO.P,D1,2,A*%
%TO.N,Net-(D1-A)*%
X169164000Y-84074000D03*
%TD*%
D11*
%TO.P,R3,1*%
%TO.N,Net-(D3-A)*%
X149860000Y-92510000D03*
D12*
%TO.P,R3,2*%
%TO.N,Net-(U3-ADJ)*%
X152400000Y-92510000D03*
%TD*%
D11*
%TO.P,R2,1*%
%TO.N,Net-(D2-A)*%
X164215000Y-92450000D03*
D12*
%TO.P,R2,2*%
%TO.N,Net-(U2-ADJ)*%
X166755000Y-92450000D03*
%TD*%
D15*
%TO.P,D2,1,K*%
%TO.N,+8V*%
X165310000Y-84060000D03*
D16*
%TO.P,D2,2,A*%
%TO.N,Net-(D2-A)*%
X155150000Y-84060000D03*
%TD*%
D11*
%TO.P,R1,1*%
%TO.N,Net-(D1-A)*%
X178415000Y-92420000D03*
D12*
%TO.P,R1,2*%
%TO.N,Net-(U1-ADJ)*%
X180955000Y-92420000D03*
%TD*%
D13*
%TO.P,C6,1*%
%TO.N,Net-(D3-A)*%
X141120000Y-88630000D03*
D11*
%TO.P,C6,2*%
%TO.N,GND*%
X143620000Y-88630000D03*
%TD*%
D17*
%TO.P,J3,1,Pin_1*%
%TO.N,+8V*%
X169100000Y-75030000D03*
D18*
%TO.P,J3,2,Pin_2*%
%TO.N,GND*%
X171600000Y-75030000D03*
%TD*%
D19*
%TO.P,J1,1,Pin_1*%
%TO.N,GND*%
X161840000Y-105830000D03*
D20*
%TO.P,J1,2,Pin_2*%
%TO.N,+12V*%
X156840000Y-105830000D03*
%TD*%
D21*
%TO.N,GND*%
X153670000Y-99060000D03*
X168910000Y-98044000D03*
%TD*%
D22*
%TO.N,Net-(U1-ADJ)*%
X177965000Y-89370000D02*
X177965000Y-89430000D01*
X180955000Y-92420000D02*
X180955000Y-92360000D01*
%TD*%
%TA.AperFunction,Conductor*%
%TO.N,GND*%
G36*
X180703736Y-72700726D02*
G01*
X180993796Y-72718271D01*
X181008659Y-72720076D01*
X181290798Y-72771780D01*
X181305335Y-72775363D01*
X181579172Y-72860695D01*
X181593163Y-72866000D01*
X181854743Y-72983727D01*
X181867989Y-72990680D01*
X182113465Y-73139075D01*
X182125776Y-73147573D01*
X182351573Y-73324473D01*
X182362781Y-73334403D01*
X182565596Y-73537218D01*
X182575526Y-73548426D01*
X182729677Y-73745186D01*
X182752422Y-73774217D01*
X182760926Y-73786537D01*
X182791606Y-73837288D01*
X182909316Y-74032004D01*
X182916275Y-74045263D01*
X183033997Y-74306831D01*
X183039306Y-74320832D01*
X183124635Y-74594663D01*
X183128219Y-74609201D01*
X183179923Y-74891340D01*
X183181728Y-74906205D01*
X183199274Y-75196263D01*
X183199500Y-75203750D01*
X183199500Y-106996249D01*
X183199274Y-107003736D01*
X183181728Y-107293794D01*
X183179923Y-107308659D01*
X183128219Y-107590798D01*
X183124635Y-107605336D01*
X183039306Y-107879167D01*
X183033997Y-107893168D01*
X182916275Y-108154736D01*
X182909316Y-108167995D01*
X182760928Y-108413459D01*
X182752422Y-108425782D01*
X182575526Y-108651573D01*
X182565596Y-108662781D01*
X182362781Y-108865596D01*
X182351573Y-108875526D01*
X182125782Y-109052422D01*
X182113459Y-109060928D01*
X181867995Y-109209316D01*
X181854736Y-109216275D01*
X181593168Y-109333997D01*
X181579167Y-109339306D01*
X181305336Y-109424635D01*
X181290798Y-109428219D01*
X181008659Y-109479923D01*
X180993794Y-109481728D01*
X180703736Y-109499274D01*
X180696249Y-109499500D01*
X140403751Y-109499500D01*
X140396264Y-109499274D01*
X140106205Y-109481728D01*
X140091340Y-109479923D01*
X139809201Y-109428219D01*
X139794663Y-109424635D01*
X139520832Y-109339306D01*
X139506831Y-109333997D01*
X139245263Y-109216275D01*
X139232004Y-109209316D01*
X138986540Y-109060928D01*
X138974217Y-109052422D01*
X138748426Y-108875526D01*
X138737218Y-108865596D01*
X138534403Y-108662781D01*
X138524473Y-108651573D01*
X138455514Y-108563553D01*
X138347573Y-108425776D01*
X138339075Y-108413465D01*
X138190680Y-108167989D01*
X138183727Y-108154743D01*
X138066000Y-107893163D01*
X138060693Y-107879167D01*
X138054974Y-107860815D01*
X137975363Y-107605335D01*
X137971780Y-107590798D01*
X137920076Y-107308659D01*
X137918271Y-107293794D01*
X137900726Y-107003736D01*
X137900500Y-106996249D01*
X137900500Y-106981902D01*
X138799500Y-106981902D01*
X138799500Y-107218097D01*
X138836446Y-107451368D01*
X138909433Y-107675996D01*
X138998897Y-107851578D01*
X139016657Y-107886433D01*
X139155483Y-108077510D01*
X139322490Y-108244517D01*
X139513567Y-108383343D01*
X139572673Y-108413459D01*
X139724003Y-108490566D01*
X139724005Y-108490566D01*
X139724008Y-108490568D01*
X139844412Y-108529689D01*
X139948631Y-108563553D01*
X140181903Y-108600500D01*
X140181908Y-108600500D01*
X140418097Y-108600500D01*
X140651368Y-108563553D01*
X140875992Y-108490568D01*
X141086433Y-108383343D01*
X141277510Y-108244517D01*
X141444517Y-108077510D01*
X141583343Y-107886433D01*
X141690568Y-107675992D01*
X141763553Y-107451368D01*
X141786156Y-107308659D01*
X141800500Y-107218097D01*
X141800500Y-106981902D01*
X141763553Y-106748631D01*
X141690566Y-106524003D01*
X141583342Y-106313566D01*
X141444517Y-106122490D01*
X141277510Y-105955483D01*
X141104790Y-105829994D01*
X154434754Y-105829994D01*
X154434754Y-105830005D01*
X154453718Y-106131446D01*
X154453719Y-106131453D01*
X154510320Y-106428164D01*
X154603659Y-106715431D01*
X154603661Y-106715436D01*
X154732265Y-106988732D01*
X154732268Y-106988738D01*
X154894111Y-107243763D01*
X154894114Y-107243767D01*
X154894115Y-107243768D01*
X155086651Y-107476504D01*
X155299083Y-107675992D01*
X155306836Y-107683272D01*
X155306846Y-107683280D01*
X155551193Y-107860808D01*
X155551198Y-107860810D01*
X155551205Y-107860816D01*
X155815896Y-108006332D01*
X155815901Y-108006334D01*
X155815903Y-108006335D01*
X155815904Y-108006336D01*
X156096734Y-108117524D01*
X156096737Y-108117525D01*
X156194259Y-108142564D01*
X156389302Y-108192642D01*
X156536039Y-108211179D01*
X156688963Y-108230499D01*
X156688969Y-108230499D01*
X156688973Y-108230500D01*
X156688975Y-108230500D01*
X156991025Y-108230500D01*
X156991027Y-108230500D01*
X156991032Y-108230499D01*
X156991036Y-108230499D01*
X157070591Y-108220448D01*
X157290698Y-108192642D01*
X157583262Y-108117525D01*
X157583265Y-108117524D01*
X157864095Y-108006336D01*
X157864096Y-108006335D01*
X157864094Y-108006335D01*
X157864104Y-108006332D01*
X158128795Y-107860816D01*
X158373162Y-107683274D01*
X158593349Y-107476504D01*
X158785885Y-107243768D01*
X158947733Y-106988736D01*
X158950949Y-106981902D01*
X179299500Y-106981902D01*
X179299500Y-107218097D01*
X179336446Y-107451368D01*
X179409433Y-107675996D01*
X179498897Y-107851578D01*
X179516657Y-107886433D01*
X179655483Y-108077510D01*
X179822490Y-108244517D01*
X180013567Y-108383343D01*
X180072673Y-108413459D01*
X180224003Y-108490566D01*
X180224005Y-108490566D01*
X180224008Y-108490568D01*
X180344412Y-108529689D01*
X180448631Y-108563553D01*
X180681903Y-108600500D01*
X180681908Y-108600500D01*
X180918097Y-108600500D01*
X181151368Y-108563553D01*
X181375992Y-108490568D01*
X181586433Y-108383343D01*
X181777510Y-108244517D01*
X181944517Y-108077510D01*
X182083343Y-107886433D01*
X182190568Y-107675992D01*
X182263553Y-107451368D01*
X182286156Y-107308659D01*
X182300500Y-107218097D01*
X182300500Y-106981902D01*
X182263553Y-106748631D01*
X182190566Y-106524003D01*
X182083342Y-106313566D01*
X181944517Y-106122490D01*
X181777510Y-105955483D01*
X181586433Y-105816657D01*
X181375996Y-105709433D01*
X181151368Y-105636446D01*
X180918097Y-105599500D01*
X180918092Y-105599500D01*
X180681908Y-105599500D01*
X180681903Y-105599500D01*
X180448631Y-105636446D01*
X180224003Y-105709433D01*
X180013566Y-105816657D01*
X179904550Y-105895862D01*
X179822490Y-105955483D01*
X179822488Y-105955485D01*
X179822487Y-105955485D01*
X179655485Y-106122487D01*
X179655485Y-106122488D01*
X179655483Y-106122490D01*
X179595862Y-106204550D01*
X179516657Y-106313566D01*
X179409433Y-106524003D01*
X179336446Y-106748631D01*
X179299500Y-106981902D01*
X158950949Y-106981902D01*
X159076341Y-106715430D01*
X159169681Y-106428160D01*
X159226280Y-106131457D01*
X159226844Y-106122490D01*
X159245246Y-105830005D01*
X159245246Y-105829994D01*
X159226281Y-105528553D01*
X159226280Y-105528546D01*
X159226280Y-105528543D01*
X159169681Y-105231840D01*
X159076341Y-104944570D01*
X158947733Y-104671264D01*
X158785885Y-104416232D01*
X158593349Y-104183496D01*
X158373162Y-103976726D01*
X158373159Y-103976724D01*
X158373153Y-103976719D01*
X158128806Y-103799191D01*
X158128799Y-103799186D01*
X158128795Y-103799184D01*
X157864104Y-103653668D01*
X157864101Y-103653666D01*
X157864096Y-103653664D01*
X157864095Y-103653663D01*
X157583265Y-103542475D01*
X157583262Y-103542474D01*
X157290695Y-103467357D01*
X156991036Y-103429500D01*
X156991027Y-103429500D01*
X156688973Y-103429500D01*
X156688963Y-103429500D01*
X156389304Y-103467357D01*
X156096737Y-103542474D01*
X156096734Y-103542475D01*
X155815904Y-103653663D01*
X155815903Y-103653664D01*
X155551205Y-103799184D01*
X155551193Y-103799191D01*
X155306846Y-103976719D01*
X155306836Y-103976727D01*
X155086652Y-104183494D01*
X154894111Y-104416236D01*
X154732268Y-104671261D01*
X154732265Y-104671267D01*
X154603661Y-104944563D01*
X154603659Y-104944568D01*
X154510320Y-105231835D01*
X154453719Y-105528546D01*
X154453718Y-105528553D01*
X154434754Y-105829994D01*
X141104790Y-105829994D01*
X141086433Y-105816657D01*
X140875996Y-105709433D01*
X140651368Y-105636446D01*
X140418097Y-105599500D01*
X140418092Y-105599500D01*
X140181908Y-105599500D01*
X140181903Y-105599500D01*
X139948631Y-105636446D01*
X139724003Y-105709433D01*
X139513566Y-105816657D01*
X139404550Y-105895862D01*
X139322490Y-105955483D01*
X139322488Y-105955485D01*
X139322487Y-105955485D01*
X139155485Y-106122487D01*
X139155485Y-106122488D01*
X139155483Y-106122490D01*
X139095862Y-106204550D01*
X139016657Y-106313566D01*
X138909433Y-106524003D01*
X138836446Y-106748631D01*
X138799500Y-106981902D01*
X137900500Y-106981902D01*
X137900500Y-94677023D01*
X148339500Y-94677023D01*
X148339500Y-96372758D01*
X148339501Y-96372764D01*
X148345908Y-96432371D01*
X148396202Y-96567216D01*
X148396206Y-96567223D01*
X148482452Y-96682432D01*
X148482455Y-96682435D01*
X148597664Y-96768681D01*
X148597671Y-96768685D01*
X148732517Y-96818979D01*
X148732516Y-96818979D01*
X148739444Y-96819723D01*
X148792127Y-96825388D01*
X150487872Y-96825387D01*
X150547483Y-96818979D01*
X150682331Y-96768684D01*
X150797546Y-96682434D01*
X150883796Y-96567219D01*
X150934091Y-96432371D01*
X150940500Y-96372761D01*
X150940499Y-94677023D01*
X162499500Y-94677023D01*
X162499500Y-96372758D01*
X162499501Y-96372764D01*
X162505908Y-96432371D01*
X162556202Y-96567216D01*
X162556206Y-96567223D01*
X162642452Y-96682432D01*
X162642455Y-96682435D01*
X162757664Y-96768681D01*
X162757671Y-96768685D01*
X162892517Y-96818979D01*
X162892516Y-96818979D01*
X162899444Y-96819723D01*
X162952127Y-96825388D01*
X164647872Y-96825387D01*
X164707483Y-96818979D01*
X164842331Y-96768684D01*
X164957546Y-96682434D01*
X165043796Y-96567219D01*
X165094091Y-96432371D01*
X165100500Y-96372761D01*
X165100499Y-94692135D01*
X176619500Y-94692135D01*
X176619500Y-96387870D01*
X176619501Y-96387876D01*
X176625908Y-96447483D01*
X176676202Y-96582328D01*
X176676206Y-96582335D01*
X176762452Y-96697544D01*
X176762455Y-96697547D01*
X176877664Y-96783793D01*
X176877671Y-96783797D01*
X177012517Y-96834091D01*
X177012516Y-96834091D01*
X177019444Y-96834835D01*
X177072127Y-96840500D01*
X178767872Y-96840499D01*
X178827483Y-96834091D01*
X178962331Y-96783796D01*
X179077546Y-96697546D01*
X179163796Y-96582331D01*
X179214091Y-96447483D01*
X179220500Y-96387873D01*
X179220499Y-94692128D01*
X179214091Y-94632517D01*
X179208454Y-94617404D01*
X179163797Y-94497671D01*
X179163793Y-94497664D01*
X179077547Y-94382455D01*
X179077544Y-94382452D01*
X178962335Y-94296206D01*
X178962328Y-94296202D01*
X178827482Y-94245908D01*
X178827483Y-94245908D01*
X178767883Y-94239501D01*
X178767881Y-94239500D01*
X178767873Y-94239500D01*
X178767864Y-94239500D01*
X177072129Y-94239500D01*
X177072123Y-94239501D01*
X177012516Y-94245908D01*
X176877671Y-94296202D01*
X176877664Y-94296206D01*
X176762455Y-94382452D01*
X176762452Y-94382455D01*
X176676206Y-94497664D01*
X176676202Y-94497671D01*
X176625908Y-94632517D01*
X176621124Y-94677023D01*
X176619501Y-94692123D01*
X176619500Y-94692135D01*
X165100499Y-94692135D01*
X165100499Y-94677016D01*
X165094091Y-94617405D01*
X165049432Y-94497669D01*
X165043797Y-94482559D01*
X165043793Y-94482552D01*
X164957547Y-94367343D01*
X164957544Y-94367340D01*
X164842335Y-94281094D01*
X164842328Y-94281090D01*
X164707482Y-94230796D01*
X164707483Y-94230796D01*
X164647883Y-94224389D01*
X164647881Y-94224388D01*
X164647873Y-94224388D01*
X164647864Y-94224388D01*
X162952129Y-94224388D01*
X162952123Y-94224389D01*
X162892516Y-94230796D01*
X162757671Y-94281090D01*
X162757664Y-94281094D01*
X162642455Y-94367340D01*
X162642452Y-94367343D01*
X162556206Y-94482552D01*
X162556202Y-94482559D01*
X162505908Y-94617405D01*
X162499501Y-94677004D01*
X162499501Y-94677011D01*
X162499500Y-94677023D01*
X150940499Y-94677023D01*
X150940499Y-94677016D01*
X150934091Y-94617405D01*
X150889432Y-94497669D01*
X150883797Y-94482559D01*
X150883793Y-94482552D01*
X150797547Y-94367343D01*
X150797544Y-94367340D01*
X150682335Y-94281094D01*
X150682328Y-94281090D01*
X150547482Y-94230796D01*
X150547483Y-94230796D01*
X150487883Y-94224389D01*
X150487881Y-94224388D01*
X150487873Y-94224388D01*
X150487864Y-94224388D01*
X148792129Y-94224388D01*
X148792123Y-94224389D01*
X148732516Y-94230796D01*
X148597671Y-94281090D01*
X148597664Y-94281094D01*
X148482455Y-94367340D01*
X148482452Y-94367343D01*
X148396206Y-94482552D01*
X148396202Y-94482559D01*
X148345908Y-94617405D01*
X148339501Y-94677004D01*
X148339501Y-94677011D01*
X148339500Y-94677023D01*
X137900500Y-94677023D01*
X137900500Y-92509998D01*
X148554532Y-92509998D01*
X148554532Y-92510001D01*
X148574364Y-92736686D01*
X148574366Y-92736697D01*
X148633258Y-92956488D01*
X148633261Y-92956497D01*
X148729431Y-93162732D01*
X148729432Y-93162734D01*
X148859954Y-93349141D01*
X149020858Y-93510045D01*
X149020861Y-93510047D01*
X149207266Y-93640568D01*
X149413504Y-93736739D01*
X149633308Y-93795635D01*
X149795230Y-93809801D01*
X149859998Y-93815468D01*
X149860000Y-93815468D01*
X149860002Y-93815468D01*
X149916673Y-93810509D01*
X150086692Y-93795635D01*
X150306496Y-93736739D01*
X150512734Y-93640568D01*
X150699139Y-93510047D01*
X150860047Y-93349139D01*
X150990568Y-93162734D01*
X151017618Y-93104724D01*
X151063790Y-93052285D01*
X151130983Y-93033133D01*
X151197865Y-93053348D01*
X151242382Y-93104725D01*
X151269429Y-93162728D01*
X151269432Y-93162734D01*
X151399954Y-93349141D01*
X151560858Y-93510045D01*
X151560861Y-93510047D01*
X151747266Y-93640568D01*
X151953504Y-93736739D01*
X152173308Y-93795635D01*
X152335230Y-93809801D01*
X152399998Y-93815468D01*
X152400000Y-93815468D01*
X152400002Y-93815468D01*
X152456673Y-93810509D01*
X152626692Y-93795635D01*
X152846496Y-93736739D01*
X153052734Y-93640568D01*
X153239139Y-93510047D01*
X153400047Y-93349139D01*
X153530568Y-93162734D01*
X153626739Y-92956496D01*
X153685635Y-92736692D01*
X153705468Y-92510000D01*
X153700218Y-92449998D01*
X162909532Y-92449998D01*
X162909532Y-92450001D01*
X162929364Y-92676686D01*
X162929366Y-92676697D01*
X162988258Y-92896488D01*
X162988261Y-92896497D01*
X163084431Y-93102732D01*
X163084432Y-93102734D01*
X163214954Y-93289141D01*
X163375858Y-93450045D01*
X163375861Y-93450047D01*
X163562266Y-93580568D01*
X163768504Y-93676739D01*
X163988308Y-93735635D01*
X164150230Y-93749801D01*
X164214998Y-93755468D01*
X164215000Y-93755468D01*
X164215002Y-93755468D01*
X164271673Y-93750509D01*
X164441692Y-93735635D01*
X164661496Y-93676739D01*
X164867734Y-93580568D01*
X165054139Y-93450047D01*
X165215047Y-93289139D01*
X165345568Y-93102734D01*
X165372618Y-93044724D01*
X165418790Y-92992285D01*
X165485983Y-92973133D01*
X165552865Y-92993348D01*
X165597382Y-93044725D01*
X165624429Y-93102728D01*
X165624432Y-93102734D01*
X165754954Y-93289141D01*
X165915858Y-93450045D01*
X165915861Y-93450047D01*
X166102266Y-93580568D01*
X166308504Y-93676739D01*
X166528308Y-93735635D01*
X166690230Y-93749801D01*
X166754998Y-93755468D01*
X166755000Y-93755468D01*
X166755002Y-93755468D01*
X166811673Y-93750509D01*
X166981692Y-93735635D01*
X167201496Y-93676739D01*
X167407734Y-93580568D01*
X167594139Y-93450047D01*
X167755047Y-93289139D01*
X167885568Y-93102734D01*
X167981739Y-92896496D01*
X168040635Y-92676692D01*
X168060468Y-92450000D01*
X168057843Y-92420001D01*
X168057843Y-92419998D01*
X177109532Y-92419998D01*
X177109532Y-92420001D01*
X177129364Y-92646686D01*
X177129366Y-92646697D01*
X177188258Y-92866488D01*
X177188261Y-92866497D01*
X177284431Y-93072732D01*
X177284432Y-93072734D01*
X177414954Y-93259141D01*
X177575858Y-93420045D01*
X177575861Y-93420047D01*
X177762266Y-93550568D01*
X177968504Y-93646739D01*
X178188308Y-93705635D01*
X178350230Y-93719801D01*
X178414998Y-93725468D01*
X178415000Y-93725468D01*
X178415002Y-93725468D01*
X178471673Y-93720509D01*
X178641692Y-93705635D01*
X178861496Y-93646739D01*
X179067734Y-93550568D01*
X179254139Y-93420047D01*
X179415047Y-93259139D01*
X179545568Y-93072734D01*
X179572618Y-93014724D01*
X179618790Y-92962285D01*
X179685983Y-92943133D01*
X179752865Y-92963348D01*
X179797382Y-93014725D01*
X179824429Y-93072728D01*
X179824432Y-93072734D01*
X179954954Y-93259141D01*
X180115858Y-93420045D01*
X180115861Y-93420047D01*
X180302266Y-93550568D01*
X180508504Y-93646739D01*
X180728308Y-93705635D01*
X180890230Y-93719801D01*
X180954998Y-93725468D01*
X180955000Y-93725468D01*
X180955002Y-93725468D01*
X181011673Y-93720509D01*
X181181692Y-93705635D01*
X181401496Y-93646739D01*
X181607734Y-93550568D01*
X181794139Y-93420047D01*
X181955047Y-93259139D01*
X182085568Y-93072734D01*
X182181739Y-92866496D01*
X182240635Y-92646692D01*
X182260468Y-92420000D01*
X182240635Y-92193308D01*
X182181739Y-91973504D01*
X182085568Y-91767266D01*
X181955047Y-91580861D01*
X181955045Y-91580858D01*
X181794141Y-91419954D01*
X181607734Y-91289432D01*
X181607732Y-91289431D01*
X181401497Y-91193261D01*
X181401488Y-91193258D01*
X181181697Y-91134366D01*
X181181693Y-91134365D01*
X181181692Y-91134365D01*
X181181691Y-91134364D01*
X181181686Y-91134364D01*
X180955002Y-91114532D01*
X180954998Y-91114532D01*
X180728313Y-91134364D01*
X180728302Y-91134366D01*
X180508511Y-91193258D01*
X180508502Y-91193261D01*
X180302267Y-91289431D01*
X180302265Y-91289432D01*
X180115858Y-91419954D01*
X179954954Y-91580858D01*
X179824432Y-91767265D01*
X179824431Y-91767267D01*
X179797382Y-91825275D01*
X179751209Y-91877714D01*
X179684016Y-91896866D01*
X179617135Y-91876650D01*
X179572618Y-91825275D01*
X179545568Y-91767266D01*
X179415047Y-91580861D01*
X179415045Y-91580858D01*
X179254141Y-91419954D01*
X179067734Y-91289432D01*
X179067732Y-91289431D01*
X178861497Y-91193261D01*
X178861488Y-91193258D01*
X178641697Y-91134366D01*
X178641693Y-91134365D01*
X178641692Y-91134365D01*
X178641691Y-91134364D01*
X178641686Y-91134364D01*
X178415002Y-91114532D01*
X178414998Y-91114532D01*
X178188313Y-91134364D01*
X178188302Y-91134366D01*
X177968511Y-91193258D01*
X177968502Y-91193261D01*
X177762267Y-91289431D01*
X177762265Y-91289432D01*
X177575858Y-91419954D01*
X177414954Y-91580858D01*
X177284432Y-91767265D01*
X177284431Y-91767267D01*
X177188261Y-91973502D01*
X177188258Y-91973511D01*
X177129366Y-92193302D01*
X177129364Y-92193313D01*
X177109532Y-92419998D01*
X168057843Y-92419998D01*
X168054801Y-92385230D01*
X168040635Y-92223308D01*
X167981739Y-92003504D01*
X167885568Y-91797266D01*
X167755047Y-91610861D01*
X167755045Y-91610858D01*
X167594141Y-91449954D01*
X167407734Y-91319432D01*
X167407732Y-91319431D01*
X167201497Y-91223261D01*
X167201488Y-91223258D01*
X166981697Y-91164366D01*
X166981693Y-91164365D01*
X166981692Y-91164365D01*
X166981691Y-91164364D01*
X166981686Y-91164364D01*
X166755002Y-91144532D01*
X166754998Y-91144532D01*
X166528313Y-91164364D01*
X166528302Y-91164366D01*
X166308511Y-91223258D01*
X166308502Y-91223261D01*
X166102267Y-91319431D01*
X166102265Y-91319432D01*
X165915858Y-91449954D01*
X165754954Y-91610858D01*
X165624432Y-91797265D01*
X165624431Y-91797267D01*
X165597382Y-91855275D01*
X165551209Y-91907714D01*
X165484016Y-91926866D01*
X165417135Y-91906650D01*
X165372618Y-91855275D01*
X165345568Y-91797267D01*
X165345567Y-91797265D01*
X165324562Y-91767267D01*
X165215047Y-91610861D01*
X165215045Y-91610858D01*
X165054141Y-91449954D01*
X164867734Y-91319432D01*
X164867732Y-91319431D01*
X164661497Y-91223261D01*
X164661488Y-91223258D01*
X164441697Y-91164366D01*
X164441693Y-91164365D01*
X164441692Y-91164365D01*
X164441691Y-91164364D01*
X164441686Y-91164364D01*
X164215002Y-91144532D01*
X164214998Y-91144532D01*
X163988313Y-91164364D01*
X163988302Y-91164366D01*
X163768511Y-91223258D01*
X163768502Y-91223261D01*
X163562267Y-91319431D01*
X163562265Y-91319432D01*
X163375858Y-91449954D01*
X163214954Y-91610858D01*
X163084432Y-91797265D01*
X163084431Y-91797267D01*
X162988261Y-92003502D01*
X162988258Y-92003511D01*
X162929366Y-92223302D01*
X162929364Y-92223313D01*
X162909532Y-92449998D01*
X153700218Y-92449998D01*
X153685635Y-92283313D01*
X153685635Y-92283308D01*
X153626739Y-92063504D01*
X153530568Y-91857266D01*
X153400047Y-91670861D01*
X153400045Y-91670858D01*
X153239141Y-91509954D01*
X153052734Y-91379432D01*
X153052732Y-91379431D01*
X152846497Y-91283261D01*
X152846488Y-91283258D01*
X152626697Y-91224366D01*
X152626693Y-91224365D01*
X152626692Y-91224365D01*
X152626691Y-91224364D01*
X152626686Y-91224364D01*
X152400002Y-91204532D01*
X152399998Y-91204532D01*
X152173313Y-91224364D01*
X152173302Y-91224366D01*
X151953511Y-91283258D01*
X151953502Y-91283261D01*
X151747267Y-91379431D01*
X151747265Y-91379432D01*
X151560858Y-91509954D01*
X151399954Y-91670858D01*
X151269432Y-91857265D01*
X151269431Y-91857267D01*
X151242382Y-91915275D01*
X151196209Y-91967714D01*
X151129016Y-91986866D01*
X151062135Y-91966650D01*
X151017618Y-91915275D01*
X150990568Y-91857267D01*
X150990567Y-91857265D01*
X150948556Y-91797267D01*
X150860047Y-91670861D01*
X150860045Y-91670858D01*
X150699141Y-91509954D01*
X150512734Y-91379432D01*
X150512732Y-91379431D01*
X150306497Y-91283261D01*
X150306488Y-91283258D01*
X150086697Y-91224366D01*
X150086693Y-91224365D01*
X150086692Y-91224365D01*
X150086691Y-91224364D01*
X150086686Y-91224364D01*
X149860002Y-91204532D01*
X149859998Y-91204532D01*
X149633313Y-91224364D01*
X149633302Y-91224366D01*
X149413511Y-91283258D01*
X149413502Y-91283261D01*
X149207267Y-91379431D01*
X149207265Y-91379432D01*
X149020858Y-91509954D01*
X148859954Y-91670858D01*
X148729432Y-91857265D01*
X148729431Y-91857267D01*
X148633261Y-92063502D01*
X148633258Y-92063511D01*
X148574366Y-92283302D01*
X148574364Y-92283313D01*
X148554532Y-92509998D01*
X137900500Y-92509998D01*
X137900500Y-87782135D01*
X139819500Y-87782135D01*
X139819500Y-89477870D01*
X139819501Y-89477876D01*
X139825908Y-89537483D01*
X139876202Y-89672328D01*
X139876206Y-89672335D01*
X139962452Y-89787544D01*
X139962455Y-89787547D01*
X140077664Y-89873793D01*
X140077671Y-89873797D01*
X140212517Y-89924091D01*
X140212516Y-89924091D01*
X140219444Y-89924835D01*
X140272127Y-89930500D01*
X141967872Y-89930499D01*
X142027483Y-89924091D01*
X142162331Y-89873796D01*
X142277546Y-89787546D01*
X142363796Y-89672331D01*
X142414091Y-89537483D01*
X142420500Y-89477873D01*
X142420500Y-89407998D01*
X148319532Y-89407998D01*
X148319532Y-89408001D01*
X148339364Y-89634686D01*
X148339366Y-89634697D01*
X148398258Y-89854488D01*
X148398261Y-89854497D01*
X148494431Y-90060732D01*
X148494432Y-90060734D01*
X148624954Y-90247141D01*
X148785858Y-90408045D01*
X148785861Y-90408047D01*
X148972266Y-90538568D01*
X149178504Y-90634739D01*
X149398308Y-90693635D01*
X149560230Y-90707801D01*
X149624998Y-90713468D01*
X149625000Y-90713468D01*
X149625002Y-90713468D01*
X149681673Y-90708509D01*
X149851692Y-90693635D01*
X150071496Y-90634739D01*
X150277734Y-90538568D01*
X150464139Y-90408047D01*
X150625047Y-90247139D01*
X150755568Y-90060734D01*
X150851739Y-89854496D01*
X150910635Y-89634692D01*
X150930468Y-89408000D01*
X150910635Y-89181308D01*
X150851739Y-88961504D01*
X150755568Y-88755266D01*
X150625047Y-88568861D01*
X150625045Y-88568858D01*
X150464141Y-88407954D01*
X150277734Y-88277432D01*
X150277732Y-88277431D01*
X150071497Y-88181261D01*
X150071488Y-88181258D01*
X149851697Y-88122366D01*
X149851693Y-88122365D01*
X149851692Y-88122365D01*
X149851691Y-88122364D01*
X149851686Y-88122364D01*
X149625002Y-88102532D01*
X149624998Y-88102532D01*
X149398313Y-88122364D01*
X149398302Y-88122366D01*
X149178511Y-88181258D01*
X149178502Y-88181261D01*
X148972267Y-88277431D01*
X148972265Y-88277432D01*
X148785858Y-88407954D01*
X148624954Y-88568858D01*
X148494432Y-88755265D01*
X148494431Y-88755267D01*
X148398261Y-88961502D01*
X148398258Y-88961511D01*
X148339366Y-89181302D01*
X148339364Y-89181313D01*
X148319532Y-89407998D01*
X142420500Y-89407998D01*
X142420499Y-87782128D01*
X142414091Y-87722517D01*
X142410219Y-87712135D01*
X153874387Y-87712135D01*
X153874387Y-89407870D01*
X153874388Y-89407876D01*
X153880795Y-89467483D01*
X153931089Y-89602328D01*
X153931093Y-89602335D01*
X154017339Y-89717544D01*
X154017342Y-89717547D01*
X154132551Y-89803793D01*
X154132558Y-89803797D01*
X154267404Y-89854091D01*
X154267403Y-89854091D01*
X154271180Y-89854497D01*
X154327014Y-89860500D01*
X156022759Y-89860499D01*
X156082370Y-89854091D01*
X156217218Y-89803796D01*
X156332433Y-89717546D01*
X156418683Y-89602331D01*
X156468978Y-89467483D01*
X156475374Y-89407998D01*
X162778532Y-89407998D01*
X162778532Y-89408001D01*
X162798364Y-89634686D01*
X162798366Y-89634697D01*
X162857258Y-89854488D01*
X162857261Y-89854497D01*
X162953431Y-90060732D01*
X162953432Y-90060734D01*
X163083954Y-90247141D01*
X163244858Y-90408045D01*
X163244861Y-90408047D01*
X163431266Y-90538568D01*
X163637504Y-90634739D01*
X163857308Y-90693635D01*
X164019230Y-90707801D01*
X164083998Y-90713468D01*
X164084000Y-90713468D01*
X164084002Y-90713468D01*
X164140673Y-90708509D01*
X164310692Y-90693635D01*
X164530496Y-90634739D01*
X164736734Y-90538568D01*
X164923139Y-90408047D01*
X165084047Y-90247139D01*
X165214568Y-90060734D01*
X165310739Y-89854496D01*
X165369635Y-89634692D01*
X165389468Y-89408000D01*
X165369635Y-89181308D01*
X165310739Y-88961504D01*
X165214568Y-88755266D01*
X165084047Y-88568861D01*
X165084045Y-88568858D01*
X164923141Y-88407954D01*
X164736734Y-88277432D01*
X164736732Y-88277431D01*
X164530497Y-88181261D01*
X164530488Y-88181258D01*
X164310697Y-88122366D01*
X164310693Y-88122365D01*
X164310692Y-88122365D01*
X164310691Y-88122364D01*
X164310686Y-88122364D01*
X164084002Y-88102532D01*
X164083998Y-88102532D01*
X163857313Y-88122364D01*
X163857302Y-88122366D01*
X163637511Y-88181258D01*
X163637502Y-88181261D01*
X163431267Y-88277431D01*
X163431265Y-88277432D01*
X163244858Y-88407954D01*
X163083954Y-88568858D01*
X162953432Y-88755265D01*
X162953431Y-88755267D01*
X162857261Y-88961502D01*
X162857258Y-88961511D01*
X162798366Y-89181302D01*
X162798364Y-89181313D01*
X162778532Y-89407998D01*
X156475374Y-89407998D01*
X156475387Y-89407873D01*
X156475386Y-87712135D01*
X168044388Y-87712135D01*
X168044388Y-89407870D01*
X168044389Y-89407876D01*
X168050796Y-89467483D01*
X168101090Y-89602328D01*
X168101094Y-89602335D01*
X168187340Y-89717544D01*
X168187343Y-89717547D01*
X168302552Y-89803793D01*
X168302559Y-89803797D01*
X168437405Y-89854091D01*
X168437404Y-89854091D01*
X168441181Y-89854497D01*
X168497015Y-89860500D01*
X170192760Y-89860499D01*
X170252371Y-89854091D01*
X170387219Y-89803796D01*
X170502434Y-89717546D01*
X170588684Y-89602331D01*
X170638979Y-89467483D01*
X170645388Y-89407873D01*
X170645388Y-89369998D01*
X177002532Y-89369998D01*
X177002532Y-89370001D01*
X177022364Y-89596686D01*
X177022366Y-89596697D01*
X177081258Y-89816488D01*
X177081261Y-89816497D01*
X177177431Y-90022732D01*
X177177432Y-90022734D01*
X177307954Y-90209141D01*
X177468858Y-90370045D01*
X177468861Y-90370047D01*
X177655266Y-90500568D01*
X177861504Y-90596739D01*
X178081308Y-90655635D01*
X178243230Y-90669801D01*
X178307998Y-90675468D01*
X178308000Y-90675468D01*
X178308002Y-90675468D01*
X178364673Y-90670509D01*
X178534692Y-90655635D01*
X178754496Y-90596739D01*
X178960734Y-90500568D01*
X179147139Y-90370047D01*
X179308047Y-90209139D01*
X179438568Y-90022734D01*
X179534739Y-89816496D01*
X179593635Y-89596692D01*
X179613468Y-89370000D01*
X179593635Y-89143308D01*
X179544921Y-88961504D01*
X179534741Y-88923511D01*
X179534738Y-88923502D01*
X179456288Y-88755267D01*
X179438568Y-88717266D01*
X179308047Y-88530861D01*
X179308045Y-88530858D01*
X179147141Y-88369954D01*
X178960734Y-88239432D01*
X178960732Y-88239431D01*
X178754497Y-88143261D01*
X178754488Y-88143258D01*
X178534697Y-88084366D01*
X178534693Y-88084365D01*
X178534692Y-88084365D01*
X178534691Y-88084364D01*
X178534686Y-88084364D01*
X178308002Y-88064532D01*
X178307998Y-88064532D01*
X178081313Y-88084364D01*
X178081302Y-88084366D01*
X177861511Y-88143258D01*
X177861502Y-88143261D01*
X177655267Y-88239431D01*
X177655265Y-88239432D01*
X177468858Y-88369954D01*
X177307954Y-88530858D01*
X177177432Y-88717265D01*
X177177431Y-88717267D01*
X177081261Y-88923502D01*
X177081258Y-88923511D01*
X177022366Y-89143302D01*
X177022364Y-89143313D01*
X177002532Y-89369998D01*
X170645388Y-89369998D01*
X170645387Y-87712128D01*
X170638979Y-87652517D01*
X170614792Y-87587669D01*
X170588685Y-87517671D01*
X170588681Y-87517664D01*
X170502435Y-87402455D01*
X170502432Y-87402452D01*
X170387223Y-87316206D01*
X170387216Y-87316202D01*
X170252370Y-87265908D01*
X170252371Y-87265908D01*
X170192771Y-87259501D01*
X170192769Y-87259500D01*
X170192761Y-87259500D01*
X170192752Y-87259500D01*
X168497017Y-87259500D01*
X168497011Y-87259501D01*
X168437404Y-87265908D01*
X168302559Y-87316202D01*
X168302552Y-87316206D01*
X168187343Y-87402452D01*
X168187340Y-87402455D01*
X168101094Y-87517664D01*
X168101090Y-87517671D01*
X168050796Y-87652517D01*
X168044389Y-87712116D01*
X168044389Y-87712123D01*
X168044388Y-87712135D01*
X156475386Y-87712135D01*
X156475386Y-87712128D01*
X156468978Y-87652517D01*
X156444791Y-87587669D01*
X156418684Y-87517671D01*
X156418680Y-87517664D01*
X156332434Y-87402455D01*
X156332431Y-87402452D01*
X156217222Y-87316206D01*
X156217215Y-87316202D01*
X156082369Y-87265908D01*
X156082370Y-87265908D01*
X156022770Y-87259501D01*
X156022768Y-87259500D01*
X156022760Y-87259500D01*
X156022751Y-87259500D01*
X154327016Y-87259500D01*
X154327010Y-87259501D01*
X154267403Y-87265908D01*
X154132558Y-87316202D01*
X154132551Y-87316206D01*
X154017342Y-87402452D01*
X154017339Y-87402455D01*
X153931093Y-87517664D01*
X153931089Y-87517671D01*
X153880795Y-87652517D01*
X153874388Y-87712116D01*
X153874388Y-87712123D01*
X153874387Y-87712135D01*
X142410219Y-87712135D01*
X142410216Y-87712128D01*
X142363797Y-87587671D01*
X142363793Y-87587664D01*
X142277547Y-87472455D01*
X142277544Y-87472452D01*
X142162335Y-87386206D01*
X142162328Y-87386202D01*
X142027482Y-87335908D01*
X142027483Y-87335908D01*
X141967883Y-87329501D01*
X141967881Y-87329500D01*
X141967873Y-87329500D01*
X141967864Y-87329500D01*
X140272129Y-87329500D01*
X140272123Y-87329501D01*
X140212516Y-87335908D01*
X140077671Y-87386202D01*
X140077664Y-87386206D01*
X139962455Y-87472452D01*
X139962452Y-87472455D01*
X139876206Y-87587664D01*
X139876202Y-87587671D01*
X139825908Y-87722517D01*
X139819501Y-87782116D01*
X139819501Y-87782123D01*
X139819500Y-87782135D01*
X137900500Y-87782135D01*
X137900500Y-84080000D01*
X139534551Y-84080000D01*
X139554317Y-84331151D01*
X139613126Y-84576110D01*
X139709533Y-84808859D01*
X139841160Y-85023653D01*
X139841161Y-85023656D01*
X139841164Y-85023659D01*
X140004776Y-85215224D01*
X140153066Y-85341875D01*
X140196343Y-85378838D01*
X140196346Y-85378839D01*
X140411140Y-85510466D01*
X140629404Y-85600873D01*
X140643889Y-85606873D01*
X140888852Y-85665683D01*
X141140000Y-85685449D01*
X141391148Y-85665683D01*
X141636111Y-85606873D01*
X141868859Y-85510466D01*
X142083659Y-85378836D01*
X142275224Y-85215224D01*
X142438836Y-85023659D01*
X142570466Y-84808859D01*
X142666873Y-84576111D01*
X142725683Y-84331148D01*
X142745449Y-84080000D01*
X142725683Y-83828852D01*
X142666873Y-83583889D01*
X142570466Y-83351141D01*
X142570466Y-83351140D01*
X142438839Y-83136346D01*
X142438838Y-83136343D01*
X142401875Y-83093066D01*
X142275224Y-82944776D01*
X142260423Y-82932135D01*
X149699500Y-82932135D01*
X149699500Y-85227870D01*
X149699501Y-85227876D01*
X149705908Y-85287483D01*
X149756202Y-85422328D01*
X149756206Y-85422335D01*
X149842452Y-85537544D01*
X149842455Y-85537547D01*
X149957664Y-85623793D01*
X149957671Y-85623797D01*
X150092517Y-85674091D01*
X150092516Y-85674091D01*
X150096321Y-85674500D01*
X150152127Y-85680500D01*
X152447872Y-85680499D01*
X152507483Y-85674091D01*
X152642331Y-85623796D01*
X152757546Y-85537546D01*
X152843796Y-85422331D01*
X152894091Y-85287483D01*
X152900500Y-85227873D01*
X152900499Y-84060000D01*
X153544551Y-84060000D01*
X153564317Y-84311151D01*
X153623126Y-84556110D01*
X153719533Y-84788859D01*
X153851160Y-85003653D01*
X153851161Y-85003656D01*
X153906604Y-85068571D01*
X154014776Y-85195224D01*
X154163066Y-85321875D01*
X154206343Y-85358838D01*
X154206346Y-85358839D01*
X154421140Y-85490466D01*
X154534805Y-85537547D01*
X154653889Y-85586873D01*
X154898852Y-85645683D01*
X155150000Y-85665449D01*
X155401148Y-85645683D01*
X155646111Y-85586873D01*
X155878859Y-85490466D01*
X156093659Y-85358836D01*
X156285224Y-85195224D01*
X156448836Y-85003659D01*
X156580466Y-84788859D01*
X156676873Y-84556111D01*
X156735683Y-84311148D01*
X156755449Y-84060000D01*
X156735683Y-83808852D01*
X156676873Y-83563889D01*
X156580466Y-83331140D01*
X156448839Y-83116346D01*
X156448838Y-83116343D01*
X156411875Y-83073066D01*
X156285224Y-82924776D01*
X156270423Y-82912135D01*
X163709500Y-82912135D01*
X163709500Y-85207870D01*
X163709501Y-85207876D01*
X163715908Y-85267483D01*
X163766202Y-85402328D01*
X163766206Y-85402335D01*
X163852452Y-85517544D01*
X163852455Y-85517547D01*
X163967664Y-85603793D01*
X163967671Y-85603797D01*
X164102517Y-85654091D01*
X164102516Y-85654091D01*
X164109444Y-85654835D01*
X164162127Y-85660500D01*
X166457872Y-85660499D01*
X166517483Y-85654091D01*
X166652331Y-85603796D01*
X166767546Y-85517546D01*
X166853796Y-85402331D01*
X166904091Y-85267483D01*
X166910500Y-85207873D01*
X166910500Y-84074000D01*
X167558551Y-84074000D01*
X167578317Y-84325151D01*
X167637126Y-84570110D01*
X167733533Y-84802859D01*
X167865160Y-85017653D01*
X167865161Y-85017656D01*
X167865164Y-85017659D01*
X168028776Y-85209224D01*
X168177066Y-85335875D01*
X168220343Y-85372838D01*
X168220346Y-85372839D01*
X168435140Y-85504466D01*
X168634090Y-85586873D01*
X168667889Y-85600873D01*
X168912852Y-85659683D01*
X169164000Y-85679449D01*
X169415148Y-85659683D01*
X169660111Y-85600873D01*
X169892859Y-85504466D01*
X170107659Y-85372836D01*
X170299224Y-85209224D01*
X170462836Y-85017659D01*
X170594466Y-84802859D01*
X170690873Y-84570111D01*
X170749683Y-84325148D01*
X170769449Y-84074000D01*
X170749683Y-83822852D01*
X170690873Y-83577889D01*
X170685074Y-83563889D01*
X170594466Y-83345140D01*
X170462839Y-83130346D01*
X170462838Y-83130343D01*
X170304348Y-82944776D01*
X170299224Y-82938776D01*
X170284423Y-82926135D01*
X177723500Y-82926135D01*
X177723500Y-85221870D01*
X177723501Y-85221876D01*
X177729908Y-85281483D01*
X177780202Y-85416328D01*
X177780206Y-85416335D01*
X177866452Y-85531544D01*
X177866455Y-85531547D01*
X177981664Y-85617793D01*
X177981671Y-85617797D01*
X178116517Y-85668091D01*
X178116516Y-85668091D01*
X178123444Y-85668835D01*
X178176127Y-85674500D01*
X180471872Y-85674499D01*
X180531483Y-85668091D01*
X180666331Y-85617796D01*
X180781546Y-85531546D01*
X180867796Y-85416331D01*
X180918091Y-85281483D01*
X180924500Y-85221873D01*
X180924499Y-82926128D01*
X180918091Y-82866517D01*
X180912869Y-82852517D01*
X180867797Y-82731671D01*
X180867793Y-82731664D01*
X180781547Y-82616455D01*
X180781544Y-82616452D01*
X180666335Y-82530206D01*
X180666328Y-82530202D01*
X180531482Y-82479908D01*
X180531483Y-82479908D01*
X180471883Y-82473501D01*
X180471881Y-82473500D01*
X180471873Y-82473500D01*
X180471864Y-82473500D01*
X178176129Y-82473500D01*
X178176123Y-82473501D01*
X178116516Y-82479908D01*
X177981671Y-82530202D01*
X177981664Y-82530206D01*
X177866455Y-82616452D01*
X177866452Y-82616455D01*
X177780206Y-82731664D01*
X177780202Y-82731671D01*
X177729908Y-82866517D01*
X177725005Y-82912127D01*
X177723501Y-82926123D01*
X177723500Y-82926135D01*
X170284423Y-82926135D01*
X170172571Y-82830604D01*
X170107656Y-82775161D01*
X170107653Y-82775160D01*
X169892859Y-82643533D01*
X169660110Y-82547126D01*
X169415151Y-82488317D01*
X169164000Y-82468551D01*
X168912848Y-82488317D01*
X168667889Y-82547126D01*
X168435140Y-82643533D01*
X168220346Y-82775160D01*
X168220343Y-82775161D01*
X168028776Y-82938776D01*
X167865161Y-83130343D01*
X167865160Y-83130346D01*
X167733533Y-83345140D01*
X167637126Y-83577889D01*
X167578317Y-83822848D01*
X167558551Y-84074000D01*
X166910500Y-84074000D01*
X166910499Y-82912128D01*
X166904091Y-82852517D01*
X166875240Y-82775164D01*
X166853797Y-82717671D01*
X166853793Y-82717664D01*
X166767547Y-82602455D01*
X166767544Y-82602452D01*
X166652335Y-82516206D01*
X166652328Y-82516202D01*
X166517482Y-82465908D01*
X166517483Y-82465908D01*
X166457883Y-82459501D01*
X166457881Y-82459500D01*
X166457873Y-82459500D01*
X166457864Y-82459500D01*
X164162129Y-82459500D01*
X164162123Y-82459501D01*
X164102516Y-82465908D01*
X163967671Y-82516202D01*
X163967664Y-82516206D01*
X163852455Y-82602452D01*
X163852452Y-82602455D01*
X163766206Y-82717664D01*
X163766202Y-82717671D01*
X163715908Y-82852517D01*
X163709501Y-82912116D01*
X163709501Y-82912123D01*
X163709500Y-82912135D01*
X156270423Y-82912135D01*
X156117076Y-82781164D01*
X156093656Y-82761161D01*
X156093653Y-82761160D01*
X155878859Y-82629533D01*
X155646110Y-82533126D01*
X155401151Y-82474317D01*
X155150000Y-82454551D01*
X154898848Y-82474317D01*
X154653889Y-82533126D01*
X154421140Y-82629533D01*
X154206346Y-82761160D01*
X154206343Y-82761161D01*
X154014776Y-82924776D01*
X153851161Y-83116343D01*
X153851160Y-83116346D01*
X153719533Y-83331140D01*
X153623126Y-83563889D01*
X153564317Y-83808848D01*
X153544551Y-84060000D01*
X152900499Y-84060000D01*
X152900499Y-82932128D01*
X152894091Y-82872517D01*
X152891853Y-82866517D01*
X152843797Y-82737671D01*
X152843793Y-82737664D01*
X152757547Y-82622455D01*
X152757544Y-82622452D01*
X152642335Y-82536206D01*
X152642328Y-82536202D01*
X152507482Y-82485908D01*
X152507483Y-82485908D01*
X152447883Y-82479501D01*
X152447881Y-82479500D01*
X152447873Y-82479500D01*
X152447864Y-82479500D01*
X150152129Y-82479500D01*
X150152123Y-82479501D01*
X150092516Y-82485908D01*
X149957671Y-82536202D01*
X149957664Y-82536206D01*
X149842455Y-82622452D01*
X149842452Y-82622455D01*
X149756206Y-82737664D01*
X149756202Y-82737671D01*
X149705908Y-82872517D01*
X149700145Y-82926127D01*
X149699501Y-82932123D01*
X149699500Y-82932135D01*
X142260423Y-82932135D01*
X142148571Y-82836604D01*
X142083656Y-82781161D01*
X142083653Y-82781160D01*
X141868859Y-82649533D01*
X141636110Y-82553126D01*
X141391151Y-82494317D01*
X141140000Y-82474551D01*
X140888848Y-82494317D01*
X140643889Y-82553126D01*
X140411140Y-82649533D01*
X140196346Y-82781160D01*
X140196343Y-82781161D01*
X140004776Y-82944776D01*
X139841161Y-83136343D01*
X139841160Y-83136346D01*
X139709533Y-83351140D01*
X139613126Y-83583889D01*
X139554317Y-83828848D01*
X139534551Y-84080000D01*
X137900500Y-84080000D01*
X137900500Y-79967553D01*
X151710357Y-79967553D01*
X154309521Y-79967553D01*
X167712357Y-79967553D01*
X170311521Y-79967553D01*
X170311521Y-78154103D01*
X167712357Y-78154103D01*
X167712357Y-79967553D01*
X154309521Y-79967553D01*
X154309521Y-78154103D01*
X151710357Y-78154103D01*
X151710357Y-79967553D01*
X137900500Y-79967553D01*
X137900500Y-75203750D01*
X137900726Y-75196263D01*
X137918271Y-74906205D01*
X137920076Y-74891340D01*
X137921805Y-74881908D01*
X137921806Y-74881902D01*
X138799500Y-74881902D01*
X138799500Y-75118097D01*
X138836446Y-75351368D01*
X138909433Y-75575996D01*
X139016657Y-75786433D01*
X139155483Y-75977510D01*
X139322490Y-76144517D01*
X139513567Y-76283343D01*
X139612991Y-76334002D01*
X139724003Y-76390566D01*
X139724005Y-76390566D01*
X139724008Y-76390568D01*
X139844412Y-76429689D01*
X139948631Y-76463553D01*
X140181903Y-76500500D01*
X140181908Y-76500500D01*
X140418097Y-76500500D01*
X140651368Y-76463553D01*
X140875992Y-76390568D01*
X141086433Y-76283343D01*
X141277510Y-76144517D01*
X141444517Y-75977510D01*
X141583343Y-75786433D01*
X141690568Y-75575992D01*
X141763553Y-75351368D01*
X141800500Y-75118097D01*
X141800500Y-74881902D01*
X141763553Y-74648631D01*
X141690566Y-74424003D01*
X141668136Y-74379983D01*
X151629500Y-74379983D01*
X151629500Y-75980001D01*
X151629501Y-75980018D01*
X151640000Y-76082796D01*
X151640001Y-76082799D01*
X151645481Y-76099336D01*
X151695186Y-76249334D01*
X151787288Y-76398656D01*
X151911344Y-76522712D01*
X152060666Y-76614814D01*
X152227203Y-76669999D01*
X152329991Y-76680500D01*
X153630008Y-76680499D01*
X153732797Y-76669999D01*
X153899334Y-76614814D01*
X154048656Y-76522712D01*
X154172712Y-76398656D01*
X154264814Y-76249334D01*
X154319999Y-76082797D01*
X154330500Y-75980009D01*
X154330499Y-74379992D01*
X154319999Y-74277203D01*
X154304352Y-74229983D01*
X167749500Y-74229983D01*
X167749500Y-75830001D01*
X167749501Y-75830018D01*
X167760000Y-75932796D01*
X167760001Y-75932799D01*
X167809706Y-76082796D01*
X167815186Y-76099334D01*
X167907288Y-76248656D01*
X168031344Y-76372712D01*
X168180666Y-76464814D01*
X168347203Y-76519999D01*
X168449991Y-76530500D01*
X169750008Y-76530499D01*
X169852797Y-76519999D01*
X170019334Y-76464814D01*
X170168656Y-76372712D01*
X170292712Y-76248656D01*
X170384814Y-76099334D01*
X170439999Y-75932797D01*
X170450500Y-75830009D01*
X170450499Y-74881902D01*
X179399500Y-74881902D01*
X179399500Y-75118097D01*
X179436446Y-75351368D01*
X179509433Y-75575996D01*
X179616657Y-75786433D01*
X179755483Y-75977510D01*
X179922490Y-76144517D01*
X180113567Y-76283343D01*
X180212991Y-76334002D01*
X180324003Y-76390566D01*
X180324005Y-76390566D01*
X180324008Y-76390568D01*
X180444412Y-76429689D01*
X180548631Y-76463553D01*
X180781903Y-76500500D01*
X180781908Y-76500500D01*
X181018097Y-76500500D01*
X181251368Y-76463553D01*
X181475992Y-76390568D01*
X181686433Y-76283343D01*
X181877510Y-76144517D01*
X182044517Y-75977510D01*
X182183343Y-75786433D01*
X182290568Y-75575992D01*
X182363553Y-75351368D01*
X182400500Y-75118097D01*
X182400500Y-74881902D01*
X182363553Y-74648631D01*
X182290566Y-74424003D01*
X182230863Y-74306831D01*
X182183343Y-74213567D01*
X182044517Y-74022490D01*
X181877510Y-73855483D01*
X181686433Y-73716657D01*
X181475996Y-73609433D01*
X181251368Y-73536446D01*
X181018097Y-73499500D01*
X181018092Y-73499500D01*
X180781908Y-73499500D01*
X180781903Y-73499500D01*
X180548631Y-73536446D01*
X180324003Y-73609433D01*
X180113566Y-73716657D01*
X180004550Y-73795862D01*
X179922490Y-73855483D01*
X179922488Y-73855485D01*
X179922487Y-73855485D01*
X179755485Y-74022487D01*
X179755485Y-74022488D01*
X179755483Y-74022490D01*
X179695862Y-74104550D01*
X179616657Y-74213566D01*
X179509433Y-74424003D01*
X179436446Y-74648631D01*
X179399500Y-74881902D01*
X170450499Y-74881902D01*
X170450499Y-74229992D01*
X170439999Y-74127203D01*
X170384814Y-73960666D01*
X170292712Y-73811344D01*
X170168656Y-73687288D01*
X170019334Y-73595186D01*
X169852797Y-73540001D01*
X169852795Y-73540000D01*
X169750010Y-73529500D01*
X168449998Y-73529500D01*
X168449981Y-73529501D01*
X168347203Y-73540000D01*
X168347200Y-73540001D01*
X168180668Y-73595185D01*
X168180663Y-73595187D01*
X168031342Y-73687289D01*
X167907289Y-73811342D01*
X167815187Y-73960663D01*
X167815185Y-73960668D01*
X167787349Y-74044670D01*
X167760001Y-74127203D01*
X167760001Y-74127204D01*
X167760000Y-74127204D01*
X167749500Y-74229983D01*
X154304352Y-74229983D01*
X154264814Y-74110666D01*
X154172712Y-73961344D01*
X154048656Y-73837288D01*
X153899334Y-73745186D01*
X153732797Y-73690001D01*
X153732795Y-73690000D01*
X153630010Y-73679500D01*
X152329998Y-73679500D01*
X152329981Y-73679501D01*
X152227203Y-73690000D01*
X152227200Y-73690001D01*
X152060668Y-73745185D01*
X152060663Y-73745187D01*
X151911342Y-73837289D01*
X151787289Y-73961342D01*
X151695187Y-74110663D01*
X151695186Y-74110666D01*
X151640001Y-74277203D01*
X151640001Y-74277204D01*
X151640000Y-74277204D01*
X151629500Y-74379983D01*
X141668136Y-74379983D01*
X141630863Y-74306831D01*
X141583343Y-74213567D01*
X141444517Y-74022490D01*
X141277510Y-73855483D01*
X141086433Y-73716657D01*
X140875996Y-73609433D01*
X140651368Y-73536446D01*
X140418097Y-73499500D01*
X140418092Y-73499500D01*
X140181908Y-73499500D01*
X140181903Y-73499500D01*
X139948631Y-73536446D01*
X139724003Y-73609433D01*
X139513566Y-73716657D01*
X139404550Y-73795862D01*
X139322490Y-73855483D01*
X139322488Y-73855485D01*
X139322487Y-73855485D01*
X139155485Y-74022487D01*
X139155485Y-74022488D01*
X139155483Y-74022490D01*
X139095862Y-74104550D01*
X139016657Y-74213566D01*
X138909433Y-74424003D01*
X138836446Y-74648631D01*
X138799500Y-74881902D01*
X137921806Y-74881902D01*
X137971780Y-74609197D01*
X137975364Y-74594663D01*
X138060696Y-74320822D01*
X138065998Y-74306841D01*
X138183731Y-74045249D01*
X138190676Y-74032016D01*
X138339080Y-73786526D01*
X138347567Y-73774230D01*
X138524480Y-73548417D01*
X138534395Y-73537226D01*
X138737226Y-73334395D01*
X138748417Y-73324480D01*
X138974230Y-73147567D01*
X138986526Y-73139080D01*
X139232016Y-72990676D01*
X139245249Y-72983731D01*
X139506841Y-72865998D01*
X139520822Y-72860696D01*
X139794668Y-72775362D01*
X139809197Y-72771780D01*
X140091344Y-72720075D01*
X140106201Y-72718271D01*
X140396264Y-72700726D01*
X140403751Y-72700500D01*
X140465892Y-72700500D01*
X180634108Y-72700500D01*
X180696249Y-72700500D01*
X180703736Y-72700726D01*
G37*
%TD.AperFunction*%
%TD*%
M02*
