%TF.GenerationSoftware,KiCad,Pcbnew,8.0.4*%
%TF.CreationDate,2024-09-01T23:45:10+09:00*%
%TF.ProjectId,servo_supply,73657276-6f5f-4737-9570-706c792e6b69,rev?*%
%TF.SameCoordinates,Original*%
%TF.FileFunction,Legend,Bot*%
%TF.FilePolarity,Positive*%
%FSLAX46Y46*%
G04 Gerber Fmt 4.6, Leading zero omitted, Abs format (unit mm)*
G04 Created by KiCad (PCBNEW 8.0.4) date 2024-09-01 23:45:10*
%MOMM*%
%LPD*%
G01*
G04 APERTURE LIST*
%ADD10C,0.150000*%
%ADD11C,0.120000*%
G04 APERTURE END LIST*
D10*
X173227904Y-88172819D02*
X173227904Y-88982342D01*
X173227904Y-88982342D02*
X173180285Y-89077580D01*
X173180285Y-89077580D02*
X173132666Y-89125200D01*
X173132666Y-89125200D02*
X173037428Y-89172819D01*
X173037428Y-89172819D02*
X172846952Y-89172819D01*
X172846952Y-89172819D02*
X172751714Y-89125200D01*
X172751714Y-89125200D02*
X172704095Y-89077580D01*
X172704095Y-89077580D02*
X172656476Y-88982342D01*
X172656476Y-88982342D02*
X172656476Y-88172819D01*
X171656476Y-89172819D02*
X172227904Y-89172819D01*
X171942190Y-89172819D02*
X171942190Y-88172819D01*
X171942190Y-88172819D02*
X172037428Y-88315676D01*
X172037428Y-88315676D02*
X172132666Y-88410914D01*
X172132666Y-88410914D02*
X172227904Y-88458533D01*
X159105904Y-88172819D02*
X159105904Y-88982342D01*
X159105904Y-88982342D02*
X159058285Y-89077580D01*
X159058285Y-89077580D02*
X159010666Y-89125200D01*
X159010666Y-89125200D02*
X158915428Y-89172819D01*
X158915428Y-89172819D02*
X158724952Y-89172819D01*
X158724952Y-89172819D02*
X158629714Y-89125200D01*
X158629714Y-89125200D02*
X158582095Y-89077580D01*
X158582095Y-89077580D02*
X158534476Y-88982342D01*
X158534476Y-88982342D02*
X158534476Y-88172819D01*
X158105904Y-88268057D02*
X158058285Y-88220438D01*
X158058285Y-88220438D02*
X157963047Y-88172819D01*
X157963047Y-88172819D02*
X157724952Y-88172819D01*
X157724952Y-88172819D02*
X157629714Y-88220438D01*
X157629714Y-88220438D02*
X157582095Y-88268057D01*
X157582095Y-88268057D02*
X157534476Y-88363295D01*
X157534476Y-88363295D02*
X157534476Y-88458533D01*
X157534476Y-88458533D02*
X157582095Y-88601390D01*
X157582095Y-88601390D02*
X158153523Y-89172819D01*
X158153523Y-89172819D02*
X157534476Y-89172819D01*
X159673333Y-101284819D02*
X159673333Y-101999104D01*
X159673333Y-101999104D02*
X159720952Y-102141961D01*
X159720952Y-102141961D02*
X159816190Y-102237200D01*
X159816190Y-102237200D02*
X159959047Y-102284819D01*
X159959047Y-102284819D02*
X160054285Y-102284819D01*
X158673333Y-102284819D02*
X159244761Y-102284819D01*
X158959047Y-102284819D02*
X158959047Y-101284819D01*
X158959047Y-101284819D02*
X159054285Y-101427676D01*
X159054285Y-101427676D02*
X159149523Y-101522914D01*
X159149523Y-101522914D02*
X159244761Y-101570533D01*
X153411428Y-105944700D02*
X152268571Y-105944700D01*
X152839999Y-106516128D02*
X152839999Y-105373271D01*
X166411428Y-105944700D02*
X165268571Y-105944700D01*
X145033904Y-88172819D02*
X145033904Y-88982342D01*
X145033904Y-88982342D02*
X144986285Y-89077580D01*
X144986285Y-89077580D02*
X144938666Y-89125200D01*
X144938666Y-89125200D02*
X144843428Y-89172819D01*
X144843428Y-89172819D02*
X144652952Y-89172819D01*
X144652952Y-89172819D02*
X144557714Y-89125200D01*
X144557714Y-89125200D02*
X144510095Y-89077580D01*
X144510095Y-89077580D02*
X144462476Y-88982342D01*
X144462476Y-88982342D02*
X144462476Y-88172819D01*
X144081523Y-88172819D02*
X143462476Y-88172819D01*
X143462476Y-88172819D02*
X143795809Y-88553771D01*
X143795809Y-88553771D02*
X143652952Y-88553771D01*
X143652952Y-88553771D02*
X143557714Y-88601390D01*
X143557714Y-88601390D02*
X143510095Y-88649009D01*
X143510095Y-88649009D02*
X143462476Y-88744247D01*
X143462476Y-88744247D02*
X143462476Y-88982342D01*
X143462476Y-88982342D02*
X143510095Y-89077580D01*
X143510095Y-89077580D02*
X143557714Y-89125200D01*
X143557714Y-89125200D02*
X143652952Y-89172819D01*
X143652952Y-89172819D02*
X143938666Y-89172819D01*
X143938666Y-89172819D02*
X144033904Y-89125200D01*
X144033904Y-89125200D02*
X144081523Y-89077580D01*
D11*
%TO.C,U1*%
X170556000Y-89808000D02*
X174316000Y-89808000D01*
X170556000Y-91068000D02*
X170556000Y-89808000D01*
X170556000Y-95368000D02*
X170556000Y-96628000D01*
X170556000Y-96628000D02*
X174316000Y-96628000D01*
X175596000Y-89908000D02*
X175356000Y-89578000D01*
X175836000Y-89578000D01*
X175596000Y-89908000D01*
G36*
X175596000Y-89908000D02*
G01*
X175356000Y-89578000D01*
X175836000Y-89578000D01*
X175596000Y-89908000D01*
G37*
%TO.C,U2*%
X156434000Y-89808000D02*
X160194000Y-89808000D01*
X156434000Y-91068000D02*
X156434000Y-89808000D01*
X156434000Y-95368000D02*
X156434000Y-96628000D01*
X156434000Y-96628000D02*
X160194000Y-96628000D01*
X161474000Y-89908000D02*
X161234000Y-89578000D01*
X161714000Y-89578000D01*
X161474000Y-89908000D01*
G36*
X161474000Y-89908000D02*
G01*
X161234000Y-89578000D01*
X161714000Y-89578000D01*
X161474000Y-89908000D01*
G37*
%TO.C,J1*%
X154130000Y-103120000D02*
X162850000Y-103120000D01*
X154130000Y-108540000D02*
X154130000Y-103120000D01*
X154130000Y-108540000D02*
X162850000Y-108540000D01*
X162850000Y-103120000D02*
X164550000Y-104420000D01*
X162850000Y-108540000D02*
X164550000Y-107240000D01*
X164550000Y-107240000D02*
X164550000Y-104420000D01*
%TO.C,U3*%
X142362000Y-89808000D02*
X146122000Y-89808000D01*
X142362000Y-91068000D02*
X142362000Y-89808000D01*
X142362000Y-95368000D02*
X142362000Y-96628000D01*
X142362000Y-96628000D02*
X146122000Y-96628000D01*
X147402000Y-89908000D02*
X147162000Y-89578000D01*
X147642000Y-89578000D01*
X147402000Y-89908000D01*
G36*
X147402000Y-89908000D02*
G01*
X147162000Y-89578000D01*
X147642000Y-89578000D01*
X147402000Y-89908000D01*
G37*
%TD*%
M02*
