%TF.GenerationSoftware,KiCad,Pcbnew,8.0.5*%
%TF.CreationDate,2024-09-19T19:13:46+09:00*%
%TF.ProjectId,led_supply,6c65645f-7375-4707-906c-792e6b696361,rev?*%
%TF.SameCoordinates,Original*%
%TF.FileFunction,Copper,L2,Bot*%
%TF.FilePolarity,Positive*%
%FSLAX46Y46*%
G04 Gerber Fmt 4.6, Leading zero omitted, Abs format (unit mm)*
G04 Created by KiCad (PCBNEW 8.0.5) date 2024-09-19 19:13:46*
%MOMM*%
%LPD*%
G01*
G04 APERTURE LIST*
%TA.AperFunction,ComponentPad*%
%ADD10R,2.000000X1.905000*%
%TD*%
%TA.AperFunction,ComponentPad*%
%ADD11O,2.000000X1.905000*%
%TD*%
%TA.AperFunction,ComponentPad*%
%ADD12R,3.800000X3.800000*%
%TD*%
%TA.AperFunction,ComponentPad*%
%ADD13C,3.800000*%
%TD*%
%TA.AperFunction,ComponentPad*%
%ADD14C,4.000000*%
%TD*%
%TA.AperFunction,ComponentPad*%
%ADD15C,1.600000*%
%TD*%
%TA.AperFunction,Conductor*%
%ADD16C,2.000000*%
%TD*%
%TA.AperFunction,Conductor*%
%ADD17C,0.800000*%
%TD*%
G04 APERTURE END LIST*
D10*
%TO.P,U1,1,Vin*%
%TO.N,Net-(J1-Pin_2)*%
X134620000Y-88900000D03*
D11*
%TO.P,U1,2,Vout*%
%TO.N,Net-(J2-Pin_2)*%
X134620000Y-86360000D03*
%TO.P,U1,3,GND*%
%TO.N,GND*%
X134620000Y-83820000D03*
%TO.P,U1,4,Control*%
%TO.N,Net-(J1-Pin_2)*%
X134620000Y-81280000D03*
%TD*%
D12*
%TO.P,J2,1,Pin_1*%
%TO.N,GND*%
X150380000Y-83840000D03*
D13*
%TO.P,J2,2,Pin_2*%
%TO.N,Net-(J2-Pin_2)*%
X150380000Y-88840000D03*
%TD*%
D12*
%TO.P,J1,1,Pin_1*%
%TO.N,GND*%
X116250000Y-83730000D03*
D14*
%TO.P,J1,2,Pin_2*%
%TO.N,Net-(J1-Pin_2)*%
X116250000Y-88730000D03*
%TD*%
D15*
%TO.P,C2,1*%
%TO.N,Net-(J2-Pin_2)*%
X141960000Y-88820000D03*
%TO.P,C2,2*%
%TO.N,GND*%
X141960000Y-83820000D03*
%TD*%
%TO.P,C1,1*%
%TO.N,Net-(J1-Pin_2)*%
X123610000Y-88840000D03*
%TO.P,C1,2*%
%TO.N,GND*%
X123610000Y-83840000D03*
%TD*%
D16*
%TO.N,Net-(J2-Pin_2)*%
X150360000Y-88820000D02*
X139710000Y-88820000D01*
X150380000Y-88840000D02*
X150360000Y-88820000D01*
%TO.N,Net-(J1-Pin_2)*%
X116360000Y-88840000D02*
X116250000Y-88730000D01*
X134560000Y-88840000D02*
X116360000Y-88840000D01*
X134620000Y-88900000D02*
X134560000Y-88840000D01*
%TO.N,Net-(J2-Pin_2)*%
X137130000Y-86360000D02*
X134620000Y-86360000D01*
X139590000Y-88820000D02*
X137130000Y-86360000D01*
%TO.N,Net-(J1-Pin_2)*%
X132650000Y-81280000D02*
X134620000Y-81280000D01*
X125030000Y-88900000D02*
X132650000Y-81280000D01*
X125010000Y-88900000D02*
X125030000Y-88900000D01*
D17*
X128630000Y-88900000D02*
X128590000Y-88860000D01*
%TD*%
%TA.AperFunction,Conductor*%
%TO.N,GND*%
G36*
X155382539Y-78590185D02*
G01*
X155428294Y-78642989D01*
X155439500Y-78694500D01*
X155439500Y-98005500D01*
X155419815Y-98072539D01*
X155367011Y-98118294D01*
X155315500Y-98129500D01*
X110974500Y-98129500D01*
X110907461Y-98109815D01*
X110861706Y-98057011D01*
X110850500Y-98005500D01*
X110850500Y-88729994D01*
X113744556Y-88729994D01*
X113744556Y-88730005D01*
X113764310Y-89044004D01*
X113764311Y-89044011D01*
X113823270Y-89353083D01*
X113920497Y-89652316D01*
X113920499Y-89652321D01*
X114054461Y-89937003D01*
X114054464Y-89937009D01*
X114223051Y-90202661D01*
X114223054Y-90202665D01*
X114423606Y-90445090D01*
X114423608Y-90445092D01*
X114652968Y-90660476D01*
X114652978Y-90660484D01*
X114907504Y-90845408D01*
X114907509Y-90845410D01*
X114907516Y-90845416D01*
X115183234Y-90996994D01*
X115183239Y-90996996D01*
X115183241Y-90996997D01*
X115183242Y-90996998D01*
X115475771Y-91112818D01*
X115475774Y-91112819D01*
X115780523Y-91191065D01*
X115780527Y-91191066D01*
X115846010Y-91199338D01*
X116092670Y-91230499D01*
X116092679Y-91230499D01*
X116092682Y-91230500D01*
X116092684Y-91230500D01*
X116407316Y-91230500D01*
X116407318Y-91230500D01*
X116407321Y-91230499D01*
X116407329Y-91230499D01*
X116593593Y-91206968D01*
X116719473Y-91191066D01*
X117024225Y-91112819D01*
X117024228Y-91112818D01*
X117316757Y-90996998D01*
X117316758Y-90996997D01*
X117316756Y-90996997D01*
X117316766Y-90996994D01*
X117592484Y-90845416D01*
X117847030Y-90660478D01*
X118076390Y-90445094D01*
X118125725Y-90385458D01*
X118183624Y-90346352D01*
X118221268Y-90340500D01*
X124568042Y-90340500D01*
X124606360Y-90346569D01*
X124658631Y-90363553D01*
X124891903Y-90400500D01*
X124891908Y-90400500D01*
X125148097Y-90400500D01*
X125381368Y-90363553D01*
X125433640Y-90346569D01*
X125471958Y-90340500D01*
X133473814Y-90340500D01*
X133504667Y-90346066D01*
X133504965Y-90344807D01*
X133512508Y-90346589D01*
X133512513Y-90346589D01*
X133512517Y-90346591D01*
X133572127Y-90353000D01*
X134216512Y-90352999D01*
X134254831Y-90359068D01*
X134268632Y-90363553D01*
X134385270Y-90382026D01*
X134501903Y-90400500D01*
X134501908Y-90400500D01*
X134738097Y-90400500D01*
X134844127Y-90383705D01*
X134971369Y-90363553D01*
X134985169Y-90359068D01*
X135023489Y-90352999D01*
X135667871Y-90352999D01*
X135667872Y-90352999D01*
X135727483Y-90346591D01*
X135862331Y-90296296D01*
X135977546Y-90210046D01*
X136063796Y-90094831D01*
X136114091Y-89959983D01*
X136120500Y-89900373D01*
X136120500Y-88908691D01*
X136120500Y-88781908D01*
X136120500Y-88774313D01*
X136120499Y-88774295D01*
X136120499Y-87984500D01*
X136140184Y-87917461D01*
X136192988Y-87871706D01*
X136244499Y-87860500D01*
X136457111Y-87860500D01*
X136524150Y-87880185D01*
X136544792Y-87896819D01*
X138612490Y-89964517D01*
X138803566Y-90103343D01*
X139014008Y-90210568D01*
X139014010Y-90210569D01*
X139126319Y-90247060D01*
X139238631Y-90283552D01*
X139346673Y-90300663D01*
X139471903Y-90320499D01*
X139471908Y-90320499D01*
X139586773Y-90320499D01*
X139586797Y-90320500D01*
X139591908Y-90320500D01*
X148430971Y-90320500D01*
X148498010Y-90340185D01*
X148526515Y-90365460D01*
X148626649Y-90486502D01*
X148846836Y-90693272D01*
X148846846Y-90693280D01*
X149091193Y-90870808D01*
X149091198Y-90870810D01*
X149091205Y-90870816D01*
X149355896Y-91016332D01*
X149355901Y-91016334D01*
X149355903Y-91016335D01*
X149355904Y-91016336D01*
X149636734Y-91127524D01*
X149636737Y-91127525D01*
X149734259Y-91152564D01*
X149929302Y-91202642D01*
X150076039Y-91221179D01*
X150228963Y-91240499D01*
X150228969Y-91240499D01*
X150228973Y-91240500D01*
X150228975Y-91240500D01*
X150531025Y-91240500D01*
X150531027Y-91240500D01*
X150531032Y-91240499D01*
X150531036Y-91240499D01*
X150610591Y-91230448D01*
X150830698Y-91202642D01*
X151123262Y-91127525D01*
X151123265Y-91127524D01*
X151404095Y-91016336D01*
X151404096Y-91016335D01*
X151404094Y-91016335D01*
X151404104Y-91016332D01*
X151668795Y-90870816D01*
X151913162Y-90693274D01*
X152133349Y-90486504D01*
X152325885Y-90253768D01*
X152487733Y-89998736D01*
X152616341Y-89725430D01*
X152709681Y-89438160D01*
X152766280Y-89141457D01*
X152772411Y-89044011D01*
X152785246Y-88840005D01*
X152785246Y-88839994D01*
X152766281Y-88538553D01*
X152766280Y-88538546D01*
X152766280Y-88538543D01*
X152709681Y-88241840D01*
X152616341Y-87954570D01*
X152589165Y-87896819D01*
X152487734Y-87681267D01*
X152487733Y-87681264D01*
X152387293Y-87522996D01*
X152325888Y-87426236D01*
X152254134Y-87339500D01*
X152133349Y-87193496D01*
X151913162Y-86986726D01*
X151913159Y-86986724D01*
X151913153Y-86986719D01*
X151668806Y-86809191D01*
X151668799Y-86809186D01*
X151668795Y-86809184D01*
X151404104Y-86663668D01*
X151404101Y-86663666D01*
X151404096Y-86663664D01*
X151404095Y-86663663D01*
X151123265Y-86552475D01*
X151123262Y-86552474D01*
X150830695Y-86477357D01*
X150531036Y-86439500D01*
X150531027Y-86439500D01*
X150228973Y-86439500D01*
X150228963Y-86439500D01*
X149929304Y-86477357D01*
X149636737Y-86552474D01*
X149636734Y-86552475D01*
X149355904Y-86663663D01*
X149355903Y-86663664D01*
X149091205Y-86809184D01*
X149091193Y-86809191D01*
X148846846Y-86986719D01*
X148846836Y-86986727D01*
X148626649Y-87193497D01*
X148626647Y-87193499D01*
X148559604Y-87274541D01*
X148501705Y-87313648D01*
X148464061Y-87319500D01*
X140262889Y-87319500D01*
X140195850Y-87299815D01*
X140175208Y-87283181D01*
X138107511Y-85215484D01*
X137916434Y-85076657D01*
X137705996Y-84969433D01*
X137481368Y-84896446D01*
X137248097Y-84859500D01*
X137248092Y-84859500D01*
X134501908Y-84859500D01*
X134501903Y-84859500D01*
X134268631Y-84896446D01*
X134044003Y-84969433D01*
X133833566Y-85076657D01*
X133724550Y-85155862D01*
X133642490Y-85215483D01*
X133642488Y-85215485D01*
X133642487Y-85215485D01*
X133475485Y-85382487D01*
X133475485Y-85382488D01*
X133475483Y-85382490D01*
X133415862Y-85464550D01*
X133336657Y-85573566D01*
X133229433Y-85784003D01*
X133156446Y-86008631D01*
X133119500Y-86241902D01*
X133119500Y-86478097D01*
X133156446Y-86711368D01*
X133229433Y-86935996D01*
X133336661Y-87146441D01*
X133339203Y-87150589D01*
X133337214Y-87151807D01*
X133357375Y-87208662D01*
X133341418Y-87276685D01*
X133291217Y-87325282D01*
X133233564Y-87339500D01*
X129011889Y-87339500D01*
X128944850Y-87319815D01*
X128899095Y-87267011D01*
X128889151Y-87197853D01*
X128918176Y-87134297D01*
X128924208Y-87127819D01*
X133235208Y-82816819D01*
X133296531Y-82783334D01*
X133322889Y-82780500D01*
X134738097Y-82780500D01*
X134971368Y-82743553D01*
X135195992Y-82670568D01*
X135406433Y-82563343D01*
X135597510Y-82424517D01*
X135764517Y-82257510D01*
X135903343Y-82066433D01*
X136010568Y-81855992D01*
X136083553Y-81631368D01*
X136120500Y-81398097D01*
X136120500Y-81161902D01*
X136083553Y-80928631D01*
X136010566Y-80704003D01*
X135903342Y-80493566D01*
X135764517Y-80302490D01*
X135597510Y-80135483D01*
X135406433Y-79996657D01*
X135195996Y-79889433D01*
X134971368Y-79816446D01*
X134738097Y-79779500D01*
X134738092Y-79779500D01*
X132531908Y-79779500D01*
X132531903Y-79779500D01*
X132298631Y-79816446D01*
X132074003Y-79889433D01*
X131863565Y-79996657D01*
X131672488Y-80135484D01*
X131672487Y-80135485D01*
X124504792Y-87303181D01*
X124443469Y-87336666D01*
X124417111Y-87339500D01*
X118397259Y-87339500D01*
X118330220Y-87319815D01*
X118292562Y-87281942D01*
X118276948Y-87257337D01*
X118276945Y-87257334D01*
X118076393Y-87014909D01*
X118076391Y-87014907D01*
X117847031Y-86799523D01*
X117847021Y-86799515D01*
X117592495Y-86614591D01*
X117592488Y-86614586D01*
X117592484Y-86614584D01*
X117316766Y-86463006D01*
X117316763Y-86463004D01*
X117316758Y-86463002D01*
X117316757Y-86463001D01*
X117024228Y-86347181D01*
X117024225Y-86347180D01*
X116719476Y-86268934D01*
X116719463Y-86268932D01*
X116407329Y-86229500D01*
X116407318Y-86229500D01*
X116092682Y-86229500D01*
X116092670Y-86229500D01*
X115780536Y-86268932D01*
X115780523Y-86268934D01*
X115475774Y-86347180D01*
X115475771Y-86347181D01*
X115183242Y-86463001D01*
X115183241Y-86463002D01*
X114907516Y-86614584D01*
X114907504Y-86614591D01*
X114652978Y-86799515D01*
X114652968Y-86799523D01*
X114423608Y-87014907D01*
X114423606Y-87014909D01*
X114223054Y-87257334D01*
X114223051Y-87257338D01*
X114054464Y-87522990D01*
X114054461Y-87522996D01*
X113920499Y-87807678D01*
X113920497Y-87807683D01*
X113823270Y-88106916D01*
X113764311Y-88415988D01*
X113764310Y-88415995D01*
X113744556Y-88729994D01*
X110850500Y-88729994D01*
X110850500Y-78694500D01*
X110870185Y-78627461D01*
X110922989Y-78581706D01*
X110974500Y-78570500D01*
X155315500Y-78570500D01*
X155382539Y-78590185D01*
G37*
%TD.AperFunction*%
%TD*%
M02*
